<svg width="35" height="35" viewBox="0 0 35 35" fill="none" xmlns="http://www.w3.org/2000/svg">
<path d="M30.3172 28.5703L17.9214 19.8203C17.6693 19.6421 17.3322 19.6421 17.08 19.8203L4.68419 28.5703C4.49025 28.7069 4.37486 28.9294 4.375 29.1667V29.8959C4.37493 30.2986 4.70142 30.6251 5.10412 30.6251H29.8958C30.2985 30.6251 30.625 30.2986 30.625 29.8959V29.1667C30.6254 28.9298 30.5106 28.7072 30.3172 28.5703Z" fill="#E1E1E1"/>
<path d="M17.9214 19.8202L5.52563 11.0702C5.19702 10.8374 4.74189 10.9151 4.50912 11.2437C4.42155 11.3673 4.37466 11.5151 4.375 11.6666V29.1666C4.37418 29.5693 4.70005 29.8964 5.10276 29.8972C5.25424 29.8975 5.40203 29.8506 5.52563 29.7631L17.9214 21.0131C18.2504 20.7809 18.3289 20.326 18.0967 19.9969C18.0487 19.9289 17.9894 19.8697 17.9214 19.8217V19.8202Z" fill="white"/>
<path d="M30.231 11.0191C29.9886 10.8952 29.6977 10.9148 29.4741 11.0701L17.0783 19.8201C16.7493 20.0523 16.6708 20.5073 16.903 20.8363C16.951 20.9043 17.0103 20.9636 17.0783 21.0116L29.4741 29.7616C29.8027 29.9943 30.2579 29.9166 30.4906 29.588C30.5779 29.4648 30.6247 29.3176 30.6247 29.1666V11.6666C30.6247 11.3941 30.4729 11.1444 30.231 11.0191Z" fill="#EEEEEE"/>
<path d="M32.0472 4.87669C31.9489 4.57734 31.6696 4.375 31.3546 4.375H3.64618C3.24348 4.375 2.91699 4.70148 2.91699 5.10419C2.91699 5.33367 3.02507 5.54982 3.20868 5.6875L17.0629 15.8958C17.32 16.0852 17.6705 16.0852 17.9277 15.8958L31.7818 5.6875C32.0357 5.50259 32.1426 5.1759 32.0472 4.87669Z" fill="white"/>
<path d="M31.3542 4.375C31.1964 4.375 31.0429 4.4262 30.9167 4.52081L17.5 14.4069L4.08331 4.52081C3.95712 4.4262 3.80358 4.375 3.64581 4.375C1.63229 4.375 0 6.00729 0 8.02081V26.9791C0 28.9927 1.63229 30.625 3.64581 30.625H5.10412C5.50683 30.625 5.83331 30.2985 5.83331 29.8958V13.0739L17.0785 21.0131C17.3307 21.1913 17.6678 21.1913 17.9199 21.0131L29.1666 13.0739V29.8958C29.1666 30.2985 29.4931 30.625 29.8958 30.625H31.3541C33.3677 30.625 35 28.9927 35 26.9792V8.02081C35 6.00729 33.3677 4.375 31.3542 4.375Z" fill="#F44336"/>
</svg>
