<svg width="35" height="25" viewBox="0 0 35 25" fill="none" xmlns="http://www.w3.org/2000/svg">
<path d="M0.761328 21.0663C1.47591 23.6009 3.66195 24.0646 3.80779 24.1536C7.4055 25.1336 27.5713 25.1365 31.223 24.1536C33.724 23.4303 34.1834 21.2121 34.2695 21.0663C35.2217 16 35.2845 9.39525 34.2257 3.6465L34.2695 3.93233C33.5549 1.39775 31.3688 0.934 31.223 0.845042C27.6734 -0.118917 7.45508 -0.155375 3.80779 0.845042C1.30674 1.56983 0.84737 3.7865 0.761328 3.93233C-0.258047 9.25671 -0.309089 15.3657 0.761328 21.0663ZM14.0117 17.8244V7.18879L23.1497 12.5146L14.0117 17.8244Z" fill="#E53935"/>
</svg>
