<svg xmlns="http://www.w3.org/2000/svg" viewBox="0 0 24 24">
    <path d="M 14.503906 24 C 15.308594 24 16.007812 23.300781 16.007812 22.496094 L 16.007812 18.988281 L 17.011719 18.988281 C 17.613281 18.988281 18.015625 18.589844 18.015625 17.984375 L 18.015625 7.964844 L 5.984375 7.964844 L 5.984375 17.988281 C 5.984375 18.589844 6.386719 18.988281 6.988281 18.988281 L 7.992188 18.988281 L 7.992188 22.496094 C 7.992188 23.300781 8.691406 24 9.496094 24 C 10.296875 24 10.996094 23.300781 10.996094 22.496094 L 10.996094 18.988281 L 13.003906 18.988281 L 13.003906 22.496094 C 13.003906 23.300781 13.703125 24 14.503906 24 Z M 14.503906 24 "/>
    <path d="M 20.519531 17.988281 C 21.320312 17.988281 22.019531 17.285156 22.019531 16.484375 L 22.019531 9.46875 C 22.019531 8.667969 21.320312 7.964844 20.519531 7.964844 C 19.714844 7.964844 19.015625 8.667969 19.015625 9.46875 L 19.015625 16.484375 C 19.015625 17.285156 19.714844 17.988281 20.519531 17.988281 Z M 20.519531 17.988281 "/>
    <path d="M 3.480469 17.988281 C 4.285156 17.988281 4.984375 17.285156 4.984375 16.484375 L 4.984375 9.46875 C 4.984375 8.667969 4.285156 7.964844 3.480469 7.964844 C 2.679688 7.964844 1.980469 8.667969 1.980469 9.46875 L 1.980469 16.484375 C 1.980469 17.285156 2.679688 17.988281 3.480469 17.988281 Z M 3.480469 17.988281 "/>
    <path d="M 16.808594 0.152344 C 16.609375 -0.0507812 16.3125 -0.0507812 16.109375 0.152344 L 14.765625 1.492188 L 14.703125 1.554688 C 13.90625 1.15625 13.011719 0.957031 12.015625 0.953125 C 12.011719 0.953125 12.003906 0.953125 12 0.953125 C 11.996094 0.953125 11.992188 0.953125 11.984375 0.953125 C 10.988281 0.957031 10.09375 1.15625 9.296875 1.554688 L 9.234375 1.492188 L 7.890625 0.152344 C 7.6875 -0.0507812 7.390625 -0.0507812 7.191406 0.152344 C 6.988281 0.351562 6.988281 0.648438 7.191406 0.851562 L 8.492188 2.152344 C 8.070312 2.433594 7.691406 2.773438 7.359375 3.167969 C 6.570312 4.105469 6.066406 5.324219 5.996094 6.648438 C 5.996094 6.664062 5.992188 6.675781 5.992188 6.691406 C 5.988281 6.78125 5.984375 6.871094 5.984375 6.960938 L 18.015625 6.960938 C 18.015625 6.871094 18.011719 6.78125 18.007812 6.691406 C 18.007812 6.675781 18.003906 6.664062 18.003906 6.648438 C 17.933594 5.324219 17.429688 4.105469 16.636719 3.167969 C 16.308594 2.773438 15.925781 2.433594 15.507812 2.152344 L 16.808594 0.851562 C 17.011719 0.648438 17.011719 0.351562 16.808594 0.152344 Z M 9.492188 5.210938 C 9.078125 5.210938 8.742188 4.875 8.742188 4.460938 C 8.742188 4.042969 9.078125 3.707031 9.492188 3.707031 C 9.90625 3.707031 10.246094 4.042969 10.246094 4.460938 C 10.246094 4.875 9.90625 5.210938 9.492188 5.210938 Z M 14.507812 5.210938 C 14.09375 5.210938 13.753906 4.875 13.753906 4.460938 C 13.753906 4.042969 14.09375 3.707031 14.507812 3.707031 C 14.921875 3.707031 15.257812 4.042969 15.257812 4.460938 C 15.257812 4.875 14.921875 5.210938 14.507812 5.210938 Z M 14.507812 5.210938 "/>
</svg>
