<?xml version="1.0" encoding="UTF-8"?>
<svg xmlns="http://www.w3.org/2000/svg" xmlns:xlink="http://www.w3.org/1999/xlink" width="24pt" height="24pt" viewBox="0 0 24 24" version="1.1">
<g id="surface1">
<path style=" stroke:none;fill-rule:nonzero;fill:rgb(0%,0%,0%);fill-opacity:1;" d="M 11.953125 9.46875 C 12.472656 9.46875 12.890625 9.886719 12.890625 10.40625 C 12.890625 10.925781 12.472656 11.34375 11.953125 11.34375 C 11.433594 11.34375 11.015625 10.925781 11.015625 10.40625 C 11.015625 9.886719 11.433594 9.46875 11.953125 9.46875 Z M 15.234375 10.40625 C 15.234375 10.925781 15.652344 11.34375 16.171875 11.34375 C 16.691406 11.34375 17.109375 10.925781 17.109375 10.40625 C 17.109375 9.886719 16.691406 9.46875 16.171875 9.46875 C 15.652344 9.46875 15.234375 9.886719 15.234375 10.40625 Z M 6.796875 10.40625 C 6.796875 10.925781 7.214844 11.34375 7.734375 11.34375 C 8.253906 11.34375 8.671875 10.925781 8.671875 10.40625 C 8.671875 9.886719 8.253906 9.46875 7.734375 9.46875 C 7.214844 9.46875 6.796875 9.886719 6.796875 10.40625 Z M 23.175781 19.199219 C 24.273438 20.296875 24.273438 22.078125 23.175781 23.175781 C 22.628906 23.722656 21.90625 24 21.1875 24 C 20.46875 24 19.746094 23.722656 19.199219 23.175781 L 14.050781 18.042969 C 13.941406 17.933594 13.863281 17.796875 13.816406 17.648438 L 12.695312 13.960938 C 12.597656 13.632812 12.683594 13.277344 12.921875 13.03125 C 13.160156 12.789062 13.515625 12.691406 13.84375 12.785156 L 17.628906 13.832031 C 17.785156 13.875 17.925781 13.957031 18.039062 14.070312 Z M 15.542969 16.878906 L 19.015625 20.34375 L 20.34375 19.019531 L 16.890625 15.574219 L 14.984375 15.046875 Z M 21.851562 20.523438 L 21.667969 20.34375 L 20.34375 21.667969 L 20.523438 21.847656 C 20.890625 22.214844 21.484375 22.214844 21.851562 21.851562 C 22.214844 21.484375 22.214844 20.890625 21.851562 20.523438 Z M 12.519531 19.425781 C 12.347656 19.433594 12.171875 19.4375 12 19.4375 C 10.492188 19.4375 9.042969 19.15625 7.6875 18.605469 C 7.457031 18.511719 7.195312 18.511719 6.96875 18.609375 L 2.699219 20.410156 L 4.136719 17.003906 C 4.277344 16.671875 4.214844 16.285156 3.972656 16.015625 C 2.601562 14.472656 1.875 12.628906 1.875 10.679688 C 1.875 5.824219 6.417969 1.875 12 1.875 C 17.582031 1.875 22.125 5.824219 22.125 10.679688 C 22.125 11.832031 21.84375 12.988281 21.285156 14.117188 C 21.054688 14.578125 21.246094 15.140625 21.710938 15.371094 C 22.171875 15.601562 22.734375 15.410156 22.964844 14.945312 C 23.652344 13.558594 24 12.121094 24 10.679688 C 24 4.792969 18.617188 0 12 0 C 5.382812 0 0 4.792969 0 10.679688 C 0 12.902344 0.753906 15.007812 2.1875 16.804688 L 0.0742188 21.808594 C -0.0742188 22.160156 0.00390625 22.566406 0.273438 22.835938 C 0.453125 23.015625 0.695312 23.109375 0.9375 23.109375 C 1.058594 23.109375 1.183594 23.085938 1.300781 23.035156 L 7.34375 20.484375 C 8.820312 21.035156 10.382812 21.3125 12 21.3125 C 12.199219 21.3125 12.402344 21.308594 12.601562 21.300781 C 13.121094 21.277344 13.523438 20.839844 13.5 20.324219 C 13.476562 19.804688 13.039062 19.402344 12.519531 19.425781 Z M 12.519531 19.425781 "/>
</g>
</svg>
