<svg xmlns="http://www.w3.org/2000/svg" viewBox="0 0 24 24">
    <path d="M 22.25 5.007812 L 15.78125 5.007812 C 16.179688 4.820312 16.511719 4.617188 16.71875 4.410156 C 16.980469 4.148438 17.179688 3.839844 17.320312 3.507812 C 17.441406 3.199219 17.5 2.867188 17.5 2.527344 C 17.5 1.828125 17.21875 1.160156 16.71875 0.660156 C 16.21875 0.160156 15.539062 -0.0898438 14.851562 -0.0898438 C 14.160156 -0.0898438 13.480469 0.160156 12.980469 0.660156 C 12.609375 1.019531 12.28125 1.777344 12 2.578125 C 11.71875 1.777344 11.390625 1.019531 11.019531 0.660156 C 10.019531 -0.339844 8.28125 -0.339844 7.28125 0.660156 C 6.78125 1.160156 6.5 1.828125 6.5 2.527344 C 6.5 2.867188 6.558594 3.199219 6.691406 3.507812 C 6.820312 3.839844 7.019531 4.148438 7.28125 4.410156 C 7.488281 4.617188 7.820312 4.820312 8.21875 5.007812 L 1.75 5.007812 C 0.789062 5.007812 0 5.800781 0 6.757812 L 0 10.257812 C 0 11.21875 0.789062 12.007812 1.75 12.007812 L 22.25 12.007812 C 23.210938 12.007812 24 11.21875 24 10.257812 L 24 6.757812 C 24 5.800781 23.210938 5.007812 22.25 5.007812 Z M 8.339844 3.347656 C 8.121094 3.128906 8 2.839844 8 2.527344 C 8 2.230469 8.121094 1.9375 8.339844 1.71875 C 8.550781 1.5 8.839844 1.390625 9.148438 1.390625 C 9.460938 1.390625 9.75 1.5 9.960938 1.71875 C 10.171875 1.929688 10.449219 2.640625 10.71875 3.507812 C 10.808594 3.777344 10.890625 4.070312 10.96875 4.359375 C 9.980469 4.078125 9.03125 3.757812 8.570312 3.507812 C 8.46875 3.449219 8.390625 3.398438 8.339844 3.347656 Z M 14.039062 1.71875 C 14.25 1.5 14.539062 1.390625 14.851562 1.390625 C 15.160156 1.390625 15.449219 1.5 15.660156 1.71875 C 15.878906 1.9375 16 2.230469 16 2.527344 C 16 2.839844 15.878906 3.128906 15.660156 3.347656 C 15.609375 3.398438 15.53125 3.449219 15.429688 3.507812 C 14.96875 3.757812 14.019531 4.078125 13.03125 4.359375 C 13.109375 4.070312 13.191406 3.777344 13.28125 3.507812 C 13.371094 3.210938 13.46875 2.929688 13.558594 2.679688 C 13.738281 2.210938 13.898438 1.847656 14.039062 1.71875 Z M 12 8.660156 L 10.171875 9.878906 C 9.820312 10.109375 9.359375 10.019531 9.128906 9.679688 C 8.898438 9.328125 8.988281 8.867188 9.328125 8.640625 L 11.578125 7.140625 C 11.839844 6.96875 12.160156 6.96875 12.421875 7.140625 L 14.671875 8.640625 C 15.011719 8.867188 15.101562 9.328125 14.871094 9.679688 C 14.730469 9.890625 14.488281 10.007812 14.25 10.007812 C 14.109375 10.007812 13.960938 9.96875 13.828125 9.878906 Z M 12 8.660156 "/>
    <path d="M 15 13.507812 L 15 19.257812 C 15 19.539062 14.851562 19.789062 14.601562 19.917969 C 14.488281 19.980469 14.371094 20.007812 14.25 20.007812 C 14.101562 20.007812 13.960938 19.96875 13.828125 19.878906 L 12 18.660156 L 10.171875 19.878906 C 9.941406 20.039062 9.640625 20.050781 9.398438 19.917969 C 9.148438 19.789062 9 19.539062 9 19.257812 L 9 13.507812 L 2 13.507812 L 2 21.257812 C 2 22.777344 3.230469 24.007812 4.75 24.007812 L 19.25 24.007812 C 20.769531 24.007812 22 22.777344 22 21.257812 L 22 13.507812 Z M 15 13.507812 "/>
</svg>
