<svg xmlns="http://www.w3.org/2000/svg" viewBox="0 0 22 23">
    <path d="M 10.160156 22.28125 C 10.394531 22.457031 10.695312 22.542969 11 22.542969 C 11.304688 22.542969 11.609375 22.457031 11.839844 22.28125 L 21.378906 15.0625 C 21.71875 14.804688 21.820312 14.421875 21.636719 14.085938 C 21.453125 13.75 21.019531 13.53125 20.539062 13.53125 L 16.957031 13.53125 L 16.957031 5.226562 C 16.957031 4.730469 16.425781 4.328125 15.769531 4.328125 L 6.230469 4.328125 C 5.574219 4.328125 5.042969 4.730469 5.042969 5.226562 L 5.042969 13.53125 L 1.460938 13.53125 C 0.980469 13.53125 0.550781 13.75 0.367188 14.085938 C 0.183594 14.421875 0.285156 14.804688 0.625 15.0625 Z M 6.230469 15.328125 C 6.886719 15.328125 7.417969 14.925781 7.417969 14.429688 L 7.417969 6.125 L 14.582031 6.125 L 14.582031 14.429688 C 14.582031 14.925781 15.113281 15.328125 15.769531 15.328125 L 17.671875 15.328125 L 11 20.375 L 4.328125 15.328125 Z M 6.230469 15.328125 "/>
    <path d="M 6.230469 2.515625 L 15.769531 2.515625 C 16.425781 2.515625 16.957031 2.113281 16.957031 1.617188 C 16.957031 1.121094 16.425781 0.71875 15.769531 0.71875 L 6.230469 0.71875 C 5.578125 0.71875 5.042969 1.121094 5.042969 1.617188 C 5.042969 2.113281 5.578125 2.515625 6.230469 2.515625 Z M 6.230469 2.515625 "/>
</svg>
