<svg xmlns="http://www.w3.org/2000/svg" viewBox="0 0 24 24" >
    <path d="M 2.484375 18.910156 L 2.425781 18.898438 C 1.933594 18.804688 1.457031 19.128906 1.359375 19.621094 C 1.265625 20.113281 1.589844 20.589844 2.082031 20.683594 L 4.816406 21.210938 C 5.46875 21.386719 6.039062 20.824219 5.953125 20.203125 L 5.585938 17.597656 C 5.519531 17.144531 5.128906 16.816406 4.683594 16.816406 C 4.21875 16.816406 3.84375 17.164062 3.785156 17.597656 C 3.320312 16.921875 2.941406 16.183594 2.660156 15.40625 C 0.777344 10.261719 3.425781 4.542969 8.558594 2.65625 C 10.316406 2.011719 12.207031 1.878906 14.027344 2.265625 C 14.515625 2.371094 15 2.058594 15.105469 1.566406 C 15.207031 1.074219 14.894531 0.59375 14.40625 0.488281 C 12.25 0.0273438 10.011719 0.1875 7.933594 0.949219 C 1.84375 3.1875 -1.28125 9.933594 0.953125 16.03125 C 1.328125 17.0625 1.847656 18.03125 2.484375 18.910156 Z M 1.589844 19.925781 C 1.570312 19.839844 1.570312 19.753906 1.589844 19.664062 C 1.660156 19.296875 2.015625 19.054688 2.382812 19.125 L 3.039062 19.25 L 2.382812 19.125 C 2.015625 19.054688 1.660156 19.296875 1.585938 19.664062 C 1.570312 19.753906 1.570312 19.839844 1.589844 19.925781 Z M 4.949219 17.097656 C 4.867188 17.066406 4.777344 17.046875 4.683594 17.046875 C 4.269531 17.046875 3.953125 17.414062 4.011719 17.820312 L 4.09375 18.402344 L 4.011719 17.820312 C 3.953125 17.414062 4.269531 17.046875 4.683594 17.046875 C 4.777344 17.046875 4.867188 17.066406 4.949219 17.097656 Z M 1.167969 15.953125 C 1.214844 16.078125 1.261719 16.203125 1.3125 16.328125 C 1.261719 16.203125 1.214844 16.078125 1.167969 15.953125 C -1.019531 9.972656 2.042969 3.359375 8.011719 1.167969 C 10.050781 0.417969 12.242188 0.261719 14.355469 0.714844 C 14.527344 0.75 14.671875 0.847656 14.765625 0.980469 C 14.671875 0.847656 14.527344 0.75 14.355469 0.714844 C 12.242188 0.261719 10.050781 0.417969 8.011719 1.167969 C 2.042969 3.359375 -1.019531 9.972656 1.167969 15.953125 Z M 21.515625 5.082031 L 21.574219 5.09375 C 22.066406 5.1875 22.542969 4.863281 22.640625 4.371094 C 22.734375 3.878906 22.410156 3.402344 21.917969 3.308594 L 19.183594 2.78125 C 18.53125 2.605469 17.960938 3.167969 18.046875 3.789062 L 18.414062 6.394531 C 18.480469 6.851562 18.867188 7.175781 19.316406 7.175781 C 19.78125 7.175781 20.15625 6.828125 20.214844 6.394531 C 20.679688 7.070312 21.058594 7.808594 21.339844 8.585938 C 23.222656 13.730469 20.574219 19.449219 15.441406 21.335938 C 13.683594 21.980469 11.792969 22.117188 9.972656 21.726562 C 9.484375 21.621094 9 21.933594 8.894531 22.425781 C 8.789062 22.917969 9.105469 23.398438 9.59375 23.503906 C 11.75 23.964844 13.988281 23.804688 16.066406 23.042969 C 22.15625 20.804688 25.28125 14.0625 23.046875 7.960938 C 22.671875 6.929688 22.152344 5.960938 21.515625 5.082031 Z M 22.421875 4.140625 C 22.425781 4.203125 22.425781 4.265625 22.414062 4.328125 C 22.339844 4.695312 21.984375 4.9375 21.617188 4.867188 L 20.960938 4.742188 L 21.617188 4.867188 C 21.984375 4.9375 22.339844 4.695312 22.410156 4.328125 C 22.425781 4.265625 22.425781 4.203125 22.421875 4.140625 Z M 22.71875 7.746094 C 22.757812 7.84375 22.796875 7.941406 22.832031 8.039062 C 25.019531 14.019531 21.957031 20.632812 15.988281 22.824219 C 13.949219 23.574219 11.757812 23.730469 9.644531 23.28125 C 9.582031 23.265625 9.519531 23.242188 9.46875 23.214844 C 9.519531 23.246094 9.582031 23.265625 9.644531 23.28125 C 11.757812 23.730469 13.949219 23.574219 15.988281 22.824219 C 21.957031 20.632812 25.019531 14.019531 22.832031 8.039062 C 22.796875 7.941406 22.757812 7.84375 22.71875 7.746094 Z M 19.90625 5.589844 L 19.988281 6.171875 C 20.042969 6.582031 19.730469 6.945312 19.316406 6.945312 C 19.234375 6.945312 19.15625 6.933594 19.082031 6.90625 C 19.15625 6.933594 19.234375 6.945312 19.316406 6.945312 C 19.730469 6.945312 20.046875 6.582031 19.988281 6.171875 Z M 19.269531 12.039062 C 19.269531 8.027344 16.011719 4.765625 12.007812 4.765625 C 8.003906 4.765625 4.746094 8.027344 4.746094 12.039062 C 4.746094 16.050781 8.003906 19.3125 12.007812 19.3125 C 16.011719 19.3125 19.269531 16.050781 19.269531 12.039062 Z M 6.5625 12.039062 C 6.5625 9.03125 9.007812 6.585938 12.007812 6.585938 C 15.007812 6.585938 17.449219 9.03125 17.449219 12.039062 C 17.449219 15.046875 15.007812 17.496094 12.007812 17.496094 C 9.007812 17.496094 6.5625 15.046875 6.5625 12.039062 Z M 12.917969 8.230469 L 12.917969 8.578125 C 13.507812 8.640625 14.066406 8.921875 14.480469 9.363281 C 14.820312 9.730469 14.800781 10.304688 14.4375 10.648438 C 14.070312 10.992188 13.492188 10.972656 13.152344 10.605469 C 13.015625 10.464844 12.839844 10.386719 12.667969 10.382812 L 11.304688 10.382812 C 11.078125 10.382812 10.921875 10.558594 10.921875 10.757812 C 10.921875 10.964844 11.089844 11.128906 11.292969 11.128906 L 12.71875 11.128906 C 13.929688 11.128906 14.910156 12.113281 14.910156 13.320312 C 14.910156 14.414062 14.101562 15.390625 12.917969 15.503906 L 12.917969 15.847656 C 12.917969 16.351562 12.507812 16.757812 12.007812 16.757812 C 11.503906 16.757812 11.097656 16.351562 11.097656 15.847656 L 11.097656 15.507812 C 10.660156 15.476562 10.246094 15.359375 9.808594 15.058594 C 9.398438 14.769531 9.296875 14.203125 9.582031 13.792969 C 9.867188 13.378906 10.433594 13.277344 10.847656 13.5625 C 10.972656 13.652344 11.105469 13.695312 11.222656 13.695312 L 12.71875 13.695312 C 12.925781 13.695312 13.089844 13.53125 13.089844 13.320312 C 13.089844 13.113281 12.925781 12.949219 12.71875 12.949219 L 11.292969 12.949219 C 10.085938 12.949219 9.105469 11.964844 9.105469 10.757812 C 9.105469 9.664062 9.914062 8.6875 11.097656 8.574219 L 11.097656 8.230469 C 11.097656 7.726562 11.503906 7.320312 12.007812 7.320312 C 12.507812 7.320312 12.917969 7.726562 12.917969 8.230469 Z M 12.917969 8.230469 "/>
</svg>
