<svg xmlns="http://www.w3.org/2000/svg" viewBox="0 0 28 28" >
    <g transform="translate(2, 0)">
        <path d="M 19.476562 11.667969 L 23.640625 6.5625 C 24.265625 5.796875 23.710938 4.667969 22.710938 4.667969 L 12 4.667969 L 12 3.5 C 12 2.855469 11.464844 2.332031 10.808594 2.332031 L 2.476562 2.332031 L 2.476562 1.167969 C 2.476562 0.523438 1.941406 0 1.285156 0 C 0.625 0 0.09375 0.523438 0.09375 1.167969 L 0.09375 26.832031 C 0.09375 27.476562 0.625 28 1.285156 28 C 1.941406 28 2.476562 27.476562 2.476562 26.832031 L 2.476562 14 L 7.441406 14 C 7.308594 14.363281 7.238281 14.757812 7.238281 15.167969 C 7.238281 17.101562 8.835938 18.667969 10.808594 18.667969 L 22.710938 18.667969 C 23.710938 18.667969 24.265625 17.535156 23.640625 16.769531 Z M 2.476562 4.667969 L 9.617188 4.667969 L 9.617188 11.667969 L 2.476562 11.667969 Z M 10.808594 16.332031 C 10.148438 16.332031 9.617188 15.8125 9.617188 15.167969 C 9.617188 14.523438 10.148438 14 10.808594 14 C 11.464844 14 12 13.476562 12 12.832031 L 12 7 L 20.234375 7 L 17.019531 10.9375 C 16.671875 11.363281 16.671875 11.96875 17.019531 12.394531 L 20.234375 16.332031 Z M 10.808594 16.332031 "/>
    </g>
</svg>
