<svg xmlns="http://www.w3.org/2000/svg" viewBox="0 0 35 35" >
    <g transform="translate(5, 0)">
        <path d="M 19.878906 0 L 4.121094 0 C 2.167969 0 0.582031 1.574219 0.582031 3.507812 L 0.582031 31.492188 C 0.582031 33.425781 2.171875 35 4.121094 35 L 19.878906 35 C 21.832031 35 23.417969 33.425781 23.417969 31.492188 L 23.417969 3.507812 C 23.417969 1.574219 21.832031 0 19.878906 0 Z M 4.121094 2.050781 L 19.878906 2.050781 C 20.691406 2.050781 21.347656 2.703125 21.347656 3.507812 L 21.347656 4.117188 L 2.652344 4.117188 L 2.652344 3.507812 C 2.652344 2.703125 3.308594 2.050781 4.121094 2.050781 Z M 21.347656 6.167969 L 21.347656 24.710938 L 2.652344 24.710938 L 2.652344 6.167969 Z M 19.878906 32.949219 L 4.121094 32.949219 C 3.308594 32.949219 2.652344 32.296875 2.652344 31.492188 L 2.652344 26.761719 L 21.347656 26.761719 L 21.347656 31.492188 C 21.347656 32.296875 20.691406 32.949219 19.878906 32.949219 Z M 19.878906 32.949219 "/>
        <path d="M 14.078125 28.832031 L 9.921875 28.832031 C 9.351562 28.832031 8.890625 29.289062 8.890625 29.855469 C 8.890625 30.421875 9.351562 30.882812 9.921875 30.882812 L 14.078125 30.882812 C 14.648438 30.882812 15.109375 30.421875 15.109375 29.855469 C 15.109375 29.289062 14.648438 28.832031 14.078125 28.832031 Z M 14.078125 28.832031 "/>
        <path d="M 14.898438 11.84375 C 12.527344 9.664062 11.988281 8.398438 11.988281 8.398438 C 11.988281 8.398438 11.433594 9.664062 9.074219 11.84375 C 7.171875 13.589844 5.648438 15.003906 5.648438 17.007812 C 5.648438 18.753906 7.0625 20.167969 8.816406 20.167969 C 10.042969 20.167969 11.191406 19.65625 11.742188 18.726562 C 11.566406 19.980469 11.257812 21.863281 10.488281 22.398438 L 13.511719 22.398438 C 12.726562 21.863281 12.433594 19.980469 12.257812 18.726562 C 12.808594 19.644531 13.957031 20.167969 15.183594 20.167969 C 16.9375 20.167969 18.351562 18.753906 18.351562 17.007812 C 18.324219 15.003906 16.800781 13.589844 14.898438 11.84375 Z M 14.898438 11.84375 "/>
    </g>
</svg>
