<?xml version="1.0" encoding="UTF-8"?>
<svg xmlns="http://www.w3.org/2000/svg" xmlns:xlink="http://www.w3.org/1999/xlink" width="24pt" height="24pt" viewBox="0 0 24 24" version="1.1">
<g id="surface1">
<path style=" stroke:none;fill-rule:nonzero;fill:rgb(0%,0%,0%);fill-opacity:1;" d="M 23.175781 7.617188 L 23.175781 4.546875 C 23.175781 2.496094 21.503906 0.824219 19.453125 0.824219 L 16.382812 0.824219 C 15.003906 0.28125 13.523438 0 12 0 C 10.476562 0 8.996094 0.28125 7.617188 0.824219 L 4.546875 0.824219 C 2.496094 0.824219 0.824219 2.496094 0.824219 4.546875 L 0.824219 7.617188 C 0.28125 8.996094 0 10.476562 0 12 C 0 13.523438 0.28125 15.003906 0.824219 16.382812 L 0.824219 19.453125 C 0.824219 21.503906 2.496094 23.175781 4.546875 23.175781 L 7.617188 23.175781 C 8.996094 23.71875 10.476562 24 12 24 C 13.523438 24 15.003906 23.71875 16.382812 23.175781 L 19.453125 23.175781 C 21.503906 23.175781 23.175781 21.503906 23.175781 19.453125 L 23.175781 16.382812 C 23.71875 15.003906 24 13.523438 24 12 C 24 10.476562 23.71875 8.996094 23.175781 7.617188 Z M 19.453125 2.230469 C 20.730469 2.230469 21.769531 3.269531 21.769531 4.546875 L 21.769531 5.03125 C 21.386719 4.496094 20.960938 3.988281 20.484375 3.515625 C 20.011719 3.039062 19.503906 2.613281 18.96875 2.230469 Z M 15.664062 2.054688 C 17.085938 2.578125 18.386719 3.40625 19.492188 4.507812 C 20.59375 5.613281 21.421875 6.914062 21.945312 8.335938 L 17.820312 9.054688 C 17.191406 7.816406 16.183594 6.808594 14.945312 6.179688 Z M 17.117188 12 C 17.117188 14.820312 14.820312 17.117188 12 17.117188 C 9.179688 17.117188 6.882812 14.820312 6.882812 12 C 6.882812 9.179688 9.179688 6.882812 12 6.882812 C 14.820312 6.882812 17.117188 9.179688 17.117188 12 Z M 12 1.40625 C 12.785156 1.40625 13.554688 1.492188 14.304688 1.65625 L 13.605469 5.675781 C 13.09375 5.546875 12.554688 5.476562 12 5.476562 C 11.445312 5.476562 10.90625 5.546875 10.390625 5.675781 L 9.695312 1.65625 C 10.445312 1.492188 11.214844 1.40625 12 1.40625 Z M 2.230469 4.546875 C 2.230469 3.269531 3.269531 2.230469 4.546875 2.230469 L 5.03125 2.230469 C 4.496094 2.613281 3.988281 3.039062 3.515625 3.515625 C 3.039062 3.988281 2.613281 4.496094 2.230469 5.03125 Z M 4.507812 4.507812 C 5.613281 3.40625 6.914062 2.578125 8.335938 2.054688 L 9.054688 6.179688 C 7.816406 6.808594 6.808594 7.816406 6.179688 9.054688 L 2.054688 8.335938 C 2.578125 6.914062 3.40625 5.613281 4.507812 4.507812 Z M 1.65625 14.304688 C 1.492188 13.554688 1.40625 12.785156 1.40625 12 C 1.40625 11.214844 1.492188 10.445312 1.65625 9.695312 L 5.675781 10.394531 C 5.546875 10.90625 5.476562 11.445312 5.476562 12 C 5.476562 12.554688 5.546875 13.09375 5.675781 13.609375 Z M 4.546875 21.769531 C 3.269531 21.769531 2.230469 20.730469 2.230469 19.453125 L 2.230469 18.96875 C 2.613281 19.503906 3.039062 20.011719 3.515625 20.484375 C 3.988281 20.960938 4.496094 21.386719 5.03125 21.769531 Z M 8.335938 21.945312 C 6.914062 21.421875 5.613281 20.59375 4.507812 19.492188 C 3.40625 18.386719 2.578125 17.085938 2.054688 15.664062 L 6.179688 14.945312 C 6.808594 16.183594 7.816406 17.191406 9.054688 17.820312 Z M 12 22.59375 C 11.214844 22.59375 10.445312 22.507812 9.695312 22.34375 L 10.394531 18.324219 C 10.90625 18.453125 11.445312 18.523438 12 18.523438 C 12.554688 18.523438 13.09375 18.453125 13.609375 18.324219 L 14.304688 22.34375 C 13.554688 22.507812 12.785156 22.59375 12 22.59375 Z M 21.769531 19.453125 C 21.769531 20.730469 20.730469 21.769531 19.453125 21.769531 L 18.96875 21.769531 C 19.503906 21.386719 20.011719 20.960938 20.484375 20.484375 C 20.960938 20.011719 21.386719 19.503906 21.769531 18.96875 Z M 19.492188 19.492188 C 18.386719 20.59375 17.085938 21.421875 15.664062 21.945312 L 14.945312 17.820312 C 16.183594 17.191406 17.191406 16.183594 17.820312 14.945312 L 21.945312 15.664062 C 21.421875 17.085938 20.59375 18.386719 19.492188 19.492188 Z M 22.34375 14.304688 L 18.324219 13.605469 C 18.453125 13.09375 18.523438 12.554688 18.523438 12 C 18.523438 11.445312 18.453125 10.90625 18.324219 10.390625 L 22.34375 9.695312 C 22.507812 10.445312 22.59375 11.214844 22.59375 12 C 22.59375 12.785156 22.507812 13.554688 22.34375 14.304688 Z M 22.34375 14.304688 "/>
</g>
</svg>
