<?xml version="1.0" encoding="UTF-8"?>
<svg xmlns="http://www.w3.org/2000/svg" xmlns:xlink="http://www.w3.org/1999/xlink" width="24pt" height="21pt" viewBox="0 0 24 21" version="1.1">
<g id="surface1">
<path style=" stroke:none;fill-rule:nonzero;fill:rgb(0%,0%,0%);fill-opacity:1;" d="M 23.628906 0.9375 C 23.335938 0.582031 22.898438 0.386719 22.394531 0.386719 C 22.117188 0.386719 21.828125 0.441406 21.53125 0.558594 L 1.214844 8.269531 C 0.136719 8.675781 -0.0078125 9.289062 0 9.621094 C 0.0078125 9.949219 0.191406 10.554688 1.289062 10.902344 C 1.296875 10.90625 1.300781 10.90625 1.308594 10.910156 L 5.523438 12.109375 L 7.800781 18.585938 C 8.113281 19.46875 8.808594 20.019531 9.621094 20.019531 C 10.132812 20.019531 10.636719 19.804688 11.078125 19.402344 L 13.6875 17.015625 L 17.464844 20.042969 C 17.46875 20.042969 17.46875 20.042969 17.46875 20.042969 L 17.503906 20.074219 C 17.507812 20.074219 17.511719 20.078125 17.515625 20.082031 C 17.933594 20.40625 18.394531 20.574219 18.839844 20.574219 C 19.714844 20.574219 20.414062 19.929688 20.617188 18.933594 L 23.945312 2.589844 C 24.078125 1.9375 23.964844 1.347656 23.628906 0.9375 Z M 6.933594 11.878906 L 15.0625 7.75 L 10 13.097656 C 9.917969 13.1875 9.859375 13.292969 9.828125 13.410156 L 8.855469 17.339844 Z M 10.125 18.375 C 10.09375 18.40625 10.058594 18.433594 10.023438 18.457031 L 10.929688 14.808594 L 12.578125 16.128906 Z M 22.566406 2.3125 L 19.238281 18.65625 C 19.207031 18.8125 19.105469 19.175781 18.839844 19.175781 C 18.710938 19.175781 18.546875 19.105469 18.378906 18.980469 L 14.097656 15.550781 C 14.09375 15.546875 14.09375 15.546875 14.09375 15.546875 L 11.546875 13.507812 L 18.867188 5.773438 C 19.101562 5.523438 19.121094 5.144531 18.917969 4.875 C 18.710938 4.601562 18.339844 4.515625 18.035156 4.671875 L 5.992188 10.785156 L 1.722656 9.570312 L 22.03125 1.863281 C 22.203125 1.796875 22.324219 1.785156 22.394531 1.785156 C 22.4375 1.785156 22.511719 1.789062 22.539062 1.824219 C 22.578125 1.871094 22.625 2.023438 22.566406 2.3125 Z M 22.566406 2.3125 "/>
</g>
</svg>
