<svg xmlns="http://www.w3.org/2000/svg" viewBox="0 0 24 24">
    <path d="M 11.996094 12.816406 C 15.519531 12.816406 18.433594 10.011719 18.433594 6.4375 C 18.433594 2.863281 15.519531 0.00390625 11.996094 0.00390625 C 8.476562 0.00390625 5.5625 2.808594 5.5625 6.382812 C 5.5625 9.957031 8.476562 12.816406 11.996094 12.816406 Z M 11.996094 1.996094 C 14.445312 1.996094 16.4375 3.988281 16.4375 6.386719 C 16.4375 8.789062 14.445312 10.777344 11.996094 10.777344 C 9.550781 10.777344 7.554688 8.78125 7.554688 6.382812 C 7.554688 3.984375 9.550781 1.996094 11.996094 1.996094 Z M 11.996094 1.996094 "/>
    <path d="M 16.335938 13.429688 C 15.929688 13.328125 15.519531 13.429688 15.265625 13.738281 L 11.996094 17.464844 L 8.730469 13.738281 C 8.476562 13.429688 8.015625 13.332031 7.660156 13.429688 C 3.011719 14.960938 0 18.738281 0 22.972656 C 0 23.539062 0.460938 23.996094 1.023438 23.996094 L 22.976562 23.996094 C 23.539062 23.996094 24 23.539062 24 22.972656 C 23.996094 18.738281 20.984375 14.960938 16.335938 13.429688 Z M 2.089844 22.003906 C 2.503906 19.199219 4.542969 16.800781 7.707031 15.574219 L 11.28125 19.660156 C 11.640625 20.121094 12.402344 20.121094 12.761719 19.660156 L 16.335938 15.574219 C 19.449219 16.800781 21.546875 19.246094 21.953125 22.003906 Z M 2.089844 22.003906 "/>
</svg>
