<svg width="68" height="68" viewBox="0 0 68 68" fill="none" xmlns="http://www.w3.org/2000/svg">
<g clip-path="url(#clip0)">
<circle cx="34.0004" cy="34.3455" r="20.1818" fill="white"/>
<path d="M34.0004 0.709106C15.4098 0.709106 0.364014 15.7531 0.364014 34.3455C0.364014 52.9361 15.4077 67.9818 34.0004 67.9818C52.591 67.9818 67.6367 52.9378 67.6367 34.3455C67.6367 15.7548 52.5927 0.709106 34.0004 0.709106ZM46.1197 38.0794L30.314 47.212C28.9807 47.9825 27.3366 47.9838 26.001 47.2132C24.6663 46.443 23.8442 45.0191 23.8442 43.4783V25.2128C23.8442 23.6718 24.6664 22.2481 26.001 21.4779C26.6679 21.0929 27.4123 20.9004 28.1566 20.9004C28.9016 20.9004 29.6467 21.0933 30.314 21.4788L46.1199 30.6114C47.4533 31.3819 48.2747 32.8052 48.2747 34.3453C48.2747 35.8857 47.4532 37.3088 46.1197 38.0794Z" fill="url(#paint0_linear)"/>
</g>
<defs>
<linearGradient id="paint0_linear" x1="34.0004" y1="0.709106" x2="34.0004" y2="67.9818" gradientUnits="userSpaceOnUse">
<stop stop-color="#FF1469"/>
<stop offset="1" stop-color="#AB1D1D"/>
</linearGradient>
<clipPath id="clip0">
<rect width="67.2727" height="67.2727" fill="white" transform="translate(0.364014 0.709106)"/>
</clipPath>
</defs>
</svg>
