<svg width="86" height="19" viewBox="0 0 86 19" fill="none" xmlns="http://www.w3.org/2000/svg">
<g clip-path="url(#clip0)">
<path d="M26.8426 2.97527C26.5257 1.80952 25.5928 0.887363 24.4134 0.574176C22.2835 0 13.7112 0 13.7112 0C13.7112 0 5.13884 0.0173993 3.00895 0.591575C1.82959 0.904762 0.896665 1.82692 0.579822 2.99267C-0.0714653 6.73352 -0.317898 12.4405 0.597425 16.0247C0.914267 17.1905 1.84719 18.1126 3.02655 18.4258C5.15644 19 13.7288 19 13.7288 19C13.7288 19 22.3011 19 24.431 18.4258C25.6104 18.1126 26.5433 17.1905 26.8602 16.0247C27.5291 12.2839 27.7403 6.57692 26.8426 2.97527Z" fill="url(#paint0_linear)"/>
<path d="M10.9839 13.5715L18.0952 9.50008L10.9839 5.42865V13.5715Z" fill="white"/>
<path d="M39.799 17.2777C39.2533 16.9123 38.866 16.3555 38.6372 15.59C38.4084 14.8244 38.3028 13.8152 38.3028 12.5451V10.8226C38.3028 9.55242 38.426 8.50846 38.69 7.74289C38.954 6.95993 39.3589 6.40315 39.9222 6.05516C40.4854 5.70718 41.2071 5.51579 42.1049 5.51579C42.985 5.51579 43.7067 5.68978 44.2348 6.05516C44.7628 6.42055 45.1677 6.97732 45.4141 7.74289C45.6605 8.50846 45.7838 9.53502 45.7838 10.8052V12.5277C45.7838 13.7978 45.6605 14.807 45.4141 15.5726C45.1677 16.3381 44.7804 16.8949 44.2348 17.2603C43.6891 17.6083 42.9498 17.7997 42.0345 17.7997C41.0839 17.8171 40.3446 17.6257 39.799 17.2777ZM42.8442 15.416C43.0026 15.0332 43.073 14.3894 43.073 13.5194V9.81341C43.073 8.96084 43.0026 8.33447 42.8442 7.95168C42.6857 7.5515 42.4217 7.36011 42.0521 7.36011C41.6824 7.36011 41.436 7.5515 41.2776 7.95168C41.1191 8.35187 41.0487 8.96084 41.0487 9.81341V13.5194C41.0487 14.3894 41.1191 15.0332 41.26 15.416C41.4008 15.7988 41.6648 15.9901 42.0521 15.9901C42.4217 15.9901 42.6857 15.7988 42.8442 15.416ZM81.4286 12.5799V13.1889L81.499 14.9114C81.5518 15.2942 81.6398 15.5726 81.7806 15.7466C81.9214 15.9205 82.1503 16.0075 82.4495 16.0075C82.8544 16.0075 83.136 15.851 83.2768 15.5378C83.4352 15.2246 83.5056 14.7026 83.5232 13.9892L85.8644 14.1284C85.882 14.2328 85.882 14.372 85.882 14.546C85.882 15.6422 85.5827 16.4599 84.9666 16.9993C84.3506 17.5387 83.5056 17.8171 82.3967 17.8171C81.0589 17.8171 80.126 17.3995 79.5979 16.5817C79.0698 15.764 78.7882 14.4764 78.7882 12.7539V10.6486C78.841 7.6907 79.3691 5.53319 82.4671 5.51579C83.4 5.51579 84.1041 5.68978 84.597 6.02036C85.0899 6.35095 85.4419 6.87293 85.6531 7.5863C85.8644 8.29967 85.9524 9.27403 85.9524 10.5268V12.5625L81.4286 12.5799ZM81.7806 7.5689C81.6398 7.74289 81.5518 8.00388 81.499 8.38667C81.4462 8.76945 81.4286 10.1266 81.4286 10.1266V10.9792H83.4V10.1266C83.4 10.9792 83.3824 8.78685 83.3296 8.38667C83.2768 7.98648 83.1888 7.70809 83.048 7.5515C82.9072 7.39491 82.6959 7.30791 82.4143 7.30791C82.1151 7.32531 81.9038 7.41231 81.7806 7.5689ZM33.2157 12.3537L30.1353 1.35736H32.8284C32.8284 1.35736 34.0782 6.87293 34.5182 9.46542H34.5887C35.0815 6.71634 36.3137 1.35736 36.3137 1.35736H39.0069L35.8912 12.3363V17.6083H33.2333V12.3537H33.2157Z" fill="white"/>
<path d="M54.5147 5.74182V17.6255H52.4024L52.1736 16.164H52.1208C51.5399 17.2601 50.6774 17.8169 49.5332 17.8169C47.4561 17.8169 47.2273 16.077 47.2097 14.6154V5.74182H49.9205V14.4589C49.9205 14.9808 49.9733 15.3636 50.0965 15.5898C50.3429 16.077 50.9942 15.9552 51.3463 15.7116C51.5575 15.5724 51.7159 15.3984 51.8215 15.1722V5.74182H54.5147Z" fill="white"/>
<path d="M61.8724 3.51478H59.1792V17.6256H56.5389V3.51478H53.8457V1.35727H61.8548L61.8724 3.51478ZM77.3449 7.6384C77.1864 6.89023 76.9224 6.35086 76.5528 6.00287C76.1831 5.67228 75.6902 5.49829 75.039 5.49829C74.5461 5.49829 74.0532 5.63749 73.6484 5.91587C73.2083 6.19426 72.8915 6.55965 72.645 7.01203H72.6274V0.748291H70.0223V17.6082H72.2578L72.5394 16.4772H72.5922C72.8035 16.8774 73.1379 17.208 73.5252 17.4342C73.9476 17.6604 74.4053 17.7822 74.9157 17.7822C75.8311 17.7822 76.5 17.3646 76.94 16.5294C77.3625 15.6943 77.5913 14.3893 77.5913 12.632V10.7529C77.5913 9.43053 77.5033 8.38657 77.3449 7.6384ZM74.8629 12.4928C74.8629 13.3628 74.8277 14.0413 74.7573 14.5285C74.6869 15.0157 74.5637 15.3637 74.3877 15.5725C74.2116 15.7813 73.9828 15.8857 73.7012 15.8857C73.1555 15.8683 72.8387 15.6247 72.6274 15.2593V8.50837C72.7154 8.17778 72.8739 7.91679 73.1027 7.708C73.4899 7.27302 74.1588 7.27302 74.4581 7.708C74.6165 7.91679 74.7045 8.28217 74.7749 8.78675C74.8277 9.29133 74.8629 10.0047 74.8629 10.9443V12.4928Z" fill="white"/>
<path d="M68.4029 5.74182V17.6255H66.2906L66.0618 16.164H66.009C65.4281 17.2601 64.5656 17.8169 63.4214 17.8169C61.3443 17.8169 61.1155 16.077 61.0979 14.6154V5.74182H63.8087V14.4589C63.8087 14.9808 63.8615 15.3636 63.9847 15.5898C64.2311 16.077 64.8824 15.9552 65.2345 15.7116C65.4457 15.5724 65.6041 15.3984 65.7097 15.1722V5.74182H68.4029Z" fill="white"/>
</g>
<defs>
<linearGradient id="paint0_linear" x1="13.7196" y1="0" x2="13.7196" y2="19" gradientUnits="userSpaceOnUse">
<stop stop-color="#E23355"/>
<stop offset="1" stop-color="#AF2D46"/>
</linearGradient>
<clipPath id="clip0">
<rect width="85.9524" height="19" fill="white"/>
</clipPath>
</defs>
</svg>
