<svg width="112" height="60" viewBox="0 0 112 60" fill="none" xmlns="http://www.w3.org/2000/svg">
<path d="M19.5997 16.3293C19.8926 15.9621 20.046 15.3067 20.0553 14.3631C20.0646 13.4009 19.9251 12.7826 19.6369 12.5084C19.4556 12.3364 19.1581 12.2481 18.749 12.2481C18.5119 12.2481 18.2376 12.276 17.9262 12.3364C17.1126 12.4898 16.7035 12.5688 15.89 12.7269C15.876 14.3212 15.8621 15.9109 15.8481 17.5053C16.6617 17.3426 17.0708 17.2682 17.8843 17.1148C18.7304 16.9568 19.3069 16.6965 19.5997 16.3293Z" fill="#626A90"/>
<path d="M54.1642 47.2403C54.0991 47.3473 54.0527 47.417 54.0201 47.4402C53.955 47.5471 53.876 47.7191 53.8295 47.919C53.7505 48.263 53.797 48.6069 53.9271 48.8719C54.0527 49.1322 54.2944 49.2623 54.6431 49.2577C54.9638 49.2531 55.359 49.1229 55.8378 48.8672C56.3166 48.6116 56.8884 48.1746 57.5625 47.5657C57.8507 47.245 58.1343 46.8778 58.4225 46.4501C58.7108 46.0271 59.0269 45.5623 59.3802 45.0603C58.3389 45.3067 57.3022 45.5577 56.2701 45.8412C55.3125 46.1015 54.6105 46.5663 54.1642 47.2403Z" fill="#626A90"/>
<path d="M44.578 33.263C44.4014 33.0074 44.141 32.8911 43.7877 32.9144C43.4391 32.9376 43.03 33.0957 42.5697 33.3885C42.1095 33.686 41.5563 34.188 40.9241 34.8946C39.6131 36.7167 38.4044 38.6178 37.2747 40.5376C36.0707 42.5875 34.941 44.7117 33.8672 46.8499C33.6115 47.3798 33.3651 47.9144 33.128 48.4582C32.8909 49.0021 32.691 49.4948 32.533 49.9364C32.3749 50.378 32.254 50.7219 32.175 50.9683C32.096 51.2146 32.0867 51.3076 32.1518 51.2472C33.1605 50.3175 34.081 49.2949 34.941 48.2491C35.9173 47.0637 36.8703 45.818 37.8001 44.5816C38.7856 43.2707 39.7665 41.9367 40.7335 40.6073C41.6958 39.2825 42.6674 37.9671 43.6483 36.6516C44.4758 35.5081 44.7128 34.7458 44.7779 34.36C44.7872 34.3135 44.7919 34.267 44.7965 34.2206C44.8058 34.1183 44.8012 34.0672 44.8012 34.0672C44.7919 33.765 44.7314 33.4861 44.578 33.263Z" fill="#626A90"/>
<path d="M96.3328 17.129C96.6675 17.129 96.9139 17.0732 97.0766 16.9617C97.3788 16.7479 97.5322 16.2226 97.5415 15.3766C97.5508 14.5306 97.402 13.9403 97.1091 13.601C96.8163 13.2616 96.2073 12.9967 95.3007 12.8154C95.1566 12.7875 95.0218 12.7596 94.8963 12.7364C94.8824 12.7317 94.8684 12.7317 94.8545 12.7271C94.8359 12.7224 94.8173 12.7178 94.7987 12.7178C94.7847 12.7131 94.7708 12.7131 94.7522 12.7085C94.7289 12.7038 94.7057 12.6992 94.6871 12.6946C94.6732 12.6899 94.6546 12.6899 94.6406 12.6853C94.5988 12.676 94.5616 12.6713 94.5197 12.662C94.5104 12.662 94.5058 12.6574 94.4965 12.6574C94.4733 12.6527 94.4454 12.6481 94.4221 12.6434C94.4175 12.6434 94.4082 12.6388 94.4035 12.6388C94.3617 12.6295 94.3198 12.6202 94.278 12.6155C94.2687 12.6155 94.2548 12.6109 94.2455 12.6109C94.2222 12.6062 94.2036 12.6016 94.1804 12.5969C94.1711 12.5969 94.1618 12.5923 94.1525 12.5923C94.1153 12.5876 94.0828 12.5783 94.0456 12.5737C94.027 12.569 94.0084 12.569 93.9898 12.5644C93.9712 12.5598 93.9572 12.5598 93.9386 12.5551C93.9154 12.5505 93.8875 12.5458 93.8643 12.5412C93.8503 12.5365 93.8364 12.5365 93.8178 12.5319C93.7852 12.5272 93.7573 12.5179 93.7248 12.5133C93.7155 12.5133 93.7015 12.5086 93.6922 12.5086C93.5202 12.4761 93.3343 12.4389 93.1204 12.4017C93.1065 13.7962 93.0972 15.1907 93.0833 16.5898C93.9572 16.7525 94.3896 16.8408 95.2636 17.0128C95.682 17.0825 96.0399 17.129 96.3328 17.129Z" fill="#626A90"/>
<path d="M111.613 44.716C111.395 44.0141 111.046 43.3401 110.577 42.708C110.321 42.3686 110.051 42.0433 109.773 41.7411C109.419 41.36 109.038 41.0346 108.634 40.7696C108.875 40.1421 109.015 39.5285 109.052 38.915C109.15 37.3346 108.541 35.8285 107.36 34.6943C107.495 34.5874 107.62 34.4759 107.746 34.355C108.894 33.2255 109.382 31.5846 109.024 30.0135C108.536 27.8428 108.039 25.6488 107.546 23.4873C107.425 22.818 107.239 22.1765 106.997 21.5676C107.392 20.9866 107.718 20.3451 107.96 19.6479C108.317 18.6345 108.494 17.5329 108.485 16.3708C108.462 12.7359 107.29 9.73772 105.1 7.69712C102.534 5.30791 99.2755 4.37825 96.4258 3.78327C92.9717 3.06279 89.9639 2.6305 87.2258 2.46316C87.1328 2.45851 87.0398 2.45386 86.9422 2.45386C86.6029 2.45386 86.2681 2.49105 85.9381 2.56542C85.9009 2.55613 85.8637 2.54218 85.8265 2.53289C82.1865 1.53351 78.5232 1.16164 74.9855 0.803725L74.5624 0.761891C74.2277 0.729353 73.893 0.71076 73.5583 0.71076C72.6006 0.71076 71.6616 0.850208 70.7829 1.12446C70.1321 0.715408 69.379 0.464401 68.5841 0.41327C66.2643 0.273821 63.912 0.162263 61.5922 0.0878901C61.5411 0.0878901 61.49 0.0832419 61.4435 0.0832419C60.5555 0.0832419 59.7048 0.334249 58.9749 0.78978C58.2172 0.27847 57.3153 -0.00507545 56.3856 -0.00507545C56.2368 -0.00507545 56.088 -0.00507545 55.9393 -0.00507545C53.9217 -0.00507545 51.8809 0.0181659 49.8726 0.069297C48.5012 0.101835 47.2785 0.729353 46.4464 1.69619C46.0838 1.49167 45.7119 1.31039 45.3353 1.15699C43.7826 0.534125 42.0347 0.231987 39.9938 0.231987C39.2733 0.231987 38.5155 0.269173 37.609 0.348194C34.5873 0.608497 32.1606 1.26855 30.1755 2.3702C29.2086 2.9094 28.3207 3.61129 27.535 4.46657C27.4374 4.39685 27.3398 4.32712 27.2421 4.2574C25.7173 3.24407 23.8392 2.72811 21.6589 2.72811C20.0597 2.72811 18.586 2.99306 17.4006 3.20224L17.289 3.22083C13.8536 3.83905 10.8737 4.56418 8.182 5.44736C6.28528 6.07023 4.99756 7.82728 4.97897 9.82604L4.81626 28.4749L4.80231 30.1716C4.78837 31.5939 5.4299 32.9419 6.53632 33.8344C6.56421 33.8576 6.59676 33.8809 6.62465 33.9041C6.48983 34.1319 6.35967 34.3597 6.2295 34.5921C4.96502 36.8232 3.8586 39.1381 2.92884 41.4576C2.10135 43.5354 1.35754 45.813 0.720654 48.2255L0.706708 48.272L0.69741 48.3184C0.562595 48.8855 0.437077 49.355 0.334803 49.7129C0.0744691 50.6333 -0.0324536 51.4839 0.00473691 52.316C0.0605227 53.4501 0.413833 54.5425 1.02283 55.4814C1.48306 56.1926 2.11995 56.8434 2.96138 57.4709C3.37978 57.8009 3.86325 58.1031 4.42111 58.382C4.75583 58.5307 5.03475 58.6609 5.28114 58.7771C5.4485 58.8468 5.61586 58.9165 5.79251 58.9816C5.79251 58.9816 5.79716 58.9816 5.79716 58.9862C6.16442 59.1257 6.54562 59.2605 6.93612 59.3813C7.03839 59.4046 7.18251 59.4325 7.35916 59.4604C9.32561 59.967 12.4868 60.4504 14.9228 59.1257C14.9228 59.1257 14.9274 59.1257 14.9274 59.121C15.5085 58.87 16.0989 58.5725 16.6986 58.21C17.4517 57.8149 18.2048 57.3593 18.8743 56.8945C19.7854 56.2624 20.6408 55.5884 21.4125 54.8911C21.7612 54.5797 22.1377 54.2357 22.5282 53.8778C22.5887 53.9568 22.6538 54.0358 22.7188 54.1148C23.3464 54.8446 24.1367 55.4536 25.1362 55.9788C25.8521 56.3553 26.6378 56.6668 27.4699 56.9085C28.2463 57.1316 29.0691 57.2989 29.9152 57.4012C30.4312 57.4616 30.9426 57.4941 31.4354 57.4941C31.8631 57.4941 32.2954 57.4709 32.7091 57.4244L33.3879 57.35L34.0155 57.0804C35.6147 56.3972 36.9256 55.4582 37.9995 54.5285C38.297 54.7098 38.6038 54.8772 38.92 55.0399C39.7242 55.4443 40.5563 55.7789 41.3792 56.0299C42.2532 56.2949 43.1039 56.4297 43.9035 56.4297C44.1313 56.4297 44.3544 56.4204 44.5683 56.3972C44.9169 56.3646 45.6375 56.2902 46.4371 55.9137L47.0414 55.6255L47.3018 55.3931C47.4552 55.2862 47.5993 55.1654 47.7388 55.0445L47.8317 54.9608L47.9201 54.8725C48.4965 54.3008 49.0962 53.6826 49.7331 52.9993C50.2863 53.5106 50.9139 53.9615 51.6066 54.3519C52.541 54.8818 53.587 55.2955 54.7073 55.5884C55.8184 55.8765 56.9527 56.0253 58.0731 56.0253H58.0777C58.9657 56.0253 59.8396 55.9277 60.6857 55.7371C61.7317 55.5 62.7033 55.0817 63.5773 54.5007C63.8423 54.3333 64.1212 54.1381 64.4141 53.915L69.6905 56.0532C69.7695 56.0857 69.8532 56.1229 69.9276 56.1508C70.4854 56.3786 71.3315 56.6714 72.4007 56.6714C73.3305 56.6714 74.2324 56.4483 75.0459 56.0253L75.4875 55.8765L76.1663 55.263C76.2453 55.1979 76.3197 55.1282 76.3941 55.0584C76.9984 55.5093 77.6585 55.9277 78.3605 56.3042C79.0857 56.6946 79.8621 57.0433 80.6617 57.3361C81.5821 57.6754 82.4886 57.9078 83.3626 58.024L84.06 58.117L84.7526 58.0008C86.3565 57.7312 87.7139 57.1409 88.8436 56.4715C89.1922 56.783 89.5595 57.0897 89.9454 57.3826C90.6845 57.9404 91.4423 58.4377 92.1954 58.8561C93.2181 59.4232 94.2083 59.7811 95.1334 59.9205C95.4124 59.9624 95.7192 59.9996 96.0864 59.9996C96.463 59.9996 96.8349 59.9577 97.1928 59.8741L97.9971 59.6881L98.3783 59.4418C98.555 59.3535 98.7223 59.2558 98.8897 59.1489L99.0198 59.0653L99.1407 58.9723C100.098 58.2472 100.977 57.5127 101.865 56.7644C102.757 56.0067 103.72 55.2025 104.687 54.403C105.24 53.9475 105.802 53.4873 106.342 53.0364C106.746 52.7018 107.151 52.3671 107.555 52.0324C108.22 51.4839 108.992 50.8564 109.759 50.3079C110.898 49.5223 111.637 48.2998 111.809 46.9054C111.916 46.1849 111.846 45.4505 111.613 44.716ZM86.9469 7.10214C89.8152 7.27413 92.7067 7.7529 95.4774 8.32929C97.7228 8.79877 100.191 9.46812 101.935 11.095C102.427 11.5505 102.799 12.0944 103.083 12.6801C103.111 12.7405 103.143 12.8056 103.171 12.8707C103.176 12.8753 103.176 12.88 103.176 12.8846C103.204 12.945 103.227 13.0008 103.25 13.0612C103.26 13.0798 103.269 13.1031 103.273 13.1263C103.292 13.1728 103.311 13.2193 103.325 13.2658C103.334 13.289 103.343 13.3122 103.348 13.3308C103.366 13.382 103.38 13.4331 103.399 13.4796C103.404 13.4982 103.408 13.5121 103.418 13.5307C103.441 13.5958 103.459 13.6655 103.478 13.7306C103.483 13.7492 103.487 13.7631 103.492 13.7817C103.506 13.8329 103.52 13.884 103.534 13.9351C103.538 13.9584 103.548 13.9816 103.552 14.0048C103.566 14.0513 103.576 14.0978 103.585 14.1489C103.59 14.1722 103.594 14.1954 103.599 14.214C103.613 14.2744 103.627 14.3349 103.636 14.3953C103.636 14.4046 103.641 14.4092 103.641 14.4185C103.655 14.4883 103.669 14.558 103.678 14.6231C103.683 14.6463 103.687 14.6649 103.687 14.6881C103.697 14.7393 103.701 14.7858 103.71 14.8369C103.715 14.8601 103.72 14.8834 103.72 14.9113C103.729 14.9624 103.734 15.0135 103.738 15.06C103.743 15.0786 103.743 15.1018 103.748 15.1204C103.757 15.1902 103.762 15.2599 103.771 15.3296C103.771 15.3435 103.771 15.3528 103.776 15.3668C103.78 15.4226 103.785 15.483 103.79 15.5388C103.79 15.562 103.794 15.5853 103.794 15.6085C103.799 15.655 103.799 15.7061 103.803 15.7526C103.803 15.7758 103.808 15.7991 103.808 15.8223C103.813 15.8781 103.813 15.9339 103.817 15.9897C103.817 16.0036 103.817 16.0175 103.817 16.0315C103.822 16.1012 103.822 16.1709 103.822 16.236C103.822 16.2407 103.822 16.2453 103.822 16.25C103.822 16.2453 103.822 16.2407 103.822 16.236C103.822 16.2871 103.822 16.3429 103.822 16.3941C103.836 18.7182 102.572 20.3219 100.345 20.3219C100.149 20.3219 99.9449 20.3079 99.7357 20.2847C99.7357 20.3219 99.7357 20.3451 99.7357 20.373C99.7357 20.4009 99.7357 20.4241 99.7357 20.4613C101.516 21.0795 102.66 22.5623 102.971 24.403C103.473 26.6156 103.971 28.8236 104.473 31.0361C104.208 30.9711 103.948 30.906 103.683 30.8409H103.678C103.594 30.8223 103.506 30.7991 103.422 30.7805H103.418C103.357 30.7665 103.297 30.7526 103.241 30.7386C103.022 30.6875 102.809 30.6364 102.59 30.5853C102.809 30.6364 103.022 30.6875 103.241 30.7386C102.948 30.6689 102.655 30.5992 102.362 30.5295C102.311 30.5155 102.26 30.5062 102.209 30.4923H102.204H102.209C102.204 30.4923 102.195 30.4876 102.19 30.4876C101.767 30.39 101.344 30.2878 100.921 30.1901C100.851 30.1716 100.777 30.1576 100.707 30.139C100.284 30.0414 99.8613 29.9438 99.4382 29.8508C99.3778 29.8369 99.322 29.8229 99.2616 29.8136C98.8199 29.716 98.3737 29.6184 97.932 29.5208C97.8111 28.9165 97.6949 28.3122 97.5741 27.708C97.2765 26.2066 96.979 24.7052 96.6815 23.1991C96.5699 22.6228 96.3932 22.2183 96.1562 21.9813C95.9144 21.7442 95.5239 21.5722 94.9847 21.4653C94.2083 21.3119 93.8178 21.2376 93.0368 21.0888C93.0136 23.5664 92.995 26.0439 92.9717 28.5168C92.4557 28.4192 91.9443 28.3262 91.4283 28.2332C90.9169 28.1403 90.4009 28.0519 89.8896 27.9636C89.3921 27.88 88.8947 27.7916 88.3973 27.7126C88.3694 27.708 88.3369 27.7033 88.309 27.6987C88.6297 27.2989 88.9133 26.9596 89.1365 26.6714C89.513 26.1926 89.7455 25.8998 89.8431 25.6674C89.9593 25.3885 90.0523 24.8307 89.3503 24.6262C89.0435 24.5378 87.9789 24.324 86.7981 24.1009C86.8492 18.4346 86.8957 12.7684 86.9469 7.10214ZM103.483 30.7898C103.497 30.7944 103.515 30.7991 103.529 30.8037C103.515 30.7991 103.501 30.7944 103.483 30.7898ZM104.491 34.3364C102.311 33.7972 100.131 33.2952 97.9367 32.8164C97.8018 32.1331 97.667 31.4498 97.5322 30.7665L97.6438 30.8781C99.7729 31.3429 101.925 31.8403 104.05 32.3609C104.194 33.021 104.343 33.6764 104.491 34.3364ZM90.2382 30.218C90.373 29.8601 90.3591 29.6184 90.2522 29.4418C91.075 29.5859 91.8979 29.7346 92.716 29.888L92.9903 29.6649C92.9857 30.3854 92.9764 31.1012 92.9717 31.817C91.8653 31.6125 90.7542 31.4126 89.6432 31.2221C89.857 30.9804 90.0709 30.6643 90.2382 30.218ZM69.193 20.954C69.2256 17.1796 69.2581 13.4052 69.2907 9.63081C69.286 8.40831 69.723 7.19511 70.6574 6.38166C71.4617 5.67512 72.5077 5.35904 73.5583 5.35904C73.7349 5.35904 73.9162 5.36834 74.0929 5.38693C77.5888 5.7402 81.1963 6.08417 84.6085 7.01383C84.4969 8.50128 84.3854 9.99337 84.2784 11.4808C81.8146 11.1369 79.3461 10.8254 76.8682 10.5558C76.7985 10.5465 76.7334 10.5465 76.673 10.5465C76.4777 10.5465 76.3104 10.5837 76.1663 10.6488C76.1384 10.6627 76.1151 10.672 76.0919 10.6906C76.0826 10.6953 76.0779 10.6999 76.0686 10.7046C76.0593 10.7092 76.05 10.7139 76.0407 10.7232C76.0221 10.7371 76.0036 10.751 75.985 10.765C75.7665 10.9416 75.6595 11.1833 75.6549 11.4994C75.6502 12.2896 75.6456 12.6847 75.6363 13.4749C78.1606 13.7352 80.6803 14.0374 83.1953 14.3767C83.1813 15.7898 83.172 17.2075 83.1581 18.6206C80.6431 18.2813 78.1234 17.9791 75.5991 17.7188C75.5898 18.6996 75.5852 19.1877 75.5759 20.1638C75.5712 20.4799 75.6781 20.7448 75.892 20.9633C76.1058 21.1818 76.3987 21.3119 76.7706 21.3491C79.2438 21.6187 81.7123 21.9255 84.1808 22.2741C84.2041 22.7297 84.232 23.1805 84.2552 23.6361C83.702 23.5385 83.2604 23.4641 83.0558 23.4316C82.3678 23.3246 81.6798 23.2317 81.3125 23.1852C80.736 23.1062 80.2014 23.6128 80.0806 23.7895C80.0387 23.8545 80.0201 23.8917 80.0201 23.8917C79.9132 24.0544 79.7644 24.2822 79.5971 24.5471C79.5971 24.5518 79.5924 24.5518 79.5924 24.5564C79.2345 25.1189 78.7835 25.8394 78.4163 26.425C77.1611 26.2995 75.9059 26.1601 74.66 26.0439C74.6275 26.0392 74.5903 26.0392 74.5578 26.0346C74.3393 26.016 74.1254 25.9928 73.9069 25.9742C72.6285 25.8626 71.3919 25.3373 70.4947 24.4077C70.4575 24.3659 70.4157 24.324 70.3785 24.2822C70.3692 24.2729 70.3645 24.2636 70.3552 24.2589C70.3181 24.2171 70.2809 24.1753 70.2437 24.1288C70.2437 24.1288 70.2437 24.1288 70.2437 24.1241C70.2065 24.0777 70.1693 24.0312 70.1367 23.9847C70.1367 23.98 70.1321 23.98 70.1321 23.9754C70.0949 23.9289 70.0624 23.8778 70.0252 23.8267C69.458 22.99 69.1698 21.9813 69.193 20.954ZM71.5081 28.0008C71.5081 28.0891 71.5035 28.2704 71.4942 28.4889C71.1316 28.2704 70.7969 28.0055 70.504 27.6987C69.8671 27.0386 69.458 26.2112 69.286 25.328L69.3604 25.2165C69.4069 25.2676 69.4534 25.3188 69.4999 25.3652C70.4715 26.3786 71.7871 27.0479 73.2515 27.2896C72.9121 27.3036 72.6099 27.3222 72.3728 27.3408C71.5639 27.4105 71.5081 27.6847 71.5081 28.0008ZM49.9795 4.71758C51.9645 4.67109 53.9496 4.64785 55.9346 4.64785C56.0787 4.64785 56.2275 4.64785 56.3716 4.64785C56.3577 6.35842 56.3437 8.06899 56.3251 9.77955C56.3158 10.7046 56.2089 11.5691 56.009 12.3733C56.4553 12.3733 56.6831 12.3779 57.1294 12.3779C58.5612 9.82604 59.9977 7.27878 61.4388 4.73617C63.726 4.81054 66.0133 4.91745 68.3005 5.0569C66.7106 7.6274 65.1253 10.1979 63.5494 12.773C63.052 13.6562 62.4476 14.2326 61.7363 14.5069C61.7363 14.5533 61.7363 14.5766 61.7363 14.6231C62.0292 14.7486 62.3872 15.0228 62.8056 15.4412C62.9636 15.5992 63.1031 15.7572 63.2333 15.9153C63.2705 15.9618 63.3076 16.0082 63.3448 16.0547C63.3541 16.064 63.3588 16.0733 63.3681 16.0873C63.4006 16.1338 63.4332 16.1802 63.4657 16.2267C63.4703 16.236 63.475 16.2407 63.4796 16.25C63.5075 16.2918 63.5354 16.3336 63.5633 16.3755C63.568 16.3848 63.5726 16.3894 63.5773 16.3987C63.6052 16.4452 63.6331 16.4917 63.661 16.5382C63.6656 16.5474 63.6703 16.5567 63.6796 16.566C63.7074 16.6125 63.7307 16.659 63.7539 16.7055C63.819 16.8217 63.8794 16.9426 63.9445 17.0588C64.0933 17.3377 64.2467 17.6166 64.3955 17.9001C65.7436 20.4055 67.0825 22.9109 68.4167 25.421C67.8123 25.3838 67.208 25.3513 66.599 25.3141C66.2643 25.2955 65.9249 25.2769 65.5902 25.263C65.5019 25.2583 65.4136 25.2537 65.3206 25.249C65.0695 25.2351 64.8232 25.2258 64.5721 25.2118C64.4652 25.2072 64.3583 25.2025 64.2467 25.1979C64.005 25.1886 63.7632 25.1747 63.5215 25.1654C63.4239 25.1607 63.3216 25.1561 63.224 25.1514C62.8893 25.1375 62.5592 25.1235 62.2245 25.1142C62.2198 25.1142 62.2198 25.1142 62.2152 25.1142C61.9176 25.1049 61.6155 25.091 61.318 25.0817C59.914 22.223 58.5054 19.3643 57.0922 16.5056C56.6691 16.501 56.4553 16.501 56.0322 16.501C56.181 17.1889 56.2554 17.8071 56.2507 18.3603C56.2321 20.5729 56.2136 22.7808 56.195 24.9934C56.0462 24.9934 55.9021 24.9934 55.7533 24.9934C55.2605 24.9934 54.7631 24.9934 54.2703 24.998C52.7781 25.0073 51.2905 25.0306 49.7982 25.0631C49.8586 18.2813 49.9191 11.4994 49.9795 4.71758ZM60.0674 25.6953L61.2761 26.4762C63.2937 26.5412 65.3392 26.6342 67.3707 26.7504C67.7194 27.4058 68.068 28.0612 68.4167 28.7166C66.0551 28.5679 63.6888 28.4563 61.3226 28.382C60.8856 27.4941 60.4486 26.6063 60.0116 25.7185L60.0674 25.6953ZM49.8168 26.439L49.8354 26.4529C51.7972 26.4064 53.7915 26.3832 55.7533 26.3832C55.9021 26.3832 56.0462 26.3832 56.1903 26.3832L56.2089 26.3646C56.2043 27.0061 56.1996 27.6475 56.1903 28.289C54.0565 28.2844 51.9273 28.3076 49.7982 28.3587C49.8075 27.7219 49.8121 27.0804 49.8168 26.439ZM28.4927 16.5939C28.5113 14.3999 28.6554 12.0479 29.4875 9.97013C30.0547 8.55241 31.0774 7.18581 32.4302 6.43279C34.0991 5.50314 36.1493 5.13592 38.0041 4.97788C38.6457 4.9221 39.3151 4.88027 39.9892 4.88027C40.8864 4.88027 41.7929 4.95464 42.653 5.16846C42.7041 5.1824 42.7599 5.19635 42.811 5.21029C42.8389 5.21959 42.8715 5.22424 42.8993 5.23354C42.9505 5.24748 43.0016 5.26143 43.0528 5.28002C43.0806 5.28932 43.1085 5.29861 43.1411 5.30791C43.1922 5.3265 43.248 5.34509 43.2991 5.35904C43.3224 5.36834 43.3503 5.37763 43.3735 5.38693C43.4479 5.41482 43.5269 5.44271 43.6013 5.47525C43.6013 5.47525 43.6013 5.47525 43.606 5.47525C43.6618 5.49849 43.7175 5.52173 43.7733 5.54497C43.7873 5.54962 43.8012 5.55892 43.8105 5.56356C43.8663 5.5868 43.9174 5.61469 43.9732 5.64258C43.9732 5.64258 43.9779 5.64258 43.9779 5.64723C44.029 5.67512 44.0848 5.70301 44.1359 5.7309C44.1452 5.73555 44.1545 5.74485 44.1685 5.74949C44.2243 5.78203 44.2754 5.80992 44.3312 5.84711C45.3121 6.46068 46.0884 7.43217 46.5068 8.51522C47.2925 10.5372 47.4133 12.8521 47.3947 14.9763C47.3808 16.8217 47.2506 18.7926 46.7114 20.6054C46.6881 20.6798 46.6695 20.7495 46.6463 20.8239C46.6416 20.8332 46.6416 20.8425 46.637 20.8471C46.6184 20.9122 46.5952 20.9726 46.5719 21.0377C46.5673 21.0516 46.5626 21.0656 46.558 21.0795C46.5394 21.1399 46.5161 21.1957 46.4975 21.2562C46.4929 21.2701 46.4882 21.2887 46.4789 21.3026C46.451 21.3724 46.4231 21.4467 46.3953 21.5165C45.842 22.9156 44.7682 24.166 43.4386 24.8493C41.7278 25.7278 39.7056 25.9928 37.8275 26.1508C37.4602 26.1833 37.079 26.2112 36.6932 26.2298C37.5439 24.3705 37.4928 23.4501 34.0759 22.3996C32.6487 21.9395 30.4777 21.8325 28.9668 21.7396C28.9622 21.7303 28.9622 21.7163 28.9576 21.707C28.9529 21.6884 28.9483 21.6745 28.9436 21.6606C28.925 21.5815 28.9018 21.4979 28.8832 21.4188C28.8785 21.4003 28.8739 21.3817 28.8692 21.3677C28.8553 21.3026 28.8413 21.2376 28.8274 21.1725C28.8227 21.1492 28.8181 21.126 28.8134 21.1074C28.7995 21.033 28.7855 20.954 28.7716 20.8796C28.7716 20.875 28.7669 20.8657 28.7669 20.8611C28.753 20.7774 28.7391 20.6937 28.7251 20.61C28.7205 20.5915 28.7205 20.5729 28.7158 20.5543C28.7065 20.4845 28.6926 20.4195 28.6833 20.3497C28.6786 20.3311 28.6786 20.3126 28.674 20.294C28.6507 20.122 28.6321 19.9546 28.6135 19.7827C28.6135 19.7641 28.6089 19.7455 28.6089 19.7315C28.5996 19.6571 28.5949 19.5828 28.5856 19.5084C28.5856 19.4945 28.5856 19.4852 28.581 19.4712C28.5717 19.3829 28.5671 19.2946 28.5578 19.2063C28.5578 19.2016 28.5578 19.2016 28.5578 19.197C28.5531 19.1133 28.5485 19.0296 28.5392 18.946C28.5392 18.932 28.5392 18.9181 28.5345 18.8995C28.5299 18.8158 28.5252 18.7321 28.5206 18.6438C28.488 17.9466 28.488 17.2586 28.4927 16.5939ZM36.0005 27.6475C36.577 27.6382 37.2045 27.6011 37.9391 27.536C39.9985 27.3593 42.1648 27.0619 44.0662 26.0857C45.1122 25.5465 46.0373 24.7331 46.7439 23.743C46.6416 24.1056 46.5208 24.4635 46.386 24.8121C45.8327 26.2112 44.7589 27.4616 43.4293 28.1449C41.7185 29.0234 39.6963 29.2884 37.8182 29.4464C36.9721 29.5208 36.0656 29.5719 35.1591 29.5487C35.438 28.8375 35.7262 28.21 36.0005 27.6475ZM9.62778 9.86322C12.1149 9.04977 14.7043 8.4362 17.2565 7.95743C17.3076 7.94813 17.3634 7.93884 17.4145 7.92954C17.6423 7.8877 17.8701 7.84587 18.0979 7.80403H18.1026C18.163 7.79474 18.2234 7.78079 18.2885 7.7715C18.335 7.7622 18.3815 7.7529 18.428 7.74826C18.4419 7.74361 18.4559 7.74361 18.4745 7.73896C18.5303 7.72966 18.5814 7.72037 18.6372 7.71107C18.6465 7.71107 18.6558 7.70642 18.6651 7.70642C18.7209 7.69712 18.772 7.68783 18.8278 7.67853C18.8371 7.67853 18.8464 7.67388 18.851 7.67388C18.8417 7.67388 18.8324 7.67853 18.8278 7.67853C19.7157 7.52514 20.7013 7.38104 21.6589 7.38104C22.7514 7.38104 23.816 7.56697 24.6667 8.13406C26.2845 9.20782 26.4007 11.6668 26.3868 13.3541C26.3775 14.6184 26.2705 16.0594 25.7731 17.3144C25.7452 17.3841 25.7173 17.4539 25.6894 17.5236C25.6848 17.5329 25.6801 17.5468 25.6755 17.5561C25.6615 17.5887 25.6476 17.6212 25.629 17.6537C25.6244 17.6677 25.6197 17.677 25.6104 17.6909C25.5872 17.7421 25.5593 17.7978 25.5314 17.849C25.5221 17.8676 25.5128 17.8862 25.5035 17.9047C25.4895 17.9326 25.4756 17.9559 25.4616 17.9838C25.4477 18.0117 25.4338 18.0349 25.4198 18.0628C25.4012 18.0953 25.3826 18.1279 25.364 18.1604C25.3454 18.1883 25.3315 18.2162 25.3129 18.2441C25.2989 18.2627 25.2896 18.2859 25.2757 18.3045C25.2524 18.3417 25.2292 18.3789 25.2013 18.4114C25.192 18.4254 25.1781 18.4439 25.1688 18.4579C25.1455 18.4951 25.1176 18.5276 25.0897 18.5648C25.0804 18.5787 25.0665 18.5927 25.0572 18.6066C25.0247 18.6485 24.9921 18.6903 24.9596 18.7321C24.9549 18.7368 24.9549 18.7414 24.9503 18.7461C24.9177 18.7879 24.8805 18.8251 24.848 18.8669C24.8387 18.8762 24.8294 18.8902 24.8201 18.8995C24.7829 18.9413 24.7457 18.9831 24.7039 19.025C23.2302 20.5357 20.864 21.0981 18.8557 21.4421C17.8469 21.6141 16.8288 21.7675 15.8014 21.8465C15.7828 23.7244 15.7689 25.6069 15.7503 27.4848C15.3551 27.9264 14.9646 28.3773 14.5927 28.8236C14.5927 28.8236 14.4904 28.9398 14.3091 29.1582C14.2626 29.1675 14.2162 29.1768 14.1697 29.1861C13.7327 29.2791 13.291 29.3721 12.8541 29.465C12.7704 29.4836 12.6867 29.5022 12.603 29.5161C11.6035 29.73 10.604 29.9531 9.60454 30.1762C9.5627 30.1855 9.52086 30.1948 9.47437 30.2041C9.46507 30.2041 9.45578 30.2087 9.44648 30.2087C9.51156 23.4269 9.572 16.6451 9.62778 9.86322ZM25.2431 21.6466C24.4993 21.6791 23.5045 21.7489 22.7049 21.8837C23.816 21.4514 24.8573 20.8564 25.7034 19.9918C25.8428 19.8477 25.9777 19.6943 26.1078 19.5316C25.9358 20.2847 25.6662 21.0144 25.2431 21.6466ZM18.6604 24.417C18.5256 24.5518 18.3815 24.6959 18.2374 24.84C17.8841 24.8958 17.5261 24.9515 17.1682 24.998L17.1868 23.1015C17.8701 23.0179 18.5163 22.9109 19.0928 22.8133C19.7111 22.7064 20.3526 22.5809 20.9895 22.4229C20.334 22.7715 19.7622 23.32 18.6604 24.417ZM10.9295 33.1743L9.47437 31.3662C9.47437 31.3522 9.47437 31.3429 9.47437 31.329L9.76725 31.5614C10.8272 31.3197 11.8918 31.0873 12.961 30.8549C12.4915 31.4777 11.9568 32.2261 11.3943 33.0674C11.2363 33.1093 11.0829 33.1418 10.9295 33.1743ZM24.755 45.4319C24.3273 45.8874 23.8392 46.3894 23.2906 46.9286C23.1372 47.0773 22.9187 47.2772 22.6305 47.5282C22.3423 47.7792 22.0355 48.0349 21.7193 48.3045C21.3986 48.5741 21.1104 48.8298 20.8547 49.0761C20.5943 49.3225 20.4037 49.5084 20.2829 49.6293C19.6274 50.2382 18.9626 50.8425 18.3025 51.4421C17.6563 52.0231 16.9404 52.5856 16.2291 53.0783C15.6712 53.4687 15.0483 53.8359 14.43 54.1567C14.4254 54.1567 14.4254 54.1613 14.4207 54.1613C12.4682 55.3466 11.2921 55.3745 10.6459 55.3745C10.4041 55.3792 10.1392 55.3559 9.85093 55.3095C9.3535 55.2258 8.83748 55.1003 8.31217 54.9376C7.78685 54.7749 7.29408 54.5936 6.84314 54.3891C6.39221 54.1846 6.04355 53.9893 5.80646 53.7895C5.38342 53.4827 5.09054 53.1991 4.92783 52.9435C4.76512 52.6925 4.67215 52.4043 4.6582 52.0882C4.64425 51.7721 4.69539 51.4049 4.81626 50.9773C4.93713 50.5543 5.07194 50.029 5.22071 49.4061C5.77856 47.2865 6.44799 45.1901 7.25224 43.1774C8.11227 41.0253 9.14431 38.8871 10.2833 36.8651C10.9387 35.7077 11.6454 34.5549 12.3892 33.4346C12.5379 33.2069 12.6914 32.9838 12.8448 32.756C13.3096 32.0774 13.7885 31.408 14.2766 30.7526C14.3277 30.6829 14.3789 30.6131 14.4347 30.5481C14.867 29.9763 15.3133 29.4139 15.7782 28.8607C16.852 27.5685 18.0003 26.3321 19.195 25.1328C19.4042 24.9283 19.5948 24.7377 19.7761 24.5657C20.2736 24.0777 20.6594 23.6965 20.9291 23.4316C21.2917 23.0643 21.6775 22.8319 21.9797 22.6878C22.2121 22.5763 22.5282 22.4275 22.8909 22.3346C23.2581 22.2416 23.6672 22.1579 24.1228 22.0928C24.4157 22.051 24.7085 22.0138 25.0014 21.9859C25.2292 21.9627 25.457 21.9487 25.6801 21.9348C26.2705 21.8976 26.8609 21.8883 27.4327 21.8976C27.7349 21.9023 28.0371 21.9162 28.3346 21.9348C28.395 21.9395 28.4601 21.9441 28.5206 21.9488C28.6879 21.9627 28.8553 21.9766 29.0226 21.9906C29.6363 22.051 30.2453 22.1347 30.8636 22.2369C31.705 22.3764 32.672 22.6878 33.4111 23.1387C34.0527 23.5292 34.3037 24.0637 34.0991 24.5983C33.9364 25.0166 33.6854 25.5233 33.4065 26.0904C33.3414 26.2252 33.2717 26.3646 33.2066 26.5087C33.0671 26.8016 32.9276 27.0944 32.7882 27.3919C32.5743 27.8474 32.3605 28.3029 32.1513 28.7678C32.1094 28.8561 32.0723 28.9398 32.0304 29.0281C31.9049 29.307 31.7747 29.5812 31.6539 29.8555C31.4772 30.2413 31.3099 30.6178 31.1425 30.985C30.8217 31.6962 30.5707 32.3144 30.3847 32.8164C30.236 33.2162 30.1384 33.588 30.1105 33.9227C30.0779 34.2574 30.0779 34.5642 30.1105 34.8431C30.143 35.122 30.1709 35.3544 30.2034 35.5403C30.236 35.7262 30.2174 35.875 30.1569 35.9866C30.1244 36.0656 30.0175 36.1167 29.8362 36.1399C29.5015 36.1818 29.0738 36.1399 28.5531 36.0144C28.0324 35.8889 27.5071 35.7216 26.9725 35.5124C26.4379 35.3033 25.9358 35.0801 25.4616 34.8431C24.9875 34.606 24.6295 34.3736 24.3878 34.1551C23.6858 33.5973 23.472 32.8676 23.7462 31.9937C24.1088 30.8549 24.6992 29.8183 25.2989 28.7817C25.3919 28.6144 25.536 28.3866 25.7313 28.0891C25.9312 27.7916 26.1357 27.4848 26.3496 27.1595C26.5634 26.8387 26.7633 26.5366 26.9446 26.2577C27.1259 25.9788 27.2654 25.7557 27.3584 25.5884C27.7861 24.7935 28.051 24.152 28.158 23.664C28.2649 23.1805 28.1673 22.9528 27.8604 22.9946C27.614 23.0272 27.2375 23.2689 26.7401 23.7197C26.0056 24.3844 25.3454 25.1514 24.7039 25.9184C21.6915 29.6091 18.9301 33.5137 16.7265 37.6971C14.8902 41.188 13.3933 44.8648 12.3659 48.7135C12.3659 48.7879 12.352 48.8576 12.3194 48.9134C12.0452 49.9639 11.9057 50.703 11.8871 51.126C11.8732 51.549 11.9568 51.7442 12.1381 51.707C12.3799 51.6559 12.8169 51.1911 13.4538 50.3126C14.2022 49.276 14.9135 48.1697 15.6341 47.1564C16.5638 45.8502 17.6191 44.5115 18.4559 43.0891C18.9951 42.1734 19.5251 41.2438 19.9807 40.2862C20.3294 39.5564 20.5525 38.994 20.6408 38.6082C20.7338 38.2224 20.8082 37.9993 20.8686 37.9388C20.9291 37.8784 20.9755 37.8459 21.0034 37.8412C21.1847 37.8133 21.4311 37.8691 21.7333 38.0086C22.0355 38.1527 22.3748 38.3432 22.7374 38.5803C23.1047 38.8174 23.4673 39.0823 23.8346 39.3705C24.2018 39.6587 24.5365 39.9562 24.8387 40.2351C25.0758 40.4536 25.2943 40.6906 25.4802 40.9463C25.6615 41.2019 25.8289 41.4762 25.9823 41.7551C26.1915 42.1316 26.2798 42.5174 26.2333 42.9078C26.1869 43.2983 26.0334 43.7027 25.7778 44.121C25.5267 44.5394 25.1827 44.9763 24.755 45.4319ZM107.132 46.4917C106.267 47.1052 105.44 47.7746 104.622 48.4486C103.669 49.2342 102.711 50.029 101.753 50.8146C100.791 51.6048 99.8334 52.4136 98.8804 53.2177C98.0529 53.915 97.2207 54.6122 96.3561 55.2676C96.3235 55.2862 96.291 55.3002 96.2631 55.3095C96.2305 55.3188 96.198 55.3327 96.1701 55.3513C96.105 55.3652 95.9935 55.3513 95.84 55.328C95.51 55.2769 95.0358 55.1096 94.4686 54.7981C93.9015 54.4821 93.3343 54.1102 92.7672 53.6826C92.2 53.2549 91.7026 52.804 91.2749 52.3346C90.8472 51.8651 90.6287 51.4235 90.5404 51.1399C90.4986 51.0098 90.5962 50.6054 90.8937 49.9686C91.1912 49.3318 91.5817 48.5602 92.0559 47.6584C90.731 49.0064 89.3689 50.3776 87.9092 51.4979C86.7516 52.3857 85.5011 53.1666 83.9902 53.4176C83.451 53.3432 82.8792 53.1991 82.2795 52.976C81.6751 52.7529 81.108 52.4972 80.5687 52.209C80.0294 51.9209 79.5367 51.6048 79.095 51.2608C78.6487 50.9215 78.2908 50.5729 78.049 50.2289C77.7934 49.8663 77.7329 49.4201 77.8584 48.9181C77.984 48.4161 78.2117 47.7699 78.5232 46.9844C78.579 46.8449 78.6348 46.7101 78.6906 46.5753C78.6208 46.6358 78.5558 46.7008 78.486 46.7613C77.5191 47.6537 76.5568 48.5555 75.5991 49.4573C74.8135 50.1963 74.0278 50.9308 73.2329 51.6559L73.2282 51.6606C73.191 51.6977 73.1538 51.7303 73.1166 51.7628C73.112 51.7675 73.1027 51.7768 73.098 51.7814H73.0934C72.5774 52.1812 72.0474 51.9906 71.6848 51.8372C71.6244 51.8139 71.5639 51.7907 71.5035 51.7628C71.4989 51.7628 71.4989 51.7628 71.4942 51.7582C71.4663 51.7442 71.4338 51.7303 71.4059 51.7163C71.0386 51.5443 70.6667 51.3305 70.2855 51.0656C70.253 51.0377 70.2204 51.0144 70.1879 51.0005C70.1553 50.9866 70.1228 50.9633 70.0903 50.9354C69.4534 50.5264 68.863 50.0662 68.3237 49.5642C67.7798 49.0575 67.3986 48.6578 67.1755 48.351C66.9523 48.0488 67.1197 47.2633 67.6775 46.0129C68.3191 44.5812 69.0629 43.1914 69.8299 41.8294C69.2767 41.9828 68.6073 42.1688 68.426 42.2245C68.4027 42.2338 68.3748 42.2385 68.347 42.2478C68.0308 42.3454 67.1662 42.6196 67.0174 42.6661C66.9895 42.6754 66.9616 42.6847 66.9337 42.694C66.2318 42.9218 65.5298 43.1403 64.8278 43.3587C65.209 43.9537 65.4415 44.5487 65.5205 45.1483C65.5995 45.7479 65.4182 46.3708 64.9719 47.0169C64.6186 47.4306 64.3118 47.7885 64.0375 48.086C63.7679 48.3835 63.5494 48.6113 63.3913 48.7647C62.8195 49.2295 62.3453 49.6107 61.9781 49.9081C61.6108 50.2056 61.2994 50.4334 61.0437 50.5915C60.6299 50.8796 60.165 51.0795 59.6583 51.1957C59.147 51.3119 58.6216 51.3677 58.0777 51.3724C57.3432 51.3724 56.6087 51.2794 55.8788 51.0842C55.1443 50.8936 54.4842 50.6333 53.8938 50.2986C53.3034 49.9639 52.8246 49.5735 52.4573 49.1179C52.0901 48.6624 51.9087 48.1836 51.9087 47.6816C51.9087 47.6166 51.9087 47.584 51.9087 47.5236C51.9273 47.491 51.9366 47.4771 51.9552 47.4446C51.9552 47.3981 51.9552 47.3748 51.9552 47.3237C52.0529 46.659 52.3132 46.1012 52.7455 45.655C53.1779 45.2087 53.6614 44.8276 54.2053 44.5115C54.7492 44.2001 55.3117 43.9537 55.9021 43.7724C56.4925 43.5958 57.0224 43.4331 57.4548 43.3448C57.7616 43.2844 58.1103 43.2193 58.4589 43.1263C58.8076 43.0333 59.1934 42.9357 59.6072 42.8335C59.319 42.2245 58.8634 41.6296 58.2451 41.0625C57.6221 40.4954 57.0271 39.8911 56.4506 39.2636C56.4274 39.2404 56.4088 39.2171 56.3902 39.1939C56.2321 39.3566 55.8324 39.7703 55.4558 40.1468C55.1397 40.5 54.8003 40.8765 54.5958 41.0764C54.4981 41.174 54.4098 41.2624 54.3215 41.3507C53.9263 41.7504 53.5405 42.1548 53.1546 42.5639C53.1453 42.5732 53.136 42.5825 53.1267 42.5918C53.0942 42.6243 53.0617 42.6615 53.0291 42.694C52.0622 43.7259 51.0859 44.7532 50.1097 45.7758C49.1288 46.8077 48.1572 47.8443 47.1949 48.8948C46.3627 49.8059 45.512 50.703 44.638 51.5722C44.6055 51.6001 44.5729 51.6234 44.5404 51.6373C44.5078 51.6513 44.4753 51.6745 44.4428 51.7024C44.3777 51.7349 44.2614 51.7489 44.108 51.7628C43.7687 51.7954 43.2945 51.7489 42.7227 51.5722C42.1509 51.4002 41.5744 51.1678 41.0026 50.8796C40.4308 50.5914 39.9288 50.2661 39.5011 49.9035C39.0734 49.5409 38.8502 49.1505 38.7619 48.8902C38.7201 48.774 38.8177 48.3417 39.1199 47.6305C39.4918 46.7566 39.8823 45.892 40.2914 45.0321C38.9618 46.7101 37.5997 48.3975 36.1167 49.9035C34.9685 51.0656 33.7272 52.1393 32.1838 52.7947C31.6446 52.8552 31.0728 52.8505 30.4684 52.7761C29.8641 52.7018 29.2923 52.5902 28.7577 52.4322C28.2184 52.2741 27.7256 52.0835 27.284 51.8511C26.8423 51.6187 26.4797 51.3631 26.238 51.0795C25.9823 50.782 25.9219 50.3497 26.0474 49.8152C26.1729 49.2806 26.4146 48.5741 26.7122 47.7188C27.1492 46.4545 27.6931 45.1809 28.3067 43.9909C28.9761 42.6894 29.7293 41.3786 30.5196 40.1375C31.2634 38.9615 32.0583 37.7761 32.8997 36.6652C33.5552 35.8006 34.2526 34.9221 34.9964 34.1412C35.5031 33.6066 35.9168 33.1418 36.2376 32.8071C36.5537 32.4725 36.8419 32.2121 37.0976 32.0309C37.9205 31.329 38.9711 31.1105 39.9613 30.9943C40.5377 30.9246 41.1886 30.9711 41.8255 31.0733C42.4624 31.1756 43.0667 31.3243 43.6385 31.5289C44.2103 31.7334 44.731 31.9937 45.1912 32.3098C45.6514 32.6258 46.028 32.9791 46.3162 33.3603C46.6323 32.6537 46.8276 32.1843 46.8415 31.9844C46.8508 31.8868 47.0182 31.817 47.3669 31.7985C47.683 31.7845 48.1386 31.7938 48.729 31.8403C49.3194 31.8821 50.0771 31.9426 51.0022 32.0169C52.2388 32.1145 52.8711 32.4399 52.8199 32.9187C52.7269 33.8298 52.0529 34.7687 51.5275 35.5357C51.4718 35.6333 51.4392 35.6798 51.3834 35.7774C50.793 36.7768 50.2026 37.7761 49.6122 38.7755C49.0962 39.654 48.5895 40.5465 48.106 41.439C47.6644 42.2571 47.2274 43.0891 46.8136 43.9212C46.4138 44.7207 46.0419 45.5434 45.6886 46.3848C46.4464 45.7758 47.1949 45.153 47.934 44.5254C48.622 43.9444 49.3054 43.3494 49.9795 42.7544C49.9795 42.7544 49.9934 42.7405 50.0213 42.7173C50.105 42.6429 50.1933 42.5639 50.277 42.4895C50.807 42.0154 51.3276 41.5227 51.8344 41.0206C51.839 41.016 51.8437 41.0113 51.8483 41.0067C51.9506 40.9044 52.0529 40.8022 52.1505 40.6999C52.1551 40.6953 52.1598 40.6906 52.1598 40.6906C52.4248 40.4257 52.7967 40.0631 53.1965 39.6773C53.1965 39.6773 53.1965 39.6773 53.2011 39.6726C53.3917 39.4867 53.587 39.3008 53.7776 39.1148C53.8706 39.0265 53.9682 38.9336 54.0519 38.8499L54.0565 38.8452C54.3261 38.5849 54.9816 37.9435 55.2884 37.6413C55.2141 37.5019 55.1397 37.3578 55.0746 37.2091C54.7399 36.4746 54.633 35.4009 55.0049 34.7455C55.3256 34.1784 56.1206 33.5323 56.7249 32.9605C57.3293 32.3888 57.9848 31.8635 58.6867 31.3848C59.1005 31.0966 59.5653 30.892 60.0721 30.7758C60.5834 30.6596 61.1088 30.6085 61.6527 30.6131C62.3872 30.6224 63.1263 30.7433 63.8794 30.9757C64.6279 31.2035 65.3066 31.5056 65.911 31.8682C65.9761 31.6079 66.0319 31.3755 66.0783 31.1802C66.1248 30.985 66.2039 30.813 66.2457 30.6875C66.2875 30.576 66.4688 30.4969 66.8175 30.5109C67.1336 30.5248 67.5845 30.5713 68.1564 30.6643C68.7282 30.7526 69.4534 30.8734 70.3088 31.0268C70.9131 31.1337 71.3454 31.2732 71.6011 31.4359C71.8568 31.5939 71.9684 31.8078 71.9358 32.0727C71.9033 32.3377 71.7359 32.663 71.4338 33.0581C71.1316 33.4532 70.7411 33.9413 70.2623 34.5223C70.1646 34.6478 70.0298 34.8152 69.8578 35.0197C69.6812 35.2242 69.5231 35.4334 69.379 35.6519C69.2349 35.8703 69.1094 36.0702 68.9978 36.2515C68.8862 36.4328 68.8304 36.5769 68.8304 36.6791C68.8304 36.8651 68.6398 36.9487 68.2586 36.9302C67.9379 36.9162 67.5427 36.8325 67.0639 36.6838C66.5851 36.5351 66.1295 36.3631 65.7018 36.1771C65.2741 35.9912 64.9115 35.796 64.6279 35.5868C64.3397 35.3823 64.2281 35.2103 64.2932 35.0801C64.8371 34.3271 65.2323 33.6252 65.4879 32.9698C65.3624 32.914 65.2183 32.8815 65.0556 32.8769C64.7348 32.8676 64.3397 32.9838 63.8609 33.2208C63.382 33.4625 62.8242 33.8669 62.1873 34.4387C61.9316 34.7269 61.6852 35.0383 61.4481 35.3823C61.211 35.7216 60.8903 36.1121 60.7043 36.4839C60.5184 36.8604 60.5277 37.3764 60.6578 37.8133C60.7833 38.2503 61.0018 38.6919 61.304 39.1334C61.6062 39.575 61.9641 40.012 62.3825 40.4396C62.7963 40.8719 63.1961 41.3181 63.5773 41.7737C64.8325 41.425 66.0783 41.0625 67.3196 40.6813C68.2772 40.3699 70.9224 39.5007 71.0851 39.4263C71.2525 39.3519 71.4431 39.0312 71.4431 39.0312V39.0358C72.0893 37.9574 72.754 36.8883 73.4188 35.8285C74.3346 34.369 75.2597 32.914 76.1895 31.4638C76.3848 31.1616 76.5754 30.8595 76.7706 30.5574L76.9287 30.3064C71.7731 29.4464 72.0753 30.153 72.0707 28.8003C72.0707 28.7445 72.0707 28.6888 72.0707 28.6283C71.6058 27.7219 74.7112 27.7591 78.328 28.0984L78.5 27.8242L79.3368 26.5041L80.4478 24.7563C81.0987 23.7104 81.1777 23.6593 81.8378 23.822C82.1632 23.9057 83.2325 24.1102 84.2831 24.3194C85.3616 24.5378 86.4215 24.7563 86.6307 24.8539C86.6865 24.8772 86.733 24.9004 86.7749 24.9236C87.0584 25.0817 87.0956 25.2444 86.8027 25.6534C86.7934 25.6674 86.7795 25.686 86.7656 25.7046C86.5006 26.0671 85.4546 27.4523 84.4319 28.8607C85.3244 28.9955 86.124 29.1257 86.7656 29.2373C87.686 29.3999 88.2764 29.5208 88.3508 29.5719C89.1365 29.5673 89.1411 30.3249 88.7599 31.0733C88.5879 31.4126 88.3322 31.752 88.0347 32.0169C87.5512 32.4492 86.9515 32.677 86.3983 32.3934C85.0083 32.0309 83.7578 31.7241 82.6235 31.4638C82.5677 31.5567 82.5119 31.6404 82.4654 31.7194C81.9819 32.5375 81.4799 33.5044 81.0289 34.2109C80.1317 35.624 79.2391 37.0696 78.3838 38.5059C77.5516 39.9097 76.7381 41.3507 75.9757 42.7916C75.269 44.1303 74.595 45.5016 73.9488 46.8775C74.7019 46.3662 75.4457 45.8502 76.1895 45.3342C76.9845 44.7857 77.7701 44.2001 78.5279 43.6051C79.2577 43.0287 79.9876 42.4337 80.6942 41.8201C81.3776 41.2298 81.9401 40.672 82.3864 40.1421C82.4375 40.0817 82.5723 39.9841 82.6839 39.8725C83.3301 39.0451 83.9995 38.227 84.6968 37.4647C85.3337 36.7628 86.0496 36.0563 86.7842 35.4566C87.2862 35.0476 87.7 34.685 88.0161 34.4294C88.3322 34.1737 88.6158 33.9831 88.8715 33.8669C89.7501 33.3463 90.7961 33.4161 91.7119 33.5369C92.2884 33.6113 92.9252 33.8158 93.5575 34.0761C94.1897 34.3318 94.7848 34.6339 95.3519 34.9779C95.9191 35.3218 96.4305 35.7123 96.886 36.1399C97.3416 36.5722 97.7135 37.0138 97.9924 37.4694C98.3086 36.8418 98.4945 36.4142 98.5131 36.2236C98.5224 36.126 98.6851 36.0981 99.0338 36.1678C99.3453 36.2329 99.7962 36.3538 100.377 36.5443C100.958 36.7303 101.707 36.9813 102.613 37.2788C103.831 37.6832 104.431 38.1341 104.399 38.6314C104.366 39.1288 103.943 39.8911 103.129 40.9277C103.074 41.0113 103.046 41.0532 102.99 41.1368C102.409 41.9921 101.828 42.8474 101.251 43.698C100.74 44.4464 100.242 45.218 99.7683 45.9897C99.3127 46.7287 98.8897 47.4539 98.4945 48.1557C98.0994 48.8576 97.7321 49.5874 97.3881 50.3404C98.0808 49.9453 98.8199 49.5084 99.6056 49.0343C100.382 48.5648 101.158 48.0767 101.911 47.5747C102.665 47.0727 103.362 46.566 104.003 46.0501C104.645 45.5341 105.184 45.0461 105.621 44.5952C105.682 44.558 105.761 44.5487 105.854 44.5719C106.012 44.6091 106.174 44.7207 106.346 44.9066C106.518 45.0925 106.681 45.2924 106.839 45.5016C106.997 45.7108 107.104 45.9153 107.169 46.1152C107.244 46.3057 107.225 46.4312 107.132 46.4917Z" fill="#626A90"/>
<path d="M96.2912 36.9307C96.1192 36.6332 95.8589 36.4519 95.5102 36.3869C95.1615 36.3218 94.7617 36.3822 94.3062 36.5635C93.8506 36.7448 93.3067 37.112 92.6744 37.6651C91.3867 39.1898 90.1687 40.7748 89.053 42.411C87.849 44.1681 86.7286 46.0134 85.6594 47.882C85.4037 48.3515 85.162 48.8256 84.9249 49.3091C84.6878 49.7925 84.4879 50.2341 84.3298 50.6385C84.1718 51.0429 84.0509 51.3543 83.9719 51.5821C83.8928 51.8098 83.8835 51.9028 83.9486 51.8563C84.9435 51.1312 85.85 50.3875 86.7286 49.5461C87.7002 48.6118 88.6486 47.5938 89.5737 46.5852C90.5546 45.5114 91.5262 44.4237 92.4838 43.336C93.4368 42.253 94.3991 41.1699 95.3661 40.0962L95.3614 40.0915C96.096 39.213 96.3563 38.5576 96.4493 38.1904C96.4771 38.1021 96.4958 38.0138 96.5004 37.9254C96.5004 37.9161 96.5004 37.9068 96.5004 37.8929C96.5004 37.8697 96.5004 37.8604 96.5004 37.8604C96.5097 37.535 96.4539 37.2096 96.2912 36.9307Z" fill="#626A90"/>
<path d="M34.6201 19.5506C35.8753 19.5506 36.9585 18.7697 37.4373 17.6541C37.4373 20.7127 36.4843 20.801 35.1455 21.4564C35.2617 21.4518 36.9167 21.4518 37.6977 21.4518C38.4787 21.4518 40.1336 21.4518 40.2498 21.4564C38.911 20.801 37.958 20.7127 37.958 17.6541C38.4368 18.7697 39.52 19.5506 40.7752 19.5506C43.9782 19.5506 45.4565 14.5119 40.6078 12.3783C37.7023 11.1001 37.6977 9.06411 37.6977 9.06411C37.6977 9.06411 37.693 11.0954 34.7875 12.3783C29.9341 14.5119 31.4171 19.5506 34.6201 19.5506Z" fill="#626A90"/>
</svg>
