<svg width="386" height="257" viewBox="0 0 386 257" fill="none" xmlns="http://www.w3.org/2000/svg">
<path d="M382.984 0.000488281C383.868 0.628152 384.752 1.25582 386 2.0927C321.892 46.4476 257.836 90.6979 193.728 135C129.1 90.3318 64.524 45.7153 0 1.09892C0.0519935 0.889698 0.103987 0.732779 0.155981 0.523558C5.40733 0.523558 10.6587 0.837399 15.858 0.418956C21.1614 0.000513598 25.3728 1.72658 29.6883 4.70798C83.5016 42.1063 137.419 79.2953 191.232 116.589C193.052 117.844 194.248 117.949 196.12 116.641C251.441 78.3538 306.762 40.171 362.083 1.93579C363.019 1.30813 363.903 0.680458 364.839 0.000489071C370.87 0.000488808 376.953 0.000488544 382.984 0.000488281Z" fill="url(#paint0_linear)"/>
<path d="M46.2743 0.523194C54.4892 0.523194 61.9243 0.470892 69.3594 0.575502C70.3473 0.575502 71.4391 1.36008 72.323 1.93544C111.994 29.3434 151.613 56.6991 191.18 84.1071C193.156 85.467 194.352 85.467 196.328 84.1071C235.895 56.6468 275.514 29.2911 315.185 1.98773C316.589 1.04624 318.46 0.470887 320.176 0.418581C326.155 0.20936 332.135 0.313964 338.114 0.313964C338.946 0.313964 339.778 0.313964 341.338 0.313964C340.194 1.25546 339.674 1.72621 339.102 2.14465C291.268 35.2016 243.434 68.2586 195.652 101.316C194.352 102.205 193.468 102.414 192.064 101.42C144.074 68.2586 96.0841 35.097 48.146 1.93544C47.7301 1.67392 47.3141 1.30777 46.2743 0.523194Z" fill="url(#paint1_linear)"/>
<path d="M93.3284 0.523842C101.491 0.523842 109.082 0.47154 116.673 0.57615C117.557 0.57615 118.545 1.41303 119.377 1.98839C143.294 18.5169 167.211 34.993 191.076 51.5215C191.908 52.0969 192.792 52.6722 193.78 53.2999C199.603 49.2724 205.374 45.2972 211.146 41.322C230.123 28.1933 249.101 15.0647 268.131 2.04069C269.586 1.04689 271.614 0.471539 273.382 0.419234C280.141 0.210012 286.848 0.366925 294.283 0.366924C293.296 1.20381 292.776 1.67455 292.204 2.09299C260.02 24.3227 227.836 46.5525 195.652 68.8345C194.56 69.5668 193.78 70.2468 192.272 69.2007C159.724 46.6048 127.072 24.1135 94.4722 1.56995C94.2643 1.36073 94.0563 1.20381 93.3284 0.523842Z" fill="url(#paint2_linear)"/>
<path d="M140.383 0.523824C148.39 0.523824 155.981 0.471521 163.572 0.576131C164.404 0.576131 165.287 1.3084 166.067 1.83146C174.49 7.63734 182.913 13.4432 191.336 19.3014C192.116 19.8245 192.896 20.3475 193.78 20.9229C202.723 14.7509 211.666 8.63115 220.557 2.40681C222.584 0.994571 224.612 0.366914 227.056 0.419219C233.607 0.52383 240.158 0.471511 247.489 0.471511C246.397 1.3084 245.877 1.72684 245.357 2.09298C228.824 13.5478 212.238 24.9504 195.704 36.4053C194.612 37.1375 193.832 37.8175 192.324 36.7714C175.322 24.8981 158.268 13.1294 141.214 1.36071C141.006 1.2561 140.902 1.09918 140.383 0.523824Z" fill="url(#paint3_linear)"/>
<g opacity="0.4">
<path d="M382.984 263C383.868 262.373 384.752 261.745 386 260.908C321.892 216.553 257.836 172.303 193.728 128C129.1 172.669 64.524 217.286 0 261.902C0.0519935 262.111 0.103987 262.268 0.155981 262.477C5.40733 262.477 10.6587 262.164 15.858 262.582C21.1614 263 25.3728 261.274 29.6883 258.293C83.5016 220.895 137.419 183.706 191.232 146.412C193.052 145.157 194.248 145.052 196.12 146.36C251.441 184.647 306.762 222.83 362.083 261.065C363.019 261.693 363.903 262.321 364.839 263C370.87 263 376.953 263 382.984 263Z" fill="url(#paint4_linear)"/>
<path d="M46.2743 262.478C54.4892 262.478 61.9243 262.53 69.3594 262.425C70.3473 262.425 71.4391 261.641 72.323 261.066C111.994 233.658 151.613 206.302 191.18 178.894C193.156 177.534 194.352 177.534 196.328 178.894C235.895 206.354 275.514 233.71 315.185 261.013C316.589 261.955 318.46 262.53 320.176 262.582C326.155 262.792 332.135 262.687 338.114 262.687C338.946 262.687 339.778 262.687 341.338 262.687C340.194 261.746 339.674 261.275 339.102 260.856C291.268 227.799 243.434 194.742 195.652 161.685C194.352 160.796 193.468 160.587 192.064 161.581C144.074 194.742 96.0841 227.904 48.146 261.066C47.7301 261.327 47.3141 261.693 46.2743 262.478Z" fill="url(#paint5_linear)"/>
<path d="M93.3284 262.477C101.491 262.477 109.082 262.529 116.673 262.425C117.557 262.425 118.545 261.588 119.377 261.013C143.294 244.484 167.211 228.008 191.076 211.479C191.908 210.904 192.792 210.329 193.78 209.701C199.603 213.729 205.374 217.704 211.146 221.679C230.123 234.808 249.101 247.936 268.131 260.96C269.586 261.954 271.614 262.529 273.382 262.582C280.141 262.791 286.848 262.634 294.283 262.634C293.296 261.797 292.776 261.326 292.204 260.908C260.02 238.678 227.836 216.448 195.652 194.166C194.56 193.434 193.78 192.754 192.272 193.8C159.724 216.396 127.072 238.887 94.4722 261.431C94.2643 261.64 94.0563 261.797 93.3284 262.477Z" fill="url(#paint6_linear)"/>
<path d="M140.383 262.477C148.39 262.477 155.981 262.529 163.572 262.425C164.404 262.425 165.287 261.693 166.067 261.17C174.49 255.364 182.913 249.558 191.336 243.7C192.116 243.176 192.896 242.653 193.78 242.078C202.723 248.25 211.666 254.37 220.557 260.594C222.584 262.006 224.612 262.634 227.056 262.582C233.607 262.477 240.158 262.529 247.489 262.529C246.397 261.693 245.877 261.274 245.357 260.908C228.824 249.453 212.238 238.051 195.704 226.596C194.612 225.863 193.832 225.183 192.324 226.23C175.322 238.103 158.268 249.872 141.214 261.64C141.006 261.745 140.902 261.902 140.383 262.477Z" fill="url(#paint7_linear)"/>
</g>
<defs>
<linearGradient id="paint0_linear" x1="193" y1="0.000227758" x2="193" y2="135" gradientUnits="userSpaceOnUse">
<stop stop-color="#E23355"/>
<stop offset="1" stop-color="#FF3A61"/>
</linearGradient>
<linearGradient id="paint1_linear" x1="193" y1="0.000227758" x2="193" y2="135" gradientUnits="userSpaceOnUse">
<stop stop-color="#E23355"/>
<stop offset="1" stop-color="#FF3A61"/>
</linearGradient>
<linearGradient id="paint2_linear" x1="193" y1="0.000227758" x2="193" y2="135" gradientUnits="userSpaceOnUse">
<stop stop-color="#E23355"/>
<stop offset="1" stop-color="#FF3A61"/>
</linearGradient>
<linearGradient id="paint3_linear" x1="193" y1="0.000227758" x2="193" y2="135" gradientUnits="userSpaceOnUse">
<stop stop-color="#E23355"/>
<stop offset="1" stop-color="#FF3A61"/>
</linearGradient>
<linearGradient id="paint4_linear" x1="193" y1="263.001" x2="193" y2="128.001" gradientUnits="userSpaceOnUse">
<stop stop-color="#E23355"/>
<stop offset="1" stop-color="#FF3A61"/>
</linearGradient>
<linearGradient id="paint5_linear" x1="193" y1="263.001" x2="193" y2="128.001" gradientUnits="userSpaceOnUse">
<stop stop-color="#E23355"/>
<stop offset="1" stop-color="#FF3A61"/>
</linearGradient>
<linearGradient id="paint6_linear" x1="193" y1="263.001" x2="193" y2="128.001" gradientUnits="userSpaceOnUse">
<stop stop-color="#E23355"/>
<stop offset="1" stop-color="#FF3A61"/>
</linearGradient>
<linearGradient id="paint7_linear" x1="193" y1="263.001" x2="193" y2="128.001" gradientUnits="userSpaceOnUse">
<stop stop-color="#E23355"/>
<stop offset="1" stop-color="#FF3A61"/>
</linearGradient>
</defs>
</svg>
