<svg width="386" height="257" viewBox="0 0 386 257" fill="none" xmlns="http://www.w3.org/2000/svg">
<g opacity="0.4">
 <!-- <path d="M382.984 263C383.868 262.373 384.752 261.745 386 260.908C321.892 216.553 257.836 172.303 193.728 128C129.1 172.669 64.524 217.286 0 261.902C0.0519935 262.111 0.103987 262.268 0.155981 262.477C5.40733 262.477 10.6587 262.164 15.858 262.582C21.1614 263 25.3728 261.274 29.6883 258.293C83.5016 220.895 137.419 183.706 191.232 146.412C193.052 145.157 194.248 145.052 196.12 146.36C251.441 184.647 306.762 222.83 362.083 261.065C363.019 261.693 363.903 262.321 364.839 263C370.87 263 376.953 263 382.984 263Z" fill="url(#paint4_linear)"/> -->
<path d="M46.2743 262.478C54.4892 262.478 61.9243 262.53 69.3594 262.425C70.3473 262.425 71.4391 261.641 72.323 261.066C111.994 233.658 151.613 206.302 191.18 178.894C193.156 177.534 194.352 177.534 196.328 178.894C235.895 206.354 275.514 233.71 315.185 261.013C316.589 261.955 318.46 262.53 320.176 262.582C326.155 262.792 332.135 262.687 338.114 262.687C338.946 262.687 339.778 262.687 341.338 262.687C340.194 261.746 339.674 261.275 339.102 260.856C291.268 227.799 243.434 194.742 195.652 161.685C194.352 160.796 193.468 160.587 192.064 161.581C144.074 194.742 96.0841 227.904 48.146 261.066C47.7301 261.327 47.3141 261.693 46.2743 262.478Z" fill="url(#paint5_linear)"/> 
<path d="M93.3284 262.477C101.491 262.477 109.082 262.529 116.673 262.425C117.557 262.425 118.545 261.588 119.377 261.013C143.294 244.484 167.211 228.008 191.076 211.479C191.908 210.904 192.792 210.329 193.78 209.701C199.603 213.729 205.374 217.704 211.146 221.679C230.123 234.808 249.101 247.936 268.131 260.96C269.586 261.954 271.614 262.529 273.382 262.582C280.141 262.791 286.848 262.634 294.283 262.634C293.296 261.797 292.776 261.326 292.204 260.908C260.02 238.678 227.836 216.448 195.652 194.166C194.56 193.434 193.78 192.754 192.272 193.8C159.724 216.396 127.072 238.887 94.4722 261.431C94.2643 261.64 94.0563 261.797 93.3284 262.477Z" fill="url(#paint6_linear)"/>
<path d="M140.383 262.477C148.39 262.477 155.981 262.529 163.572 262.425C164.404 262.425 165.287 261.693 166.067 261.17C174.49 255.364 182.913 249.558 191.336 243.7C192.116 243.176 192.896 242.653 193.78 242.078C202.723 248.25 211.666 254.37 220.557 260.594C222.584 262.006 224.612 262.634 227.056 262.582C233.607 262.477 240.158 262.529 247.489 262.529C246.397 261.693 245.877 261.274 245.357 260.908C228.824 249.453 212.238 238.051 195.704 226.596C194.612 225.863 193.832 225.183 192.324 226.23C175.322 238.103 158.268 249.872 141.214 261.64C141.006 261.745 140.902 261.902 140.383 262.477Z" fill="url(#paint7_linear)"/>
</g>
<defs>
<linearGradient id="paint0_linear" x1="193" y1="0.000227758" x2="193" y2="135" gradientUnits="userSpaceOnUse">
<stop stop-color="#E23355"/>
<stop offset="1" stop-color="#FF3A61"/>
</linearGradient>
<linearGradient id="paint1_linear" x1="193" y1="0.000227758" x2="193" y2="135" gradientUnits="userSpaceOnUse">
<stop stop-color="#E23355"/>
<stop offset="1" stop-color="#FF3A61"/>
</linearGradient>
<linearGradient id="paint2_linear" x1="193" y1="0.000227758" x2="193" y2="135" gradientUnits="userSpaceOnUse">
<stop stop-color="#E23355"/>
<stop offset="1" stop-color="#FF3A61"/>
</linearGradient>
<linearGradient id="paint3_linear" x1="193" y1="0.000227758" x2="193" y2="135" gradientUnits="userSpaceOnUse">
<stop stop-color="#E23355"/>
<stop offset="1" stop-color="#FF3A61"/>
</linearGradient>
<linearGradient id="paint4_linear" x1="193" y1="263.001" x2="193" y2="128.001" gradientUnits="userSpaceOnUse">
<stop stop-color="#E23355"/>
<stop offset="1" stop-color="#FF3A61"/>
</linearGradient>
<linearGradient id="paint5_linear" x1="193" y1="263.001" x2="193" y2="128.001" gradientUnits="userSpaceOnUse">
<stop stop-color="#E23355"/>
<stop offset="1" stop-color="#FF3A61"/>
</linearGradient>
<linearGradient id="paint6_linear" x1="193" y1="263.001" x2="193" y2="128.001" gradientUnits="userSpaceOnUse">
<stop stop-color="#E23355"/>
<stop offset="1" stop-color="#FF3A61"/>
</linearGradient>
<linearGradient id="paint7_linear" x1="193" y1="263.001" x2="193" y2="128.001" gradientUnits="userSpaceOnUse">
<stop stop-color="#E23355"/>
<stop offset="1" stop-color="#FF3A61"/>
</linearGradient>
</defs>
</svg>
