<svg xmlns="http://www.w3.org/2000/svg" xmlns:xlink="http://www.w3.org/1999/xlink" width="512pt" height="512pt" viewBox="0 0 512 512">
<defs>
<linearGradient id="linear0" gradientUnits="userSpaceOnUse" x1="69.8743" y1="47.8277" x2="69.8743" y2="8.64065" gradientTransform="matrix(2.485437,0,0,2.485437,0,119.300971)">
<stop offset="0.108212" style="stop-color:rgb(70.196078%,76.078431%,81.568627%);stop-opacity:1;"/>
<stop offset="0.5084" style="stop-color:rgb(100%,100%,100%);stop-opacity:1;"/>
</linearGradient>
<linearGradient id="linear1" gradientUnits="userSpaceOnUse" x1="108.073" y1="46.2865" x2="108.073" y2="8.21001" gradientTransform="matrix(2.485437,0,0,2.485437,0,119.300971)">
<stop offset="0.0957621" style="stop-color:rgb(70.196078%,76.078431%,81.568627%);stop-opacity:1;"/>
<stop offset="0.5084" style="stop-color:rgb(100%,100%,100%);stop-opacity:1;"/>
</linearGradient>
<linearGradient id="linear2" gradientUnits="userSpaceOnUse" x1="141.242" y1="48.8741" x2="141.242" y2="9.51326" gradientTransform="matrix(2.485437,0,0,2.485437,0,119.300971)">
<stop offset="0.104213" style="stop-color:rgb(70.196078%,76.078431%,81.568627%);stop-opacity:1;"/>
<stop offset="0.5084" style="stop-color:rgb(100%,100%,100%);stop-opacity:1;"/>
</linearGradient>
<linearGradient id="linear3" gradientUnits="userSpaceOnUse" x1="175.352" y1="56.5905" x2="175.352" y2="12.7101" gradientTransform="matrix(2.485437,0,0,2.485437,0,119.300971)">
<stop offset="0.112744" style="stop-color:rgb(70.196078%,76.078431%,81.568627%);stop-opacity:1;"/>
<stop offset="0.5084" style="stop-color:rgb(100%,100%,100%);stop-opacity:1;"/>
</linearGradient>
<linearGradient id="linear4" gradientUnits="userSpaceOnUse" x1="33.1856" y1="55.07" x2="33.1856" y2="13.2175" gradientTransform="matrix(2.485437,0,0,2.485437,0,119.300971)">
<stop offset="0.127158" style="stop-color:rgb(70.196078%,76.078431%,81.568627%);stop-opacity:1;"/>
<stop offset="0.5084" style="stop-color:rgb(100%,100%,100%);stop-opacity:1;"/>
</linearGradient>
<linearGradient id="linear5" gradientUnits="userSpaceOnUse" x1="65.3513" y1="16.6176" x2="65.3513" y2="27.5386" gradientTransform="matrix(2.485437,0,0,2.485437,0,119.300971)">
<stop offset="0" style="stop-color:rgb(0%,0%,0%);stop-opacity:1;"/>
<stop offset="1" style="stop-color:rgb(0%,0%,0%);stop-opacity:0;"/>
</linearGradient>
<linearGradient id="linear6" gradientUnits="userSpaceOnUse" x1="35.5927" y1="40.1343" x2="35.5927" y2="101.531" gradientTransform="matrix(2.485437,0,0,2.485437,0,119.300971)">
<stop offset="0" style="stop-color:rgb(100%,7.843137%,41.176471%);stop-opacity:1;"/>
<stop offset="1" style="stop-color:rgb(67.058824%,11.372549%,11.372549%);stop-opacity:1;"/>
</linearGradient>
<linearGradient id="linear7" gradientUnits="userSpaceOnUse" x1="122.095" y1="43.5264" x2="122.095" y2="101.473" gradientTransform="matrix(2.485437,0,0,2.485437,0,119.300971)">
<stop offset="0" style="stop-color:rgb(100%,7.843137%,41.176471%);stop-opacity:1;"/>
<stop offset="1" style="stop-color:rgb(67.058824%,11.372549%,11.372549%);stop-opacity:1;"/>
</linearGradient>
<linearGradient id="linear8" gradientUnits="userSpaceOnUse" x1="56.4823" y1="42.6752" x2="56.4823" y2="57.6541" gradientTransform="matrix(2.485437,0,0,2.485437,0,119.300971)">
<stop offset="0" style="stop-color:rgb(100%,100%,100%);stop-opacity:1;"/>
<stop offset="1" style="stop-color:rgb(100%,100%,100%);stop-opacity:0;"/>
</linearGradient>
<linearGradient id="linear9" gradientUnits="userSpaceOnUse" x1="42.7905" y1="75.3926" x2="42.7905" y2="84.9027" gradientTransform="matrix(2.485437,0,0,2.485437,0,119.300971)">
<stop offset="0" style="stop-color:rgb(100%,100%,100%);stop-opacity:1;"/>
<stop offset="1" style="stop-color:rgb(100%,100%,100%);stop-opacity:0;"/>
</linearGradient>
<linearGradient id="linear10" gradientUnits="userSpaceOnUse" x1="89.289" y1="60.5076" x2="89.289" y2="74.7239" gradientTransform="matrix(2.485437,0,0,2.485437,0,119.300971)">
<stop offset="0" style="stop-color:rgb(100%,100%,100%);stop-opacity:1;"/>
<stop offset="1" style="stop-color:rgb(100%,100%,100%);stop-opacity:0;"/>
</linearGradient>
<linearGradient id="linear11" gradientUnits="userSpaceOnUse" x1="126.869" y1="57.2827" x2="126.869" y2="65.8796" gradientTransform="matrix(2.485437,0,0,2.485437,0,119.300971)">
<stop offset="0" style="stop-color:rgb(100%,100%,100%);stop-opacity:1;"/>
<stop offset="1" style="stop-color:rgb(100%,100%,100%);stop-opacity:0;"/>
</linearGradient>
<linearGradient id="linear12" gradientUnits="userSpaceOnUse" x1="116.114" y1="78.6819" x2="116.114" y2="87.3381" gradientTransform="matrix(2.485437,0,0,2.485437,0,119.300971)">
<stop offset="0" style="stop-color:rgb(100%,100%,100%);stop-opacity:1;"/>
<stop offset="1" style="stop-color:rgb(100%,100%,100%);stop-opacity:0;"/>
</linearGradient>
<linearGradient id="linear13" gradientUnits="userSpaceOnUse" x1="151.849" y1="46.1637" x2="151.849" y2="58.1879" gradientTransform="matrix(2.485437,0,0,2.485437,0,119.300971)">
<stop offset="0" style="stop-color:rgb(100%,100%,100%);stop-opacity:1;"/>
<stop offset="1" style="stop-color:rgb(100%,100%,100%);stop-opacity:0;"/>
</linearGradient>
<linearGradient id="linear14" gradientUnits="userSpaceOnUse" x1="184.273" y1="69.5386" x2="184.273" y2="83.1303" gradientTransform="matrix(2.485437,0,0,2.485437,0,119.300971)">
<stop offset="0" style="stop-color:rgb(100%,100%,100%);stop-opacity:1;"/>
<stop offset="1" style="stop-color:rgb(100%,100%,100%);stop-opacity:0;"/>
</linearGradient>
<filter id="alpha" filterUnits="objectBoundingBox" x="0%" y="0%" width="100%" height="100%">
  <feColorMatrix type="matrix" in="SourceGraphic" values="0 0 0 0 1 0 0 0 0 1 0 0 0 0 1 0 0 0 1 0"/>
</filter>
<mask id="mask0">
  <g filter="url(#alpha)">
<rect x="0" y="0" width="512" height="512" style="fill:rgb(0%,0%,0%);fill-opacity:0.4;stroke:none;"/>
  </g>
</mask>
<linearGradient id="linear15" gradientUnits="userSpaceOnUse" x1="128.267" y1="77.0153" x2="128.267" y2="91.8556" gradientTransform="matrix(2.485437,0,0,2.485437,0,119.300971)">
<stop offset="0" style="stop-color:rgb(16.862745%,0.392157%,0.392157%);stop-opacity:0;"/>
<stop offset="1" style="stop-color:rgb(20%,0.784314%,0.784314%);stop-opacity:1;"/>
</linearGradient>
<linearGradient id="linear16" gradientUnits="userSpaceOnUse" x1="172.277" y1="90.9992" x2="172.277" y2="100.28" gradientTransform="matrix(2.485437,0,0,2.485437,0,119.300971)">
<stop offset="0" style="stop-color:rgb(16.862745%,0.392157%,0.392157%);stop-opacity:0;"/>
<stop offset="1" style="stop-color:rgb(20%,0.784314%,0.784314%);stop-opacity:1;"/>
</linearGradient>
<linearGradient id="linear17" gradientUnits="userSpaceOnUse" x1="77.3093" y1="85.9409" x2="77.3093" y2="93.6543" gradientTransform="matrix(2.485437,0,0,2.485437,0,119.300971)">
<stop offset="0" style="stop-color:rgb(16.862745%,0.392157%,0.392157%);stop-opacity:0;"/>
<stop offset="1" style="stop-color:rgb(20%,0.784314%,0.784314%);stop-opacity:1;"/>
</linearGradient>
<linearGradient id="linear18" gradientUnits="userSpaceOnUse" x1="53.2692" y1="88.1176" x2="53.2692" y2="94.9405" gradientTransform="matrix(2.485437,0,0,2.485437,0,119.300971)">
<stop offset="0" style="stop-color:rgb(16.862745%,0.392157%,0.392157%);stop-opacity:0;"/>
<stop offset="1" style="stop-color:rgb(20%,0.784314%,0.784314%);stop-opacity:1;"/>
</linearGradient>
<linearGradient id="linear19" gradientUnits="userSpaceOnUse" x1="13.9917" y1="80.2811" x2="13.9917" y2="99.4425" gradientTransform="matrix(2.485437,0,0,2.485437,0,119.300971)">
<stop offset="0" style="stop-color:rgb(16.862745%,0.392157%,0.392157%);stop-opacity:0;"/>
<stop offset="1" style="stop-color:rgb(20%,0.784314%,0.784314%);stop-opacity:1;"/>
</linearGradient>
<linearGradient id="linear20" gradientUnits="userSpaceOnUse" x1="148.42" y1="87.8624" x2="148.42" y2="95.7805" gradientTransform="matrix(2.485437,0,0,2.485437,0,119.300971)">
<stop offset="0" style="stop-color:rgb(16.862745%,0.392157%,0.392157%);stop-opacity:0;"/>
<stop offset="1" style="stop-color:rgb(20%,0.784314%,0.784314%);stop-opacity:1;"/>
</linearGradient>
<linearGradient id="linear21" gradientUnits="userSpaceOnUse" x1="107.63" y1="89.1403" x2="107.63" y2="92.7194" gradientTransform="matrix(2.485437,0,0,2.485437,0,119.300971)">
<stop offset="0" style="stop-color:rgb(16.862745%,0.392157%,0.392157%);stop-opacity:0;"/>
<stop offset="1" style="stop-color:rgb(20%,0.784314%,0.784314%);stop-opacity:1;"/>
</linearGradient>
<clipPath id="clip1">
  <rect x="0" y="0" width="512" height="512"/>
</clipPath>
<g id="surface5" clip-path="url(#clip1)">
<path style=" stroke:none;fill-rule:nonzero;fill:url(#linear15);" d="M 322.875 310.988281 C 320.628906 313.339844 319.058594 316.285156 317.453125 319.078125 C 316.605469 320.5625 315.757812 322.066406 314.890625 323.546875 C 314 325.09375 313.046875 326.640625 312.496094 328.335938 C 310.84375 333.3125 311.160156 339.878906 315.1875 343.671875 C 316.371094 344.792969 317.664062 345.765625 319.125 346.488281 C 319.824219 346.824219 320.542969 347.101562 321.285156 347.335938 C 322.578125 347.738281 323.003906 347.671875 324.273438 347.226562 C 325.011719 346.972656 325.375 345.660156 325.566406 345.027344 C 325.925781 343.859375 326.09375 342.570312 326.03125 341.363281 C 325.945312 339.414062 325.667969 336.851562 323.976562 335.578125 C 323.003906 334.859375 321.878906 334.625 320.777344 334.140625 C 319.738281 333.695312 318.765625 333.121094 317.855469 332.421875 C 317.453125 332.125 317.113281 331.808594 316.796875 331.429688 C 316.6875 331.28125 316.285156 330.515625 316.539062 331.089844 C 317.007812 332.167969 317.261719 332.699219 317.242188 334.179688 C 317.242188 334.097656 316.773438 337.316406 317.132812 336.023438 C 316.796875 337.292969 317.027344 336.40625 317.152344 336.109375 C 317.386719 335.515625 317.6875 334.945312 317.960938 334.371094 C 319.148438 331.957031 320.375 329.5625 321.519531 327.128906 C 322.769531 324.480469 324.101562 321.898438 325.011719 319.101562 C 325.605469 317.257812 325.734375 315.035156 325.183594 313.148438 C 324.992188 312.554688 323.953125 309.867188 322.875 310.988281 Z M 322.875 310.988281 "/>
<path style=" stroke:none;fill-rule:nonzero;fill:url(#linear16);" d="M 418.191406 352.71875 C 418.65625 354.15625 419.207031 355.152344 420.199219 356.277344 C 420.859375 357.015625 421.621094 357.632812 422.40625 358.246094 C 423.757812 359.304688 425.160156 360.277344 426.554688 361.273438 C 427.910156 362.269531 429.289062 363.265625 430.644531 364.238281 C 431.320312 364.726562 432 365.214844 432.675781 365.722656 C 433.078125 366.019531 433.460938 366.292969 433.839844 366.589844 C 434.011719 366.71875 434.179688 366.84375 434.351562 366.972656 C 433.503906 366.101562 433.078125 365.003906 433.058594 363.648438 C 433.078125 361.972656 433.101562 360.277344 433.140625 358.605469 C 433.121094 358.667969 433.101562 358.710938 433.101562 358.773438 C 433.609375 357.757812 434.140625 356.742188 434.644531 355.726562 C 434.601562 355.765625 434.542969 355.832031 434.5 355.875 C 432.65625 357.632812 432.570312 360.660156 432.804688 363.03125 C 432.929688 364.238281 433.121094 365.617188 433.714844 366.695312 C 434.03125 367.289062 434.859375 368.8125 435.746094 368.496094 C 436.53125 368.242188 436.871094 368.09375 437.378906 367.375 C 438.183594 366.210938 438.4375 364.621094 438.542969 363.242188 C 438.734375 360.703125 438.394531 357.269531 436.59375 355.257812 C 435.789062 354.371094 434.667969 353.734375 433.695312 353.078125 C 432.78125 352.464844 431.871094 351.871094 430.960938 351.277344 C 429.160156 350.113281 427.296875 349.03125 425.453125 347.929688 C 424.566406 347.402344 423.699219 346.851562 422.785156 346.382812 C 421.792969 345.855469 420.902344 345.75 419.84375 345.472656 C 419.671875 345.539062 419.480469 345.601562 419.3125 345.683594 C 417.636719 347.484375 417.449219 350.410156 418.191406 352.71875 Z M 418.191406 352.71875 "/>
<path style=" stroke:none;fill-rule:nonzero;fill:url(#linear17);" d="M 182.554688 341.425781 C 183.148438 343.628906 184.335938 344.878906 186.304688 345.914062 C 187.660156 346.636719 189.078125 347.269531 190.457031 347.949219 C 193.210938 349.304688 195.984375 350.617188 198.757812 351.910156 C 199.605469 352.3125 200.347656 351.929688 200.855469 351.191406 C 202.339844 348.964844 202.402344 346.042969 201.828125 343.5 C 201.449219 341.785156 200.875 339.921875 199.183594 339.136719 C 197.59375 338.417969 196.027344 337.699219 194.4375 337 C 191.28125 335.621094 188.125 334.011719 184.800781 333.101562 C 185.011719 333.164062 185.246094 333.226562 185.457031 333.292969 C 185.246094 333.207031 185.074219 333.082031 184.886719 333.015625 C 183.488281 332.464844 182.851562 334.011719 182.535156 335.136719 C 181.960938 337.125 182.027344 339.414062 182.554688 341.425781 Z M 182.554688 341.425781 "/>
<path style=" stroke:none;fill-rule:nonzero;fill:url(#linear18);" d="M 124.09375 347.632812 C 124.476562 348.519531 124.921875 349.304688 125.703125 349.875 C 126.191406 350.238281 126.890625 350.320312 127.460938 350.492188 C 127.25 350.425781 127.015625 350.363281 126.804688 350.300781 C 128.882812 350.9375 130.871094 351.71875 132.882812 352.546875 C 133.816406 352.925781 134.75 353.328125 135.660156 353.773438 C 136.78125 354.304688 137.820312 355.003906 139.046875 355.257812 C 139.875 355.425781 140.636719 353.878906 140.828125 353.414062 C 141.25 352.269531 141.398438 351.0625 141.441406 349.855469 C 141.503906 347.546875 141.25 344.773438 139.429688 343.121094 C 138.371094 342.144531 136.675781 341.574219 135.363281 341.023438 C 133.859375 340.367188 132.355469 339.835938 130.789062 339.390625 C 130.066406 339.179688 129.347656 338.988281 128.628906 338.800781 C 127.949219 338.628906 127.125 338.332031 126.445312 338.3125 C 125.238281 338.289062 124.601562 339.136719 124.136719 340.113281 C 123.015625 342.273438 123.164062 345.429688 124.09375 347.632812 Z M 124.09375 347.632812 "/>
<path style=" stroke:none;fill-rule:nonzero;fill:url(#linear19);" d="M 40.285156 357.351562 C 38.886719 356.25 37.574219 355.019531 36.132812 353.941406 C 35.476562 353.453125 34.820312 352.964844 34.207031 352.4375 C 33.378906 351.738281 34.566406 352.839844 33.804688 352.054688 C 33.464844 351.714844 33.148438 351.398438 32.828125 351.039062 C 32.597656 350.785156 32.386719 350.507812 32.152344 350.253906 C 31.875 349.875 31.875 349.894531 32.152344 350.316406 C 32.722656 351.78125 32.871094 353.261719 32.597656 354.703125 C 32.511719 355.167969 32.511719 355.167969 32.617188 354.679688 C 32.679688 354.425781 32.746094 354.171875 32.808594 353.917969 C 32.914062 353.539062 33 353.136719 33.105469 352.753906 C 33.570312 350.953125 34.058594 349.152344 34.585938 347.351562 C 34.695312 346.972656 34.820312 346.589844 34.925781 346.210938 C 35.097656 345.679688 35.074219 345.699219 34.90625 346.292969 C 34.988281 346.039062 35.074219 345.785156 35.136719 345.53125 C 35.394531 344.707031 35.667969 343.878906 35.941406 343.054688 C 36.515625 341.359375 37.109375 339.664062 37.722656 337.96875 C 38.359375 336.210938 39.035156 334.496094 39.753906 332.78125 C 40.117188 331.914062 40.496094 331.066406 40.855469 330.21875 C 41.492188 328.714844 41.789062 327.167969 41.980469 325.535156 C 42.148438 324.203125 41.832031 317.679688 39.078125 319.011719 C 37.890625 319.585938 37.445312 320.984375 36.9375 322.128906 C 36.515625 323.101562 36.089844 324.074219 35.6875 325.070312 C 34.882812 327.039062 34.078125 329.03125 33.339844 331.042969 C 31.769531 335.257812 30.414062 339.558594 29.230469 343.902344 C 27.703125 349.429688 25.902344 356.332031 30.289062 361.058594 C 31.621094 362.496094 33.167969 363.875 34.820312 364.953125 C 35.582031 365.441406 36.34375 365.800781 37.214844 366.054688 C 38.167969 366.332031 39.035156 366.394531 40.011719 366.457031 C 40.667969 366.5 41.21875 365.527344 41.386719 365.058594 C 41.726562 364.210938 41.851562 363.300781 41.875 362.390625 C 41.917969 360.71875 41.726562 358.453125 40.285156 357.351562 Z M 40.285156 357.351562 "/>
<path style=" stroke:none;fill-rule:nonzero;fill:url(#linear20);" d="M 359.648438 346.015625 C 360.113281 348.21875 361.214844 349.511719 363.058594 350.632812 C 364.351562 351.417969 365.683594 352.09375 366.976562 352.835938 C 369.582031 354.296875 372.207031 355.738281 374.832031 357.15625 C 375.640625 357.601562 376.378906 357.261719 376.910156 356.542969 C 378.453125 354.402344 378.644531 351.523438 378.222656 348.980469 C 377.949219 347.265625 377.480469 345.402344 375.871094 344.554688 C 374.367188 343.773438 372.886719 342.96875 371.363281 342.226562 C 368.351562 340.722656 365.386719 338.984375 362.191406 337.925781 C 362.402344 337.988281 362.613281 338.074219 362.804688 338.136719 C 362.613281 338.054688 362.445312 337.925781 362.253906 337.820312 C 360.917969 337.207031 360.242188 338.710938 359.882812 339.8125 C 359.265625 341.738281 359.203125 344.003906 359.648438 346.015625 Z M 359.648438 346.015625 "/>
<path style=" stroke:none;fill-rule:nonzero;fill:url(#linear21);" d="M 258.082031 348.65625 C 256.558594 348.335938 256.863281 347.589844 257.164062 346.207031 C 257.777344 345.464844 259.714844 344.71875 261.648438 342.59375 C 263.582031 340.464844 266.738281 340.570312 270.503906 341.421875 C 274.273438 342.273438 278.652344 343.550781 278.039062 344.71875 C 277.429688 345.890625 274.578125 347.804688 273.050781 348.65625 C 271.523438 349.507812 269.082031 349.507812 265.925781 349.71875 C 262.769531 349.929688 259.613281 348.972656 258.082031 348.65625 Z M 258.082031 348.65625 "/>
</g>
</defs>
<g id="surface1">
<rect x="0" y="0" width="512" height="512" style="fill:rgb(25.098039%,9.019608%,29.411765%);fill-opacity:1;stroke:none;"/>
<path d="M 508.523438 323.0625 C 507.527344 319.863281 505.941406 316.792969 503.800781 313.910156 C 502.636719 312.363281 501.40625 310.882812 500.136719 309.503906 C 498.527344 307.769531 496.792969 306.285156 494.949219 305.078125 C 496.046875 302.21875 496.683594 299.421875 496.855469 296.628906 C 497.296875 289.425781 494.523438 282.5625 489.144531 277.394531 C 489.757812 276.910156 490.328125 276.402344 490.902344 275.851562 C 496.132812 270.703125 498.359375 263.226562 496.726562 256.066406 C 494.503906 246.175781 492.234375 236.179688 489.992188 226.328125 C 489.441406 223.28125 488.59375 220.355469 487.492188 217.582031 C 489.292969 214.933594 490.773438 212.011719 491.878906 208.835938 C 493.507812 204.21875 494.3125 199.199219 494.269531 193.902344 C 494.164062 177.339844 488.824219 163.675781 478.851562 154.378906 C 467.160156 143.492188 452.3125 139.257812 439.328125 136.546875 C 423.589844 133.261719 409.886719 131.292969 397.410156 130.53125 C 396.988281 130.507812 396.5625 130.488281 396.117188 130.488281 C 394.574219 130.488281 393.050781 130.65625 391.546875 130.996094 C 391.375 130.953125 391.207031 130.890625 391.035156 130.847656 C 374.449219 126.292969 357.761719 124.601562 341.644531 122.96875 L 339.71875 122.777344 C 338.191406 122.628906 336.667969 122.546875 335.140625 122.546875 C 330.777344 122.546875 326.5 123.179688 322.496094 124.429688 C 319.53125 122.566406 316.101562 121.421875 312.480469 121.191406 C 301.910156 120.554688 291.191406 120.046875 280.625 119.707031 C 280.390625 119.707031 280.15625 119.6875 279.945312 119.6875 C 275.898438 119.6875 272.023438 120.828125 268.699219 122.90625 C 265.246094 120.574219 261.136719 119.285156 256.898438 119.285156 C 256.222656 119.285156 255.546875 119.285156 254.867188 119.285156 C 245.675781 119.285156 236.375 119.390625 227.226562 119.621094 C 220.976562 119.769531 215.40625 122.628906 211.617188 127.035156 C 209.964844 126.101562 208.269531 125.277344 206.554688 124.578125 C 199.480469 121.742188 191.515625 120.363281 182.21875 120.363281 C 178.933594 120.363281 175.480469 120.53125 171.351562 120.894531 C 157.585938 122.078125 146.527344 125.085938 137.484375 130.105469 C 133.078125 132.5625 129.035156 135.761719 125.453125 139.660156 C 125.007812 139.339844 124.5625 139.023438 124.121094 138.707031 C 117.171875 134.089844 108.617188 131.738281 98.683594 131.738281 C 91.394531 131.738281 84.679688 132.945312 79.28125 133.898438 L 78.773438 133.984375 C 63.121094 136.800781 49.542969 140.105469 37.28125 144.128906 C 28.636719 146.964844 22.769531 154.972656 22.6875 164.082031 L 21.945312 249.054688 L 21.882812 256.789062 C 21.816406 263.269531 24.742188 269.410156 29.78125 273.476562 C 29.910156 273.582031 30.058594 273.6875 30.183594 273.796875 C 29.570312 274.832031 28.976562 275.871094 28.382812 276.929688 C 22.621094 287.097656 17.582031 297.644531 13.34375 308.214844 C 9.574219 317.679688 6.1875 328.058594 3.285156 339.050781 L 3.222656 339.265625 L 3.179688 339.476562 C 2.566406 342.058594 1.992188 344.199219 1.527344 345.832031 C 0.339844 350.023438 -0.144531 353.898438 0.0234375 357.691406 C 0.277344 362.859375 1.886719 367.835938 4.660156 372.113281 C 6.757812 375.355469 9.660156 378.320312 13.492188 381.179688 C 15.398438 382.683594 17.601562 384.0625 20.144531 385.332031 C 21.667969 386.011719 22.941406 386.601562 24.0625 387.132812 C 24.824219 387.449219 25.585938 387.769531 26.394531 388.0625 C 26.394531 388.0625 26.414062 388.0625 26.414062 388.085938 C 28.085938 388.71875 29.824219 389.332031 31.601562 389.886719 C 32.070312 389.992188 32.726562 390.121094 33.53125 390.246094 C 42.488281 392.554688 56.894531 394.757812 67.992188 388.71875 C 67.992188 388.71875 68.011719 388.71875 68.011719 388.699219 C 70.660156 387.558594 73.351562 386.199219 76.082031 384.550781 C 79.511719 382.746094 82.945312 380.671875 85.996094 378.554688 C 90.144531 375.671875 94.042969 372.601562 97.558594 369.425781 C 99.148438 368.007812 100.863281 366.4375 102.644531 364.808594 C 102.917969 365.167969 103.214844 365.527344 103.511719 365.886719 C 106.371094 369.214844 109.972656 371.988281 114.523438 374.382812 C 117.785156 376.097656 121.367188 377.515625 125.15625 378.617188 C 128.695312 379.632812 132.445312 380.394531 136.296875 380.863281 C 138.648438 381.140625 140.980469 381.285156 143.222656 381.285156 C 145.171875 381.285156 147.144531 381.179688 149.027344 380.96875 L 152.121094 380.628906 L 154.980469 379.402344 C 162.265625 376.289062 168.238281 372.011719 173.132812 367.773438 C 174.488281 368.601562 175.886719 369.359375 177.324219 370.105469 C 180.988281 371.945312 184.78125 373.472656 188.53125 374.613281 C 192.511719 375.824219 196.386719 376.4375 200.03125 376.4375 C 201.070312 376.4375 202.085938 376.394531 203.058594 376.289062 C 204.648438 376.136719 207.929688 375.800781 211.574219 374.085938 L 214.328125 372.769531 L 215.511719 371.710938 C 216.210938 371.226562 216.867188 370.675781 217.503906 370.125 L 217.929688 369.742188 L 218.332031 369.339844 C 220.957031 366.734375 223.6875 363.917969 226.589844 360.804688 C 229.113281 363.132812 231.972656 365.1875 235.125 366.96875 C 239.382812 369.382812 244.148438 371.265625 249.253906 372.601562 C 254.316406 373.917969 259.484375 374.59375 264.589844 374.59375 L 264.609375 374.59375 C 268.65625 374.59375 272.636719 374.148438 276.492188 373.28125 C 281.257812 372.199219 285.683594 370.292969 289.667969 367.644531 C 290.875 366.882812 292.144531 365.992188 293.476562 364.976562 L 317.519531 374.71875 C 317.878906 374.867188 318.261719 375.039062 318.597656 375.164062 C 321.140625 376.203125 324.996094 377.539062 329.867188 377.539062 C 334.101562 377.539062 338.214844 376.519531 341.917969 374.59375 L 343.929688 373.917969 L 347.023438 371.121094 C 347.382812 370.820312 347.722656 370.507812 348.0625 370.1875 C 350.8125 372.242188 353.820312 374.148438 357.019531 375.863281 C 360.324219 377.640625 363.863281 379.234375 367.503906 380.566406 C 371.699219 382.113281 375.828125 383.171875 379.808594 383.703125 L 382.988281 384.125 L 386.144531 383.59375 C 393.453125 382.367188 399.636719 379.679688 404.785156 376.625 C 406.371094 378.042969 408.042969 379.445312 409.800781 380.777344 C 413.167969 383.320312 416.621094 385.585938 420.054688 387.492188 C 424.714844 390.078125 429.226562 391.707031 433.441406 392.34375 C 434.710938 392.53125 436.109375 392.703125 437.78125 392.703125 C 439.496094 392.703125 441.191406 392.511719 442.824219 392.128906 L 446.488281 391.28125 L 448.222656 390.160156 C 449.027344 389.757812 449.792969 389.3125 450.550781 388.828125 L 451.148438 388.445312 L 451.699219 388.019531 C 456.058594 384.71875 460.0625 381.371094 464.109375 377.960938 C 468.175781 374.507812 472.5625 370.84375 476.964844 367.203125 C 479.484375 365.125 482.046875 363.027344 484.507812 360.972656 C 486.347656 359.449219 488.191406 357.925781 490.035156 356.398438 C 493.0625 353.898438 496.578125 351.039062 500.074219 348.542969 C 505.261719 344.960938 508.628906 339.390625 509.414062 333.039062 C 509.902344 329.753906 509.585938 326.40625 508.523438 323.0625 Z M 82.480469 154.84375 C 80.148438 155.269531 77.820312 155.691406 75.488281 156.160156 C 77.820312 155.714844 80.171875 155.269531 82.480469 154.84375 C 83.558594 154.65625 84.703125 154.441406 85.890625 154.253906 C 84.703125 154.464844 83.578125 154.65625 82.480469 154.84375 Z M 198.652344 144.253906 C 197.191406 143.664062 195.6875 143.195312 194.140625 142.816406 C 195.667969 143.195312 197.171875 143.664062 198.652344 144.253906 C 199.796875 144.722656 200.898438 145.273438 201.957031 145.929688 C 200.898438 145.292969 199.796875 144.722656 198.652344 144.253906 Z M 290.46875 195.40625 C 289.855469 194.199219 289.074219 193.011719 288.097656 191.804688 C 289.074219 193.011719 289.855469 194.21875 290.46875 195.40625 C 291.699219 197.714844 292.949219 200.003906 294.179688 202.3125 C 292.929688 200.023438 291.699219 197.714844 290.46875 195.40625 Z M 346.195312 168.359375 C 346.453125 168.167969 346.726562 168 347.023438 167.851562 C 346.726562 167.976562 346.453125 168.148438 346.195312 168.359375 Z M 426.300781 176.152344 C 428.546875 176.578125 430.242188 176.914062 432.550781 177.359375 C 430.242188 176.894531 428.546875 176.578125 426.300781 176.152344 Z M 454.496094 212.140625 C 454.496094 212.011719 454.496094 211.90625 454.496094 211.738281 C 454.496094 211.90625 454.496094 212.011719 454.496094 212.140625 Z M 473.089844 193.371094 C 472.984375 187.867188 472.050781 182.0625 469.617188 177.023438 C 472.074219 182.042969 473.007812 187.867188 473.089844 193.371094 Z M 465.699219 258.226562 C 469.171875 259.054688 472.625 259.878906 476.074219 260.726562 C 472.625 259.878906 469.152344 259.03125 465.699219 258.226562 Z M 465.699219 258.226562 "/>
<path style=" stroke:none;fill-rule:nonzero;fill:rgb(35.686275%,38.039216%,41.176471%);fill-opacity:1;" d="M 86.988281 223.257812 C 84.359375 223.703125 81.417969 224.1875 78.304688 224.570312 L 78.21875 233.210938 C 80.800781 232.871094 83.367188 232.46875 85.90625 232.027344 C 95.058594 230.457031 105.835938 227.894531 112.550781 221.011719 C 115.941406 217.515625 117.867188 213.027344 118.925781 208.304688 C 118.355469 209.042969 117.742188 209.742188 117.085938 210.398438 C 109.183594 218.535156 97.449219 221.457031 86.988281 223.257812 Z M 86.988281 223.257812 "/>
<path style=" stroke:none;fill-rule:nonzero;fill:rgb(35.686275%,38.039216%,41.176471%);fill-opacity:1;" d="M 43.144531 262.082031 C 43.144531 262.144531 43.144531 262.1875 43.144531 262.25 L 49.773438 270.492188 C 57.082031 268.882812 64.390625 267.335938 71.71875 265.851562 C 71.738281 262.992188 71.761719 260.132812 71.804688 257.273438 C 62.695312 259.117188 53.523438 261.085938 44.480469 263.140625 Z M 43.144531 262.082031 "/>
<path style=" stroke:none;fill-rule:nonzero;fill:rgb(35.686275%,38.039216%,41.176471%);fill-opacity:1;" d="M 200.769531 238.164062 C 192.105469 242.613281 182.234375 243.96875 172.851562 244.773438 C 168.746094 245.132812 165.375 245.28125 162.261719 245.28125 C 155.550781 245.28125 149.914062 244.496094 145.023438 242.910156 C 139.960938 241.257812 135.34375 237.78125 131.867188 233.1875 C 132.378906 235.179688 133.035156 237.125 133.816406 239.011719 C 136.253906 244.730469 140.957031 249.941406 146.96875 251.910156 C 154.871094 254.496094 164.167969 254.175781 172.28125 253.476562 C 180.839844 252.738281 190.050781 251.550781 197.847656 247.546875 C 203.902344 244.433594 208.796875 238.734375 211.316406 232.359375 C 211.953125 230.773438 212.480469 229.140625 212.949219 227.488281 C 209.75 232 205.535156 235.726562 200.769531 238.164062 Z M 200.769531 238.164062 "/>
<path style=" stroke:none;fill-rule:nonzero;fill:rgb(35.686275%,38.039216%,41.176471%);fill-opacity:1;" d="M 279.183594 239.945312 L 273.675781 236.386719 C 273.675781 236.386719 273.675781 236.386719 273.675781 236.367188 L 273.421875 236.496094 C 275.414062 240.539062 277.40625 244.585938 279.394531 248.632812 C 290.175781 248.992188 300.957031 249.5 311.714844 250.15625 C 310.128906 247.167969 308.539062 244.183594 306.953125 241.195312 C 297.695312 240.667969 288.375 240.242188 279.183594 239.945312 Z M 279.183594 239.945312 "/>
<path style=" stroke:none;fill-rule:nonzero;fill:rgb(35.686275%,38.039216%,41.176471%);fill-opacity:1;" d="M 254.019531 239.546875 C 245.0625 239.546875 235.996094 239.652344 227.058594 239.863281 L 226.972656 239.800781 C 226.953125 242.722656 226.929688 245.644531 226.886719 248.570312 C 236.609375 248.335938 246.3125 248.230469 256.011719 248.25 C 256.03125 245.328125 256.054688 242.40625 256.097656 239.484375 L 256.011719 239.566406 C 255.355469 239.546875 254.699219 239.546875 254.019531 239.546875 Z M 254.019531 239.546875 "/>
<path style=" stroke:none;fill-rule:nonzero;fill:rgb(35.686275%,38.039216%,41.176471%);fill-opacity:1;" d="M 350.371094 245.347656 C 345.710938 244.859375 340.878906 244.351562 336.199219 243.949219 C 328.554688 243.269531 321.609375 240.050781 316.628906 234.882812 C 316.417969 234.648438 316.207031 234.4375 315.992188 234.207031 L 315.65625 234.714844 C 316.4375 238.738281 318.300781 242.507812 321.207031 245.515625 C 325.292969 249.773438 330.925781 252.144531 336.75 252.652344 C 352.59375 254.050781 368.691406 256.316406 384.703125 256.570312 C 384.535156 253.671875 384.386719 250.769531 384.214844 247.886719 C 372.84375 247.675781 361.425781 246.488281 350.371094 245.347656 Z M 350.371094 245.347656 "/>
<path style=" stroke:none;fill-rule:nonzero;fill:rgb(35.686275%,38.039216%,41.176471%);fill-opacity:1;" d="M 395.402344 250.8125 C 395.378906 253.671875 395.359375 256.53125 395.316406 259.414062 C 404.761719 260.917969 414.1875 262.546875 423.589844 264.285156 C 423.613281 261 423.65625 257.742188 423.675781 254.476562 L 422.425781 255.496094 C 413.488281 253.84375 404.402344 252.253906 395.402344 250.8125 Z M 395.402344 250.8125 "/>
<path style=" stroke:none;fill-rule:nonzero;fill:rgb(35.686275%,38.039216%,41.176471%);fill-opacity:1;" d="M 474.039062 266.761719 C 464.382812 264.390625 454.574219 262.101562 444.851562 260.007812 L 444.34375 259.5 C 444.957031 262.613281 445.574219 265.726562 446.1875 268.839844 C 456.183594 271 466.117188 273.308594 476.054688 275.765625 C 475.394531 272.757812 474.71875 269.769531 474.039062 266.761719 Z M 474.039062 266.761719 "/>
<path d="M 117.445312 198.152344 C 116.324219 201.03125 114.734375 203.703125 112.554688 205.945312 C 105.839844 212.832031 95.058594 215.394531 85.910156 216.960938 C 81.3125 217.746094 76.675781 218.441406 71.992188 218.804688 C 71.910156 229.457031 71.804688 240.109375 71.71875 250.785156 C 62.1875 252.691406 52.675781 254.746094 43.1875 256.90625 C 43.167969 258.621094 43.167969 260.339844 43.144531 262.074219 L 44.480469 263.132812 C 53.523438 261.078125 62.695312 259.109375 71.804688 257.265625 C 71.867188 249.472656 71.929688 241.65625 72.015625 233.863281 C 74.089844 233.714844 76.164062 233.480469 78.242188 233.207031 L 78.328125 224.566406 C 81.441406 224.183594 84.382812 223.695312 87.011719 223.25 C 97.472656 221.449219 109.207031 218.527344 117.128906 210.394531 C 117.765625 209.738281 118.378906 209.039062 118.972656 208.296875 C 119.753906 204.824219 120.09375 201.203125 120.199219 197.792969 Z M 117.445312 198.152344 "/>
<path d="M 212.777344 213.167969 C 212.355469 214.585938 211.890625 215.964844 211.339844 217.339844 C 208.820312 223.714844 203.925781 229.414062 197.867188 232.527344 C 190.074219 236.53125 180.859375 237.738281 172.304688 238.457031 C 169.082031 238.734375 165.671875 238.945312 162.265625 238.945312 C 157.054688 238.945312 151.757812 238.4375 146.992188 236.890625 C 140.976562 234.921875 136.253906 229.6875 133.839844 223.992188 C 131.234375 217.847656 130.28125 210.984375 129.964844 204.207031 C 129.878906 206.136719 129.859375 208.0625 129.835938 209.96875 C 129.773438 217.511719 129.921875 225.683594 131.890625 233.226562 C 135.363281 237.820312 139.980469 241.296875 145.042969 242.949219 C 149.9375 244.535156 155.570312 245.320312 162.285156 245.320312 C 165.398438 245.320312 168.765625 245.148438 172.875 244.8125 C 182.257812 244.007812 192.128906 242.652344 200.789062 238.203125 C 205.554688 235.746094 209.773438 232.039062 212.992188 227.527344 C 214.21875 223.1875 214.960938 218.652344 215.382812 214.121094 Z M 212.777344 213.167969 "/>
<path d="M 283.480469 233.738281 L 276.367188 235.136719 L 273.675781 236.386719 C 273.675781 236.386719 273.675781 236.386719 273.675781 236.40625 L 279.183594 239.964844 C 288.371094 240.261719 297.691406 240.683594 306.949219 241.214844 C 305.785156 239.03125 304.621094 236.828125 303.453125 234.648438 C 296.785156 234.265625 290.132812 233.96875 283.480469 233.738281 Z M 283.480469 233.738281 "/>
<path d="M 256.078125 229.714844 C 256.078125 230.878906 256.054688 232.023438 256.054688 233.1875 C 255.375 233.1875 254.71875 233.1875 254.042969 233.1875 C 245.039062 233.1875 236.058594 233.292969 227.058594 233.503906 C 227.039062 235.601562 227.015625 237.699219 226.996094 239.796875 L 227.078125 239.859375 C 236.019531 239.648438 245.105469 239.539062 254.042969 239.539062 C 254.71875 239.539062 255.375 239.539062 256.035156 239.539062 L 256.121094 239.457031 C 256.140625 236.238281 256.179688 233.039062 256.203125 229.820312 Z M 256.078125 229.714844 "/>
<path d="M 336.75 237.613281 C 330.925781 237.105469 325.292969 234.714844 321.203125 230.476562 C 320.421875 229.652344 319.699219 228.78125 319.066406 227.851562 L 315.253906 227.535156 C 315.253906 227.765625 315.253906 228.019531 315.253906 228.253906 C 315.953125 229.546875 316.628906 230.835938 317.328125 232.128906 L 315.992188 234.183594 C 316.203125 234.417969 316.417969 234.648438 316.628906 234.863281 C 321.605469 240.050781 328.554688 243.269531 336.199219 243.925781 C 340.878906 244.328125 345.710938 244.839844 350.371094 245.324219 C 361.425781 246.46875 372.863281 247.65625 384.214844 247.867188 C 384.089844 245.75 383.984375 243.628906 383.855469 241.492188 C 368.140625 241.195312 352.316406 238.992188 336.75 237.613281 Z M 336.75 237.613281 "/>
<path d="M 423.675781 240.046875 C 423.65625 243.117188 423.613281 246.167969 423.589844 249.238281 C 414.226562 247.503906 404.84375 245.894531 395.441406 244.390625 C 395.421875 246.527344 395.402344 248.667969 395.378906 250.808594 C 404.378906 252.246094 413.46875 253.835938 422.40625 255.488281 L 423.65625 254.472656 C 423.699219 249.664062 423.738281 244.875 423.78125 240.070312 Z M 423.675781 240.046875 "/>
<path d="M 474.042969 266.757812 C 473.511719 264.449219 473.007812 262.140625 472.476562 259.828125 C 463.75 257.710938 455 255.699219 446.214844 253.792969 C 445.660156 251.039062 445.132812 248.285156 444.582031 245.53125 L 441.445312 244.707031 C 442.421875 249.640625 443.394531 254.578125 444.367188 259.492188 L 444.878906 260 C 454.554688 262.117188 464.382812 264.382812 474.042969 266.757812 Z M 474.042969 266.757812 "/>
<path style=" stroke:none;fill-rule:nonzero;fill:rgb(100%,100%,100%);fill-opacity:1;" d="M 198.648438 144.25 C 193.503906 142.195312 187.828125 141.539062 182.191406 141.539062 C 179.121094 141.539062 176.070312 141.730469 173.148438 141.984375 C 164.71875 142.707031 155.378906 144.378906 147.753906 148.613281 C 141.589844 152.046875 136.929688 158.273438 134.34375 164.734375 C 130.554688 174.199219 129.898438 184.917969 129.8125 194.914062 C 129.726562 204.445312 130.003906 214.996094 133.816406 223.976562 C 136.25 229.695312 140.953125 234.902344 146.96875 236.875 C 151.734375 238.441406 157.007812 238.929688 162.238281 238.929688 C 165.671875 238.929688 169.082031 238.714844 172.28125 238.441406 C 180.835938 237.699219 190.050781 236.515625 197.84375 232.511719 C 203.902344 229.398438 208.796875 223.699219 211.316406 217.324219 C 215 207.984375 215.785156 197.371094 215.871094 187.523438 C 215.953125 177.84375 215.402344 167.273438 211.824219 158.082031 C 209.492188 152.003906 204.664062 146.667969 198.648438 144.25 Z M 198.648438 144.25 "/>
<path style=" stroke:none;fill-rule:nonzero;fill:rgb(100%,100%,100%);fill-opacity:1;" d="M 286.144531 189.664062 C 284.238281 187.757812 282.605469 186.507812 281.273438 185.933594 C 281.273438 185.722656 281.273438 185.617188 281.273438 185.40625 C 284.511719 184.15625 287.265625 181.53125 289.535156 177.503906 C 296.714844 165.769531 303.9375 154.035156 311.179688 142.34375 C 300.761719 141.710938 290.359375 141.222656 279.917969 140.882812 C 273.351562 152.46875 266.808594 164.097656 260.28125 175.703125 C 258.25 175.683594 257.214844 175.683594 255.179688 175.683594 C 256.113281 172.019531 256.597656 168.078125 256.617188 163.863281 C 256.683594 156.070312 256.746094 148.277344 256.832031 140.480469 C 256.175781 140.480469 255.496094 140.480469 254.839844 140.480469 C 245.796875 140.480469 236.75 140.585938 227.707031 140.800781 C 227.433594 171.703125 227.179688 202.605469 226.902344 233.507812 C 235.945312 233.292969 244.992188 233.1875 254.015625 233.1875 C 254.691406 233.1875 255.347656 233.1875 256.027344 233.1875 C 256.113281 223.105469 256.195312 213.046875 256.28125 202.964844 C 256.300781 200.464844 255.960938 197.625 255.285156 194.492188 C 257.214844 194.492188 258.1875 194.511719 260.113281 194.511719 C 266.554688 207.519531 272.96875 220.542969 279.367188 233.589844 C 290.148438 233.953125 300.929688 234.460938 311.6875 235.117188 C 304.636719 221.855469 297.5625 208.617188 290.445312 195.402344 C 289.492188 193.496094 288.050781 191.570312 286.144531 189.664062 Z M 286.144531 189.664062 "/>
<path style=" stroke:none;fill-rule:nonzero;fill:rgb(100%,100%,100%);fill-opacity:1;" d="M 349.777344 216.585938 C 348.082031 216.417969 346.746094 215.824219 345.773438 214.828125 C 344.796875 213.832031 344.308594 212.625 344.332031 211.1875 C 344.375 206.714844 344.394531 204.492188 344.4375 200.042969 C 355.9375 201.230469 367.417969 202.605469 378.878906 204.152344 C 378.941406 197.714844 378.984375 191.253906 379.046875 184.816406 C 367.589844 183.269531 356.109375 181.894531 344.609375 180.707031 C 344.628906 177.105469 344.652344 175.304688 344.691406 171.707031 C 344.710938 170.265625 345.199219 169.164062 346.195312 168.359375 C 347 167.703125 348.039062 167.382812 349.332031 167.382812 C 349.625 167.382812 349.925781 167.40625 350.21875 167.425781 C 361.488281 168.65625 372.734375 170.054688 383.984375 171.640625 C 384.488281 164.863281 385 158.066406 385.484375 151.285156 C 369.917969 147.03125 353.503906 145.484375 337.574219 143.875 C 336.773438 143.789062 335.945312 143.746094 335.140625 143.746094 C 330.355469 143.746094 325.585938 145.207031 321.921875 148.40625 C 317.667969 152.132812 315.652344 157.640625 315.695312 163.210938 C 315.546875 180.410156 315.398438 197.609375 315.25 214.808594 C 315.144531 220.609375 317.179688 226.285156 321.226562 230.503906 C 325.3125 234.757812 330.945312 237.132812 336.773438 237.640625 C 352.613281 239.039062 368.710938 241.304688 384.722656 241.558594 C 384.34375 234.632812 383.960938 227.726562 383.578125 220.800781 C 372.3125 219.234375 361.0625 217.816406 349.777344 216.585938 Z M 349.777344 216.585938 "/>
<path style=" stroke:none;fill-rule:nonzero;fill:rgb(100%,100%,100%);fill-opacity:1;" d="M 469.226562 230.5 C 467.808594 222.113281 462.597656 215.355469 454.488281 212.539062 C 454.488281 212.222656 454.488281 212.050781 454.488281 211.734375 C 455.441406 211.839844 456.375 211.902344 457.261719 211.902344 C 467.386719 211.902344 473.167969 204.597656 473.105469 194.007812 C 473.039062 185.429688 471.03125 175.980469 464.421875 169.839844 C 456.476562 162.425781 445.230469 159.375 435 157.238281 C 422.378906 154.609375 409.203125 152.429688 396.132812 151.644531 C 395.859375 182.546875 395.605469 213.449219 395.332031 244.351562 C 404.777344 245.855469 414.203125 247.488281 423.605469 249.222656 C 423.710938 237.933594 423.796875 226.644531 423.902344 215.378906 C 427.460938 216.054688 429.21875 216.394531 432.777344 217.09375 C 435.234375 217.582031 437.035156 218.363281 438.117188 219.445312 C 439.214844 220.523438 440 222.367188 440.507812 224.992188 C 442.414062 234.589844 444.300781 244.183594 446.207031 253.800781 C 456.203125 255.960938 466.136719 258.269531 476.070312 260.726562 C 473.785156 250.644531 471.515625 240.582031 469.226562 230.5 Z M 442.265625 196.570312 C 441.527344 197.078125 440.402344 197.332031 438.878906 197.332031 C 437.542969 197.332031 435.910156 197.140625 433.984375 196.761719 C 430.023438 195.976562 428.03125 195.574219 424.050781 194.832031 C 424.113281 188.476562 424.15625 182.125 424.21875 175.75 C 428.203125 176.488281 430.171875 176.890625 434.152344 177.675781 C 438.304688 178.503906 441.039062 179.710938 442.394531 181.253906 C 443.75 182.800781 444.40625 185.492188 444.363281 189.347656 C 444.339844 193.203125 443.644531 195.59375 442.265625 196.570312 Z M 442.265625 196.570312 "/>
<path style=" stroke:none;fill-rule:nonzero;fill:rgb(100%,100%,100%);fill-opacity:1;" d="M 112.382812 156.347656 C 108.484375 153.761719 103.65625 152.917969 98.679688 152.917969 C 93.066406 152.917969 87.28125 153.996094 82.476562 154.84375 C 69.617188 157.132812 56.464844 160.117188 43.863281 164.246094 C 43.585938 195.148438 43.332031 226.050781 43.058594 256.953125 C 52.589844 254.792969 62.140625 252.738281 71.714844 250.8125 C 71.800781 240.160156 71.90625 229.503906 71.992188 218.828125 C 76.671875 218.492188 81.308594 217.792969 85.90625 216.988281 C 95.054688 215.417969 105.835938 212.855469 112.550781 205.972656 C 119.097656 199.257812 120.15625 188.796875 120.21875 180.15625 C 120.28125 172.445312 119.753906 161.261719 112.382812 156.347656 Z M 89.296875 193.710938 C 87.960938 195.382812 85.335938 196.570312 81.457031 197.289062 C 77.75 197.988281 75.886719 198.347656 72.179688 199.070312 C 72.246094 191.804688 72.308594 184.558594 72.371094 177.292969 C 76.078125 176.554688 77.941406 176.214844 81.648438 175.515625 C 83.066406 175.242188 84.316406 175.113281 85.398438 175.113281 C 87.261719 175.113281 88.617188 175.515625 89.445312 176.300781 C 90.757812 177.550781 91.390625 180.367188 91.351562 184.75 C 91.328125 189.070312 90.628906 192.058594 89.296875 193.710938 Z M 89.296875 193.710938 "/>
<path style=" stroke:none;fill-rule:nonzero;fill:url(#linear0);" d="M 208.714844 158.84375 C 207.742188 156.324219 206.214844 153.929688 204.351562 151.941406 C 202.445312 149.929688 200.222656 148.359375 197.871094 147.429688 C 193.847656 145.820312 188.996094 145.035156 183 145.035156 C 180.460938 145.035156 177.707031 145.164062 174.316406 145.457031 C 164.214844 146.328125 156.460938 148.316406 150.617188 151.558594 C 145.765625 154.25 141.550781 159.351562 139.074219 165.539062 C 135.492188 174.496094 134.921875 185.046875 134.859375 194.175781 C 134.773438 203.046875 134.984375 213.214844 138.523438 221.539062 C 139.558594 223.976562 141.0625 226.242188 142.863281 228.085938 C 144.726562 229.96875 146.890625 231.367188 149.089844 232.085938 C 152.902344 233.335938 157.457031 233.929688 163.050781 233.929688 C 165.867188 233.929688 168.9375 233.78125 172.730469 233.441406 C 181.03125 232.722656 189.695312 231.578125 196.726562 227.957031 C 201.726562 225.394531 206.003906 220.542969 208.183594 214.972656 C 211.828125 205.738281 212.378906 195 212.441406 186.675781 C 212.546875 178.414062 212.1875 167.761719 208.714844 158.84375 Z M 208.714844 158.84375 "/>
<path style=" stroke:none;fill-rule:nonzero;fill:url(#linear1);" d="M 256.113281 189.472656 C 258.042969 189.472656 258.996094 189.496094 260.964844 189.496094 C 262.554688 189.515625 264.015625 190.425781 264.714844 191.847656 C 270.730469 203.980469 276.832031 216.351562 282.863281 228.65625 C 290.277344 228.910156 297.777344 229.25 305.210938 229.675781 C 299.324219 218.617188 293.394531 207.539062 287.523438 196.652344 C 287.503906 196.613281 287.484375 196.589844 287.464844 196.546875 C 286.699219 195.023438 285.515625 193.457031 283.945312 191.886719 C 281.890625 189.832031 280.769531 189.21875 280.386719 189.050781 C 278.820312 188.371094 277.824219 186.824219 277.847656 185.132812 L 277.847656 184.582031 C 277.867188 182.84375 278.949219 181.296875 280.554688 180.664062 C 282.824219 179.792969 284.878906 177.761719 286.636719 174.625 C 286.65625 174.582031 286.679688 174.542969 286.71875 174.5 C 292.628906 164.839844 298.644531 155.054688 304.640625 145.355469 C 297.480469 144.972656 290.277344 144.65625 283.164062 144.402344 C 277.019531 155.226562 270.855469 166.175781 264.796875 176.976562 C 264.058594 178.3125 262.636719 179.136719 261.113281 179.136719 C 261.09375 179.136719 261.09375 179.136719 261.070312 179.136719 C 259.078125 179.117188 258.085938 179.117188 255.988281 179.117188 C 254.675781 179.117188 253.445312 178.503906 252.660156 177.484375 C 251.855469 176.449219 251.582031 175.113281 251.898438 173.84375 C 252.746094 170.515625 253.191406 166.875 253.214844 163.019531 C 253.257812 157.914062 253.296875 152.808594 253.339844 147.707031 L 253.382812 143.914062 C 246.519531 143.9375 239.59375 144 232.730469 144.148438 C 232.476562 172.234375 232.246094 200.296875 231.988281 228.382812 C 238.851562 228.253906 245.777344 228.171875 252.640625 228.148438 L 252.683594 222.28125 L 252.851562 202.117188 C 252.875 199.9375 252.578125 197.417969 251.941406 194.597656 C 251.667969 193.351562 251.984375 192.035156 252.789062 191.042969 C 253.617188 190.046875 254.820312 189.472656 256.113281 189.472656 Z M 256.113281 189.472656 "/>
<path style=" stroke:none;fill-rule:nonzero;fill:url(#linear2);" d="M 341.179688 179.878906 L 341.21875 175.386719 L 341.261719 170.898438 C 341.285156 168.1875 342.34375 165.898438 344.355469 164.289062 C 345.921875 163.019531 347.871094 162.382812 350.136719 162.382812 C 350.5625 162.382812 351.027344 162.40625 351.472656 162.449219 C 351.472656 162.449219 351.472656 162.449219 351.492188 162.449219 C 361.257812 163.507812 371.128906 164.714844 380.914062 166.046875 L 381.398438 159.398438 L 381.824219 153.722656 C 368.226562 150.375 353.84375 148.914062 339.910156 147.492188 L 337.960938 147.304688 C 337.28125 147.238281 336.625 147.199219 335.945312 147.199219 C 331.878906 147.199219 328.195312 148.488281 325.523438 150.820312 C 322.457031 153.507812 320.71875 157.722656 320.738281 162.425781 C 320.738281 162.449219 320.738281 162.46875 320.738281 162.488281 L 320.738281 162.890625 L 320.292969 214.085938 C 320.292969 214.105469 320.292969 214.105469 320.292969 214.128906 C 320.207031 219 321.902344 223.488281 325.082031 226.792969 C 328.277344 230.121094 332.855469 232.214844 337.9375 232.660156 C 342.703125 233.085938 347.574219 233.59375 352.277344 234.078125 C 361.722656 235.054688 371.445312 236.070312 381.019531 236.453125 L 380.617188 229.1875 L 380.320312 223.785156 C 370.304688 222.410156 360.15625 221.160156 350.136719 220.078125 C 347.445312 219.78125 345.246094 218.789062 343.570312 217.070312 C 341.816406 215.273438 340.902344 212.984375 340.925781 210.421875 L 341.027344 199.28125 C 341.027344 198.09375 341.558594 196.949219 342.449219 196.167969 C 343.234375 195.46875 344.226562 195.085938 345.265625 195.085938 C 345.414062 195.085938 345.5625 195.085938 345.710938 195.109375 C 355.601562 196.125 365.621094 197.289062 375.53125 198.601562 L 375.574219 193.351562 L 375.617188 187.777344 C 365.453125 186.445312 355.179688 185.238281 345.011719 184.179688 C 342.808594 183.902344 341.179688 182.058594 341.179688 179.878906 Z M 341.179688 179.878906 "/>
<path style=" stroke:none;fill-rule:nonzero;fill:url(#linear3);" d="M 465.910156 230.671875 C 465.886719 230.589844 465.867188 230.523438 465.867188 230.441406 C 464.683594 223.34375 460.316406 217.984375 453.921875 215.785156 C 452.207031 215.191406 451.0625 213.558594 451.0625 211.738281 L 451.0625 210.933594 C 451.0625 209.726562 451.589844 208.582031 452.5 207.777344 C 453.285156 207.097656 454.28125 206.71875 455.296875 206.71875 C 455.46875 206.71875 455.636719 206.71875 455.808594 206.738281 C 456.589844 206.824219 457.351562 206.886719 458.074219 206.886719 C 461.441406 206.886719 464.152344 205.890625 466.121094 203.921875 C 468.472656 201.550781 469.699219 197.863281 469.679688 193.269531 C 469.636719 186.722656 468.324219 177.742188 462.351562 172.171875 C 455.253906 165.5625 444.984375 162.726562 434.945312 160.628906 C 422.320312 158.003906 411.199219 156.289062 401.140625 155.441406 L 400.398438 239.992188 C 406.984375 241.074219 413.636719 242.214844 420.203125 243.402344 L 420.308594 231.585938 L 420.457031 214.578125 C 420.476562 213.328125 421.027344 212.140625 422.003906 211.335938 C 422.765625 210.699219 423.71875 210.382812 424.691406 210.382812 C 424.949219 210.382812 425.222656 210.402344 425.476562 210.445312 C 429.074219 211.125 430.8125 211.460938 434.390625 212.160156 C 437.71875 212.816406 440.175781 213.960938 441.890625 215.65625 C 443.628906 217.371094 444.792969 219.890625 445.46875 223.410156 C 447.183594 232.09375 448.902344 240.777344 450.640625 249.480469 C 457.5 250.984375 464.40625 252.574219 471.246094 254.226562 C 469.46875 246.367188 467.667969 238.46875 465.910156 230.671875 Z M 445.535156 199.261719 C 444.050781 200.300781 442.144531 200.808594 439.707031 200.808594 C 438.101562 200.808594 436.214844 200.597656 433.988281 200.152344 C 430.03125 199.367188 428.082031 198.988281 424.121094 198.226562 C 422.109375 197.84375 420.648438 196.085938 420.667969 194.03125 L 420.835938 174.949219 C 420.859375 173.699219 421.410156 172.511719 422.382812 171.707031 C 423.144531 171.070312 424.101562 170.753906 425.074219 170.753906 C 425.328125 170.753906 425.605469 170.773438 425.855469 170.816406 C 429.902344 171.578125 431.851562 171.960938 435.832031 172.746094 C 440.9375 173.761719 444.410156 175.371094 446.425781 177.679688 C 448.5 180.050781 449.492188 183.632812 449.453125 188.609375 C 449.410156 192.019531 448.964844 196.847656 445.535156 199.261719 Z M 445.535156 199.261719 "/>
<path style=" stroke:none;fill-rule:nonzero;fill:url(#linear4);" d="M 110.859375 159.105469 C 108.105469 157.28125 104.398438 156.394531 99.507812 156.394531 C 94.464844 156.394531 89.210938 157.324219 84.574219 158.152344 L 84.042969 158.234375 C 70.828125 160.585938 59.285156 163.320312 48.90625 166.558594 L 48.164062 250.859375 C 54.859375 249.375 61.613281 247.914062 68.328125 246.558594 C 68.390625 239.695312 68.457031 232.832031 68.5 225.972656 L 68.5625 218.027344 C 68.582031 215.824219 70.296875 214.003906 72.480469 213.835938 C 77.289062 213.476562 82.011719 212.734375 85.972656 212.054688 C 94.742188 210.550781 104.503906 208.199219 110.289062 202.25 C 112.722656 199.75 114.417969 196.402344 115.476562 192.019531 C 116.324219 188.523438 116.726562 184.5 116.769531 179.351562 C 116.855469 171.792969 116.238281 162.683594 110.859375 159.105469 Z M 96.414062 184.035156 C 96.371094 189.351562 95.398438 193.140625 93.40625 195.597656 C 91.394531 198.097656 88.003906 199.75 83.027344 200.683594 C 79.300781 201.378906 77.5 201.71875 73.792969 202.460938 C 73.519531 202.523438 73.242188 202.546875 72.96875 202.546875 C 71.992188 202.546875 71.039062 202.207031 70.257812 201.570312 C 69.28125 200.765625 68.710938 199.539062 68.730469 198.265625 L 68.753906 196.953125 L 68.921875 176.492188 C 68.941406 174.480469 70.363281 172.765625 72.332031 172.382812 C 76.101562 171.644531 77.945312 171.28125 81.652344 170.585938 C 83.324219 170.265625 84.847656 170.117188 86.183594 170.117188 C 89.148438 170.117188 91.5 170.902344 93.152344 172.46875 C 95.417969 174.609375 96.457031 178.273438 96.414062 184.035156 Z M 96.414062 184.035156 "/>
<path d="M 155.210938 221.34375 C 147.605469 218.886719 135.363281 218.632812 128.714844 218.125 C 144.386719 262.730469 129.433594 249.21875 158.15625 259.851562 C 165.695312 235.175781 180.160156 229.054688 155.210938 221.34375 Z M 152.074219 234.054688 C 151.398438 233.035156 150.316406 231.40625 149.046875 229.605469 C 150.167969 230.515625 153.261719 231.449219 152.074219 234.054688 Z M 152.074219 234.054688 "/>
<path d="M 85.019531 230.5625 C 79.640625 235.898438 72.585938 243.332031 66.488281 250.621094 C 66.488281 250.621094 59.074219 258.964844 50.773438 271.671875 L 58.628906 271.671875 L 67.039062 260.894531 L 68.4375 261.082031 L 84.535156 242.445312 L 100.1875 226.261719 L 111.476562 222.003906 L 119.863281 217.789062 C 119.863281 217.789062 107.597656 217.894531 101.160156 219.484375 C 94.722656 221.074219 92.730469 222.917969 85.019531 230.5625 Z M 85.019531 230.5625 "/>
<path d="M 406.15625 251.324219 C 402.855469 250.710938 400.691406 250.304688 400.691406 250.304688 L 398.976562 251.046875 L 398.382812 250.601562 C 401.519531 246.367188 404.25 243.230469 406.09375 240.816406 C 407.808594 238.636719 408.871094 237.300781 409.3125 236.242188 C 409.84375 234.972656 410.265625 232.429688 407.066406 231.5 C 403.871094 230.566406 382.246094 226.648438 378.410156 226.054688 C 375.277344 225.566406 372.140625 225.144531 370.46875 224.933594 C 367.84375 224.574219 365.40625 226.882812 364.855469 227.6875 C 364.664062 227.980469 364.582031 228.152344 364.582031 228.152344 C 364.09375 228.894531 363.414062 229.929688 362.652344 231.136719 C 362.652344 231.160156 362.632812 231.160156 362.632812 231.179688 C 359.308594 236.390625 354.285156 244.503906 354.285156 244.503906 C 354.285156 244.503906 351.871094 244.292969 346.214844 243.847656 C 340.5625 243.402344 333.339844 243.550781 329.695312 243.890625 C 326.050781 244.226562 325.777344 245.457031 325.777344 246.898438 C 325.777344 248.335938 325.417969 255.347656 325.417969 255.347656 L 330.964844 257.867188 L 363.078125 267.398438 C 363.078125 267.398438 371.273438 256.535156 378.960938 246.429688 C 380.824219 248.570312 384.296875 251.832031 390.101562 257.910156 L 387.519531 261.765625 C 387.519531 261.765625 395.589844 263.757812 397.601562 264.285156 C 399.613281 264.792969 403.554688 266.320312 405.203125 264.667969 C 406.855469 263.015625 409.441406 261.46875 411.136719 257.019531 C 412.828125 252.53125 409.441406 251.9375 406.15625 251.324219 Z M 406.15625 251.324219 "/>
<path style=" stroke:none;fill-rule:nonzero;fill:rgb(13.72549%,4.313725%,8.627451%);fill-opacity:1;" d="M 362.65625 231.175781 C 362.65625 231.15625 362.675781 231.15625 362.675781 231.132812 C 362.65625 231.15625 362.65625 231.15625 362.65625 231.175781 Z M 362.65625 231.175781 "/>
<path d="M 185.011719 175.703125 C 171.773438 169.878906 171.753906 160.601562 171.753906 160.601562 C 171.753906 160.601562 171.734375 169.859375 158.496094 175.703125 C 136.402344 185.425781 143.140625 208.386719 157.730469 208.386719 C 163.449219 208.386719 168.386719 204.828125 170.566406 199.746094 C 170.566406 213.679688 166.226562 214.082031 160.125 217.070312 C 160.65625 217.050781 168.195312 217.050781 171.753906 217.050781 C 175.3125 217.050781 182.851562 217.050781 183.382812 217.070312 C 177.28125 214.082031 172.941406 213.679688 172.941406 199.746094 C 175.121094 204.828125 180.054688 208.386719 185.773438 208.386719 C 200.367188 208.386719 207.105469 185.425781 185.011719 175.703125 Z M 185.011719 175.703125 "/>
<path style=" stroke:none;fill-rule:nonzero;fill:rgb(34.509804%,39.215686%,45.882353%);fill-opacity:1;" d="M 173.46875 177.695312 C 176.476562 176.359375 178.808594 174.878906 180.585938 173.332031 C 171.773438 167.65625 171.753906 160.601562 171.753906 160.601562 C 171.753906 160.601562 171.734375 169.859375 158.496094 175.703125 C 136.402344 185.425781 143.140625 208.386719 157.730469 208.386719 C 159.933594 208.386719 162.011719 207.855469 163.875 206.925781 C 156.546875 200.148438 156.671875 185.109375 173.46875 177.695312 Z M 173.46875 177.695312 "/>
<path style=" stroke:none;fill-rule:nonzero;fill:url(#linear5);" d="M 173.46875 177.695312 C 176.476562 176.359375 178.808594 174.878906 180.585938 173.332031 C 171.773438 167.65625 171.753906 160.601562 171.753906 160.601562 C 171.753906 160.601562 171.734375 169.859375 158.496094 175.703125 C 136.402344 185.425781 143.140625 208.386719 157.730469 208.386719 C 159.933594 208.386719 162.011719 207.855469 163.875 206.925781 C 156.546875 200.148438 156.671875 185.109375 173.46875 177.695312 Z M 173.46875 177.695312 "/>
<path style=" stroke:none;fill-rule:nonzero;fill:url(#linear6);" d="M 118.417969 309.566406 C 117.71875 308.296875 116.957031 307.046875 116.128906 305.882812 C 115.304688 304.71875 114.308594 303.636719 113.207031 302.640625 C 111.808594 301.371094 110.285156 300.015625 108.632812 298.703125 C 106.960938 297.386719 105.308594 296.179688 103.632812 295.101562 C 101.960938 294.019531 100.4375 293.152344 99.058594 292.496094 C 97.683594 291.839844 96.558594 291.585938 95.734375 291.734375 C 95.585938 291.753906 95.394531 291.902344 95.121094 292.179688 C 94.84375 292.453125 94.503906 293.46875 94.082031 295.226562 C 93.65625 296.984375 92.664062 299.550781 91.074219 302.875 C 88.976562 307.238281 86.5625 311.472656 84.125 315.644531 C 80.3125 322.128906 75.507812 328.226562 71.269531 334.179688 C 67.988281 338.796875 64.746094 343.835938 61.335938 348.558594 C 58.433594 352.5625 56.445312 354.679688 55.34375 354.914062 C 54.515625 355.082031 54.136719 354.195312 54.199219 352.265625 C 54.261719 350.339844 54.917969 346.972656 56.167969 342.183594 C 56.296875 341.929688 56.378906 341.613281 56.378906 341.273438 C 61.082031 323.738281 67.902344 306.984375 76.246094 291.078125 C 86.265625 271.992188 98.867188 254.222656 112.613281 237.363281 C 115.515625 233.867188 118.523438 230.375 121.890625 227.34375 C 124.15625 225.289062 125.894531 224.1875 126.996094 224.039062 C 128.394531 223.851562 128.839844 224.886719 128.351562 227.089844 C 127.863281 229.3125 126.65625 232.214844 124.707031 235.859375 C 124.285156 236.621094 123.671875 237.617188 122.824219 238.910156 C 121.996094 240.179688 121.085938 241.554688 120.113281 243.019531 C 119.136719 244.480469 118.207031 245.898438 117.296875 247.253906 C 116.386719 248.609375 115.726562 249.648438 115.324219 250.410156 C 112.59375 255.113281 109.882812 259.855469 108.25 265.046875 C 106.980469 269.046875 107.976562 272.351562 111.175781 274.894531 C 112.277344 275.890625 113.90625 276.929688 116.066406 278.03125 C 118.226562 279.109375 120.515625 280.125 122.949219 281.078125 C 125.386719 282.03125 127.78125 282.796875 130.152344 283.367188 C 132.523438 283.9375 134.472656 284.128906 135.996094 283.9375 C 136.824219 283.832031 137.3125 283.601562 137.460938 283.238281 C 137.734375 282.753906 137.796875 282.054688 137.671875 281.207031 C 137.523438 280.359375 137.394531 279.300781 137.246094 278.03125 C 137.097656 276.78125 137.097656 275.382812 137.246094 273.835938 C 137.394531 272.3125 137.820312 270.617188 138.496094 268.792969 C 139.34375 266.507812 140.488281 263.710938 141.949219 260.449219 C 143.410156 257.207031 144.9375 253.820312 146.546875 250.347656 C 148.15625 246.851562 149.742188 243.421875 151.355469 240.050781 C 152.964844 236.683594 154.53125 233.699219 155.421875 231.347656 C 156.351562 228.910156 155.207031 226.496094 152.285156 224.695312 C 148.9375 222.640625 144.511719 221.222656 140.679688 220.585938 C 135.425781 219.71875 130.257812 219.125 125.027344 219.0625 C 120.089844 219 114.921875 219.210938 109.925781 219.972656 C 107.847656 220.292969 105.964844 220.652344 104.3125 221.074219 C 102.636719 221.5 101.21875 222.175781 100.160156 222.683594 C 98.804688 223.339844 97.046875 224.402344 95.375 226.074219 C 93.722656 227.746094 91.074219 230.332031 87.472656 233.847656 C 79.359375 241.9375 71.800781 250.410156 65.023438 259.453125 C 58.414062 268.265625 52.25 277.710938 46.828125 287.304688 C 41.640625 296.5 36.9375 306.242188 33.019531 316.070312 C 29.355469 325.261719 26.304688 334.792969 23.761719 344.453125 C 23.085938 347.289062 22.449219 349.683594 21.917969 351.609375 C 21.367188 353.539062 21.136719 355.230469 21.199219 356.671875 C 21.261719 358.113281 21.6875 359.40625 22.429688 360.570312 C 23.191406 361.734375 24.523438 363.003906 26.429688 364.425781 C 27.53125 365.335938 29.101562 366.246094 31.15625 367.15625 C 33.207031 368.066406 35.453125 368.914062 37.847656 369.65625 C 40.242188 370.398438 42.59375 370.96875 44.859375 371.351562 C 46.171875 371.5625 47.378906 371.667969 48.480469 371.648438 C 51.425781 371.648438 56.804688 371.5 65.679688 366.117188 C 65.699219 366.117188 65.699219 366.097656 65.722656 366.097656 C 68.539062 364.636719 71.375 362.964844 73.917969 361.183594 C 77.160156 358.9375 80.421875 356.398438 83.363281 353.730469 C 86.371094 350.996094 89.421875 348.265625 92.386719 345.46875 C 92.9375 344.917969 93.804688 344.070312 94.992188 342.949219 C 96.15625 341.824219 97.492188 340.660156 98.933594 339.433594 C 100.394531 338.222656 101.769531 337.039062 103.082031 335.894531 C 104.398438 334.773438 105.414062 333.859375 106.089844 333.164062 C 108.589844 330.683594 110.8125 328.417969 112.761719 326.34375 C 114.710938 324.265625 116.277344 322.277344 117.445312 320.347656 C 118.628906 318.441406 119.328125 316.597656 119.519531 314.820312 C 119.773438 313.039062 119.351562 311.28125 118.417969 309.566406 Z M 118.417969 309.566406 "/>
<path style=" stroke:none;fill-rule:nonzero;fill:url(#linear7);" d="M 488.3125 329.375 C 488.039062 328.464844 487.53125 327.53125 486.808594 326.578125 C 486.09375 325.625 485.347656 324.714844 484.566406 323.867188 C 483.78125 323.019531 483.042969 322.511719 482.320312 322.34375 C 481.894531 322.234375 481.535156 322.277344 481.261719 322.449219 C 479.273438 324.523438 476.8125 326.726562 473.890625 329.078125 C 470.96875 331.429688 467.792969 333.757812 464.359375 336.023438 C 460.90625 338.3125 457.390625 340.558594 453.851562 342.675781 C 450.273438 344.835938 446.90625 346.828125 443.753906 348.628906 C 445.316406 345.195312 447.011719 341.871094 448.792969 338.671875 C 450.574219 335.472656 452.519531 332.171875 454.597656 328.800781 C 456.757812 325.285156 459.023438 321.769531 461.351562 318.359375 C 464 314.484375 466.625 310.566406 469.273438 306.691406 C 469.527344 306.308594 469.65625 306.117188 469.910156 305.738281 C 473.613281 301.011719 475.542969 297.519531 475.691406 295.273438 C 475.839844 293.007812 473.109375 290.953125 467.558594 289.109375 C 463.425781 287.734375 460.015625 286.609375 457.371094 285.761719 C 454.722656 284.917969 452.691406 284.34375 451.25 284.046875 C 449.683594 283.730469 448.917969 283.855469 448.878906 284.300781 C 448.8125 285.171875 447.945312 287.140625 446.503906 289.976562 C 445.214844 287.921875 443.539062 285.890625 441.464844 283.921875 C 439.386719 281.949219 437.058594 280.171875 434.472656 278.625 C 431.890625 277.058594 429.15625 275.679688 426.300781 274.515625 C 423.417969 273.351562 420.515625 272.398438 417.890625 272.058594 C 413.695312 271.53125 408.953125 271.210938 404.949219 273.5625 C 403.785156 274.113281 402.492188 274.960938 401.050781 276.125 C 399.609375 277.292969 397.726562 278.941406 395.4375 280.808594 C 392.09375 283.539062 388.828125 286.757812 385.929688 289.957031 C 382.753906 293.429688 379.699219 297.160156 376.757812 300.929688 C 376.246094 301.4375 375.613281 301.882812 375.402344 302.15625 C 373.367188 304.570312 370.804688 307.132812 367.691406 309.804688 C 364.472656 312.578125 361.144531 315.308594 357.820312 317.9375 C 354.367188 320.648438 350.789062 323.316406 347.167969 325.816406 C 343.777344 328.167969 340.367188 330.519531 336.957031 332.847656 C 339.921875 326.578125 342.996094 320.328125 346.195312 314.230469 C 349.667969 307.664062 353.375 301.097656 357.164062 294.703125 C 361.0625 288.136719 365.128906 281.570312 369.214844 275.128906 C 371.273438 271.910156 373.558594 267.503906 375.761719 263.777344 C 375.972656 263.417969 376.226562 263.035156 376.480469 262.613281 C 381.648438 263.820312 387.347656 265.21875 393.679688 266.847656 C 401.136719 270.703125 410.453125 253.949219 402.597656 253.992188 C 402.046875 253.632812 394.675781 252.253906 384.761719 250.753906 C 389.675781 243.996094 394.71875 237.34375 395.566406 236.160156 C 397.109375 234 396.644531 233.363281 394.761719 232.515625 C 392.875 231.667969 375.933594 228.554688 372.921875 227.8125 C 369.914062 227.050781 369.558594 227.285156 366.589844 232.070312 L 356.929688 247.300781 C 340.453125 245.730469 326.324219 245.585938 328.421875 249.714844 C 328.59375 256.9375 326.136719 253.292969 350.554688 257.359375 L 349.835938 258.503906 C 344.710938 266.488281 339.585938 274.515625 334.542969 282.523438 C 331.515625 287.351562 328.488281 292.222656 325.542969 297.136719 L 325.542969 297.117188 C 325.542969 297.117188 324.675781 298.578125 323.910156 298.917969 C 323.148438 299.253906 311.121094 303.238281 306.753906 304.636719 C 301.101562 306.394531 295.402344 308.046875 289.703125 309.613281 C 287.96875 307.515625 286.144531 305.480469 284.261719 303.535156 C 282.378906 301.5625 280.746094 299.574219 279.347656 297.582031 C 277.972656 295.570312 276.976562 293.578125 276.402344 291.566406 C 275.832031 289.574219 275.769531 287.226562 276.617188 285.507812 C 277.441406 283.816406 278.902344 282.035156 280.003906 280.488281 C 281.085938 278.941406 282.230469 277.503906 283.371094 276.191406 C 286.273438 273.585938 288.816406 271.742188 290.996094 270.640625 C 293.179688 269.539062 295 269.03125 296.441406 269.074219 C 297.160156 269.09375 297.816406 269.242188 298.410156 269.496094 C 297.246094 272.484375 295.425781 275.679688 292.96875 279.113281 C 292.671875 279.707031 293.179688 280.46875 294.492188 281.421875 C 295.804688 282.351562 297.4375 283.265625 299.386719 284.109375 C 301.355469 284.957031 303.410156 285.722656 305.59375 286.421875 C 307.773438 287.097656 309.59375 287.480469 311.035156 287.542969 C 312.769531 287.628906 313.640625 287.246094 313.640625 286.398438 C 313.640625 285.910156 313.894531 285.253906 314.402344 284.449219 C 314.910156 283.625 315.480469 282.714844 316.136719 281.71875 C 316.796875 280.722656 317.515625 279.769531 318.320312 278.835938 C 319.125 277.90625 319.738281 277.164062 320.164062 276.570312 C 322.34375 273.902344 324.125 271.679688 325.5 269.898438 C 326.878906 268.097656 327.640625 266.617188 327.785156 265.410156 C 327.9375 264.222656 327.429688 263.25 326.261719 262.507812 C 325.097656 261.785156 323.128906 261.128906 320.375 260.644531 C 316.476562 259.945312 313.195312 259.414062 310.566406 258.992188 C 307.964844 258.589844 305.90625 258.355469 304.46875 258.292969 C 302.859375 258.230469 302.03125 258.589844 301.863281 259.097656 C 301.671875 259.648438 301.3125 260.429688 301.101562 261.34375 C 300.890625 262.253906 300.632812 263.289062 300.335938 264.476562 C 297.582031 262.824219 294.492188 261.449219 291.082031 260.410156 C 287.671875 259.351562 284.285156 258.820312 280.9375 258.757812 C 278.457031 258.714844 276.066406 258.96875 273.734375 259.5 C 271.40625 260.027344 269.308594 260.941406 267.421875 262.273438 C 264.222656 264.433594 261.238281 266.828125 258.484375 269.453125 C 255.730469 272.058594 252.109375 275.003906 250.648438 277.585938 C 248.953125 280.574219 249.441406 285.445312 250.96875 288.8125 C 251.261719 289.46875 251.601562 290.125 251.941406 290.78125 C 250.542969 292.160156 247.554688 295.105469 246.328125 296.269531 L 246.304688 296.289062 C 245.902344 296.671875 245.480469 297.074219 245.058594 297.496094 C 244.1875 298.34375 243.300781 299.191406 242.429688 300.039062 L 242.410156 300.058594 C 240.585938 301.816406 238.871094 303.492188 237.6875 304.675781 C 237.664062 304.699219 237.644531 304.71875 237.644531 304.71875 C 237.179688 305.1875 236.734375 305.652344 236.265625 306.117188 C 236.246094 306.140625 236.226562 306.160156 236.203125 306.179688 C 233.894531 308.488281 231.5 310.734375 229.109375 312.875 C 228.726562 313.214844 228.324219 313.574219 227.941406 313.914062 C 227.816406 314.019531 227.753906 314.082031 227.753906 314.082031 C 224.679688 316.8125 221.566406 319.523438 218.433594 322.152344 C 215.042969 324.988281 211.632812 327.828125 208.203125 330.625 C 209.792969 326.789062 211.507812 323.0625 213.328125 319.398438 C 215.214844 315.605469 217.183594 311.816406 219.214844 308.085938 C 221.417969 304.019531 223.726562 299.953125 226.078125 295.949219 C 228.769531 291.398438 231.460938 286.84375 234.148438 282.289062 C 234.402344 281.84375 234.550781 281.632812 234.804688 281.1875 C 237.199219 277.695312 240.269531 273.414062 240.695312 269.265625 C 240.925781 267.0625 238.046875 265.597656 232.414062 265.15625 C 228.21875 264.816406 224.746094 264.539062 222.054688 264.351562 C 219.363281 264.160156 217.289062 264.097656 215.847656 264.160156 C 214.238281 264.242188 213.476562 264.5625 213.457031 265.007812 C 213.390625 265.917969 212.503906 268.078125 211.0625 271.277344 C 209.75 269.539062 208.054688 267.929688 205.9375 266.488281 C 203.839844 265.046875 201.46875 263.839844 198.863281 262.929688 C 196.257812 262 193.480469 261.320312 190.601562 260.855469 C 187.699219 260.390625 184.757812 260.175781 182.109375 260.496094 C 177.597656 261.046875 172.808594 262.019531 169.0625 265.21875 C 167.894531 266.042969 166.605469 267.230469 165.144531 268.753906 C 163.703125 270.28125 161.816406 272.378906 159.488281 274.835938 C 156.097656 278.390625 152.921875 282.394531 149.933594 286.335938 C 146.101562 291.398438 142.480469 296.796875 139.089844 302.15625 C 135.511719 307.8125 132.058594 313.765625 129.007812 319.714844 C 126.234375 325.136719 123.757812 330.960938 121.742188 336.703125 C 120.386719 340.601562 119.285156 343.839844 118.714844 346.253906 C 118.144531 348.691406 118.417969 350.660156 119.582031 352.015625 C 120.683594 353.308594 122.316406 354.472656 124.347656 355.53125 C 126.363281 356.589844 128.605469 357.480469 131.0625 358.179688 C 133.519531 358.898438 136.125 359.40625 138.859375 359.746094 C 141.589844 360.085938 144.195312 360.105469 146.671875 359.832031 C 153.707031 356.824219 159.359375 351.953125 164.59375 346.65625 C 171.347656 339.816406 177.554688 332.105469 183.613281 324.460938 C 181.769531 328.355469 179.96875 332.316406 178.273438 336.300781 C 176.898438 339.5625 176.453125 341.511719 176.644531 342.039062 C 177.046875 343.226562 178.0625 345.003906 180.011719 346.65625 C 181.960938 348.308594 184.246094 349.792969 186.851562 351.105469 C 189.457031 352.417969 192.085938 353.476562 194.691406 354.261719 C 197.292969 355.042969 199.457031 355.277344 201 355.128906 C 201.699219 355.066406 202.230469 355.003906 202.527344 354.855469 C 202.675781 354.726562 202.824219 354.621094 202.972656 354.558594 C 203.121094 354.492188 203.269531 354.386719 203.414062 354.261719 C 207.398438 350.300781 211.273438 346.191406 215.066406 342.0625 C 219.449219 337.273438 223.898438 332.550781 228.34375 327.847656 C 232.773438 323.167969 237.21875 318.507812 241.648438 313.804688 C 241.796875 313.65625 241.945312 313.488281 242.089844 313.339844 C 242.132812 313.296875 242.175781 313.253906 242.21875 313.214844 C 243.976562 311.347656 245.734375 309.507812 247.535156 307.683594 C 247.917969 307.28125 248.320312 306.878906 248.785156 306.433594 C 249.695312 305.523438 251.261719 303.808594 252.703125 302.199219 C 254.417969 300.484375 256.242188 298.597656 256.960938 297.859375 C 257.042969 297.964844 257.152344 298.070312 257.234375 298.175781 C 259.839844 301.054688 262.574219 303.789062 265.414062 306.371094 C 268.25 308.976562 270.324219 311.667969 271.617188 314.441406 C 269.730469 314.90625 267.976562 315.351562 266.386719 315.777344 C 264.777344 316.199219 263.207031 316.496094 261.8125 316.773438 C 259.820312 317.175781 257.402344 317.914062 254.738281 318.71875 C 252.046875 319.523438 249.464844 320.648438 247.003906 322.089844 C 244.527344 323.527344 242.324219 325.265625 240.355469 327.296875 C 238.386719 329.332031 237.199219 331.875 236.753906 334.902344 C 236.753906 335.113281 236.753906 335.21875 236.753906 335.453125 C 236.667969 335.601562 236.628906 335.664062 236.542969 335.8125 C 236.542969 336.109375 236.542969 336.257812 236.542969 336.53125 C 236.542969 338.820312 237.390625 341.003906 239.042969 343.078125 C 240.714844 345.152344 242.898438 346.933594 245.585938 348.457031 C 248.277344 349.984375 251.285156 351.167969 254.628906 352.039062 C 257.976562 352.90625 261.324219 353.351562 264.648438 353.351562 C 267.128906 353.351562 269.519531 353.074219 271.851562 352.546875 C 274.179688 352.015625 276.277344 351.105469 278.164062 349.792969 C 279.324219 349.070312 280.746094 348.054688 282.421875 346.679688 C 284.09375 345.324219 286.234375 343.566406 288.859375 341.46875 C 289.578125 340.769531 290.574219 339.730469 291.800781 338.375 C 293.03125 337.019531 294.449219 335.390625 296.058594 333.503906 C 298.09375 330.539062 298.917969 327.699219 298.558594 324.988281 C 298.199219 322.257812 297.140625 319.546875 295.402344 316.835938 C 298.601562 315.839844 301.800781 314.824219 304.996094 313.804688 C 305.125 313.765625 305.25 313.722656 305.378906 313.679688 C 306.058594 313.46875 309.996094 312.21875 311.4375 311.773438 C 311.5625 311.730469 311.667969 311.710938 311.796875 311.667969 C 312.625 311.414062 315.671875 310.566406 318.191406 309.867188 C 314.699219 316.09375 311.289062 322.40625 308.386719 328.929688 C 305.84375 334.625 305.082031 338.207031 306.097656 339.582031 C 307.117188 340.960938 308.851562 342.800781 311.332031 345.109375 C 313.785156 347.417969 316.476562 349.496094 319.378906 351.359375 C 319.527344 351.488281 319.675781 351.59375 319.824219 351.65625 C 319.972656 351.71875 320.121094 351.824219 320.269531 351.953125 C 322.003906 353.136719 323.71875 354.132812 325.375 354.917969 C 325.523438 354.980469 325.648438 355.042969 325.777344 355.109375 C 325.796875 355.109375 325.796875 355.109375 325.820312 355.128906 C 326.09375 355.257812 326.367188 355.363281 326.644531 355.46875 C 328.296875 356.167969 330.710938 357.035156 333.0625 355.214844 L 333.082031 355.214844 C 333.101562 355.191406 333.144531 355.152344 333.167969 355.128906 C 333.335938 354.980469 333.507812 354.832031 333.675781 354.664062 C 333.675781 354.640625 333.695312 354.640625 333.695312 354.640625 C 337.339844 351.359375 340.921875 347.992188 344.480469 344.625 C 348.839844 340.515625 353.226562 336.40625 357.632812 332.339844 C 357.949219 332.0625 358.246094 331.765625 358.5625 331.492188 C 358.308594 332.105469 358.054688 332.742188 357.800781 333.355469 C 356.359375 336.933594 355.34375 339.878906 354.769531 342.167969 C 354.199219 344.453125 354.476562 346.507812 355.640625 348.140625 C 356.742188 349.707031 358.390625 351.273438 360.40625 352.84375 C 362.4375 354.386719 364.664062 355.828125 367.117188 357.164062 C 369.578125 358.476562 372.183594 359.640625 374.914062 360.65625 C 377.648438 361.675781 380.253906 362.351562 382.710938 362.667969 C 389.574219 361.503906 395.292969 357.96875 400.5625 353.921875 C 407.214844 348.816406 413.421875 342.570312 419.457031 336.425781 C 417.296875 340.515625 415.539062 344.03125 414.164062 346.953125 C 412.785156 349.875 412.359375 351.699219 412.550781 352.292969 C 412.957031 353.582031 413.949219 355.59375 415.898438 357.734375 C 417.847656 359.875 420.113281 361.90625 422.699219 363.878906 C 425.28125 365.824219 427.867188 367.542969 430.449219 368.960938 C 433.03125 370.398438 435.171875 371.164062 436.699219 371.375 C 437.398438 371.480469 437.902344 371.546875 438.203125 371.480469 C 438.347656 371.394531 438.5 371.332031 438.625 371.289062 C 438.773438 371.246094 438.902344 371.203125 439.050781 371.101562 C 442.988281 368.136719 446.78125 364.957031 450.550781 361.757812 C 454.890625 358.09375 459.257812 354.429688 463.640625 350.808594 C 468.003906 347.230469 472.367188 343.609375 476.710938 340.027344 C 480.414062 336.957031 484.207031 333.929688 488.144531 331.109375 C 488.527344 330.878906 488.613281 330.304688 488.3125 329.375 Z M 204.074219 275.257812 C 204.050781 275.46875 204.03125 275.679688 203.988281 275.894531 C 203.691406 277.652344 202.609375 281.125 198.839844 286.335938 C 194.394531 292.328125 189.964844 298.324219 185.5625 304.359375 C 181.132812 310.417969 176.6875 316.496094 172.195312 322.46875 C 167.960938 328.101562 163.597656 333.78125 159.167969 339.179688 C 155.25 343.945312 151.058594 348.605469 146.460938 352.84375 C 146.164062 353.117188 146.207031 352.695312 146.566406 351.570312 C 146.925781 350.449219 147.476562 348.882812 148.199219 346.867188 C 148.917969 344.855469 149.828125 342.613281 150.910156 340.132812 C 151.988281 337.65625 153.113281 335.21875 154.277344 332.804688 C 159.167969 323.042969 164.316406 313.382812 169.800781 304.042969 C 174.949219 295.292969 180.457031 286.609375 186.429688 278.328125 C 189.332031 275.089844 191.832031 272.800781 193.925781 271.464844 C 196.023438 270.109375 197.886719 269.390625 199.476562 269.304688 C 201.066406 269.199219 202.273438 269.75 203.078125 270.894531 C 203.777344 271.910156 204.050781 273.183594 204.074219 274.582031 C 204.09375 274.558594 204.113281 274.792969 204.074219 275.257812 Z M 266.171875 330.941406 C 264.859375 332.867188 263.546875 334.5625 262.253906 336.023438 C 259.207031 338.820312 256.578125 340.789062 254.398438 341.957031 C 252.214844 343.121094 250.394531 343.714844 248.953125 343.734375 C 247.34375 343.753906 246.265625 343.183594 245.691406 341.976562 C 245.121094 340.789062 244.886719 339.222656 245.246094 337.632812 C 245.460938 336.703125 245.820312 335.941406 246.117188 335.453125 C 246.265625 335.324219 246.476562 335.027344 246.773438 334.542969 C 248.804688 331.492188 252.003906 329.351562 256.367188 328.167969 C 261.070312 326.894531 265.792969 325.730469 270.539062 324.609375 C 268.949219 326.917969 267.488281 329.015625 266.171875 330.941406 Z M 439.683594 291.992188 C 439.683594 292.03125 439.683594 292.074219 439.683594 292.140625 C 439.664062 292.5625 439.597656 292.964844 439.453125 293.347656 C 439.027344 295.019531 437.820312 297.984375 434.492188 302.007812 L 434.515625 302.03125 C 430.089844 306.921875 425.726562 311.835938 421.382812 316.792969 C 417 321.769531 412.59375 326.726562 408.125 331.597656 C 403.910156 336.195312 399.589844 340.832031 395.160156 345.089844 C 391.179688 348.921875 387.050781 352.332031 382.496094 355.617188 C 382.199219 355.828125 382.242188 355.40625 382.601562 354.367188 C 382.964844 353.328125 383.511719 351.890625 384.234375 350.066406 C 384.953125 348.246094 385.863281 346.210938 386.945312 344.011719 C 388.027344 341.808594 389.148438 339.648438 390.289062 337.507812 C 395.160156 328.992188 400.265625 320.585938 405.753906 312.578125 C 410.835938 305.144531 416.386719 297.898438 422.253906 290.953125 C 425.132812 288.433594 427.613281 286.757812 429.6875 285.933594 C 431.761719 285.105469 433.605469 284.832031 435.171875 285.128906 C 436.742188 285.425781 437.925781 286.25 438.730469 287.605469 C 439.472656 288.875 439.726562 290.339844 439.707031 291.84375 C 439.683594 291.820312 439.683594 291.882812 439.683594 291.992188 Z M 439.683594 291.992188 "/>
<path style=" stroke:none;fill-rule:nonzero;fill:url(#linear8);" d="M 146.316406 225.546875 C 145.175781 226.328125 144.261719 227.707031 143.457031 228.828125 C 142.632812 229.992188 141.828125 231.160156 141.085938 232.386719 C 139.457031 235.078125 138.035156 237.894531 136.722656 240.753906 C 135.535156 243.359375 134.542969 246.046875 133.695312 248.78125 C 133.039062 250.878906 132.273438 253.082031 132.125 255.28125 C 132.105469 255.792969 132.105469 256.277344 132.085938 256.785156 C 132.125 255.621094 132.125 255.855469 132.0625 257.507812 C 132.105469 258.585938 132.253906 259.644531 132.613281 260.683594 C 132.804688 261.257812 133.015625 261.871094 133.480469 262.25 C 134.605469 263.183594 135.367188 262.0625 135.960938 260.875 C 135.644531 261.339844 135.324219 261.828125 135.027344 262.292969 C 136.363281 260.917969 136.617188 259.09375 137.082031 257.316406 C 137.230469 256.765625 137.230469 256.746094 137.441406 256.023438 C 137.632812 255.390625 137.84375 254.734375 138.058594 254.097656 C 138.839844 251.703125 139.75 249.351562 140.769531 247.042969 C 140.894531 246.769531 141.023438 246.472656 141.148438 246.195312 C 141.191406 246.089844 141.253906 245.964844 141.296875 245.859375 C 141.171875 246.132812 141.171875 246.132812 141.277344 245.898438 C 141.550781 245.328125 141.828125 244.777344 142.101562 244.226562 C 142.695312 243.0625 143.308594 241.898438 143.964844 240.773438 C 145.386719 238.296875 147.015625 235.902344 148.203125 233.296875 C 148.902344 231.75 148.796875 229.273438 148.328125 227.664062 C 148.160156 226.878906 147.484375 224.742188 146.316406 225.546875 Z M 146.316406 225.546875 "/>
<path style=" stroke:none;fill-rule:nonzero;fill:url(#linear9);" d="M 105.945312 314.757812 C 106.519531 315.6875 107.429688 316.367188 108.234375 317.105469 C 108.550781 317.382812 108.871094 317.679688 109.1875 317.953125 C 109.398438 318.144531 109.609375 318.335938 109.824219 318.527344 C 109.441406 318.335938 109.25 317.976562 109.273438 317.402344 C 109.167969 316.003906 109.058594 314.609375 108.953125 313.210938 C 108.953125 313.316406 108.953125 313.421875 108.933594 313.507812 C 109.101562 312.703125 109.273438 311.875 109.441406 311.070312 C 109.503906 310.964844 109.570312 310.859375 109.632812 310.730469 C 109.421875 310.984375 109.378906 311.070312 109.484375 310.945312 C 109.570312 310.859375 109.207031 311.238281 109.144531 311.304688 C 108.765625 311.707031 108.363281 312.085938 107.980469 312.488281 C 107.132812 313.359375 106.308594 314.226562 105.4375 315.054688 C 104.613281 315.835938 103.742188 316.597656 102.917969 317.382812 C 101.710938 318.527344 100.441406 319.605469 99.953125 321.257812 C 99.488281 322.933594 99.316406 324.605469 99.550781 326.34375 C 99.71875 327.550781 100.015625 329.136719 101.054688 329.941406 C 101.140625 330.007812 101.222656 330.070312 101.308594 330.132812 C 101.710938 330.386719 102.09375 330.386719 102.472656 330.113281 C 104.167969 329.011719 105.609375 327.632812 107.046875 326.214844 C 108.617188 324.667969 110.160156 323.058594 111.496094 321.28125 C 112.578125 319.859375 113.042969 318.082031 113.191406 316.324219 C 113.382812 314.121094 113.253906 311.199219 111.792969 309.417969 C 111.179688 308.675781 110.203125 308.316406 109.378906 307.851562 C 108.550781 307.40625 107.597656 306.644531 106.644531 306.6875 C 105.4375 306.726562 105.101562 309.078125 105.058594 309.90625 C 104.910156 311.535156 105.058594 313.335938 105.945312 314.757812 Z M 105.945312 314.757812 "/>
<path style=" stroke:none;fill-rule:nonzero;fill:url(#linear10);" d="M 229.621094 269.6875 C 228.691406 269.710938 227.886719 270.960938 227.355469 271.617188 C 226.722656 272.398438 226.128906 273.226562 225.554688 274.050781 C 224.371094 275.726562 223.226562 277.421875 222.101562 279.136719 C 219.792969 282.652344 217.699219 286.316406 215.707031 290.023438 C 214.246094 292.796875 212.613281 295.488281 212.53125 298.683594 C 212.488281 299.957031 212.570312 301.226562 212.867188 302.457031 C 213.082031 303.300781 213.589844 304.933594 214.691406 305.019531 C 216.066406 305.144531 217 302.328125 217.484375 301.398438 C 219.390625 297.5625 221.425781 293.835938 223.523438 290.085938 C 224.707031 287.945312 225.9375 285.828125 227.1875 283.753906 C 228.691406 281.253906 230.425781 278.839844 231.125 275.980469 C 231.445312 274.644531 231.359375 273.058594 231.019531 271.742188 C 230.871094 271.152344 230.492188 269.667969 229.621094 269.6875 Z M 229.621094 269.6875 "/>
<path style=" stroke:none;fill-rule:nonzero;fill:url(#linear11);" d="M 319.46875 261.890625 C 317.242188 263.671875 315.125 265.449219 313.304688 267.652344 C 312.4375 268.710938 311.609375 269.792969 310.847656 270.933594 C 309.152344 273.496094 308.496094 276.378906 308.941406 279.449219 C 309.070312 280.359375 309.789062 283.917969 311.421875 282.839844 C 311.566406 282.667969 311.714844 282.5 311.863281 282.332031 C 311.734375 283.027344 311.820312 283.136719 312.117188 282.648438 C 312.4375 282.414062 312.648438 281.96875 312.859375 281.632812 C 313.601562 280.425781 314.34375 279.214844 315.144531 278.050781 C 316.839844 275.636719 318.554688 273.160156 320.613281 271.019531 C 321.964844 269.601562 321.964844 266.953125 321.710938 265.132812 C 321.628906 264.453125 320.90625 260.746094 319.46875 261.890625 Z M 319.46875 261.890625 "/>
<path style=" stroke:none;fill-rule:nonzero;fill:url(#linear12);" d="M 286.324219 322.234375 C 287.128906 323.148438 287.847656 324.101562 288.480469 325.136719 C 288.523438 325.199219 288.90625 325.859375 288.695312 325.476562 C 288.738281 325.5625 289.160156 326.683594 288.992188 326.070312 C 288.800781 325.457031 288.78125 324.882812 288.757812 324.226562 C 288.671875 323.71875 288.714844 323.1875 288.863281 322.703125 C 289.035156 321.9375 289.054688 321.8125 288.886719 322.363281 C 288.78125 322.597656 288.652344 322.785156 288.84375 322.449219 C 288.695312 322.703125 288.546875 322.957031 288.378906 323.1875 C 288.101562 323.589844 287.890625 323.824219 287.636719 324.101562 C 287.210938 324.542969 286.789062 324.945312 286.363281 325.390625 C 285.433594 326.367188 285.09375 327.382812 284.734375 328.675781 C 284.164062 330.75 284.355469 334.476562 286.132812 336.003906 C 286.21875 336.066406 286.28125 336.128906 286.363281 336.195312 C 286.765625 336.449219 287.148438 336.425781 287.53125 336.171875 C 291.089844 333.164062 292.824219 329.160156 292.738281 324.480469 C 292.699219 322.085938 292.292969 319.25 290.792969 317.300781 C 289.882812 316.113281 288.613281 315.648438 287.339844 314.972656 C 286.132812 314.335938 285.730469 316.601562 285.625 317.300781 C 285.414062 318.675781 285.304688 321.113281 286.324219 322.234375 Z M 286.324219 322.234375 "/>
<path style=" stroke:none;fill-rule:nonzero;fill:url(#linear13);" d="M 383.664062 234.203125 C 382.964844 233.464844 381.441406 235.410156 380.976562 235.878906 C 380.273438 236.617188 379.597656 237.382812 378.917969 238.144531 C 377.457031 239.796875 376.105469 241.53125 374.789062 243.3125 C 371.78125 247.441406 369.578125 251.976562 369.175781 257.144531 C 369.027344 259.007812 369.175781 261.144531 370.003906 262.863281 C 370.53125 263.941406 371.378906 264.40625 372.164062 263.242188 C 372.796875 262.289062 373.285156 261.144531 373.667969 260.085938 C 373.835938 259.621094 373.390625 260.660156 373.730469 259.960938 C 373.855469 259.707031 373.984375 259.429688 374.113281 259.175781 C 374.34375 258.710938 374.601562 258.246094 374.855469 257.777344 C 375.976562 255.722656 377.265625 253.796875 378.667969 251.910156 C 380.019531 250.089844 381.589844 248.203125 383.007812 246.191406 C 384.066406 244.6875 385.125 243.207031 385.464844 241.382812 C 385.761719 239.753906 385.804688 237.847656 385.402344 236.238281 C 385.273438 235.707031 385.125 235.113281 384.832031 234.671875 C 384.722656 234.394531 384.53125 234.226562 384.257812 234.160156 C 384.066406 233.992188 383.875 234.011719 383.664062 234.203125 Z M 383.664062 234.203125 "/>
<path style=" stroke:none;fill-rule:nonzero;fill:url(#linear14);" d="M 462.523438 301.09375 C 464.066406 301.113281 465.1875 301.644531 466.441406 302.511719 C 466.355469 299.164062 466.269531 295.796875 466.1875 292.449219 C 464.28125 293.953125 462.625 295.925781 461.039062 297.746094 C 459.367188 299.671875 457.796875 301.664062 456.273438 303.699219 C 454.683594 305.773438 453.117188 307.871094 451.65625 310.050781 C 450.933594 311.109375 450.238281 312.191406 449.558594 313.292969 C 449.199219 313.863281 448.859375 314.4375 448.5625 315.050781 C 447.84375 316.492188 447.632812 317.972656 447.503906 319.5625 C 447.398438 320.980469 447.503906 322.464844 447.929688 323.820312 C 448.035156 324.265625 448.203125 324.6875 448.433594 325.070312 C 448.625 325.449219 448.921875 325.660156 449.324219 325.726562 C 449.472656 325.789062 449.601562 325.851562 449.75 325.917969 C 450.214844 325.832031 450.554688 325.554688 450.742188 325.109375 C 453.519531 321.296875 455.914062 317.210938 458.730469 313.417969 C 461.609375 309.523438 464.9375 305.941406 467.773438 302.003906 C 468.261719 301.324219 468.347656 300.289062 468.429688 299.484375 C 468.558594 298.359375 468.578125 297.195312 468.429688 296.074219 C 468.285156 294.949219 468.050781 292.558594 466.628906 292.28125 C 465.210938 292.007812 463.6875 292.15625 462.265625 292.429688 C 460.828125 292.703125 460.871094 295.777344 460.910156 296.8125 C 460.953125 297.851562 461.039062 298.910156 461.417969 299.886719 C 461.632812 300.289062 461.929688 301.070312 462.523438 301.09375 Z M 462.523438 301.09375 "/>
<use xlink:href="#surface5" mask="url(#mask0)"/>
</g>
</svg>
