<svg xmlns="http://www.w3.org/2000/svg" viewBox="0 0 24 24">
<defs>
<linearGradient id="linear0" gradientUnits="userSpaceOnUse" x1="10" y1="0" x2="10" y2="20" gradientTransform="matrix(1.2,0,0,1.2,0,0)">
<stop offset="0" style="stop-color:rgb(0%,0%,0%);stop-opacity:0;"/>
<stop offset="1" style="stop-color:rgb(0%,0%,0%);stop-opacity:0.501961;"/>
</linearGradient>
</defs>
<g id="surface1">
<path style=" stroke:none;fill-rule:nonzero;fill:rgb(94.117647%,94.117647%,94.117647%);fill-opacity:1;" d="M 12 24 C 18.628906 24 24 18.628906 24 12 C 24 5.371094 18.628906 0 12 0 C 5.371094 0 0 5.371094 0 12 C 0 18.628906 5.371094 24 12 24 Z M 12 24 "/>
<path style=" stroke:none;fill-rule:nonzero;fill:rgb(100%,59.607843%,6.666667%);fill-opacity:1;" d="M 12 0 C 7.242188 0 3.132812 2.769531 1.191406 6.78125 L 22.808594 6.78125 C 20.867188 2.769531 16.757812 0 12 0 Z M 12 0 "/>
<path style=" stroke:none;fill-rule:nonzero;fill:rgb(42.745098%,64.705882%,26.666667%);fill-opacity:1;" d="M 12 24 C 16.757812 24 20.867188 21.230469 22.808594 17.21875 L 1.191406 17.21875 C 3.132812 21.230469 7.242188 24 12 24 Z M 12 24 "/>
<path style=" stroke:none;fill-rule:nonzero;fill:rgb(0%,32.156863%,70.588235%);fill-opacity:1;" d="M 12 16.175781 C 14.304688 16.175781 16.171875 14.304688 16.171875 12 C 16.171875 9.695312 14.304688 7.824219 12 7.824219 C 9.695312 7.824219 7.824219 9.695312 7.824219 12 C 7.824219 14.304688 9.695312 16.175781 12 16.175781 Z M 12 16.175781 "/>
<path style=" stroke:none;fill-rule:nonzero;fill:rgb(94.117647%,94.117647%,94.117647%);fill-opacity:1;" d="M 12 14.609375 C 13.441406 14.609375 14.609375 13.441406 14.609375 12 C 14.609375 10.558594 13.441406 9.390625 12 9.390625 C 10.558594 9.390625 9.390625 10.558594 9.390625 12 C 9.390625 13.441406 10.558594 14.609375 12 14.609375 Z M 12 14.609375 "/>
<path style=" stroke:none;fill-rule:nonzero;fill:rgb(0%,32.156863%,70.588235%);fill-opacity:1;" d="M 12 8.78125 L 12.804688 10.605469 L 14.789062 10.390625 L 13.609375 12 L 14.789062 13.609375 L 12.804688 13.394531 L 12 15.21875 L 11.195312 13.394531 L 9.214844 13.609375 L 10.390625 12 L 9.214844 10.390625 L 11.195312 10.605469 Z M 12 8.78125 "/>
<path style=" stroke:none;fill-rule:nonzero;fill:url(#linear0);" d="M 24 12 C 24 18.628906 18.628906 24 12 24 C 5.371094 24 0 18.628906 0 12 C 0 5.371094 5.371094 0 12 0 C 18.628906 0 24 5.371094 24 12 Z M 24 12 "/>
</g>
</svg>
