<svg xmlns="http://www.w3.org/2000/svg" viewBox="0 0 24 24">
<defs>
<linearGradient id="linear0" gradientUnits="userSpaceOnUse" x1="10" y1="0" x2="10" y2="20" gradientTransform="matrix(1.2,0,0,1.2,0,0)">
<stop offset="0" style="stop-color:rgb(0%,0%,0%);stop-opacity:0;"/>
<stop offset="1" style="stop-color:rgb(0%,0%,0%);stop-opacity:0.501961;"/>
</linearGradient>
</defs>
<g id="surface1">
<path style=" stroke:none;fill-rule:nonzero;fill:rgb(94.117647%,94.117647%,94.117647%);fill-opacity:1;" d="M 12 24 C 18.628906 24 24 18.628906 24 12 C 24 5.371094 18.628906 0 12 0 C 5.371094 0 0 5.371094 0 12 C 0 18.628906 5.371094 24 12 24 Z M 12 24 "/>
<path style=" stroke:none;fill-rule:nonzero;fill:rgb(84.705882%,0%,15.294118%);fill-opacity:1;" d="M 24 12 C 24 6.839844 20.742188 2.441406 16.175781 0.746094 L 16.175781 23.253906 C 20.742188 21.558594 24 17.160156 24 12 Z M 24 12 "/>
<path style=" stroke:none;fill-rule:nonzero;fill:rgb(42.745098%,64.705882%,26.666667%);fill-opacity:1;" d="M 0 12 C 0 17.160156 3.257812 21.558594 7.824219 23.253906 L 7.824219 0.746094 C 3.257812 2.441406 0 6.839844 0 12 Z M 0 12 "/>
<path style=" stroke:none;fill-rule:nonzero;fill:url(#linear0);" d="M 24 12 C 24 18.628906 18.628906 24 12 24 C 5.371094 24 0 18.628906 0 12 C 0 5.371094 5.371094 0 12 0 C 18.628906 0 24 5.371094 24 12 Z M 24 12 "/>
</g>
</svg>
