<svg xmlns="http://www.w3.org/2000/svg" viewBox="0 0 24 24">
<defs>
<linearGradient id="linear0" gradientUnits="userSpaceOnUse" x1="10" y1="0" x2="10" y2="20" gradientTransform="matrix(1.2,0,0,1.2,0,0)">
<stop offset="0" style="stop-color:rgb(0%,0%,0%);stop-opacity:0;"/>
<stop offset="1" style="stop-color:rgb(0%,0%,0%);stop-opacity:0.501961;"/>
</linearGradient>
</defs>
<g id="surface1">
<path style=" stroke:none;fill-rule:nonzero;fill:rgb(94.117647%,94.117647%,94.117647%);fill-opacity:1;" d="M 12 24 C 18.628906 24 24 18.628906 24 12 C 24 5.371094 18.628906 0 12 0 C 5.371094 0 0 5.371094 0 12 C 0 18.628906 5.371094 24 12 24 Z M 12 24 "/>
<path style=" stroke:none;fill-rule:nonzero;fill:rgb(84.705882%,0%,15.294118%);fill-opacity:1;" d="M 16.171875 12 C 16.171875 13.042969 14.304688 15.652344 12 15.652344 C 9.695312 15.652344 7.824219 13.042969 7.824219 12 C 7.824219 9.695312 9.695312 7.824219 12 7.824219 C 14.304688 7.824219 16.171875 9.695312 16.171875 12 Z M 16.171875 12 "/>
<path style=" stroke:none;fill-rule:nonzero;fill:rgb(0%,32.156863%,70.588235%);fill-opacity:1;" d="M 16.171875 12 C 16.171875 14.304688 14.304688 16.175781 12 16.175781 C 9.695312 16.175781 7.824219 14.304688 7.824219 12 "/>
<path d="M 17.535156 14.582031 L 16.425781 15.6875 L 17.164062 16.425781 L 18.273438 15.320312 Z M 17.535156 14.582031 "/>
<path d="M 15.691406 16.425781 L 14.582031 17.535156 L 15.320312 18.273438 L 16.425781 17.164062 Z M 15.691406 16.425781 "/>
<path d="M 19.746094 16.796875 L 18.640625 17.902344 L 19.378906 18.640625 L 20.484375 17.535156 Z M 19.746094 16.796875 "/>
<path d="M 17.902344 18.640625 L 16.796875 19.746094 L 17.53125 20.484375 L 18.640625 19.378906 Z M 17.902344 18.640625 "/>
<path d="M 18.640625 15.691406 L 17.535156 16.796875 L 18.269531 17.535156 L 19.378906 16.425781 Z M 18.640625 15.691406 "/>
<path d="M 16.796875 17.535156 L 15.6875 18.640625 L 16.425781 19.378906 L 17.535156 18.273438 Z M 16.796875 17.535156 "/>
<path d="M 15.691406 5.359375 L 18.640625 8.3125 L 19.378906 7.574219 L 16.429688 4.621094 Z M 15.691406 5.359375 "/>
<path d="M 14.582031 6.464844 L 15.6875 7.574219 L 16.425781 6.835938 L 15.320312 5.726562 Z M 14.582031 6.464844 "/>
<path d="M 16.425781 8.3125 L 17.535156 9.417969 L 18.269531 8.679688 L 17.164062 7.574219 Z M 16.425781 8.3125 "/>
<path d="M 16.792969 4.253906 L 17.902344 5.359375 L 18.640625 4.621094 L 17.53125 3.515625 Z M 16.792969 4.253906 "/>
<path d="M 18.640625 6.097656 L 19.75 7.203125 L 20.484375 6.464844 L 19.378906 5.359375 Z M 18.640625 6.097656 "/>
<path d="M 7.203125 19.746094 L 4.25 16.796875 L 3.515625 17.535156 L 6.464844 20.484375 Z M 7.203125 19.746094 "/>
<path d="M 8.3125 18.640625 L 7.203125 17.535156 L 6.46875 18.269531 L 7.574219 19.378906 Z M 8.3125 18.640625 "/>
<path d="M 6.46875 16.796875 L 5.359375 15.691406 L 4.621094 16.425781 L 5.730469 17.535156 Z M 6.46875 16.796875 "/>
<path d="M 9.417969 17.535156 L 6.464844 14.582031 L 5.730469 15.320312 L 8.679688 18.269531 Z M 9.417969 17.535156 "/>
<path d="M 4.253906 7.203125 L 7.203125 4.25 L 6.46875 3.515625 L 3.515625 6.464844 Z M 4.253906 7.203125 "/>
<path d="M 5.359375 8.3125 L 8.3125 5.359375 L 7.574219 4.621094 L 4.621094 7.574219 Z M 5.359375 8.3125 "/>
<path d="M 6.464844 9.417969 L 9.417969 6.464844 L 8.679688 5.726562 L 5.726562 8.679688 Z M 6.464844 9.417969 "/>
<path style=" stroke:none;fill-rule:nonzero;fill:url(#linear0);" d="M 24 12 C 24 18.628906 18.628906 24 12 24 C 5.371094 24 0 18.628906 0 12 C 0 5.371094 5.371094 0 12 0 C 18.628906 0 24 5.371094 24 12 Z M 24 12 "/>
</g>
</svg>
