<svg xmlns="http://www.w3.org/2000/svg" viewBox="0 0 24 24">
<defs>
<linearGradient id="linear0" gradientUnits="userSpaceOnUse" x1="10" y1="0" x2="10" y2="20" gradientTransform="matrix(1.2,0,0,1.2,0,0)">
<stop offset="0" style="stop-color:rgb(0%,0%,0%);stop-opacity:0;"/>
<stop offset="1" style="stop-color:rgb(0%,0%,0%);stop-opacity:0.501961;"/>
</linearGradient>
</defs>
<g id="surface1">
<path style=" stroke:none;fill-rule:nonzero;fill:rgb(94.117647%,94.117647%,94.117647%);fill-opacity:1;" d="M 12 24 C 18.628906 24 24 18.628906 24 12 C 24 5.371094 18.628906 0 12 0 C 5.371094 0 0 5.371094 0 12 C 0 18.628906 5.371094 24 12 24 Z M 12 24 "/>
<path style=" stroke:none;fill-rule:nonzero;fill:rgb(84.705882%,0%,15.294118%);fill-opacity:1;" d="M 11.476562 12 L 24 12 C 24 10.914062 23.855469 9.867188 23.585938 8.867188 L 11.476562 8.867188 Z M 11.476562 12 "/>
<path style=" stroke:none;fill-rule:nonzero;fill:rgb(84.705882%,0%,15.294118%);fill-opacity:1;" d="M 11.476562 5.738281 L 22.238281 5.738281 C 21.503906 4.539062 20.5625 3.480469 19.46875 2.609375 L 11.476562 2.609375 Z M 11.476562 5.738281 "/>
<path style=" stroke:none;fill-rule:nonzero;fill:rgb(84.705882%,0%,15.294118%);fill-opacity:1;" d="M 11.996094 24 C 14.820312 24 17.417969 23.023438 19.46875 21.390625 L 4.527344 21.390625 C 6.578125 23.023438 9.171875 24 11.996094 24 Z M 11.996094 24 "/>
<path style=" stroke:none;fill-rule:nonzero;fill:rgb(84.705882%,0%,15.294118%);fill-opacity:1;" d="M 1.761719 18.261719 L 22.238281 18.261719 C 22.828125 17.296875 23.285156 16.246094 23.585938 15.128906 L 0.414062 15.128906 C 0.714844 16.246094 1.171875 17.296875 1.761719 18.261719 Z M 1.761719 18.261719 "/>
<path style=" stroke:none;fill-rule:nonzero;fill:rgb(0%,32.156863%,70.588235%);fill-opacity:1;" d="M 12 12 C 12 5.371094 12 4.589844 12 0 C 5.371094 0 0 5.371094 0 12 Z M 12 12 "/>
<path style=" stroke:none;fill-rule:nonzero;fill:rgb(100%,85.490196%,26.666667%);fill-opacity:1;" d="M 7.980469 10.273438 C 6.339844 10.273438 5.011719 8.941406 5.011719 7.304688 C 5.011719 5.664062 6.339844 4.335938 7.980469 4.335938 C 8.488281 4.335938 8.96875 4.464844 9.390625 4.695312 C 8.730469 4.050781 7.832031 3.652344 6.835938 3.652344 C 4.820312 3.652344 3.183594 5.289062 3.183594 7.304688 C 3.183594 9.320312 4.820312 10.957031 6.835938 10.957031 C 7.832031 10.957031 8.730469 10.558594 9.390625 9.914062 C 8.96875 10.140625 8.488281 10.273438 7.980469 10.273438 Z M 7.980469 10.273438 "/>
<path style=" stroke:none;fill-rule:nonzero;fill:rgb(100%,85.490196%,26.666667%);fill-opacity:1;" d="M 8.816406 5.21875 L 9.34375 6.320312 L 10.53125 6.042969 L 10 7.144531 L 10.957031 7.902344 L 9.765625 8.171875 L 9.769531 9.390625 L 8.816406 8.628906 L 7.863281 9.390625 L 7.867188 8.171875 L 6.675781 7.902344 L 7.632812 7.144531 L 7.097656 6.042969 L 8.289062 6.320312 Z M 8.816406 5.21875 "/>
<path style=" stroke:none;fill-rule:nonzero;fill:url(#linear0);" d="M 24 12 C 24 18.628906 18.628906 24 12 24 C 5.371094 24 0 18.628906 0 12 C 0 5.371094 5.371094 0 12 0 C 18.628906 0 24 5.371094 24 12 Z M 24 12 "/>
</g>
</svg>
