<svg xmlns="http://www.w3.org/2000/svg" viewBox="0 0 24 24">
<defs>
<linearGradient id="linear0" gradientUnits="userSpaceOnUse" x1="10" y1="0" x2="10" y2="20" gradientTransform="matrix(1.2,0,0,1.2,0,0)">
<stop offset="0" style="stop-color:rgb(0%,0%,0%);stop-opacity:0;"/>
<stop offset="1" style="stop-color:rgb(0%,0%,0%);stop-opacity:0.501961;"/>
</linearGradient>
</defs>
<g id="surface1">
<path style=" stroke:none;fill-rule:nonzero;fill:rgb(42.745098%,64.705882%,26.666667%);fill-opacity:1;" d="M 0 12 C 0 17.160156 3.257812 21.558594 7.824219 23.253906 L 8.871094 12 L 7.824219 0.746094 C 3.257812 2.441406 0 6.839844 0 12 Z M 0 12 "/>
<path style=" stroke:none;fill-rule:nonzero;fill:rgb(84.705882%,0%,15.294118%);fill-opacity:1;" d="M 24 12 C 24 5.371094 18.628906 0 12 0 C 10.53125 0 9.125 0.265625 7.824219 0.746094 L 7.824219 23.253906 C 9.125 23.734375 10.53125 24 12 24 C 18.628906 24 24 18.628906 24 12 Z M 24 12 "/>
<path style=" stroke:none;fill-rule:nonzero;fill:rgb(100%,85.490196%,26.666667%);fill-opacity:1;" d="M 7.824219 16.175781 C 10.128906 16.175781 12 14.304688 12 12 C 12 9.695312 10.128906 7.824219 7.824219 7.824219 C 5.519531 7.824219 3.652344 9.695312 3.652344 12 C 3.652344 14.304688 5.519531 16.175781 7.824219 16.175781 Z M 7.824219 16.175781 "/>
<path style=" stroke:none;fill-rule:nonzero;fill:rgb(84.705882%,0%,15.294118%);fill-opacity:1;" d="M 5.476562 9.914062 L 5.476562 12.523438 C 5.476562 13.820312 6.527344 14.871094 7.824219 14.871094 C 9.121094 14.871094 10.171875 13.820312 10.171875 12.523438 L 10.171875 9.914062 Z M 5.476562 9.914062 "/>
<path style=" stroke:none;fill-rule:nonzero;fill:rgb(94.117647%,94.117647%,94.117647%);fill-opacity:1;" d="M 7.824219 13.304688 C 7.394531 13.304688 7.042969 12.953125 7.042969 12.523438 L 7.042969 11.476562 L 8.609375 11.476562 L 8.609375 12.523438 C 8.609375 12.953125 8.257812 13.304688 7.824219 13.304688 Z M 7.824219 13.304688 "/>
<path style=" stroke:none;fill-rule:nonzero;fill:url(#linear0);" d="M 24 12 C 24 18.628906 18.628906 24 12 24 C 5.371094 24 0 18.628906 0 12 C 0 5.371094 5.371094 0 12 0 C 18.628906 0 24 5.371094 24 12 Z M 24 12 "/>
</g>
</svg>
