<svg xmlns="http://www.w3.org/2000/svg" viewBox="0 0 24 24">
<defs>
<linearGradient id="linear0" gradientUnits="userSpaceOnUse" x1="10" y1="0" x2="10" y2="20" gradientTransform="matrix(1.2,0,0,1.2,0,0)">
<stop offset="0" style="stop-color:rgb(0%,0%,0%);stop-opacity:0;"/>
<stop offset="1" style="stop-color:rgb(0%,0%,0%);stop-opacity:0.501961;"/>
</linearGradient>
</defs>
<g id="surface1">
<path style=" stroke:none;fill-rule:nonzero;fill:rgb(84.705882%,0%,15.294118%);fill-opacity:1;" d="M 12 24 C 18.628906 24 24 18.628906 24 12 C 24 5.371094 18.628906 0 12 0 C 5.371094 0 0 5.371094 0 12 C 0 18.628906 5.371094 24 12 24 Z M 12 24 "/>
<path style=" stroke:none;fill-rule:nonzero;fill:rgb(100%,85.490196%,26.666667%);fill-opacity:1;" d="M 6.566406 7.300781 L 7.601562 10.488281 L 10.953125 10.488281 L 8.246094 12.464844 L 9.28125 15.652344 L 6.566406 13.683594 L 3.851562 15.652344 L 4.894531 12.464844 L 2.179688 10.488281 L 5.53125 10.488281 Z M 6.566406 7.300781 "/>
<path style=" stroke:none;fill-rule:nonzero;fill:rgb(100%,85.490196%,26.666667%);fill-opacity:1;" d="M 14.226562 18.585938 L 13.433594 17.609375 L 12.261719 18.066406 L 12.941406 17.011719 L 12.148438 16.03125 L 13.363281 16.355469 L 14.046875 15.300781 L 14.113281 16.554688 L 15.332031 16.878906 L 14.15625 17.328125 Z M 14.226562 18.585938 "/>
<path style=" stroke:none;fill-rule:nonzero;fill:rgb(100%,85.490196%,26.666667%);fill-opacity:1;" d="M 15.800781 15.726562 L 16.175781 14.527344 L 15.148438 13.800781 L 16.40625 13.78125 L 16.777344 12.582031 L 17.183594 13.769531 L 18.441406 13.757812 L 17.433594 14.507812 L 17.835938 15.699219 L 16.808594 14.972656 Z M 15.800781 15.726562 "/>
<path style=" stroke:none;fill-rule:nonzero;fill:rgb(100%,85.490196%,26.666667%);fill-opacity:1;" d="M 17.925781 8.808594 L 17.371094 9.9375 L 18.273438 10.8125 L 17.03125 10.636719 L 16.476562 11.761719 L 16.261719 10.523438 L 15.015625 10.34375 L 16.128906 9.757812 L 15.914062 8.515625 L 16.8125 9.394531 Z M 17.925781 8.808594 "/>
<path style=" stroke:none;fill-rule:nonzero;fill:rgb(100%,85.490196%,26.666667%);fill-opacity:1;" d="M 14.257812 5.386719 L 14.164062 6.636719 L 15.332031 7.109375 L 14.109375 7.410156 L 14.019531 8.667969 L 13.359375 7.597656 L 12.136719 7.898438 L 12.945312 6.9375 L 12.28125 5.871094 L 13.449219 6.347656 Z M 14.257812 5.386719 "/>
<path style=" stroke:none;fill-rule:nonzero;fill:url(#linear0);" d="M 24 12 C 24 18.628906 18.628906 24 12 24 C 5.371094 24 0 18.628906 0 12 C 0 5.371094 5.371094 0 12 0 C 18.628906 0 24 5.371094 24 12 Z M 24 12 "/>
</g>
</svg>
