<svg width="21" height="21" viewBox="0 0 21 21" fill="none" xmlns="http://www.w3.org/2000/svg">
<rect x="2.72192" y="0.599609" width="25" height="3" transform="rotate(45 2.72192 0.599609)" fill="white"/>
<rect x="2.72192" y="0.599609" width="25" height="3" transform="rotate(45 2.72192 0.599609)" fill="white"/>
<rect x="2.72192" y="0.599609" width="25" height="3" transform="rotate(45 2.72192 0.599609)" fill="white"/>
<rect x="2.72192" y="0.599609" width="25" height="3" transform="rotate(45 2.72192 0.599609)" fill="white"/>
<rect width="25" height="3" transform="matrix(-0.707107 0.707107 0.707107 0.707107 18.2795 0.599609)" fill="white"/>
<rect width="25" height="3" transform="matrix(-0.707107 0.707107 0.707107 0.707107 18.2795 0.599609)" fill="white"/>
<rect width="25" height="3" transform="matrix(-0.707107 0.707107 0.707107 0.707107 18.2795 0.599609)" fill="white"/>
<rect width="25" height="3" transform="matrix(-0.707107 0.707107 0.707107 0.707107 18.2795 0.599609)" fill="white"/>
</svg>
