<svg width="153" height="82" viewBox="0 0 153 82" fill="none" xmlns="http://www.w3.org/2000/svg">
<g clip-path="url(#clip0)">
<path d="M152.52 61.1135C152.222 60.1543 151.745 59.2331 151.104 58.3692C150.754 57.9054 150.386 57.4608 150.005 57.0478C149.522 56.5269 149.001 56.0822 148.448 55.7201C148.779 54.8625 148.969 54.024 149.02 53.1854C149.153 51.0255 148.321 48.9673 146.708 47.4172C146.892 47.2711 147.063 47.1186 147.235 46.9535C148.804 45.4098 149.471 43.1673 148.982 41.0201C148.315 38.0534 147.635 35.055 146.962 32.101C146.797 31.1862 146.542 30.3095 146.212 29.4773C146.752 28.6833 147.197 27.8066 147.527 26.8537C148.016 25.4688 148.258 23.9632 148.245 22.3751C148.213 17.4073 146.612 13.3098 143.62 10.521C140.114 7.25577 135.66 5.98524 131.766 5.1721C127.046 4.18744 122.936 3.59664 119.194 3.36795C119.067 3.36159 118.94 3.35524 118.807 3.35524C118.343 3.35524 117.886 3.40606 117.435 3.5077C117.384 3.495 117.333 3.47594 117.282 3.46324C112.308 2.09742 107.302 1.5892 102.468 1.10005L101.89 1.04288C101.432 0.998408 100.975 0.972998 100.518 0.972998C99.2089 0.972998 97.9256 1.16358 96.725 1.53838C95.8356 0.979351 94.8065 0.636307 93.7202 0.566428C90.5502 0.375849 87.3358 0.223385 84.1658 0.121743C84.0959 0.121743 84.026 0.11539 83.9625 0.11539C82.7492 0.11539 81.5866 0.458433 80.5893 1.08099C79.5538 0.382202 78.3214 -0.00531006 77.0508 -0.00531006C76.8476 -0.00531006 76.6443 -0.00531006 76.441 -0.00531006C73.6839 -0.00531006 70.8951 0.0264532 68.1508 0.0963323C66.2767 0.140801 64.606 0.998408 63.4689 2.31976C62.9734 2.04024 62.4652 1.79249 61.9506 1.58285C59.8288 0.731597 57.4402 0.318675 54.6514 0.318675C53.6667 0.318675 52.6313 0.369496 51.3925 0.477491C47.2633 0.83324 43.9472 1.73532 41.2346 3.24089C39.9132 3.9778 38.6999 4.93705 37.6263 6.10594C37.4929 6.01065 37.3595 5.91536 37.2261 5.82007C35.1424 4.43519 32.5759 3.73005 29.5965 3.73005C27.4112 3.73005 25.3974 4.09215 23.7775 4.37802L23.6251 4.40343C18.9304 5.24833 14.8584 6.23934 11.1802 7.44635C8.58833 8.2976 6.82865 10.6989 6.80324 13.4305L6.5809 38.9174L6.56184 41.2361C6.54278 43.18 7.41945 45.0223 8.93138 46.242C8.96949 46.2737 9.01396 46.3055 9.05208 46.3373C8.86785 46.6485 8.68997 46.9598 8.5121 47.2775C6.78418 50.3267 5.27225 53.4903 4.00172 56.6603C2.87095 59.5 1.85452 62.6127 0.984211 65.9098L0.965153 65.9733L0.952448 66.0368C0.768221 66.8119 0.596699 67.4535 0.456941 67.9426C0.101193 69.2004 -0.0449182 70.363 0.00590299 71.5001C0.0821348 73.0501 0.564936 74.543 1.39713 75.8263C2.02605 76.7982 2.89636 77.6876 4.04619 78.5452C4.61793 78.9962 5.2786 79.4091 6.04092 79.7903C6.49831 79.9936 6.87947 80.1715 7.21616 80.3303C7.44486 80.4256 7.67355 80.5209 7.91495 80.6098C7.91495 80.6098 7.9213 80.6098 7.9213 80.6162C8.42316 80.8067 8.94408 80.991 9.4777 81.1561C9.61746 81.1879 9.81439 81.226 10.0558 81.2641C12.743 81.9566 17.0628 82.6172 20.3916 80.8067C20.3916 80.8067 20.3979 80.8067 20.3979 80.8004C21.192 80.4573 21.9988 80.0508 22.8183 79.5553C23.8474 79.0153 24.8765 78.3927 25.7913 77.7575C27.0364 76.8935 28.2053 75.9724 29.2599 75.0195C29.7363 74.5938 30.2509 74.1237 30.7845 73.6346C30.8671 73.7426 30.956 73.8506 31.045 73.9586C31.9026 74.9559 32.9825 75.7881 34.3483 76.506C35.3266 77.0206 36.4002 77.4462 37.5374 77.7765C38.5982 78.0815 39.7227 78.3101 40.8788 78.4499C41.584 78.5325 42.2828 78.577 42.9562 78.577C43.5406 78.577 44.1314 78.5452 44.6968 78.4817L45.6243 78.38L46.4819 78.0116C48.6672 77.0777 50.4586 75.7945 51.9261 74.524C52.3327 74.7717 52.752 75.0004 53.1839 75.2228C54.2829 75.7754 55.4201 76.2328 56.5445 76.5759C57.7388 76.938 58.9013 77.1222 59.994 77.1222C60.3053 77.1222 60.6102 77.1095 60.9024 77.0777C61.3788 77.0333 62.3635 76.9316 63.4562 76.4171L64.282 76.0232L64.6378 75.7056C64.8474 75.5594 65.0443 75.3943 65.2349 75.2291L65.362 75.1148L65.4827 74.9941C66.2704 74.2127 67.0899 73.3678 67.9602 72.4339C68.7162 73.1327 69.5738 73.7489 70.5203 74.2826C71.7972 75.0068 73.2265 75.5722 74.7575 75.9724C76.2758 76.3662 77.8259 76.5695 79.3568 76.5695H79.3632C80.5766 76.5695 81.7709 76.4361 82.927 76.1757C84.3564 75.8517 85.6841 75.2799 86.8784 74.4858C87.2405 74.2572 87.6217 73.9903 88.0219 73.6854L95.2321 76.6076C95.3401 76.6521 95.4545 76.7029 95.5561 76.741C96.3184 77.0523 97.4746 77.4525 98.9357 77.4525C100.206 77.4525 101.439 77.1476 102.55 76.5695L103.154 76.3662L104.081 75.5277C104.189 75.4388 104.291 75.3435 104.393 75.2482C105.218 75.8644 106.121 76.4361 107.08 76.9507C108.071 77.4843 109.132 77.9607 110.224 78.361C111.482 78.8247 112.721 79.1423 113.915 79.3012L114.868 79.4282L115.815 79.2694C118.006 78.9009 119.861 78.0942 121.405 77.1794C121.881 77.605 122.383 78.0243 122.911 78.4245C123.921 79.1868 124.956 79.8665 125.985 80.4383C127.383 81.2133 128.736 81.7025 130 81.893C130.381 81.9502 130.801 82.001 131.302 82.001C131.817 82.001 132.325 81.9439 132.814 81.8295L133.913 81.5754L134.434 81.2387C134.676 81.118 134.904 80.9846 135.133 80.8385L135.311 80.7241L135.476 80.5971C136.785 79.6061 137.985 78.6024 139.199 77.5796C140.419 76.5441 141.734 75.4451 143.055 74.3524C143.811 73.7299 144.579 73.101 145.316 72.4848C145.869 72.0274 146.422 71.57 146.974 71.1126C147.883 70.363 148.937 69.5054 149.986 68.7558C151.542 67.6822 152.552 66.0114 152.787 64.1056C152.933 63.121 152.838 62.1172 152.52 61.1135ZM24.7368 10.6608C24.038 10.7878 23.3392 10.9149 22.6404 11.0547C23.3392 10.9212 24.0443 10.7878 24.7368 10.6608C25.0608 10.6036 25.4038 10.5401 25.7595 10.4829C25.4038 10.5464 25.0671 10.6036 24.7368 10.6608ZM59.5811 7.48446C59.1427 7.30659 58.6917 7.16683 58.2279 7.05248C58.6853 7.16683 59.1364 7.30659 59.5811 7.48446C59.9241 7.62422 60.2544 7.78939 60.5721 7.98632C60.2544 7.79574 59.9241 7.62422 59.5811 7.48446ZM87.1198 22.8261C86.9356 22.464 86.7005 22.1083 86.4083 21.7462C86.7005 22.1083 86.9356 22.4704 87.1198 22.8261C87.4882 23.5185 87.8631 24.2046 88.2315 24.8971C87.8567 24.211 87.4882 23.5185 87.1198 22.8261ZM103.834 14.7138C103.91 14.6566 103.992 14.6058 104.081 14.5613C103.992 14.5994 103.91 14.6503 103.834 14.7138ZM127.859 17.0516C128.533 17.1786 129.041 17.2802 129.733 17.4137C129.041 17.2739 128.533 17.1786 127.859 17.0516ZM136.315 27.8447C136.315 27.8066 136.315 27.7748 136.315 27.724C136.315 27.7748 136.315 27.8066 136.315 27.8447ZM141.892 22.2163C141.861 20.5646 141.581 18.8239 140.85 17.312C141.587 18.8176 141.867 20.5646 141.892 22.2163ZM139.675 41.6681C140.717 41.9158 141.753 42.1636 142.788 42.4177C141.753 42.1636 140.711 41.9095 139.675 41.6681Z" fill="url(#paint0_linear)"/>
<path d="M26.089 31.1794C25.3013 31.3128 24.4182 31.4589 23.4844 31.5732L23.459 34.1651C24.234 34.0635 25.0027 33.9428 25.765 33.8094C28.5093 33.3393 31.7428 32.5706 33.7566 30.506C34.7731 29.4578 35.3511 28.111 35.6688 26.6944C35.4973 26.9167 35.313 27.1264 35.1161 27.3233C32.7466 29.7627 29.2272 30.6394 26.089 31.1794Z" fill="#5B6169"/>
<path d="M12.9395 42.8243C12.9395 42.8433 12.9395 42.856 12.9395 42.8751L14.9278 45.3463C17.1195 44.8635 19.3112 44.3997 21.5092 43.9551C21.5155 43.0974 21.5219 42.2398 21.5346 41.3822C18.803 41.9349 16.0523 42.5257 13.3397 43.1419L12.9395 42.8243Z" fill="#5B6169"/>
<path d="M60.216 35.6505C57.6177 36.9846 54.6574 37.3912 51.8432 37.6326C50.6107 37.7406 49.6007 37.785 48.6668 37.785C46.653 37.785 44.9632 37.55 43.4958 37.0735C41.9775 36.578 40.5926 35.5362 39.5508 34.1577C39.7032 34.7548 39.9002 35.3393 40.1352 35.9046C40.8658 37.6199 42.2761 39.1826 44.0802 39.7734C46.4498 40.5484 49.2386 40.4531 51.6716 40.2435C54.2381 40.0212 57.0015 39.6654 59.3393 38.4648C61.1561 37.5309 62.6236 35.8221 63.3796 33.9099C63.5702 33.4335 63.729 32.9443 63.8687 32.4488C62.9095 33.8019 61.6453 34.92 60.216 35.6505Z" fill="#5B6169"/>
<path d="M83.7338 36.1852L82.0821 35.118C82.0821 35.118 82.0821 35.118 82.0821 35.1116L82.0059 35.1497C82.603 36.3631 83.2002 37.5765 83.7973 38.7898C87.0308 38.8978 90.2643 39.0503 93.4914 39.2472C93.015 38.3515 92.5385 37.4558 92.0621 36.56C89.286 36.4012 86.4908 36.2742 83.7338 36.1852Z" fill="#5B6169"/>
<path d="M76.1865 36.0651C73.4993 36.0651 70.7804 36.0968 68.0997 36.1604L68.0742 36.1413C68.0679 37.018 68.0615 37.8946 68.0488 38.7713C70.9647 38.7014 73.8741 38.6697 76.7836 38.676C76.79 37.7993 76.7963 36.9227 76.809 36.046L76.7836 36.0714C76.5867 36.0651 76.3898 36.0651 76.1865 36.0651Z" fill="#5B6169"/>
<path d="M105.084 37.8046C103.686 37.6585 102.238 37.5061 100.834 37.3854C98.5406 37.1821 96.457 36.2165 94.9641 34.6664C94.9006 34.5965 94.837 34.533 94.7735 34.4631L94.6719 34.6156C94.9069 35.8226 95.466 36.9534 96.3363 37.8555C97.5623 39.1323 99.2521 39.8438 100.999 39.9963C105.751 40.4156 110.579 41.0953 115.382 41.1715C115.331 40.3012 115.286 39.4309 115.235 38.5669C111.824 38.5034 108.4 38.1477 105.084 37.8046Z" fill="#5B6169"/>
<path d="M118.59 39.4447C118.584 40.3023 118.577 41.1599 118.564 42.0238C121.398 42.4749 124.225 42.964 127.045 43.4849C127.052 42.5003 127.064 41.522 127.071 40.5437L126.696 40.8486C124.015 40.3531 121.29 39.8767 118.59 39.4447Z" fill="#5B6169"/>
<path d="M142.178 44.2283C139.281 43.5168 136.34 42.8307 133.424 42.2018L133.271 42.0493C133.456 42.9832 133.64 43.917 133.824 44.8508C136.823 45.4988 139.802 46.1912 142.781 46.9281C142.584 46.0261 142.381 45.1303 142.178 44.2283Z" fill="#5B6169"/>
<path d="M35.2245 23.6499C34.8879 24.5138 34.4114 25.3143 33.7571 25.9876C31.7433 28.0523 28.5098 28.8209 25.7655 29.291C24.3869 29.5261 22.9957 29.7357 21.5918 29.8437C21.5663 33.0391 21.5346 36.2345 21.5092 39.4362C18.6505 40.008 15.7981 40.6242 12.9522 41.2721C12.9458 41.7867 12.9458 42.3013 12.9395 42.8222L13.3397 43.1398C16.0523 42.5236 18.8029 41.9328 21.5346 41.3801C21.5536 39.0424 21.5727 36.6982 21.5981 34.3604C22.2207 34.316 22.8432 34.2461 23.4658 34.1635L23.4912 31.5716C24.425 31.4573 25.3081 31.3112 26.0958 31.1778C29.234 30.6378 32.7534 29.7611 35.1293 27.3217C35.3198 27.1248 35.5041 26.9151 35.6819 26.6928C35.917 25.651 36.0186 24.5646 36.0504 23.5419L35.2245 23.6499Z" fill="#361141"/>
<path d="M63.8178 28.1534C63.6907 28.579 63.551 28.9919 63.3858 29.4048C62.6299 31.317 61.1624 33.0259 59.3455 33.9597C57.0078 35.1603 54.2444 35.5224 51.6779 35.7384C50.7123 35.821 49.6895 35.8846 48.6667 35.8846C47.104 35.8846 45.5158 35.7321 44.0865 35.2683C42.2823 34.6775 40.8657 33.1084 40.1415 31.3996C39.3601 29.5573 39.0742 27.499 38.979 25.4662C38.9535 26.0443 38.9472 26.6224 38.9408 27.1941C38.9218 29.4557 38.9663 31.9078 39.5571 34.1693C40.5989 35.5479 41.9838 36.5897 43.502 37.0852C44.9695 37.5617 46.6593 37.7967 48.6731 37.7967C49.6069 37.7967 50.617 37.7459 51.8494 37.6442C54.6636 37.4028 57.624 36.9963 60.2222 35.6622C61.6515 34.9253 62.9157 33.8136 63.8813 32.4605C64.2498 31.1582 64.4721 29.7987 64.5992 28.4392L63.8178 28.1534Z" fill="#361141"/>
<path d="M85.0233 34.3228L82.8888 34.7421L82.082 35.1169C82.082 35.1169 82.082 35.1169 82.082 35.1233L83.7337 36.1905C86.4908 36.2794 89.2859 36.4065 92.062 36.5653C91.7126 35.911 91.3633 35.2503 91.0139 34.596C89.0128 34.4816 87.018 34.3927 85.0233 34.3228Z" fill="#361141"/>
<path d="M76.8023 33.1158C76.8023 33.4652 76.7959 33.8083 76.7959 34.1577C76.5926 34.1577 76.3957 34.1577 76.1924 34.1577C73.4925 34.1577 70.799 34.1894 68.0991 34.253C68.0928 34.8819 68.0864 35.5108 68.0801 36.1397L68.1055 36.1588C70.7863 36.0952 73.5116 36.0635 76.1924 36.0635C76.3957 36.0635 76.5926 36.0635 76.7896 36.0635L76.815 36.0381C76.8213 35.0725 76.834 34.1132 76.8404 33.1476L76.8023 33.1158Z" fill="#361141"/>
<path d="M101.001 35.4859C99.2537 35.3334 97.5639 34.6156 96.3378 33.3451C96.1028 33.0973 95.8868 32.8368 95.6962 32.5573L94.5527 32.462C94.5527 32.5319 94.5527 32.6081 94.5527 32.678C94.7624 33.0655 94.9657 33.4531 95.1753 33.8406L94.7751 34.4568C94.8386 34.5267 94.9021 34.5965 94.9657 34.6601C96.4585 36.2165 98.5422 37.1821 100.835 37.379C102.239 37.4997 103.688 37.6522 105.085 37.7983C108.401 38.1413 111.832 38.4971 115.237 38.5606C115.199 37.9253 115.167 37.2901 115.129 36.6484C110.415 36.5595 105.67 35.8988 101.001 35.4859Z" fill="#361141"/>
<path d="M127.071 36.2154C127.065 37.1365 127.052 38.0513 127.046 38.9724C124.238 38.4515 121.424 37.9687 118.603 37.5177C118.597 38.1593 118.59 38.8009 118.584 39.4425C121.284 39.8745 124.009 40.351 126.69 40.8465L127.065 40.5415C127.077 39.0995 127.09 37.6638 127.103 36.2217L127.071 36.2154Z" fill="#361141"/>
<path d="M142.177 44.2261C142.018 43.5336 141.866 42.8412 141.707 42.1488C139.09 41.5135 136.466 40.91 133.83 40.3383C133.665 39.5124 133.506 38.6866 133.341 37.8607L132.4 37.613C132.693 39.0931 132.985 40.5733 133.277 42.0471L133.43 42.1996C136.333 42.8349 139.28 43.5146 142.177 44.2261Z" fill="#361141"/>
<path d="M59.5813 7.48343C58.0376 6.86722 56.3351 6.67029 54.6453 6.67029C53.7242 6.67029 52.8094 6.72746 51.9327 6.80369C49.4044 7.01968 46.6028 7.52154 44.3159 8.79207C42.4673 9.8212 41.0697 11.6889 40.2947 13.6264C39.1575 16.4661 38.9606 19.6805 38.9352 22.679C38.9098 25.5377 38.9924 28.7013 40.1358 31.3948C40.8664 33.11 42.2767 34.6728 44.0808 35.2636C45.5102 35.7337 47.092 35.8798 48.6611 35.8798C49.6902 35.8798 50.713 35.8162 51.6723 35.7337C54.2387 35.5113 57.0021 35.1556 59.3399 33.9549C61.1568 33.0211 62.6242 31.3122 63.3802 29.4001C64.4856 26.5986 64.7206 23.4159 64.746 20.4619C64.7714 17.5587 64.6063 14.3888 63.5327 11.6317C62.8339 9.8085 61.3855 8.20763 59.5813 7.48343Z" fill="white"/>
<path d="M85.823 21.1035C85.2513 20.5318 84.7622 20.157 84.3619 19.9854C84.3619 19.9219 84.3619 19.8902 84.3619 19.8266C85.3339 19.4518 86.1597 18.6641 86.8395 17.4571C88.993 13.9377 91.1593 10.4184 93.3319 6.91169C90.2064 6.72111 87.0872 6.575 83.9554 6.47336C81.986 9.94826 80.0231 13.4359 78.0665 16.9171C77.4566 16.9108 77.1453 16.9108 76.5355 16.9108C76.815 15.8118 76.9611 14.6302 76.9674 13.366C76.9865 11.0282 77.0056 8.69044 77.031 6.35266C76.834 6.35266 76.6308 6.35266 76.4338 6.35266C73.7212 6.35266 71.0087 6.38442 68.2961 6.44795C68.2135 15.7165 68.1373 24.985 68.0547 34.2535C70.7673 34.19 73.4798 34.1582 76.1861 34.1582C76.3894 34.1582 76.5863 34.1582 76.7896 34.1582C76.815 31.1343 76.8404 28.1168 76.8658 25.093C76.8722 24.3434 76.7705 23.4921 76.5672 22.5519C77.1453 22.5519 77.4375 22.5583 78.0156 22.5583C79.9468 26.4588 81.8717 30.3657 83.7902 34.2789C87.0237 34.3869 90.2572 34.5394 93.4843 34.7363C91.3689 30.7595 89.2471 26.7891 87.1126 22.8251C86.8268 22.2533 86.3948 21.6753 85.823 21.1035Z" fill="white"/>
<path d="M104.907 29.1788C104.399 29.128 103.998 28.9501 103.706 28.6515C103.414 28.3529 103.268 27.9908 103.274 27.5589C103.287 26.2184 103.293 25.5514 103.306 24.2174C106.755 24.5731 110.198 24.986 113.635 25.4498C113.654 23.5186 113.667 21.581 113.686 19.6498C110.249 19.1861 106.806 18.7731 103.357 18.4174C103.363 17.3374 103.369 16.7975 103.382 15.7175C103.388 15.2855 103.535 14.9552 103.833 14.7138C104.075 14.5169 104.386 14.4216 104.773 14.4216C104.862 14.4216 104.951 14.4279 105.04 14.4343C108.42 14.8027 111.793 15.222 115.166 15.6985C115.319 13.6656 115.471 11.6264 115.617 9.59357C110.948 8.31669 106.025 7.85295 101.248 7.37015C101.006 7.34474 100.758 7.33203 100.517 7.33203C99.0814 7.33203 97.652 7.77036 96.553 8.72961C95.2762 9.84768 94.6727 11.4994 94.6854 13.1701C94.6409 18.3285 94.5964 23.4868 94.552 28.6452C94.5202 30.3858 95.13 32.0883 96.3434 33.3525C97.5695 34.6293 99.2593 35.3408 101.006 35.4933C105.758 35.9126 110.586 36.5923 115.389 36.6685C115.274 34.5912 115.16 32.5203 115.046 30.443C111.666 29.9729 108.293 29.5472 104.907 29.1788Z" fill="white"/>
<path d="M140.737 33.3519C140.311 30.8363 138.748 28.8098 136.315 27.9649C136.315 27.8696 136.315 27.8188 136.315 27.7235C136.601 27.7553 136.881 27.7743 137.147 27.7743C140.184 27.7743 141.918 25.5827 141.899 22.4063C141.88 19.8335 141.277 17.0002 139.295 15.158C136.912 12.9345 133.539 12.0198 130.471 11.3781C126.685 10.5904 122.733 9.9361 118.814 9.70105C118.731 18.9696 118.655 28.2381 118.572 37.5066C121.406 37.9576 124.232 38.4468 127.053 38.9677C127.085 35.5817 127.11 32.1958 127.142 28.8161C128.209 29.0194 128.737 29.1211 129.804 29.3307C130.541 29.4768 131.081 29.7119 131.405 30.0359C131.735 30.3598 131.97 30.9125 132.122 31.7002C132.694 34.578 133.26 37.4557 133.831 40.3398C136.83 40.9878 139.809 41.6802 142.789 42.4172C142.102 39.3933 141.423 36.3758 140.737 33.3519ZM132.65 23.175C132.427 23.3275 132.091 23.4037 131.633 23.4037C131.233 23.4037 130.744 23.3465 130.166 23.2322C128.978 22.9971 128.381 22.8764 127.186 22.6541C127.206 20.7483 127.218 18.8425 127.237 16.9304C128.432 17.1527 129.022 17.2734 130.217 17.5084C131.462 17.7562 132.281 18.1183 132.688 18.582C133.094 19.0458 133.291 19.8526 133.279 21.0088C133.272 22.1649 133.063 22.8828 132.65 23.175Z" fill="white"/>
<path d="M33.7063 11.1113C32.5374 10.3363 31.089 10.0822 29.5961 10.0822C27.9127 10.0822 26.1784 10.4062 24.7363 10.6603C20.8803 11.3464 16.9353 12.2421 13.1555 13.4809C13.0729 22.7494 12.9966 32.0179 12.9141 41.2864C15.7728 40.6384 18.6378 40.0222 21.5092 39.4441C21.5346 36.2487 21.5664 33.0534 21.5918 29.8516C22.9957 29.75 24.3869 29.5404 25.7655 29.299C28.5098 28.8289 31.7433 28.0602 33.7571 25.9956C35.7201 23.9818 36.0377 20.8436 36.0568 18.2517C36.0758 15.9393 35.917 12.5852 33.7063 11.1113ZM26.7819 22.3174C26.3817 22.8193 25.594 23.175 24.4314 23.391C23.3197 23.6006 22.7607 23.7086 21.649 23.9246C21.668 21.7457 21.6871 19.5731 21.7061 17.3941C22.8178 17.1718 23.3769 17.0701 24.4886 16.8605C24.9142 16.7779 25.289 16.7398 25.613 16.7398C26.172 16.7398 26.5786 16.8605 26.8264 17.0955C27.2202 17.4703 27.4108 18.3152 27.3981 19.6302C27.3918 20.9262 27.1821 21.8219 26.7819 22.3174Z" fill="white"/>
<path d="M62.5991 11.8604C62.3069 11.1045 61.8495 10.3866 61.2904 9.78947C60.7187 9.18597 60.0517 8.71587 59.3465 8.43636C58.1395 7.95355 56.6848 7.71851 54.887 7.71851C54.1247 7.71851 53.2988 7.75662 52.2824 7.84556C49.2522 8.10602 46.9271 8.70317 45.1738 9.67512C43.719 10.4819 42.4548 12.0129 41.7116 13.8679C40.638 16.555 40.4665 19.7187 40.4474 22.4567C40.422 25.1184 40.4855 28.1677 41.5464 30.6643C41.8577 31.3948 42.3087 32.0746 42.8487 32.6272C43.4077 33.1926 44.0557 33.6119 44.7164 33.8279C45.8599 34.2027 47.2257 34.3806 48.9028 34.3806C49.7477 34.3806 50.6688 34.3361 51.8059 34.2345C54.2962 34.0185 56.8944 33.6754 59.0035 32.5891C60.5027 31.8205 61.786 30.3657 62.4403 28.695C63.5329 25.9252 63.6981 22.7044 63.7172 20.2078C63.7489 17.7303 63.6409 14.5349 62.5991 11.8604Z" fill="url(#paint1_linear)"/>
<path d="M76.8157 21.0469C77.3938 21.0469 77.6797 21.0532 78.2705 21.0532C78.7469 21.0596 79.1853 21.3327 79.3949 21.7584C81.1991 25.3984 83.0286 29.1084 84.8391 32.7993C87.0626 32.8755 89.3114 32.9771 91.5412 33.1042C89.7752 29.7881 87.9964 26.4657 86.2367 23.2004C86.2304 23.1877 86.224 23.1814 86.2177 23.1687C85.989 22.7113 85.6332 22.2412 85.1631 21.7711C84.5469 21.1549 84.2102 20.9706 84.0959 20.9198C83.6258 20.7165 83.3272 20.2528 83.3336 19.7446V19.662V19.5794C83.3399 19.0585 83.6639 18.5948 84.1467 18.4042C84.8264 18.1437 85.4426 17.5339 85.9699 16.5937C85.9763 16.581 85.9826 16.5683 85.9953 16.5555C87.7677 13.6587 89.5719 10.7238 91.3697 7.8143C89.2225 7.69996 87.0626 7.60467 84.9281 7.52844C83.0858 10.7746 81.2372 14.059 79.4203 17.2988C79.198 17.699 78.7724 17.9468 78.315 17.9468C78.3086 17.9468 78.3086 17.9468 78.3023 17.9468C77.7051 17.9404 77.4065 17.9404 76.7776 17.9404C76.3838 17.9404 76.0153 17.7562 75.7803 17.4513C75.5389 17.14 75.4563 16.7398 75.5516 16.3586C75.8057 15.3613 75.9391 14.2686 75.9454 13.1124C75.9581 11.5814 75.9708 10.0504 75.9835 8.51945L75.9963 7.38232C73.938 7.38868 71.8607 7.40774 69.8024 7.4522C69.7262 15.8758 69.6563 24.2931 69.5801 32.7167C71.6383 32.6786 73.7157 32.6532 75.7739 32.6468L75.7866 30.8871L75.8374 24.8394C75.8438 24.1851 75.7549 23.4291 75.5643 22.5842C75.4817 22.2094 75.577 21.8155 75.8184 21.517C76.0661 21.2184 76.4282 21.0469 76.8157 21.0469Z" fill="url(#paint2_linear)"/>
<path d="M102.327 18.1691L102.34 16.8224L102.353 15.4756C102.359 14.6625 102.677 13.9764 103.28 13.4936C103.75 13.1124 104.335 12.9219 105.014 12.9219C105.141 12.9219 105.281 12.9282 105.415 12.9409C105.415 12.9409 105.415 12.9409 105.421 12.9409C108.349 13.2585 111.31 13.6206 114.245 14.0209L114.391 12.0261L114.518 10.3236C110.439 9.3199 106.126 8.88157 101.946 8.45594L101.362 8.39877C101.158 8.37971 100.961 8.367 100.758 8.367C99.5383 8.367 98.433 8.75452 97.6325 9.45331C96.7114 10.2601 96.1905 11.5243 96.1968 12.9346C96.1968 12.9409 96.1968 12.9473 96.1968 12.9536V13.0743L96.0634 28.4287C96.0634 28.435 96.0634 28.435 96.0634 28.4414C96.038 29.9025 96.5462 31.2493 97.4991 32.2403C98.4584 33.2376 99.8305 33.8665 101.355 33.9999C102.785 34.127 104.246 34.2795 105.656 34.4256C108.489 34.7178 111.405 35.0227 114.276 35.1371L114.156 32.9581L114.067 31.3382C111.062 30.9253 108.019 30.5505 105.014 30.2265C104.208 30.1375 103.547 29.839 103.045 29.3244C102.518 28.7844 102.245 28.0983 102.251 27.3297L102.283 23.9882C102.283 23.6324 102.441 23.2894 102.708 23.0543C102.943 22.8447 103.242 22.7303 103.553 22.7303C103.598 22.7303 103.642 22.7303 103.687 22.7367C106.653 23.0416 109.658 23.391 112.631 23.7849L112.644 22.2094L112.657 20.5387C109.607 20.1385 106.526 19.7764 103.477 19.4587C102.816 19.3761 102.327 18.8235 102.327 18.1691Z" fill="url(#paint3_linear)"/>
<path d="M139.739 33.4038C139.732 33.3784 139.726 33.3594 139.726 33.334C139.37 31.2058 138.062 29.5986 136.143 28.9379C135.628 28.76 135.285 28.2709 135.285 27.7246V27.4832C135.285 27.1211 135.444 26.778 135.717 26.5366C135.952 26.3333 136.251 26.219 136.556 26.219C136.607 26.219 136.658 26.219 136.708 26.2253C136.943 26.2508 137.172 26.2698 137.388 26.2698C138.398 26.2698 139.211 25.9712 139.802 25.3804C140.507 24.6689 140.876 23.5636 140.869 22.1851C140.857 20.2221 140.463 17.5286 138.671 15.8578C136.543 13.8758 133.462 13.0245 130.451 12.3956C126.665 11.6079 123.33 11.0933 120.312 10.8392L120.09 36.199C122.066 36.523 124.06 36.866 126.03 37.2218L126.061 33.677L126.106 28.5758C126.112 28.201 126.277 27.8453 126.57 27.6039C126.798 27.4133 127.084 27.318 127.376 27.318C127.453 27.318 127.535 27.3244 127.611 27.3371C128.691 27.5403 129.212 27.642 130.286 27.8516C131.283 28.0486 132.02 28.3916 132.535 28.8998C133.056 29.4144 133.405 30.1703 133.608 31.2249C134.123 33.8295 134.637 36.434 135.158 39.045C137.217 39.496 139.288 39.9725 141.34 40.468C140.806 38.1111 140.266 35.7416 139.739 33.4038ZM133.627 23.9829C133.183 24.2941 132.611 24.4466 131.88 24.4466C131.398 24.4466 130.832 24.3831 130.165 24.2497C128.977 24.0146 128.393 23.9003 127.205 23.6716C126.601 23.5572 126.163 23.03 126.169 22.4138L126.22 16.69C126.227 16.3152 126.392 15.9595 126.684 15.7181C126.913 15.5275 127.198 15.4322 127.491 15.4322C127.567 15.4322 127.65 15.4385 127.726 15.4513C128.939 15.6799 129.524 15.7943 130.718 16.0293C132.249 16.3343 133.291 16.8171 133.894 17.5095C134.517 18.221 134.815 19.2946 134.803 20.7875C134.79 21.8103 134.657 23.2587 133.627 23.9829Z" fill="url(#paint4_linear)"/>
<path d="M33.2492 11.9383C32.4233 11.3919 31.3116 11.1251 29.8441 11.1251C28.3322 11.1251 26.7567 11.4046 25.3655 11.6524L25.2067 11.6778C21.2426 12.3829 17.7805 13.2024 14.6677 14.1744L14.4453 39.4579C16.4527 39.0132 18.4792 38.5749 20.493 38.1683C20.5121 36.1101 20.5312 34.0518 20.5439 31.9936L20.5629 29.6113C20.5693 28.9506 21.0838 28.4043 21.7382 28.3535C23.1802 28.2455 24.5968 28.0232 25.7848 27.8199C28.4148 27.3688 31.3434 26.6637 33.0776 24.8786C33.8082 24.129 34.3164 23.1253 34.634 21.8103C34.8881 20.7621 35.0088 19.5551 35.0215 18.0114C35.047 15.7435 34.8627 13.0119 33.2492 11.9383ZM28.9166 19.4153C28.9039 21.0098 28.6117 22.147 28.0146 22.8839C27.4111 23.6335 26.3946 24.129 24.9018 24.4085C23.7837 24.6181 23.2437 24.7198 22.132 24.9421C22.0494 24.9612 21.9669 24.9675 21.8843 24.9675C21.592 24.9675 21.3062 24.8659 21.0711 24.6753C20.7789 24.4339 20.6074 24.0655 20.6137 23.6843L20.6201 23.2904L20.6709 17.1538C20.6773 16.5503 21.1029 16.0357 21.6937 15.9214C22.8245 15.699 23.3771 15.591 24.4889 15.3814C24.9907 15.2861 25.4481 15.2416 25.8483 15.2416C26.7377 15.2416 27.4428 15.4767 27.9383 15.9468C28.6181 16.5884 28.9294 17.6874 28.9166 19.4153Z" fill="url(#paint5_linear)"/>
<path d="M108.775 33.5425C109.004 33.1868 109.201 32.8755 109.353 32.6468C109.353 32.6468 109.385 32.5896 109.436 32.507C109.271 32.7421 109.049 33.1105 108.775 33.5425Z" fill="#361141"/>
<path d="M44.7031 33.084C45.0843 33.624 45.4083 34.1132 45.6115 34.4181C45.9673 33.6367 45.0398 33.3572 44.7031 33.084Z" fill="#361141"/>
<path d="M46.5507 30.606C44.2701 29.8691 40.5983 29.7928 38.6035 29.6404C43.3045 43.019 38.8195 38.9661 47.4337 42.1551C49.6953 34.7543 54.0341 32.9183 46.5507 30.606ZM45.6105 34.4176C45.4072 34.1126 45.0832 33.6235 44.7021 33.0835C45.0388 33.3567 45.9663 33.6362 45.6105 34.4176Z" fill="#361141"/>
<path d="M25.4988 33.3705C23.8852 34.9713 21.7698 37.2011 19.9402 39.3864C19.9402 39.3864 17.7168 41.8894 15.2266 45.701H17.5834L20.1054 42.4675L20.5247 42.5247L25.3527 36.9343L30.0473 32.0809L33.4333 30.804L35.9489 29.5398C35.9489 29.5398 32.2707 29.5716 30.3395 30.048C28.4083 30.5245 27.8112 31.0771 25.4988 33.3705Z" fill="#361141"/>
<path d="M121.818 39.5973C120.827 39.4131 120.179 39.2924 120.179 39.2924L119.664 39.5147L119.486 39.3813C120.427 38.1108 121.246 37.1706 121.799 36.4464C122.313 35.7921 122.631 35.3919 122.764 35.0742C122.923 34.6931 123.05 33.9308 122.091 33.6513C121.132 33.3717 114.646 32.1965 113.496 32.0186C112.556 31.8725 111.616 31.7455 111.114 31.6819C110.326 31.5739 109.595 32.2664 109.43 32.5078C109.373 32.5967 109.348 32.6475 109.348 32.6475C109.202 32.8699 108.998 33.1812 108.77 33.5433C108.77 33.5496 108.763 33.5496 108.763 33.556C107.766 35.1187 106.26 37.5518 106.26 37.5518C106.26 37.5518 105.536 37.4882 103.84 37.3548C102.144 37.2214 99.9775 37.2659 98.8848 37.3675C97.7921 37.4692 97.7096 37.8376 97.7096 38.2696C97.7096 38.7016 97.6016 40.8043 97.6016 40.8043L99.266 41.5603L108.897 44.419C108.897 44.419 111.355 41.1601 113.661 38.1299C114.22 38.7715 115.262 39.7498 117.003 41.573L116.228 42.7292C116.228 42.7292 118.648 43.3263 119.251 43.4851C119.855 43.6376 121.036 44.095 121.532 43.5995C122.027 43.104 122.803 42.6402 123.311 41.3062C123.819 39.9594 122.803 39.7815 121.818 39.5973Z" fill="#361141"/>
<path d="M108.77 33.5547C108.77 33.5483 108.776 33.5483 108.776 33.542C108.77 33.5483 108.77 33.5483 108.77 33.5547Z" fill="#361141"/>
<path d="M55.4904 16.9171C51.52 15.1701 51.5136 12.3876 51.5136 12.3876C51.5136 12.3876 51.5073 15.1637 47.5369 16.9171C40.911 19.833 42.9312 26.7192 47.3082 26.7192C49.0234 26.7192 50.5035 25.652 51.1579 24.1274C51.1579 28.3074 49.8556 28.4281 48.026 29.3238C48.1848 29.3175 50.4464 29.3175 51.5136 29.3175C52.5809 29.3175 54.8424 29.3175 55.0012 29.3238C53.1717 28.4281 51.8694 28.3074 51.8694 24.1274C52.5237 25.652 54.0039 26.7192 55.7191 26.7192C60.096 26.7192 62.1162 19.833 55.4904 16.9171Z" fill="#361141"/>
<path d="M52.0282 17.5142C52.9303 17.114 53.6291 16.6693 54.1627 16.2056C51.52 14.5031 51.5136 12.3876 51.5136 12.3876C51.5136 12.3876 51.5073 15.1637 47.5369 16.9171C40.911 19.8329 42.9312 26.7192 47.3082 26.7192C47.9689 26.7192 48.5914 26.5604 49.1504 26.2809C46.9524 24.248 46.9905 19.7377 52.0282 17.5142Z" fill="#586475"/>
<path d="M52.0282 17.5142C52.9303 17.114 53.6291 16.6693 54.1627 16.2056C51.52 14.5031 51.5136 12.3876 51.5136 12.3876C51.5136 12.3876 51.5073 15.1637 47.5369 16.9171C40.911 19.8329 42.9312 26.7192 47.3082 26.7192C47.9689 26.7192 48.5914 26.5604 49.1504 26.2809C46.9524 24.248 46.9905 19.7377 52.0282 17.5142Z" fill="url(#paint6_linear)"/>
<path d="M35.5172 57.0663C35.3075 56.6852 35.0789 56.3104 34.8311 55.961C34.5833 55.6116 34.2848 55.2876 33.9544 54.989C33.5352 54.6079 33.0778 54.2013 32.5823 53.8074C32.0804 53.4136 31.5849 53.0515 31.083 52.7275C30.5812 52.4035 30.1238 52.143 29.7109 51.9461C29.2979 51.7492 28.9613 51.6729 28.7135 51.7174C28.669 51.7237 28.6119 51.7682 28.5293 51.8508C28.4467 51.9334 28.345 52.2383 28.218 52.7656C28.0909 53.2929 27.7924 54.0615 27.3159 55.0589C26.687 56.3675 25.9628 57.6381 25.2322 58.8895C24.0888 60.8335 22.6467 62.663 21.3762 64.4481C20.3915 65.833 19.4196 67.3449 18.3968 68.7616C17.5265 69.9622 16.9293 70.5975 16.599 70.6674C16.3512 70.7182 16.2369 70.4514 16.256 69.8733C16.275 69.2952 16.4719 68.2851 16.8467 66.8494C16.8849 66.7732 16.9103 66.6779 16.9103 66.5762C18.3206 61.3163 20.3661 56.2913 22.8691 51.5205C25.8739 45.7967 29.6537 40.4669 33.7766 35.4101C34.6469 34.362 35.5489 33.3138 36.559 32.4053C37.2388 31.7891 37.7597 31.4588 38.09 31.4143C38.5093 31.3572 38.6427 31.6684 38.4966 32.3291C38.3505 32.9961 37.9884 33.8665 37.4039 34.9591C37.2769 35.1878 37.0926 35.4864 36.8385 35.8739C36.5908 36.255 36.3176 36.668 36.0254 37.1063C35.7332 37.5446 35.4537 37.9703 35.1805 38.3768C34.9073 38.7834 34.7104 39.0947 34.5897 39.3234C33.7702 40.7337 32.9571 42.1567 32.4679 43.7131C32.0868 44.9137 32.3853 45.9047 33.3446 46.667C33.6749 46.9656 34.1641 47.2769 34.812 47.6072C35.46 47.9312 36.1461 48.2361 36.8767 48.522C37.6072 48.8079 38.3251 49.0366 39.0366 49.2081C39.7481 49.3796 40.3325 49.4368 40.7899 49.3796C41.0376 49.3479 41.1838 49.278 41.2282 49.17C41.3108 49.0239 41.3299 48.8142 41.2917 48.5601C41.2473 48.306 41.2092 47.9884 41.1647 47.6072C41.1202 47.2324 41.1202 46.8132 41.1647 46.3494C41.2092 45.892 41.3362 45.3838 41.5395 44.8375C41.7936 44.1514 42.1367 43.3128 42.575 42.3345C43.0133 41.3626 43.4707 40.3462 43.9535 39.3043C44.4363 38.2561 44.9128 37.227 45.3956 36.2169C45.8784 35.2069 46.3485 34.3111 46.6153 33.606C46.8948 32.8754 46.5517 32.1512 45.6751 31.6113C44.6714 30.9951 43.3437 30.5694 42.1938 30.3788C40.6184 30.1184 39.0683 29.9405 37.4992 29.9215C36.019 29.9024 34.469 29.9659 32.9698 30.1946C32.3472 30.2899 31.7818 30.3979 31.2863 30.525C30.7845 30.652 30.3588 30.8553 30.0412 31.0078C29.6346 31.2047 29.1074 31.5223 28.6055 32.0242C28.11 32.526 27.3159 33.3011 26.236 34.3556C23.8029 36.7823 21.535 39.3234 19.5022 42.036C17.5201 44.6787 15.6715 47.5119 14.0452 50.3897C12.4888 53.1467 11.0785 56.069 9.9033 59.0166C8.80429 61.7736 7.88951 64.6323 7.12719 67.5291C6.92391 68.3804 6.73333 69.0983 6.57451 69.6763C6.40935 70.2544 6.33947 70.7626 6.35852 71.1946C6.37758 71.6266 6.50463 72.0141 6.72698 72.3635C6.95567 72.7129 7.35589 73.0941 7.92763 73.5197C8.25797 73.7929 8.72806 74.066 9.34427 74.3392C9.96048 74.6124 10.6339 74.8665 11.3517 75.0888C12.0696 75.3111 12.7747 75.4827 13.4544 75.597C13.8483 75.6605 14.2104 75.6923 14.5407 75.686C15.4238 75.686 17.0373 75.6415 19.6991 74.0279C19.7054 74.0279 19.7054 74.0216 19.7118 74.0216C20.5567 73.5832 21.408 73.0814 22.1703 72.5477C23.1422 71.8744 24.1205 71.112 25.0036 70.3116C25.9056 69.4921 26.8204 68.6726 27.7098 67.8341C27.8749 67.6689 28.1354 67.4148 28.4912 67.0781C28.8406 66.7414 29.2408 66.392 29.6727 66.0236C30.1111 65.6615 30.524 65.3057 30.9179 64.9627C31.3117 64.626 31.6167 64.3528 31.8199 64.1432C32.5696 63.3999 33.2366 62.7202 33.821 62.0976C34.4055 61.4751 34.8756 60.8779 35.225 60.2998C35.5807 59.7281 35.7903 59.1754 35.8475 58.6418C35.9238 58.1082 35.7967 57.5809 35.5172 57.0663Z" fill="url(#paint7_linear)"/>
<path d="M146.46 63.007C146.377 62.7338 146.225 62.4543 146.009 62.1684C145.793 61.8826 145.57 61.6094 145.335 61.3553C145.1 61.1012 144.878 60.9487 144.662 60.8979C144.535 60.8661 144.427 60.8788 144.344 60.9297C143.747 61.5522 143.01 62.2129 142.133 62.9181C141.257 63.6232 140.304 64.322 139.275 65.0017C138.239 65.6878 137.185 66.3612 136.124 66.9964C135.05 67.6444 134.04 68.2416 133.094 68.7815C133.564 67.7524 134.072 66.755 134.606 65.7958C135.139 64.8365 135.724 63.8455 136.346 62.8355C136.994 61.7809 137.674 60.7264 138.373 59.7036C139.167 58.5411 139.954 57.3658 140.749 56.2033C140.825 56.089 140.863 56.0318 140.939 55.9174C142.051 54.5008 142.629 53.4526 142.673 52.7792C142.718 52.0995 141.898 51.4833 140.234 50.9306C138.995 50.5177 137.972 50.181 137.178 49.9269C136.384 49.6728 135.774 49.5013 135.342 49.4123C134.872 49.317 134.644 49.3551 134.631 49.4886C134.612 49.749 134.351 50.3398 133.919 51.1911C133.532 50.5749 133.03 49.965 132.408 49.3742C131.785 48.7834 131.086 48.2498 130.311 47.786C129.536 47.3159 128.717 46.903 127.859 46.5536C126.995 46.2042 126.125 45.9184 125.337 45.8167C124.079 45.6579 122.656 45.5626 121.456 46.2678C121.106 46.4329 120.719 46.687 120.287 47.0364C119.855 47.3858 119.289 47.8813 118.603 48.4404C117.6 49.2599 116.621 50.2255 115.751 51.1847C114.798 52.2265 113.883 53.3446 113 54.4754C112.848 54.6278 112.657 54.7612 112.594 54.8438C111.984 55.568 111.215 56.3367 110.281 57.1371C109.316 57.9693 108.318 58.7888 107.321 59.5766C106.285 60.3897 105.212 61.1901 104.126 61.9397C103.109 62.6449 102.086 63.35 101.064 64.0488C101.953 62.1684 102.874 60.2944 103.833 58.4648C104.875 56.4955 105.987 54.5262 107.124 52.6077C108.293 50.6384 109.513 48.6691 110.739 46.7379C111.355 45.7723 112.041 44.4509 112.702 43.3328C112.765 43.2248 112.841 43.1105 112.918 42.9834C114.468 43.3455 116.177 43.7648 118.076 44.254C120.312 45.4101 123.107 40.3852 120.75 40.3979C120.585 40.2899 118.375 39.877 115.401 39.426C116.875 37.3995 118.387 35.4047 118.641 35.049C119.105 34.401 118.965 34.2104 118.4 33.9563C117.835 33.7022 112.752 32.7684 111.85 32.546C110.948 32.3173 110.84 32.3872 109.951 33.8229L107.054 38.3905C102.112 37.9204 97.8745 37.8759 98.5035 39.1147C98.5543 41.2809 97.8174 40.1883 105.142 41.408L104.926 41.751C103.389 44.146 101.851 46.5536 100.339 48.9549C99.4309 50.4033 98.5225 51.8644 97.6395 53.3383V53.3319C97.6395 53.3319 97.379 53.7702 97.1503 53.8719C96.9216 53.9735 93.3133 55.1678 92.0047 55.5871C90.3085 56.1144 88.5997 56.6099 86.8908 57.08C86.3699 56.4511 85.8236 55.8412 85.2582 55.2568C84.6928 54.666 84.2036 54.0688 83.7844 53.4717C83.3714 52.8682 83.0729 52.271 82.9013 51.6675C82.7298 51.0704 82.7108 50.3652 82.9649 49.8507C83.2126 49.3424 83.651 48.8088 83.9813 48.3451C84.3053 47.8813 84.6483 47.4494 84.9914 47.0555C85.8617 46.2741 86.624 45.7214 87.2783 45.3911C87.9326 45.0608 88.479 44.9083 88.911 44.921C89.1269 44.9273 89.3239 44.9718 89.5018 45.048C89.1524 45.9438 88.606 46.903 87.8691 47.9322C87.7802 48.11 87.9326 48.3387 88.3265 48.6246C88.7204 48.9041 89.2095 49.1773 89.794 49.4314C90.3848 49.6855 91.001 49.9142 91.6553 50.1238C92.3096 50.3271 92.8559 50.4414 93.2879 50.4605C93.8088 50.4859 94.0693 50.3716 94.0693 50.1175C94.0693 49.9714 94.1455 49.7744 94.298 49.533C94.4505 49.2853 94.622 49.0121 94.8189 48.7135C95.0158 48.415 95.2318 48.1291 95.4732 47.8496C95.7146 47.5701 95.8989 47.3477 96.0259 47.1698C96.6802 46.3694 97.2139 45.7024 97.6268 45.1687C98.0397 44.6288 98.2684 44.1841 98.3129 43.822C98.3573 43.4662 98.2049 43.174 97.8555 42.9517C97.5061 42.7357 96.9153 42.5388 96.0894 42.3926C94.9206 42.183 93.9359 42.0242 93.1482 41.8971C92.3668 41.7764 91.7506 41.7066 91.3186 41.6875C90.8358 41.6684 90.5881 41.7764 90.5372 41.9289C90.4801 42.0941 90.3721 42.3291 90.3085 42.6023C90.245 42.8754 90.1688 43.1867 90.0798 43.5425C89.254 43.047 88.3265 42.634 87.3037 42.3228C86.281 42.0051 85.2645 41.8463 84.2608 41.8273C83.5176 41.8146 82.7997 41.8908 82.1009 42.0496C81.4021 42.2084 80.7732 42.4816 80.2078 42.8818C79.2486 43.5298 78.3529 44.2476 77.527 45.0353C76.7012 45.8167 75.6149 46.6997 75.1765 47.4748C74.6683 48.3705 74.8144 49.8316 75.2718 50.8417C75.3608 51.0386 75.4624 51.2355 75.564 51.4325C75.1448 51.8454 74.249 52.7284 73.8806 53.0778L73.8742 53.0842C73.7535 53.1985 73.6265 53.3192 73.4994 53.4463C73.239 53.7004 72.9722 53.9545 72.7117 54.2086L72.7053 54.2149C72.159 54.7422 71.6445 55.2441 71.2887 55.5998C71.2824 55.6062 71.276 55.6125 71.276 55.6125C71.1362 55.7523 71.0028 55.892 70.8631 56.0318C70.8567 56.0381 70.8504 56.0445 70.844 56.0508C70.1516 56.7433 69.4337 57.4167 68.7159 58.0583C68.6015 58.1599 68.4808 58.2679 68.3665 58.3696C68.3284 58.4013 68.3093 58.4204 68.3093 58.4204C67.3882 59.2399 66.4543 60.053 65.5142 60.8407C64.4977 61.692 63.4749 62.5432 62.4458 63.3818C62.9223 62.232 63.4368 61.1139 63.9832 60.0149C64.5485 58.8778 65.1393 57.7406 65.7492 56.6226C66.4099 55.4029 67.1023 54.1832 67.8075 52.9825C68.6142 51.6167 69.421 50.2509 70.2278 48.885C70.304 48.7516 70.3485 48.6881 70.4247 48.5547C71.1426 47.5065 72.0637 46.2233 72.1908 44.9782C72.2607 44.3175 71.3967 43.8792 69.7069 43.7458C68.4491 43.6441 67.4072 43.5615 66.6005 43.5044C65.7937 43.4472 65.1711 43.4281 64.7391 43.4472C64.2563 43.4726 64.0276 43.5679 64.0213 43.7013C64.0022 43.9745 63.7354 44.6224 63.3034 45.5817C62.9096 45.0608 62.4014 44.578 61.7661 44.146C61.1372 43.714 60.4257 43.3519 59.6443 43.0787C58.8629 42.7992 58.0307 42.5959 57.1668 42.4562C56.2965 42.3164 55.4134 42.2529 54.6194 42.3482C53.2662 42.5133 51.8305 42.8056 50.7061 43.7648C50.3567 44.0126 49.9692 44.3683 49.5309 44.8257C49.0989 45.2831 48.5335 45.912 47.8347 46.6489C46.8183 47.7162 45.8654 48.9168 44.9697 50.0984C43.8199 51.6167 42.7336 53.2366 41.7171 54.8438C40.6435 56.54 39.608 58.3251 38.6933 60.1102C37.8611 61.7365 37.1178 63.4834 36.5143 65.205C36.1077 66.3739 35.7774 67.3458 35.6059 68.07C35.4344 68.8006 35.5169 69.3914 35.8663 69.798C36.1967 70.1855 36.6858 70.5349 37.2957 70.8525C37.8992 71.1701 38.5726 71.437 39.3095 71.6466C40.0464 71.8626 40.8278 72.015 41.6472 72.1167C42.4667 72.2183 43.2481 72.2247 43.9914 72.1421C46.1005 71.24 47.7966 69.7789 49.3657 68.1908C51.3922 66.1388 53.2535 63.8265 55.0704 61.5332C54.5177 62.7021 53.9777 63.89 53.4695 65.0843C53.0566 66.0626 52.9232 66.6471 52.9804 66.8059C53.1011 67.1616 53.406 67.6952 53.9904 68.1908C54.5749 68.6863 55.261 69.1309 56.0424 69.5248C56.8237 69.9187 57.6115 70.2363 58.3928 70.4714C59.1742 70.7064 59.8222 70.7763 60.2859 70.7318C60.4956 70.7127 60.6544 70.6937 60.7433 70.6492C60.7878 70.6111 60.8322 70.5793 60.8767 70.5603C60.9212 70.5412 60.9657 70.5095 61.0101 70.4714C62.2044 69.2834 63.367 68.051 64.5041 66.8122C65.8191 65.3765 67.1531 63.9599 68.4872 62.5496C69.8149 61.1457 71.149 59.7481 72.4767 58.3378C72.5211 58.2933 72.5656 58.2425 72.6101 58.198C72.6228 58.1853 72.6355 58.1726 72.6482 58.1599C73.1754 57.6009 73.7027 57.0482 74.2427 56.5019C74.357 56.3812 74.4777 56.2605 74.6175 56.1271C74.8907 55.8539 75.3608 55.3393 75.7927 54.8565C76.3073 54.342 76.8536 53.7766 77.0696 53.5542C77.095 53.586 77.1268 53.6178 77.1522 53.6495C77.9336 54.5135 78.7531 55.333 79.6043 56.108C80.4556 56.8894 81.0781 57.6962 81.4657 58.5284C80.9003 58.6681 80.373 58.8015 79.8965 58.9286C79.4137 59.0556 78.9436 59.1446 78.5244 59.2272C77.9272 59.3479 77.203 59.5702 76.4026 59.8116C75.5958 60.053 74.8208 60.3897 74.0839 60.8217C73.3406 61.2537 72.6799 61.7746 72.0891 62.3844C71.4983 62.9943 71.1426 63.7566 71.0092 64.665C71.0092 64.7286 71.0092 64.7603 71.0092 64.8302C70.9838 64.8747 70.9711 64.8937 70.9457 64.9382C70.9457 65.0271 70.9457 65.0716 70.9457 65.1542C70.9457 65.8403 71.1998 66.4946 71.6953 67.1171C72.1971 67.7397 72.8515 68.2733 73.6582 68.7307C74.465 69.1881 75.3671 69.5439 76.3708 69.8043C77.3745 70.0648 78.3783 70.1982 79.3756 70.1982C80.1189 70.1982 80.8367 70.1156 81.5355 69.9568C82.2343 69.798 82.8632 69.5248 83.4286 69.1309C83.778 68.9149 84.2036 68.61 84.7055 68.1971C85.2074 67.7905 85.849 67.2633 86.6367 66.6343C86.8527 66.4247 87.1513 66.1134 87.5197 65.7069C87.8882 65.3003 88.3138 64.8111 88.7966 64.2458C89.4065 63.3564 89.6542 62.5051 89.5462 61.692C89.4382 60.8725 89.1206 60.0594 88.5997 59.2462C89.5589 58.9476 90.5182 58.6427 91.4774 58.3378C91.5155 58.3251 91.5537 58.3124 91.5918 58.2997C91.7951 58.2362 92.9767 57.8613 93.4086 57.7279C93.4467 57.7152 93.4785 57.7089 93.5166 57.6962C93.7644 57.6199 94.6792 57.3658 95.4351 57.1562C94.3869 59.0239 93.3642 60.917 92.4938 62.8736C91.7315 64.5824 91.5028 65.656 91.8078 66.069C92.1127 66.4819 92.6336 67.0346 93.3769 67.727C94.1138 68.4194 94.9206 69.042 95.7909 69.601C95.8353 69.6391 95.8798 69.6709 95.9243 69.69C95.9687 69.709 96.0132 69.7408 96.0577 69.7789C96.5786 70.1347 97.0932 70.4332 97.5887 70.6683C97.6331 70.6873 97.6713 70.7064 97.7094 70.7255C97.7157 70.7255 97.7157 70.7255 97.7221 70.7318C97.8047 70.7699 97.8872 70.8017 97.9698 70.8335C98.4653 71.0431 99.1895 71.3036 99.8947 70.7572H99.901C99.9074 70.7509 99.9201 70.7382 99.9264 70.7318C99.9773 70.6873 100.028 70.6429 100.079 70.592C100.079 70.5857 100.085 70.5857 100.085 70.5857C101.178 69.601 102.252 68.591 103.319 67.5809C104.627 66.3485 105.942 65.1161 107.264 63.8964C107.359 63.8138 107.448 63.7248 107.543 63.6423C107.467 63.8265 107.391 64.0171 107.315 64.2013C106.883 65.2749 106.578 66.1579 106.406 66.844C106.235 67.5301 106.317 68.1463 106.667 68.6354C106.997 69.1055 107.492 69.5756 108.096 70.0457C108.706 70.5095 109.373 70.9414 110.11 71.3417C110.847 71.7355 111.628 72.0849 112.448 72.3899C113.267 72.6948 114.048 72.8981 114.785 72.9934C116.844 72.644 118.559 71.5831 120.141 70.3697C122.135 68.8387 123.997 66.9647 125.807 65.1224C125.159 66.3485 124.632 67.403 124.219 68.2797C123.806 69.1564 123.679 69.7027 123.736 69.8806C123.857 70.2681 124.155 70.8716 124.74 71.5132C125.324 72.1548 126.004 72.7647 126.779 73.3554C127.554 73.9399 128.329 74.4545 129.104 74.8801C129.879 75.3121 130.521 75.5408 130.978 75.6043C131.188 75.6361 131.34 75.6551 131.429 75.6361C131.474 75.6106 131.518 75.5916 131.556 75.5789C131.601 75.5662 131.639 75.5535 131.683 75.5217C132.865 74.6323 134.002 73.6794 135.133 72.7202C136.435 71.6212 137.744 70.5222 139.059 69.4359C140.367 68.3623 141.676 67.276 142.978 66.2024C144.09 65.2812 145.227 64.3728 146.409 63.5279C146.523 63.458 146.549 63.2865 146.46 63.007ZM61.2071 46.776C61.2007 46.8395 61.1943 46.903 61.1816 46.9665C61.0927 47.4938 60.7687 48.5357 59.6379 50.0984C58.3039 51.8962 56.9762 53.694 55.6548 55.5045C54.3271 57.3214 52.9931 59.1446 51.6463 60.936C50.3758 62.6258 49.0671 64.3283 47.7394 65.9483C46.5642 67.3776 45.3064 68.7752 43.9279 70.0457C43.8389 70.1283 43.8516 70.0013 43.9596 69.6646C44.0676 69.3279 44.2328 68.8578 44.4488 68.2543C44.6648 67.6508 44.9379 66.9774 45.2619 66.2341C45.5859 65.4909 45.9226 64.7603 46.272 64.0361C47.7394 61.1075 49.2831 58.2107 50.9285 55.4092C52.4722 52.7856 54.1239 50.181 55.9153 47.6971C56.7856 46.7251 57.5352 46.0391 58.1641 45.6388C58.793 45.2323 59.3521 45.0163 59.8285 44.9909C60.305 44.9591 60.6671 45.1243 60.9085 45.4673C61.1181 45.7723 61.2007 46.1534 61.2071 46.5727C61.2134 46.5663 61.2198 46.6362 61.2071 46.776ZM79.833 63.4771C79.4392 64.0552 79.0453 64.5634 78.6578 65.0017C77.743 65.8403 76.9553 66.4311 76.3009 66.7805C75.6466 67.1299 75.1003 67.3077 74.6683 67.3141C74.1855 67.3204 73.8615 67.1489 73.69 66.7868C73.5185 66.4311 73.4486 65.961 73.5566 65.4845C73.6201 65.205 73.7281 64.9763 73.8171 64.8302C73.8615 64.7921 73.9251 64.7031 74.014 64.557C74.6238 63.6423 75.5831 63.0006 76.8917 62.6449C78.302 62.2637 79.7187 61.9143 81.1417 61.5776C80.6652 62.2701 80.2269 62.899 79.833 63.4771ZM131.874 51.7946C131.874 51.8073 131.874 51.82 131.874 51.839C131.868 51.9661 131.849 52.0868 131.804 52.2011C131.677 52.703 131.315 53.5924 130.318 54.7994L130.324 54.8057C128.996 56.2732 127.688 57.747 126.385 59.2335C125.07 60.7264 123.749 62.2129 122.408 63.674C121.144 65.0525 119.848 66.4438 118.521 67.7207C117.326 68.8705 116.088 69.8933 114.722 70.8779C114.633 70.9414 114.646 70.8144 114.754 70.5031C114.862 70.1918 115.027 69.7599 115.243 69.2135C115.459 68.6672 115.732 68.0573 116.056 67.3967C116.38 66.736 116.716 66.088 117.06 65.4464C118.521 62.8926 120.052 60.3706 121.697 57.9693C123.222 55.7396 124.886 53.567 126.646 51.4833C127.51 50.7273 128.253 50.2255 128.875 49.9777C129.498 49.73 130.051 49.6474 130.521 49.7363C130.991 49.8252 131.347 50.073 131.588 50.4796C131.81 50.8607 131.887 51.2991 131.88 51.7501C131.874 51.7437 131.874 51.7628 131.874 51.7946Z" fill="url(#paint8_linear)"/>
<path d="M43.8827 31.8659C43.5397 32.1009 43.2665 32.5138 43.0251 32.8505C42.7774 33.1999 42.536 33.5493 42.3136 33.9178C41.8245 34.7245 41.3989 35.5694 41.005 36.4271C40.6493 37.2084 40.3507 38.0152 40.0966 38.8347C39.8996 39.4636 39.6709 40.1243 39.6265 40.785C39.6201 40.9374 39.6201 41.0835 39.6138 41.236C39.6265 40.8866 39.6265 40.9565 39.6074 41.452C39.6201 41.776 39.6646 42.0936 39.7726 42.4049C39.8298 42.5764 39.8933 42.7606 40.033 42.875C40.3697 43.1545 40.5984 42.8178 40.7763 42.4621C40.681 42.6018 40.5857 42.7479 40.4968 42.8877C40.897 42.4748 40.9732 41.9284 41.113 41.3948C41.1575 41.2296 41.1575 41.2233 41.221 41.0073C41.2782 40.8167 41.3417 40.6198 41.4052 40.4292C41.6403 39.7114 41.9134 39.0062 42.2184 38.3138C42.2565 38.2312 42.2946 38.1423 42.3327 38.0597C42.3454 38.0279 42.3645 37.9898 42.3772 37.958C42.3391 38.0406 42.3391 38.0406 42.3708 37.9707C42.4534 37.7992 42.536 37.6341 42.6186 37.4689C42.7964 37.1195 42.9807 36.7701 43.1776 36.4334C43.6032 35.6901 44.0924 34.9723 44.4481 34.1909C44.6578 33.7272 44.626 32.9839 44.4862 32.5011C44.4354 32.2661 44.2321 31.6245 43.8827 31.8659Z" fill="url(#paint9_linear)"/>
<path d="M31.7758 58.6227C31.9474 58.9022 32.2205 59.1055 32.4619 59.3278C32.5572 59.4104 32.6525 59.4993 32.7478 59.5819C32.8113 59.6391 32.8748 59.6963 32.9384 59.7535C32.824 59.6963 32.7668 59.5883 32.7732 59.4168C32.7414 58.9975 32.7097 58.5782 32.6779 58.1589C32.6779 58.1907 32.6779 58.2225 32.6716 58.2479C32.7224 58.0065 32.7732 57.7587 32.824 57.5173C32.8431 57.4855 32.8621 57.4538 32.8812 57.4157C32.8177 57.4919 32.805 57.5173 32.8367 57.4792C32.8621 57.4538 32.7541 57.5681 32.7351 57.5872C32.6207 57.7079 32.5 57.8222 32.3857 57.9429C32.1316 58.2034 31.8838 58.4639 31.6234 58.7116C31.3756 58.9467 31.1152 59.1754 30.8674 59.4104C30.5053 59.7535 30.1241 60.0774 29.978 60.573C29.8383 61.0748 29.7875 61.5767 29.8573 62.0976C29.9082 62.4597 29.9971 62.9362 30.3084 63.1776C30.3338 63.1966 30.3592 63.2157 30.3846 63.2347C30.5053 63.311 30.6197 63.311 30.734 63.2284C31.2422 62.898 31.6742 62.4851 32.1062 62.0595C32.5763 61.5957 33.04 61.1129 33.4402 60.5793C33.7642 60.1537 33.904 59.6201 33.9484 59.0928C34.0056 58.4321 33.9675 57.5554 33.5292 57.0218C33.3449 56.7994 33.0527 56.6914 32.805 56.5517C32.5572 56.4183 32.2713 56.1896 31.9855 56.2023C31.6234 56.215 31.5217 56.9201 31.509 57.1679C31.4646 57.6571 31.509 58.197 31.7758 58.6227Z" fill="url(#paint10_linear)"/>
<path d="M68.868 45.1057C68.5885 45.1121 68.3471 45.4869 68.1883 45.6838C67.9977 45.9189 67.8198 46.1666 67.6483 46.4144C67.2925 46.9162 66.9495 47.4244 66.6128 47.939C65.9203 48.9936 65.2914 50.0926 64.6943 51.2043C64.2559 52.0365 63.7668 52.8433 63.7413 53.8026C63.7286 54.1837 63.7541 54.5649 63.843 54.9333C63.9065 55.1874 64.059 55.6766 64.3893 55.702C64.8023 55.7401 65.0818 54.8952 65.2279 54.6157C65.7996 53.4659 66.4095 52.3478 67.0384 51.2234C67.3942 50.5817 67.7626 49.9465 68.1374 49.3239C68.5885 48.5743 69.1094 47.8501 69.319 46.9925C69.4143 46.5922 69.3889 46.1158 69.2873 45.7219C69.2428 45.5441 69.1285 45.0994 68.868 45.1057Z" fill="url(#paint11_linear)"/>
<path d="M95.817 42.7669C95.15 43.3005 94.5147 43.8341 93.9684 44.4948C93.7079 44.8124 93.4601 45.1364 93.2314 45.4795C92.7232 46.2481 92.5263 47.1121 92.6597 48.0332C92.6978 48.3064 92.9138 49.3736 93.403 49.0497C93.4474 48.9988 93.4919 48.948 93.5364 48.8972C93.4983 49.1068 93.5237 49.1386 93.6126 48.9925C93.7079 48.9226 93.7714 48.7892 93.835 48.6876C94.0573 48.3255 94.2796 47.9634 94.521 47.614C95.0293 46.8898 95.5438 46.1465 96.16 45.5049C96.5666 45.0793 96.5666 44.2852 96.4904 43.7389C96.465 43.5356 96.249 42.4239 95.817 42.7669Z" fill="url(#paint12_linear)"/>
<path d="M85.8752 60.866C86.1166 61.1392 86.3326 61.4251 86.5232 61.7364C86.5359 61.7554 86.6503 61.9524 86.5868 61.838C86.5995 61.8634 86.7265 62.2001 86.6757 62.0159C86.6185 61.8317 86.6122 61.6601 86.6058 61.4632C86.5804 61.3107 86.5931 61.1519 86.6376 61.0058C86.6884 60.7771 86.6947 60.739 86.6439 60.9042C86.6122 60.974 86.574 61.0312 86.6312 60.9296C86.5867 61.0058 86.5423 61.082 86.4915 61.1519C86.4089 61.2726 86.3453 61.3425 86.2691 61.4251C86.1421 61.5585 86.015 61.6792 85.8879 61.8126C85.6084 62.1048 85.5068 62.4097 85.3988 62.7973C85.2273 63.4198 85.2844 64.5379 85.8181 64.9953C85.8435 65.0143 85.8625 65.0334 85.8879 65.0525C86.0086 65.1287 86.123 65.1223 86.2373 65.0461C87.3046 64.144 87.8255 62.9434 87.8001 61.5394C87.7874 60.8216 87.6667 59.9703 87.2157 59.3859C86.9425 59.0301 86.5613 58.8904 86.1802 58.6871C85.8181 58.4965 85.6974 59.1762 85.6656 59.3859C85.6021 59.7988 85.5703 60.5294 85.8752 60.866Z" fill="url(#paint13_linear)"/>
<path d="M115.071 34.4628C114.862 34.2405 114.404 34.8249 114.265 34.9647C114.055 35.187 113.852 35.4157 113.648 35.6444C113.21 36.1399 112.803 36.6608 112.41 37.1945C111.508 38.4332 110.847 39.7927 110.726 41.3428C110.682 41.9018 110.726 42.5434 110.974 43.058C111.133 43.382 111.387 43.5217 111.622 43.1723C111.812 42.8865 111.959 42.5434 112.073 42.2258C112.124 42.086 111.99 42.3973 112.092 42.1877C112.13 42.1114 112.168 42.0288 112.206 41.9526C112.276 41.8129 112.352 41.6731 112.429 41.5333C112.765 40.9171 113.153 40.339 113.572 39.7736C113.979 39.2273 114.449 38.6619 114.874 38.0584C115.192 37.6074 115.51 37.1627 115.611 36.6164C115.7 36.1272 115.713 35.5555 115.592 35.0727C115.554 34.9138 115.51 34.736 115.421 34.6026C115.389 34.52 115.332 34.4692 115.249 34.4501C115.192 34.3993 115.135 34.4056 115.071 34.4628Z" fill="url(#paint14_linear)"/>
<path d="M138.723 54.5245C139.186 54.5309 139.523 54.6897 139.898 54.9502C139.872 53.9464 139.847 52.9364 139.822 51.9326C139.25 52.3837 138.754 52.9745 138.278 53.5208C137.776 54.0989 137.306 54.6961 136.849 55.3059C136.372 55.9285 135.902 56.5574 135.464 57.2117C135.248 57.5293 135.038 57.8533 134.835 58.1837C134.727 58.3552 134.625 58.5267 134.536 58.7109C134.32 59.1429 134.257 59.5876 134.218 60.0641C134.187 60.4897 134.218 60.9344 134.346 61.3409C134.377 61.4743 134.428 61.6014 134.498 61.7157C134.555 61.8301 134.644 61.8936 134.765 61.9127C134.809 61.9317 134.847 61.9508 134.892 61.9698C135.032 61.9444 135.133 61.8619 135.19 61.7284C136.023 60.585 136.741 59.3589 137.585 58.2218C138.449 57.0529 139.447 55.9793 140.298 54.7977C140.444 54.5944 140.47 54.2831 140.495 54.0417C140.533 53.705 140.539 53.3556 140.495 53.019C140.451 52.6823 140.381 51.9644 139.955 51.8818C139.529 51.7992 139.072 51.8437 138.646 51.9263C138.214 52.0089 138.227 52.93 138.24 53.2413C138.252 53.5526 138.278 53.8702 138.392 54.1624C138.456 54.2831 138.545 54.5182 138.723 54.5245Z" fill="url(#paint15_linear)"/>
<g opacity="0.4">
<path d="M96.8393 57.4927C96.1659 58.1978 95.6958 59.0808 95.213 59.9194C94.9589 60.3641 94.7048 60.8151 94.4443 61.2598C94.1775 61.7235 93.8916 62.1873 93.7265 62.6955C93.231 64.1884 93.3262 66.1577 94.5332 67.2948C94.889 67.6315 95.2765 67.9237 95.7148 68.1397C95.9245 68.2413 96.1405 68.3239 96.3628 68.3938C96.7503 68.5145 96.8774 68.4954 97.2586 68.362C97.4809 68.2858 97.5889 67.8919 97.6461 67.7014C97.7541 67.352 97.8049 66.9645 97.7858 66.6024C97.7604 66.0179 97.6778 65.2492 97.1696 64.8681C96.8774 64.6521 96.5407 64.5822 96.2104 64.4361C95.8991 64.3027 95.6069 64.1312 95.3337 63.9215C95.213 63.8326 95.1113 63.7373 95.0161 63.623C94.9843 63.5785 94.8636 63.3498 94.9398 63.5213C95.0796 63.8453 95.1558 64.0041 95.1495 64.4488C95.1495 64.4234 95.0097 65.389 95.1177 65.0015C95.0161 65.3826 95.0859 65.1158 95.1241 65.0269C95.1939 64.849 95.2829 64.6775 95.3654 64.506C95.7212 63.7818 96.0897 63.0639 96.4327 62.3334C96.8075 61.5393 97.2077 60.7643 97.4809 59.9257C97.6588 59.373 97.6969 58.706 97.5317 58.1406C97.4745 57.9628 97.1633 57.156 96.8393 57.4927Z" fill="url(#paint16_linear)"/>
<path d="M125.426 70.0083C125.566 70.4403 125.731 70.7388 126.03 71.0755C126.227 71.2979 126.456 71.4821 126.691 71.6663C127.097 71.9839 127.516 72.2762 127.936 72.5747C128.342 72.8733 128.755 73.1719 129.162 73.4641C129.365 73.6102 129.568 73.7563 129.772 73.9088C129.892 73.9977 130.007 74.0803 130.121 74.1692C130.172 74.2074 130.223 74.2455 130.274 74.2836C130.019 74.0231 129.892 73.6928 129.886 73.2862C129.892 72.7844 129.899 72.2762 129.911 71.7743C129.905 71.7934 129.899 71.8061 129.899 71.8251C130.051 71.5202 130.21 71.2153 130.362 70.9103C130.35 70.9231 130.331 70.9421 130.318 70.9548C129.765 71.4821 129.74 72.3905 129.81 73.102C129.848 73.4641 129.905 73.877 130.083 74.201C130.178 74.3789 130.426 74.8363 130.693 74.741C130.928 74.6647 131.029 74.6203 131.182 74.4043C131.423 74.0549 131.5 73.5784 131.531 73.1655C131.589 72.4032 131.487 71.3741 130.947 70.7706C130.706 70.5038 130.369 70.3132 130.077 70.1163C129.803 69.932 129.53 69.7542 129.257 69.5763C128.717 69.2269 128.158 68.9029 127.605 68.5726C127.339 68.4138 127.078 68.2486 126.805 68.1089C126.506 67.95 126.24 67.9183 125.922 67.8357C125.871 67.8548 125.814 67.8738 125.763 67.8992C125.261 68.4392 125.204 69.3158 125.426 70.0083Z" fill="url(#paint17_linear)"/>
<path d="M54.7522 66.6215C54.9301 67.2822 55.2859 67.657 55.8767 67.9683C56.2832 68.1843 56.7088 68.3749 57.1218 68.5782C57.9476 68.9847 58.7798 69.3786 59.612 69.7661C59.8661 69.8868 60.0884 69.7725 60.2409 69.5501C60.6856 68.8831 60.7047 68.0064 60.5331 67.2441C60.4188 66.7295 60.2473 66.1705 59.7391 65.9355C59.2626 65.7195 58.7925 65.5035 58.3161 65.2939C57.3695 64.8809 56.423 64.3981 55.4256 64.125C55.4891 64.144 55.559 64.1631 55.6225 64.1821C55.559 64.1567 55.5082 64.1186 55.451 64.0996C55.0318 63.9344 54.8412 64.3981 54.7459 64.7348C54.5744 65.332 54.5934 66.018 54.7522 66.6215Z" fill="url(#paint18_linear)"/>
<path d="M37.219 68.483C37.3334 68.7498 37.4668 68.9848 37.7018 69.1564C37.8479 69.2644 38.0576 69.2898 38.2291 69.3406C38.1656 69.3215 38.0957 69.3025 38.0322 69.2834C38.6547 69.474 39.2519 69.7091 39.8554 69.9568C40.1349 70.0712 40.4144 70.1919 40.6876 70.3253C41.0242 70.4841 41.3355 70.6937 41.704 70.77C41.9517 70.8208 42.1804 70.357 42.2376 70.2173C42.3647 69.8742 42.4091 69.5121 42.4218 69.15C42.4409 68.4576 42.3647 67.6254 41.8183 67.1299C41.5007 66.8376 40.9925 66.6661 40.5986 66.5009C40.1476 66.304 39.6965 66.1452 39.2265 66.0118C39.0105 65.9483 38.7945 65.8911 38.5785 65.8339C38.3752 65.7831 38.1274 65.6942 37.9242 65.6878C37.5621 65.6814 37.3715 65.9356 37.2317 66.2278C36.895 66.8758 36.9395 67.8223 37.219 68.483Z" fill="url(#paint19_linear)"/>
<path d="M12.0823 71.3978C11.663 71.0675 11.2691 70.699 10.8372 70.3751C10.6402 70.2289 10.4433 70.0828 10.2591 69.924C10.0113 69.7144 10.3671 70.0447 10.1384 69.8097C10.0367 69.708 9.94144 69.6127 9.84615 69.5047C9.77627 69.4285 9.71274 69.3459 9.64286 69.2697C9.56028 69.1553 9.56028 69.1617 9.64286 69.2887C9.81438 69.7271 9.85885 70.1718 9.77627 70.6037C9.75086 70.7435 9.75086 70.7435 9.78262 70.5974C9.80168 70.5212 9.82074 70.4449 9.83979 70.3687C9.87156 70.2543 9.89697 70.1336 9.92873 70.0193C10.0685 69.4793 10.2146 68.9393 10.3734 68.3994C10.4052 68.285 10.4433 68.1707 10.4751 68.0563C10.5259 67.8975 10.5195 67.9039 10.4687 68.0817C10.4941 68.0055 10.5195 67.9293 10.5386 67.853C10.6148 67.6053 10.6974 67.3575 10.78 67.1098C10.9515 66.6016 11.1294 66.0934 11.3136 65.5852C11.5042 65.0579 11.7075 64.5433 11.9235 64.0288C12.0315 63.7683 12.1458 63.5142 12.2538 63.2601C12.4444 62.8091 12.5333 62.3453 12.5905 61.8562C12.6413 61.4559 12.546 59.4993 11.7202 59.8995C11.3644 60.0711 11.231 60.4903 11.0786 60.8334C10.9515 61.1256 10.8245 61.4178 10.7038 61.7164C10.4624 62.3072 10.221 62.9043 9.99861 63.5078C9.52851 64.772 9.12195 66.0616 8.7662 67.3639C8.30881 69.0219 7.76884 71.0929 9.08383 72.5095C9.48405 72.9415 9.94779 73.3544 10.4433 73.6784C10.672 73.8245 10.9007 73.9325 11.1611 74.0088C11.447 74.0913 11.7075 74.1104 11.9997 74.1295C12.1966 74.1422 12.3618 73.8499 12.4126 73.7102C12.5143 73.4561 12.5524 73.1829 12.5587 72.9097C12.5714 72.4079 12.5143 71.7282 12.0823 71.3978Z" fill="url(#paint20_linear)"/>
<path d="M107.868 67.9986C108.008 68.6593 108.338 69.0468 108.891 69.3835C109.278 69.6185 109.678 69.8218 110.066 70.0442C110.847 70.4825 111.635 70.9145 112.423 71.3401C112.664 71.4735 112.886 71.3719 113.045 71.1559C113.509 70.5143 113.566 69.6503 113.439 68.888C113.356 68.3734 113.217 67.8144 112.734 67.5603C112.283 67.3253 111.838 67.0839 111.381 66.8615C110.479 66.4105 109.589 65.8896 108.63 65.5719C108.694 65.591 108.757 65.6164 108.814 65.6355C108.757 65.6101 108.706 65.5719 108.649 65.5402C108.249 65.3559 108.046 65.807 107.938 66.1373C107.753 66.7154 107.734 67.3951 107.868 67.9986Z" fill="url(#paint21_linear)"/>
<path d="M77.4063 68.7899C76.9482 68.6942 77.0398 68.4709 77.1314 68.0562C77.3147 67.8329 77.8949 67.6095 78.4752 66.9715C79.0555 66.3334 80.0022 66.3653 81.1322 66.6205C82.2622 66.8758 83.5754 67.2586 83.3921 67.6095C83.2089 67.9605 82.3538 68.5347 81.8957 68.7899C81.4376 69.0452 80.7046 69.0452 79.7579 69.109C78.8111 69.1728 77.8644 68.8856 77.4063 68.7899Z" fill="url(#paint22_linear)"/>
</g>
</g>
<defs>
<linearGradient id="paint0_linear" x1="76.425" y1="-0.00531006" x2="76.425" y2="82.001" gradientUnits="userSpaceOnUse">
<stop stop-color="#361141"/>
<stop offset="1" stop-color="#280B31"/>
</linearGradient>
<linearGradient id="paint1_linear" x1="52.0876" y1="35.6534" x2="52.0876" y2="6.44126" gradientUnits="userSpaceOnUse">
<stop offset="0.108212" stop-color="#B3C2D0"/>
<stop offset="0.5084" stop-color="white"/>
</linearGradient>
<linearGradient id="paint2_linear" x1="80.5629" y1="34.5045" x2="80.5629" y2="6.12022" gradientUnits="userSpaceOnUse">
<stop offset="0.0957621" stop-color="#B3C2D0"/>
<stop offset="0.5084" stop-color="white"/>
</linearGradient>
<linearGradient id="paint3_linear" x1="105.287" y1="36.4335" x2="105.287" y2="7.09175" gradientUnits="userSpaceOnUse">
<stop offset="0.104213" stop-color="#B3C2D0"/>
<stop offset="0.5084" stop-color="white"/>
</linearGradient>
<linearGradient id="paint4_linear" x1="130.716" y1="42.1857" x2="130.716" y2="9.47486" gradientUnits="userSpaceOnUse">
<stop offset="0.112744" stop-color="#B3C2D0"/>
<stop offset="0.5084" stop-color="white"/>
</linearGradient>
<linearGradient id="paint5_linear" x1="24.7376" y1="41.0522" x2="24.7376" y2="9.85306" gradientUnits="userSpaceOnUse">
<stop offset="0.127158" stop-color="#B3C2D0"/>
<stop offset="0.5084" stop-color="white"/>
</linearGradient>
<linearGradient id="paint6_linear" x1="48.7161" y1="12.3876" x2="48.7161" y2="20.5287" gradientUnits="userSpaceOnUse">
<stop/>
<stop offset="1" stop-opacity="0"/>
</linearGradient>
<linearGradient id="paint7_linear" x1="26.5329" y1="29.9183" x2="26.5329" y2="75.6867" gradientUnits="userSpaceOnUse">
<stop stop-color="#FF1469"/>
<stop offset="1" stop-color="#AB1D1D"/>
</linearGradient>
<linearGradient id="paint8_linear" x1="91.0163" y1="32.447" x2="91.0163" y2="75.6436" gradientUnits="userSpaceOnUse">
<stop stop-color="#FF1469"/>
<stop offset="1" stop-color="#AB1D1D"/>
</linearGradient>
<linearGradient id="paint9_linear" x1="42.1028" y1="31.8124" x2="42.1028" y2="42.9785" gradientUnits="userSpaceOnUse">
<stop stop-color="white"/>
<stop offset="1" stop-color="white" stop-opacity="0"/>
</linearGradient>
<linearGradient id="paint10_linear" x1="31.8976" y1="56.2018" x2="31.8976" y2="63.2911" gradientUnits="userSpaceOnUse">
<stop stop-color="white"/>
<stop offset="1" stop-color="white" stop-opacity="0"/>
</linearGradient>
<linearGradient id="paint11_linear" x1="66.5584" y1="45.1057" x2="66.5584" y2="55.7033" gradientUnits="userSpaceOnUse">
<stop stop-color="white"/>
<stop offset="1" stop-color="white" stop-opacity="0"/>
</linearGradient>
<linearGradient id="paint12_linear" x1="94.5743" y1="42.7017" x2="94.5743" y2="49.1103" gradientUnits="userSpaceOnUse">
<stop stop-color="white"/>
<stop offset="1" stop-color="white" stop-opacity="0"/>
</linearGradient>
<linearGradient id="paint13_linear" x1="86.5568" y1="58.6537" x2="86.5568" y2="65.1066" gradientUnits="userSpaceOnUse">
<stop stop-color="white"/>
<stop offset="1" stop-color="white" stop-opacity="0"/>
</linearGradient>
<linearGradient id="paint14_linear" x1="113.196" y1="34.4129" x2="113.196" y2="43.3764" gradientUnits="userSpaceOnUse">
<stop stop-color="white"/>
<stop offset="1" stop-color="white" stop-opacity="0"/>
</linearGradient>
<linearGradient id="paint15_linear" x1="137.367" y1="51.8378" x2="137.367" y2="61.9698" gradientUnits="userSpaceOnUse">
<stop stop-color="white"/>
<stop offset="1" stop-color="white" stop-opacity="0"/>
</linearGradient>
<linearGradient id="paint16_linear" x1="95.6175" y1="57.4114" x2="95.6175" y2="68.4742" gradientUnits="userSpaceOnUse">
<stop stop-color="#2B0101" stop-opacity="0"/>
<stop offset="1" stop-color="#330202"/>
</linearGradient>
<linearGradient id="paint17_linear" x1="128.424" y1="67.8357" x2="128.424" y2="74.7539" gradientUnits="userSpaceOnUse">
<stop stop-color="#2B0101" stop-opacity="0"/>
<stop offset="1" stop-color="#330202"/>
</linearGradient>
<linearGradient id="paint18_linear" x1="57.6292" y1="64.0651" x2="57.6292" y2="69.815" gradientUnits="userSpaceOnUse">
<stop stop-color="#2B0101" stop-opacity="0"/>
<stop offset="1" stop-color="#330202"/>
</linearGradient>
<linearGradient id="paint19_linear" x1="39.7093" y1="65.6877" x2="39.7093" y2="70.7738" gradientUnits="userSpaceOnUse">
<stop stop-color="#2B0101" stop-opacity="0"/>
<stop offset="1" stop-color="#330202"/>
</linearGradient>
<linearGradient id="paint20_linear" x1="10.4297" y1="59.8459" x2="10.4297" y2="74.1299" gradientUnits="userSpaceOnUse">
<stop stop-color="#2B0101" stop-opacity="0"/>
<stop offset="1" stop-color="#330202"/>
</linearGradient>
<linearGradient id="paint21_linear" x1="110.639" y1="65.4974" x2="110.639" y2="71.4" gradientUnits="userSpaceOnUse">
<stop stop-color="#2B0101" stop-opacity="0"/>
<stop offset="1" stop-color="#330202"/>
</linearGradient>
<linearGradient id="paint22_linear" x1="80.233" y1="66.45" x2="80.233" y2="69.1181" gradientUnits="userSpaceOnUse">
<stop stop-color="#2B0101" stop-opacity="0"/>
<stop offset="1" stop-color="#330202"/>
</linearGradient>
<clipPath id="clip0">
<rect width="152.864" height="82" fill="white"/>
</clipPath>
</defs>
</svg>
