<svg xmlns="http://www.w3.org/2000/svg" viewBox="0 0 24 24">
    <path d="M 16.5 0 C 15.21875 0.0898438 13.722656 0.90625 12.851562 1.972656 C 12.058594 2.941406 11.402344 4.378906 11.660156 5.773438 C 13.054688 5.820312 14.5 4.980469 15.339844 3.894531 C 16.121094 2.886719 16.714844 1.457031 16.5 0 Z M 16.5 0 "/>
    <path d="M 21.554688 8.050781 C 20.328125 6.511719 18.601562 5.617188 16.96875 5.617188 C 14.816406 5.617188 13.90625 6.648438 12.410156 6.648438 C 10.871094 6.648438 9.699219 5.621094 7.835938 5.621094 C 6.007812 5.621094 4.0625 6.738281 2.828125 8.648438 C 1.089844 11.339844 1.386719 16.398438 4.199219 20.707031 C 5.207031 22.25 6.550781 23.984375 8.308594 24 C 9.875 24.015625 10.316406 22.996094 12.433594 22.984375 C 14.554688 22.972656 14.957031 24.011719 16.515625 23.996094 C 18.277344 23.984375 19.695312 22.0625 20.699219 20.519531 C 21.421875 19.414062 21.691406 18.859375 22.25 17.609375 C 18.179688 16.058594 17.527344 10.273438 21.554688 8.050781 Z M 21.554688 8.050781 "/>
</svg>
