<svg xmlns="http://www.w3.org/2000/svg" viewBox="0 0 24 24">
    <path d="M 16.832031 10.144531 C 16.832031 9.542969 16.335938 9.054688 15.726562 9.054688 C 15.117188 9.054688 14.625 9.542969 14.625 10.144531 C 14.625 10.746094 15.117188 11.238281 15.726562 11.238281 C 16.335938 11.238281 16.832031 10.746094 16.832031 10.144531 Z M 16.832031 10.144531 "/>
    <path d="M 12.445312 10.144531 C 12.445312 9.542969 11.949219 9.054688 11.339844 9.054688 C 10.730469 9.054688 10.238281 9.542969 10.238281 10.144531 C 10.238281 10.746094 10.730469 11.238281 11.339844 11.238281 C 11.949219 11.238281 12.445312 10.746094 12.445312 10.144531 Z M 12.445312 10.144531 "/>
    <path d="M 8.058594 10.144531 C 8.058594 9.542969 7.5625 9.054688 6.953125 9.054688 C 6.34375 9.054688 5.851562 9.542969 5.851562 10.144531 C 5.851562 10.746094 6.34375 11.238281 6.953125 11.238281 C 7.5625 11.238281 8.058594 10.746094 8.058594 10.144531 Z M 8.058594 10.144531 "/>
    <path stroke="currentColor" style="fill:none;stroke-width:1.7;" d="M 16.084635 17.999349 L 16.084635 13.999674 C 19.303711 13.999674 20.105794 11.332031 20.105794 10 L 20.105794 6.000326 C 20.105794 2.799154 17.423828 2.000651 16.084635 2.000651 L 5.027344 2.000651 C 1.811849 2.000651 1.006185 4.668294 1.006185 6.000326 L 1.006185 10 C 1.006185 11.332031 1.811849 13.999674 5.027344 13.999674 L 12.063477 13.999674 Z M 16.084635 17.999349 " transform="matrix(1.090909,0,0,1.090909,0,1.090909)"/>
</svg>
