<svg xmlns="http://www.w3.org/2000/svg" viewBox="0 0 24 22">
    <path d="M 18.285156 20.84375 L 18.285156 16.210938 C 21.941406 16.210938 22.855469 13.121094 22.855469 11.578125 L 22.855469 6.949219 C 22.855469 3.242188 19.808594 2.316406 18.285156 2.316406 L 5.714844 2.316406 C 2.054688 2.316406 1.140625 5.402344 1.140625 6.949219 L 1.140625 11.578125 C 1.140625 13.121094 2.054688 16.210938 5.714844 16.210938 L 13.714844 16.210938 Z M 18.285156 20.84375 "/>
    <path style=" stroke:none;fill-rule:nonzero;fill:rgb(100%,100%,100%);fill-opacity:1;" d="M 17.539062 9.609375 C 17.539062 8.972656 17.023438 8.453125 16.390625 8.453125 C 15.753906 8.453125 15.242188 8.972656 15.242188 9.609375 C 15.242188 10.25 15.753906 10.769531 16.390625 10.769531 C 17.023438 10.769531 17.539062 10.25 17.539062 9.609375 Z M 17.539062 9.609375 "/>
    <path style=" stroke:none;fill-rule:nonzero;fill:rgb(100%,100%,100%);fill-opacity:1;" d="M 12.96875 9.609375 C 12.96875 8.972656 12.453125 8.453125 11.820312 8.453125 C 11.183594 8.453125 10.671875 8.972656 10.671875 9.609375 C 10.671875 10.25 11.183594 10.769531 11.820312 10.769531 C 12.453125 10.769531 12.96875 10.25 12.96875 9.609375 Z M 12.96875 9.609375 "/>
    <path style=" stroke:none;fill-rule:nonzero;fill:rgb(100%,100%,100%);fill-opacity:1;" d="M 8.398438 9.609375 C 8.398438 8.972656 7.882812 8.453125 7.25 8.453125 C 6.613281 8.453125 6.097656 8.972656 6.097656 9.609375 C 6.097656 10.25 6.613281 10.769531 7.25 10.769531 C 7.882812 10.769531 8.398438 10.25 8.398438 9.609375 Z M 8.398438 9.609375 "/>
</svg>
