<svg xmlns="http://www.w3.org/2000/svg" viewBox="0 0 24 24">
    <path d="M 23.671875 2.132812 L 22.015625 0.492188 C 21.566406 0.0429688 20.824219 0.0429688 20.355469 0.492188 L 12.082031 8.765625 L 3.652344 0.335938 C 3.203125 -0.113281 2.464844 -0.113281 1.996094 0.335938 L 0.335938 1.996094 C -0.113281 2.445312 -0.113281 3.1875 0.335938 3.652344 L 8.746094 12.0625 L 0.492188 20.355469 C 0.0429688 20.804688 0.0429688 21.546875 0.492188 22.015625 L 2.152344 23.671875 C 2.601562 24.121094 3.339844 24.121094 3.808594 23.671875 L 12.082031 15.398438 L 20.355469 23.671875 C 20.804688 24.121094 21.546875 24.121094 22.015625 23.671875 L 23.671875 22.015625 C 24.121094 21.566406 24.121094 20.824219 23.671875 20.355469 L 15.378906 12.082031 L 23.652344 3.808594 C 24.121094 3.339844 24.121094 2.601562 23.671875 2.132812 Z M 23.671875 2.132812 "/>
</svg>
