<svg xmlns="http://www.w3.org/2000/svg" viewBox="0 0 24 24">
    <path d="M 23.867188 11.5 C 23.6875 11.199219 19.488281 4.003906 12 4.003906 C 4.511719 4.003906 0.3125 11.199219 0.132812 11.5 C -0.0429688 11.808594 -0.0429688 12.191406 0.132812 12.5 C 0.3125 12.800781 4.511719 19.996094 12 19.996094 C 19.488281 19.996094 23.6875 12.800781 23.867188 12.5 C 24.042969 12.191406 24.042969 11.808594 23.867188 11.5 Z M 12 17.996094 C 6.722656 17.996094 3.222656 13.519531 2.191406 12 C 3.191406 10.480469 6.710938 6 12 6 C 17.289062 6 20.777344 10.480469 21.808594 12 C 20.777344 13.519531 17.296875 17.996094 12 17.996094 Z M 12 17.996094 "/>
    <path d="M 12 7 C 9.238281 7 7.003906 9.238281 7.003906 12 C 7.003906 14.761719 9.238281 17 12 17 C 14.761719 17 17 14.761719 17 12 C 17 9.238281 14.761719 7 12 7 Z M 12 15 C 10.34375 15 9 13.65625 9 12 C 9 10.34375 10.34375 9 12 9 C 13.65625 9 15 10.34375 15 12 C 15 13.65625 13.65625 15 12 15 Z M 12 15 "/>
    <path d="M 13 12 C 13.550781 12 14 11.550781 14 11 C 14 10.449219 13.550781 10 13 10 C 12.449219 10 12 10.449219 12 11 C 12 11.550781 12.449219 12 13 12 Z M 13 12 "/>
</svg>
