<svg xmlns="http://www.w3.org/2000/svg" viewBox="0 0 24 24">
    <path d="M 20.484375 0 L 3.515625 0 C 1.578125 0 0 1.578125 0 3.515625 L 0 20.484375 C 0 22.421875 1.578125 24 3.515625 24 L 10.59375 24 L 10.59375 15.515625 L 7.78125 15.515625 L 7.78125 11.296875 L 10.59375 11.296875 L 10.59375 8.4375 C 10.59375 6.109375 12.484375 4.21875 14.8125 4.21875 L 19.078125 4.21875 L 19.078125 8.4375 L 14.8125 8.4375 L 14.8125 11.296875 L 19.078125 11.296875 L 18.375 15.515625 L 14.8125 15.515625 L 14.8125 24 L 20.484375 24 C 22.421875 24 24 22.421875 24 20.484375 L 24 3.515625 C 24 1.578125 22.421875 0 20.484375 0 Z M 20.484375 0 "/>
</svg>
