<svg xmlns="http://www.w3.org/2000/svg" viewBox="0 0 24 24">
    <path d="M 4.015625 17.726562 C 4.714844 19.277344 5.816406 20.578125 6.917969 21.832031 C 8.179688 22.933594 9.644531 23.574219 11.210938 23.84375 C 11.046875 23.800781 10.886719 23.746094 10.722656 23.683594 C 8.96875 22.984375 7.417969 21.230469 7.417969 19.277344 C 7.367188 18.027344 7.867188 16.773438 8.667969 15.824219 C 8.71875 16.773438 9.269531 17.675781 10.023438 18.226562 C 9.371094 16.875 9.171875 15.273438 9.519531 13.820312 C 9.871094 12.367188 10.722656 11.015625 11.925781 10.113281 C 11.625 11.417969 12.125 12.71875 12.777344 13.871094 C 13.050781 14.335938 13.363281 14.792969 13.675781 15.253906 C 14.101562 15.882812 14.53125 16.511719 14.878906 17.175781 C 15.480469 18.375 15.828125 19.777344 15.328125 20.980469 C 16.277344 20.128906 16.78125 18.632812 16.582031 16.585938 C 16.585938 16.605469 16.597656 16.613281 16.605469 16.625 C 16.617188 16.636719 16.632812 16.648438 16.632812 16.675781 C 18.535156 19.84375 15.9375 23.800781 12.613281 23.992188 C 13.535156 24.027344 14.480469 23.953125 15.429688 23.785156 C 17.183594 23.183594 18.785156 22.082031 19.785156 20.53125 C 20.636719 19.226562 21.039062 17.625 21.238281 16.074219 C 21.390625 14.671875 21.4375 13.21875 21.1875 11.816406 C 20.9375 10.414062 20.4375 9.3125 19.535156 8.210938 C 19.785156 9.164062 19.636719 10.164062 19.335938 11.117188 C 19.085938 11.910156 18.695312 12.636719 18.308594 13.347656 C 18.234375 13.488281 18.160156 13.628906 18.085938 13.769531 C 18.035156 12.117188 17.234375 10.613281 16.382812 9.164062 C 16.234375 8.910156 16.082031 8.660156 15.933594 8.410156 C 15.214844 7.21875 14.5 6.03125 14.128906 4.707031 C 13.679688 3.105469 13.828125 1.203125 14.980469 0 C 12.675781 0.851562 10.472656 2.101562 8.871094 4.003906 C 7.269531 5.910156 6.46875 8.511719 6.96875 10.914062 C 6.117188 9.964844 5.667969 8.664062 5.765625 7.410156 C 4.613281 8.863281 3.8125 10.566406 3.464844 12.367188 C 3.113281 14.171875 3.3125 16.074219 4.015625 17.726562 Z M 16.582031 16.574219 C 16.582031 16.578125 16.582031 16.582031 16.582031 16.585938 C 16.582031 16.582031 16.582031 16.578125 16.582031 16.574219 Z M 16.582031 16.574219 "/>
</svg>
