<?xml version="1.0" encoding="UTF-8"?>
<svg xmlns="http://www.w3.org/2000/svg" xmlns:xlink="http://www.w3.org/1999/xlink" width="24pt" height="24pt" viewBox="0 0 24 24" version="1.1">
<g id="surface1">
<path style=" stroke:none;fill-rule:nonzero;fill:rgb(0%,0%,0%);fill-opacity:1;" d="M 21.824219 9 L 19.636719 9 L 19.636719 11.175781 L 17.460938 11.175781 L 17.460938 13.363281 L 19.636719 13.363281 L 19.636719 15.539062 L 21.824219 15.539062 L 21.824219 13.363281 L 24 13.363281 L 24 11.175781 L 21.824219 11.175781 Z M 21.824219 9 "/>
<path style=" stroke:none;fill-rule:nonzero;fill:rgb(0%,0%,0%);fill-opacity:1;" d="M 7.5 19.5 C 11.828125 19.5 14.703125 16.460938 14.703125 12.175781 C 14.703125 11.683594 14.652344 11.304688 14.582031 10.925781 L 7.5 10.925781 L 7.5 13.503906 L 11.757812 13.503906 C 11.585938 14.597656 10.46875 16.738281 7.5 16.738281 C 4.945312 16.738281 2.855469 14.617188 2.855469 12 C 2.855469 9.382812 4.941406 7.261719 7.5 7.261719 C 8.964844 7.261719 9.9375 7.886719 10.488281 8.417969 L 12.523438 6.464844 C 11.214844 5.238281 9.527344 4.5 7.5 4.5 C 3.355469 4.5 0 7.855469 0 12 C 0 16.144531 3.355469 19.5 7.5 19.5 Z M 7.5 19.5 "/>
</g>
</svg>
