<svg xmlns="http://www.w3.org/2000/svg" viewBox="0 0 24 24">
    <path d="M 16.859375 12 C 16.859375 14.683594 14.683594 16.859375 12 16.859375 C 9.316406 16.859375 7.140625 14.683594 7.140625 12 C 7.140625 9.316406 9.316406 7.140625 12 7.140625 C 14.683594 7.140625 16.859375 9.316406 16.859375 12 Z M 16.859375 12 "/>
    <path d="M 23.363281 3.402344 C 23.128906 2.769531 22.757812 2.195312 22.273438 1.726562 C 21.800781 1.242188 21.230469 0.867188 20.597656 0.636719 C 20.082031 0.4375 19.3125 0.199219 17.890625 0.132812 C 16.351562 0.0625 15.890625 0.046875 12 0.046875 C 8.105469 0.046875 7.644531 0.0625 6.109375 0.132812 C 4.6875 0.199219 3.914062 0.4375 3.402344 0.636719 C 2.765625 0.867188 2.195312 1.242188 1.726562 1.726562 C 1.242188 2.195312 0.867188 2.769531 0.632812 3.402344 C 0.433594 3.914062 0.195312 4.6875 0.132812 6.109375 C 0.0625 7.644531 0.046875 8.109375 0.046875 12 C 0.046875 15.894531 0.0625 16.355469 0.132812 17.890625 C 0.195312 19.3125 0.433594 20.085938 0.632812 20.597656 C 0.867188 21.230469 1.238281 21.804688 1.722656 22.273438 C 2.195312 22.757812 2.765625 23.132812 3.402344 23.363281 C 3.914062 23.566406 4.6875 23.800781 6.109375 23.867188 C 7.644531 23.9375 8.105469 23.953125 12 23.953125 C 15.890625 23.953125 16.351562 23.9375 17.890625 23.867188 C 19.3125 23.800781 20.082031 23.566406 20.597656 23.363281 C 21.867188 22.875 22.875 21.871094 23.363281 20.597656 C 23.5625 20.085938 23.800781 19.3125 23.867188 17.890625 C 23.9375 16.355469 23.949219 15.894531 23.949219 12 C 23.949219 8.109375 23.9375 7.644531 23.867188 6.109375 C 23.800781 4.6875 23.5625 3.914062 23.363281 3.402344 Z M 12 19.484375 C 7.863281 19.484375 4.511719 16.132812 4.511719 12 C 4.511719 7.867188 7.863281 4.515625 12 4.515625 C 16.132812 4.515625 19.484375 7.867188 19.484375 12 C 19.484375 16.132812 16.132812 19.484375 12 19.484375 Z M 19.78125 5.96875 C 18.816406 5.96875 18.03125 5.183594 18.03125 4.21875 C 18.03125 3.25 18.816406 2.46875 19.78125 2.46875 C 20.746094 2.46875 21.53125 3.25 21.53125 4.21875 C 21.53125 5.183594 20.746094 5.96875 19.78125 5.96875 Z M 19.78125 5.96875 "/>
</svg>
