<svg xmlns="http://www.w3.org/2000/svg" viewBox="0 0 24 24">
    <g transform="translate(0, 0.5)">
        <path d="M 11.816406 8.199219 L 15.253906 11.632812 L 15.269531 11.453125 C 15.269531 9.648438 13.800781 8.183594 11.996094 8.183594 Z M 11.816406 8.199219 "/>
        <path d="M 11.996094 6 C 15.007812 6 17.449219 8.445312 17.449219 11.453125 C 17.449219 12.15625 17.308594 12.828125 17.0625 13.445312 L 20.253906 16.636719 C 21.902344 15.261719 23.199219 13.484375 24 11.453125 C 22.109375 6.667969 17.457031 3.273438 11.996094 3.273438 C 10.46875 3.273438 9.007812 3.546875 7.652344 4.039062 L 10.007812 6.386719 C 10.625 6.148438 11.292969 6 11.996094 6 Z M 11.996094 6 "/>
        <path d="M 1.089844 3.027344 L 4.074219 6.011719 C 2.273438 7.417969 0.851562 9.289062 0 11.453125 C 1.886719 16.242188 6.542969 19.632812 11.996094 19.632812 C 13.6875 19.632812 15.300781 19.308594 16.78125 18.714844 L 17.242188 19.175781 L 20.421875 22.359375 L 21.8125 20.976562 L 2.480469 1.640625 Z M 7.121094 9.054688 L 8.808594 10.742188 C 8.757812 10.976562 8.726562 11.210938 8.726562 11.453125 C 8.726562 13.257812 10.191406 14.726562 11.996094 14.726562 C 12.242188 14.726562 12.476562 14.695312 12.707031 14.644531 L 14.390625 16.328125 C 13.664062 16.691406 12.859375 16.90625 11.996094 16.90625 C 8.988281 16.90625 6.542969 14.464844 6.542969 11.453125 C 6.542969 10.59375 6.761719 9.785156 7.121094 9.054688 Z M 7.121094 9.054688 "/>
    </g>
</svg>
