<svg xmlns="http://www.w3.org/2000/svg" viewBox="0 0 24 24">
    <path d="M 17.476562 6.148438 C 12.992188 2.257812 11.972656 0 11.972656 0 C 11.972656 0 10.929688 2.257812 6.472656 6.148438 C 2.878906 9.269531 0 11.792969 0 15.371094 C 0 18.492188 2.675781 21.015625 5.988281 21.015625 C 8.304688 21.015625 10.472656 20.101562 11.515625 18.445312 C 11.183594 20.679688 10.597656 24.039062 9.148438 25 L 14.851562 25 C 13.375 24.039062 12.816406 20.679688 12.484375 18.445312 C 13.527344 20.078125 15.695312 21.015625 18.011719 21.015625 C 21.324219 21.015625 24 18.492188 24 15.371094 C 23.949219 11.792969 21.070312 9.269531 17.476562 6.148438 Z M 17.476562 6.148438 "/>
</svg>
