<svg xmlns="http://www.w3.org/2000/svg" viewBox="0 0 24 24">
    <path d="M 22.351562 9.8125 L 14.171875 9.8125 L 14.171875 1.636719 C 14.171875 0.734375 13.441406 0 12.539062 0 L 11.449219 0 C 10.546875 0 9.8125 0.734375 9.8125 1.636719 L 9.8125 9.8125 L 1.636719 9.8125 C 0.734375 9.8125 0 10.546875 0 11.449219 L 0 12.539062 C 0 13.441406 0.734375 14.171875 1.636719 14.171875 L 9.8125 14.171875 L 9.8125 22.351562 C 9.8125 23.253906 10.546875 23.984375 11.449219 23.984375 L 12.539062 23.984375 C 13.441406 23.984375 14.171875 23.253906 14.171875 22.351562 L 14.171875 14.171875 L 22.351562 14.171875 C 23.253906 14.171875 23.984375 13.441406 23.984375 12.539062 L 23.984375 11.449219 C 23.984375 10.546875 23.253906 9.8125 22.351562 9.8125 Z M 22.351562 9.8125 "/>
</svg>
