<svg xmlns="http://www.w3.org/2000/svg" viewBox="0 0 24 24" version="1.1">
    <path d="M 14 7 L 14 2.75 C 14 2.449219 14.179688 2.175781 14.457031 2.058594 C 14.734375 1.941406 15.058594 2 15.273438 2.210938 L 23.773438 10.460938 C 23.917969 10.601562 24 10.796875 24 11 C 24 11.203125 23.917969 11.398438 23.773438 11.539062 L 15.273438 19.789062 C 15.054688 19.996094 14.734375 20.054688 14.457031 19.941406 C 14.179688 19.824219 14 19.550781 14 19.25 L 14 15 L 12.582031 15 C 7.945312 15 3.671875 17.519531 1.429688 21.570312 L 1.40625 21.609375 C 1.273438 21.855469 1.019531 22 0.75 22 C 0.6875 22 0.625 21.992188 0.5625 21.976562 C 0.230469 21.890625 0 21.59375 0 21.25 C 0 13.476562 6.257812 7.136719 14 7 Z M 14 7 "/>
</svg>
