<svg xmlns="http://www.w3.org/2000/svg" viewBox="0 0 24 24">
    <path d="M 16.605469 14.242188 C 19.488281 10.171875 18.523438 4.539062 14.457031 1.660156 C 10.386719 -1.21875 4.753906 -0.257812 1.875 3.8125 C -1.003906 7.878906 -0.0429688 13.511719 4.027344 16.390625 C 6.929688 18.449219 10.769531 18.605469 13.832031 16.796875 L 20.484375 23.414062 C 21.203125 24.167969 22.398438 24.199219 23.15625 23.480469 C 23.914062 22.761719 23.941406 21.566406 23.226562 20.8125 C 23.203125 20.785156 23.179688 20.765625 23.15625 20.742188 Z M 9.234375 14.859375 C 6.019531 14.859375 3.414062 12.253906 3.414062 9.039062 C 3.410156 5.824219 6.015625 3.21875 9.230469 3.21875 C 12.441406 3.214844 15.046875 5.816406 15.054688 9.027344 C 15.058594 12.242188 12.457031 14.851562 9.238281 14.859375 C 9.238281 14.859375 9.238281 14.859375 9.234375 14.859375 Z M 9.234375 14.859375 "/>
</svg>
