<svg xmlns="http://www.w3.org/2000/svg" viewBox="0 0 24 24">
    <path d="M 10.59375 0 L 13.40625 0 L 13.40625 4.921875 L 10.59375 4.921875 Z M 10.59375 0 "/>
    <path d="M 2.519531 4.507812 L 4.507812 2.519531 L 7.988281 6 L 6 7.988281 Z M 2.519531 4.507812 "/>
    <path d="M 0 10.59375 L 4.921875 10.59375 L 4.921875 13.40625 L 0 13.40625 Z M 0 10.59375 "/>
    <path d="M 2.519531 19.492188 L 6 16.011719 L 7.988281 18 L 4.507812 21.480469 Z M 2.519531 19.492188 "/>
    <path d="M 10.59375 19.078125 L 13.40625 19.078125 L 13.40625 24 L 10.59375 24 Z M 10.59375 19.078125 "/>
    <path d="M 16.011719 18 L 18 16.011719 L 21.480469 19.492188 L 19.492188 21.480469 Z M 16.011719 18 "/>
    <path d="M 19.078125 10.59375 L 24 10.59375 L 24 13.40625 L 19.078125 13.40625 Z M 19.078125 10.59375 "/>
    <animateTransform
        attributeName="transform"
        type="rotate"
        from="0"
        to="360"
        begin="0s"
        dur="1s"
        repeatCount="indefinite"
    />
</svg>