<svg xmlns="http://www.w3.org/2000/svg" viewBox="0 0 24 24">
    <path d="M 12 0 C 5.410156 0 0 5.449219 0 12 C 0 18.59375 5.449219 24 12 24 C 18.589844 24 24 18.550781 24 12 C 24 5.414062 18.550781 0 12 0 Z M 16.914062 2.675781 C 18.789062 3.667969 20.378906 5.210938 21.371094 7.085938 L 17.4375 8.8125 C 16.886719 7.882812 16.117188 7.113281 15.1875 6.5625 Z M 7.085938 2.628906 L 8.8125 6.5625 C 7.882812 7.113281 7.113281 7.882812 6.5625 8.8125 L 2.675781 7.085938 C 3.667969 5.210938 5.210938 3.621094 7.085938 2.628906 Z M 7.085938 21.324219 C 5.210938 20.332031 3.667969 18.789062 2.675781 16.914062 L 6.5625 15.1875 C 7.113281 16.117188 7.882812 16.886719 8.8125 17.4375 Z M 7.078125 12 C 7.078125 9.285156 9.285156 7.078125 12 7.078125 C 14.714844 7.078125 16.921875 9.285156 16.921875 12 C 16.921875 14.714844 14.714844 16.921875 12 16.921875 C 9.285156 16.921875 7.078125 14.714844 7.078125 12 Z M 16.914062 21.324219 L 15.1875 17.4375 C 16.117188 16.886719 16.886719 16.117188 17.4375 15.1875 L 21.371094 16.914062 C 20.378906 18.789062 18.789062 20.332031 16.914062 21.324219 Z M 16.914062 21.324219 "/>
</svg>
