<?xml version="1.0" encoding="UTF-8" standalone="no"?>
<svg
        xmlns:dc="http://purl.org/dc/elements/1.1/"
        xmlns:cc="http://creativecommons.org/ns#"
        xmlns:rdf="http://www.w3.org/1999/02/22-rdf-syntax-ns#"
        xmlns:svg="http://www.w3.org/2000/svg"
        xmlns="http://www.w3.org/2000/svg"
        xmlns:sodipodi="http://sodipodi.sourceforge.net/DTD/sodipodi-0.dtd"
        xmlns:inkscape="http://www.inkscape.org/namespaces/inkscape"
        version="1.1"
        id="svg2"
        xml:space="preserve"
        width="1334.84"
        height="1301.4133"
        viewBox="0 0 1334.84 1301.4133"
        sodipodi:docname="iTech_Labs_Vector.eps"><metadata
     id="metadata8"><rdf:RDF><cc:Work
         rdf:about=""><dc:format>image/svg+xml</dc:format><dc:type
        rdf:resource="http://purl.org/dc/dcmitype/StillImage"/></cc:Work></rdf:RDF></metadata>
    <defs
            id="defs6"><clipPath
       clipPathUnits="userSpaceOnUse"
       id="clipPath20"><path
         d="m 10006,4697.45 c 0.2,19.36 0.4,38.75 0.4,58.17 0,2761.42 -2238.65,5000 -5000.08,5000 -2761.42,0 -4999.99969,-2238.58 -4999.99969,-5000 0,-19.42 0.14453,-38.81 0.3711,-58.17 H 10006"
         clip-rule="evenodd"
         id="path18" /></clipPath>
        <radialGradient
                fx="0"
                fy="0"
                cx="0"
                cy="0"
                r="1"
                gradientUnits="userSpaceOnUse"
                gradientTransform="matrix(4140.42,0,0,-4140.42,4916,4727.45)"
                id="radialGradient28"><stop
         style="stop-opacity:1;stop-color:#25b9f1"
         offset="0"
         id="stop24" />
            <stop
                    style="stop-opacity:1;stop-color:#2c45a0"
                    offset="1"
                    id="stop26"/></radialGradient>
        <clipPath
                clipPathUnits="userSpaceOnUse"
                id="clipPath38"><path
         d="M 0,0.621094 H 10010 V 9760.6211 H 0 Z"
         id="path36" /></clipPath></defs>
    <sodipodi:namedview
            pagecolor="#ffffff"
            bordercolor="#666666"
            borderopacity="1"
            objecttolerance="10"
            gridtolerance="10"
            guidetolerance="10"
            inkscape:pageopacity="0"
            inkscape:pageshadow="2"
            inkscape:window-width="640"
            inkscape:window-height="480"
            id="namedview4"/>
    <g
            id="g10"
            inkscape:groupmode="layer"
            inkscape:label="ink_ext_XXXXXX"
            transform="matrix(1.3333333,0,0,-1.3333333,0,1301.4133)"><g
       id="g12"
       transform="scale(0.1)"><g
         id="g14"><g
           id="g16"
           clip-path="url(#clipPath20)"><path
             d="m 10006,4697.45 c 0.2,19.36 0.4,38.75 0.4,58.17 0,2761.42 -2238.65,5000 -5000.08,5000 -2761.42,0 -4999.99969,-2238.58 -4999.99969,-5000 0,-19.42 0.14453,-38.81 0.3711,-58.17 H 10006"
             style="fill:#2c45a0;fill-opacity:1;fill-rule:nonzero;stroke:none"
             id="path22" /><path
            d="m 10006,4697.45 c 0.2,19.36 0.4,38.75 0.4,58.17 0,2761.42 -2238.65,5000 -5000.08,5000 -2761.42,0 -4999.99969,-2238.58 -4999.99969,-5000 0,-19.42 0.14453,-38.81 0.3711,-58.17 H 10006"
            style="fill:url(#radialGradient28);fill-opacity:1;fill-rule:nonzero;stroke:none"
            id="path30"/></g></g><g
            id="g32">
         <g
                 id="g34"
                 clip-path="url(#clipPath38)">
                 <path
                         d="m 10006,4697.45 c 0.2,19.36 0.4,38.75 0.4,58.17 0,2761.42 -2238.65,5000 -5000.08,5000 -2761.42,0 -4999.99969,-2238.58 -4999.99969,-5000 0,-19.42 0.14453,-38.81 0.3711,-58.17 z"
                         style="fill:none;stroke:#263e6c;stroke-width:10;stroke-linecap:butt;stroke-linejoin:miter;stroke-miterlimit:4;stroke-dasharray:none;stroke-opacity:1"
                         id="path40"/>
             <path
                     d="m 2886.82,3412.46 c -48.93,0 -90.72,15.09 -125.43,45.39 -34.72,30.25 -52.04,73.04 -52.04,128.47 0,50.15 17.75,91.43 53.34,123.91 35.58,32.41 76.93,48.65 124.13,48.65 45.39,0 85.67,-14.73 120.81,-44.1 35.15,-29.45 52.76,-72.24 52.76,-128.46 0,-54.56 -17.18,-97.14 -51.46,-127.81 -34.28,-30.75 -74.98,-46.05 -122.11,-46.05 z m 173.57,-366.84 V 2024.56 c 0,-70.8 -16.75,-124.28 -50.16,-160.51 -33.49,-36.23 -75.92,-54.34 -127.31,-54.34 -51.46,0 -93.24,18.54 -125.36,55.64 -32.19,37.1 -48.21,90.14 -48.21,159.21 v 1010.66 c 0,69.87 16.02,122.55 48.21,157.91 32.12,35.37 73.9,53.05 125.36,53.05 51.39,0 93.82,-17.68 127.31,-53.05 33.41,-35.36 50.16,-84.58 50.16,-147.51"
                     style="fill:#fff;fill-opacity:1;fill-rule:nonzero;stroke:none"
                     id="path42"/>
             <path
                     d="m 2886.82,3412.46 c -48.93,0 -90.72,15.09 -125.43,45.39 -34.72,30.25 -52.04,73.04 -52.04,128.47 0,50.15 17.75,91.43 53.34,123.91 35.58,32.41 76.93,48.65 124.13,48.65 45.39,0 85.67,-14.73 120.81,-44.1 35.15,-29.45 52.76,-72.24 52.76,-128.46 0,-54.56 -17.18,-97.14 -51.46,-127.81 -34.28,-30.75 -74.98,-46.05 -122.11,-46.05 z m 173.57,-366.84 V 2024.56 c 0,-70.8 -16.75,-124.28 -50.16,-160.51 -33.49,-36.23 -75.92,-54.34 -127.31,-54.34 -51.46,0 -93.24,18.54 -125.36,55.64 -32.19,37.1 -48.21,90.14 -48.21,159.21 v 1010.66 c 0,69.87 16.02,122.55 48.21,157.91 32.12,35.37 73.9,53.05 125.36,53.05 51.39,0 93.82,-17.68 127.31,-53.05 33.41,-35.36 50.16,-84.58 50.16,-147.51 z"
                     style="fill:none;stroke:#fff;stroke-width:27.7134;stroke-linecap:butt;stroke-linejoin:miter;stroke-miterlimit:4;stroke-dasharray:none;stroke-opacity:1"
                     id="path44"/>
             <path
                     d="M 4683.11,3421.7 H 4263.66 V 2043.9 c 0,-79.39 -17.76,-138.28 -53.12,-176.67 -35.43,-38.32 -81.19,-57.52 -137.26,-57.52 -57.02,0 -103.43,19.41 -139.22,58.17 -35.87,38.83 -53.77,97.5 -53.77,176.02 v 1377.8 h -419.38 c -65.67,0 -114.46,14.5 -146.36,43.59 -31.9,29.02 -47.85,67.41 -47.85,115.11 0,49.37 16.6,88.41 49.8,117.06 33.2,28.58 81.34,42.94 144.41,42.94 h 1222.2 c 66.4,0 115.84,-14.8 148.16,-44.24 32.34,-29.52 48.58,-68.12 48.58,-115.76 0,-47.7 -16.46,-86.09 -49.22,-115.11 -32.77,-29.09 -81.99,-43.59 -147.52,-43.59"
                     style="fill:#fff;fill-opacity:1;fill-rule:nonzero;stroke:none"
                     id="path46"/>
             <path
                     d="M 4683.11,3421.7 H 4263.66 V 2043.9 c 0,-79.39 -17.76,-138.28 -53.12,-176.67 -35.43,-38.32 -81.19,-57.52 -137.26,-57.52 -57.02,0 -103.43,19.41 -139.22,58.17 -35.87,38.83 -53.77,97.5 -53.77,176.02 v 1377.8 h -419.38 c -65.67,0 -114.46,14.5 -146.36,43.59 -31.9,29.02 -47.85,67.41 -47.85,115.11 0,49.37 16.6,88.41 49.8,117.06 33.2,28.58 81.34,42.94 144.41,42.94 h 1222.2 c 66.4,0 115.84,-14.8 148.16,-44.24 32.34,-29.52 48.58,-68.12 48.58,-115.76 0,-47.7 -16.46,-86.09 -49.22,-115.11 -32.77,-29.09 -81.99,-43.59 -147.52,-43.59 z"
                     style="fill:none;stroke:#fff;stroke-width:27.7134;stroke-linecap:butt;stroke-linejoin:miter;stroke-miterlimit:4;stroke-dasharray:none;stroke-opacity:1"
                     id="path48"/>
             <path
                     d="m 5901.81,2437.88 h -691.32 c 0.87,-79.32 17.04,-149.25 48.5,-209.73 31.47,-60.55 73.33,-106.16 125.58,-136.83 52.25,-30.74 109.84,-46.05 172.85,-46.05 42.29,0 80.9,4.91 115.83,14.72 34.93,9.81 68.85,25.12 101.61,46.05 32.77,20.85 63.01,43.23 90.65,67.11 27.57,23.82 63.44,56.23 107.46,97.22 18.12,15.3 44.03,23.02 77.65,23.02 36.24,0 65.61,-9.88 88.06,-29.66 22.44,-19.77 33.7,-47.77 33.7,-83.86 0,-31.83 -12.56,-68.99 -37.6,-111.58 -25.05,-42.58 -62.79,-83.43 -113.31,-122.54 -50.52,-39.12 -113.88,-71.59 -190.24,-97.36 -76.36,-25.76 -164.19,-38.68 -263.42,-38.68 -227.05,0 -403.36,64.73 -529.08,194.35 -125.72,129.62 -188.51,305.42 -188.51,527.49 0,104.5 15.45,201.51 46.48,290.92 30.96,89.42 76.14,166.07 135.54,230.01 59.39,63.94 132.64,112.94 219.75,147.08 87.11,34.13 183.75,51.24 289.91,51.24 138.06,0 256.49,-29.37 355.37,-87.98 98.79,-58.6 172.77,-134.37 221.99,-227.33 49.22,-92.95 73.83,-187.57 73.83,-283.99 0,-89.49 -25.48,-147.45 -76.43,-173.93 -50.95,-26.49 -122.54,-39.69 -214.85,-39.69 z m -691.32,203.22 h 640.8 c -8.66,120.53 -41.21,210.67 -97.72,270.5 -56.58,59.83 -130.98,89.78 -223.29,89.78 -88.05,0 -160.36,-30.38 -216.87,-91.08 -56.58,-60.69 -90.86,-150.4 -102.92,-269.2"
                     style="fill:#fff;fill-opacity:1;fill-rule:nonzero;stroke:none"
                     id="path50"/>
             <path
                     d="m 5901.81,2437.88 h -691.32 c 0.87,-79.32 17.04,-149.25 48.5,-209.73 31.47,-60.55 73.33,-106.16 125.58,-136.83 52.25,-30.74 109.84,-46.05 172.85,-46.05 42.29,0 80.9,4.91 115.83,14.72 34.93,9.81 68.85,25.12 101.61,46.05 32.77,20.85 63.01,43.23 90.65,67.11 27.57,23.82 63.44,56.23 107.46,97.22 18.12,15.3 44.03,23.02 77.65,23.02 36.24,0 65.61,-9.88 88.06,-29.66 22.44,-19.77 33.7,-47.77 33.7,-83.86 0,-31.83 -12.56,-68.99 -37.6,-111.58 -25.05,-42.58 -62.79,-83.43 -113.31,-122.54 -50.52,-39.12 -113.88,-71.59 -190.24,-97.36 -76.36,-25.76 -164.19,-38.68 -263.42,-38.68 -227.05,0 -403.36,64.73 -529.08,194.35 -125.72,129.62 -188.51,305.42 -188.51,527.49 0,104.5 15.45,201.51 46.48,290.92 30.96,89.42 76.14,166.07 135.54,230.01 59.39,63.94 132.64,112.94 219.75,147.08 87.11,34.13 183.75,51.24 289.91,51.24 138.06,0 256.49,-29.37 355.37,-87.98 98.79,-58.6 172.77,-134.37 221.99,-227.33 49.22,-92.95 73.83,-187.57 73.83,-283.99 0,-89.49 -25.48,-147.45 -76.43,-173.93 -50.95,-26.49 -122.54,-39.69 -214.85,-39.69 z m -691.32,203.22 h 640.8 c -8.66,120.53 -41.21,210.67 -97.72,270.5 -56.58,59.83 -130.98,89.78 -223.29,89.78 -88.05,0 -160.36,-30.38 -216.87,-91.08 -56.58,-60.69 -90.86,-150.4 -102.92,-269.2 z"
                     style="fill:none;stroke:#fff;stroke-width:27.7134;stroke-linecap:butt;stroke-linejoin:miter;stroke-miterlimit:4;stroke-dasharray:none;stroke-opacity:1"
                     id="path52"/>
             <path
                     d="m 7763.82,2249.44 c 0,-44.02 -13.21,-91.08 -39.48,-141.17 -26.34,-50.08 -66.47,-97.78 -120.38,-143.1 -53.98,-45.33 -121.89,-81.85 -203.88,-109.42 -81.98,-27.57 -174.36,-41.42 -277.06,-41.42 -218.39,0 -389,63.58 -511.83,190.88 -122.9,127.24 -184.32,297.86 -184.32,511.84 0,144.91 28.07,273.02 84.37,384.31 56.22,111.28 137.48,197.38 243.86,258.22 106.3,60.76 233.25,91.22 380.84,91.22 91.51,0 175.44,-13.43 251.8,-40.13 76.36,-26.77 141.09,-61.34 194.21,-103.63 53.05,-42.29 93.6,-87.4 121.68,-135.32 28,-47.92 42.07,-92.6 42.07,-134.02 0,-42.29 -15.8,-78.16 -47.27,-107.47 -31.54,-29.36 -69.71,-44.02 -114.53,-44.02 -29.37,0 -53.77,7.51 -73.18,22.59 -19.42,15.09 -41.21,39.4 -65.39,73.04 -43.16,65.46 -88.19,114.54 -135.25,147.3 -47.05,32.76 -106.81,49.14 -179.26,49.14 -104.51,0 -188.66,-40.7 -252.53,-122.11 -63.87,-81.4 -95.77,-192.76 -95.77,-334.07 0,-66.33 8.16,-127.24 24.61,-182.8 16.39,-55.58 40.13,-102.99 71.23,-142.18 31.03,-39.19 68.56,-68.93 112.59,-89.13 44.02,-20.29 92.31,-30.38 144.99,-30.38 70.72,0 131.35,16.31 181.87,49.07 50.51,32.76 95.19,82.7 134.02,149.89 21.57,39.63 44.89,70.66 69.93,93.03 24.97,22.37 55.64,33.63 91.87,33.63 43.16,0 78.96,-16.37 107.46,-49.14 28.44,-32.77 42.73,-67.63 42.73,-104.65"
                     style="fill:#fff;fill-opacity:1;fill-rule:nonzero;stroke:none"
                     id="path54"/>
             <path
                     d="m 7763.82,2249.44 c 0,-44.02 -13.21,-91.08 -39.48,-141.17 -26.34,-50.08 -66.47,-97.78 -120.38,-143.1 -53.98,-45.33 -121.89,-81.85 -203.88,-109.42 -81.98,-27.57 -174.36,-41.42 -277.06,-41.42 -218.39,0 -389,63.58 -511.83,190.88 -122.9,127.24 -184.32,297.86 -184.32,511.84 0,144.91 28.07,273.02 84.37,384.31 56.22,111.28 137.48,197.38 243.86,258.22 106.3,60.76 233.25,91.22 380.84,91.22 91.51,0 175.44,-13.43 251.8,-40.13 76.36,-26.77 141.09,-61.34 194.21,-103.63 53.05,-42.29 93.6,-87.4 121.68,-135.32 28,-47.92 42.07,-92.6 42.07,-134.02 0,-42.29 -15.8,-78.16 -47.27,-107.47 -31.54,-29.36 -69.71,-44.02 -114.53,-44.02 -29.37,0 -53.77,7.51 -73.18,22.59 -19.42,15.09 -41.21,39.4 -65.39,73.04 -43.16,65.46 -88.19,114.54 -135.25,147.3 -47.05,32.76 -106.81,49.14 -179.26,49.14 -104.51,0 -188.66,-40.7 -252.53,-122.11 -63.87,-81.4 -95.77,-192.76 -95.77,-334.07 0,-66.33 8.16,-127.24 24.61,-182.8 16.39,-55.58 40.13,-102.99 71.23,-142.18 31.03,-39.19 68.56,-68.93 112.59,-89.13 44.02,-20.29 92.31,-30.38 144.99,-30.38 70.72,0 131.35,16.31 181.87,49.07 50.51,32.76 95.19,82.7 134.02,149.89 21.57,39.63 44.89,70.66 69.93,93.03 24.97,22.37 55.64,33.63 91.87,33.63 43.16,0 78.96,-16.37 107.46,-49.14 28.44,-32.77 42.73,-67.63 42.73,-104.65 z"
                     style="fill:none;stroke:#fff;stroke-width:27.7134;stroke-linecap:butt;stroke-linejoin:miter;stroke-miterlimit:4;stroke-dasharray:none;stroke-opacity:1"
                     id="path56"/>
             <path
                     d="m 8348.52,3557.67 v -524.6 c 44.82,51.67 88.56,92.52 131.28,122.68 42.65,30.17 89.85,52.76 141.6,67.84 51.74,15.01 107.38,22.59 166.92,22.59 89.64,0 169.24,-18.98 238.67,-56.87 69.43,-37.88 123.92,-92.95 163.61,-165.27 24.9,-42.29 41.65,-89.56 50.3,-141.74 8.59,-52.25 12.92,-112.44 12.92,-180.64 v -677.03 c 0,-70.8 -16.16,-124.35 -48.42,-160.58 -32.26,-36.16 -75.06,-54.34 -128.39,-54.34 -116.2,0 -174.22,71.59 -174.22,214.92 v 596.84 c 0,113.02 -16.89,199.99 -50.52,260.9 -33.71,60.84 -97.57,91.3 -191.68,91.3 -63.01,0 -119.74,-17.98 -170.25,-53.77 -50.52,-35.8 -88.34,-84.8 -113.31,-146.94 -19.05,-52.69 -28.51,-146.29 -28.51,-280.96 v -467.37 c 0,-69.93 -15.66,-123.26 -46.98,-159.93 -31.32,-36.58 -74.77,-54.99 -130.48,-54.99 -115.77,0 -173.57,71.59 -173.57,214.92 v 1533.18 c 0,71.59 15.15,125.36 45.61,161.15 30.46,35.81 73.11,53.77 127.96,53.77 55.71,0 99.16,-18.18 130.48,-54.41 31.32,-36.31 46.98,-89.85 46.98,-160.65"
                     style="fill:#fff;fill-opacity:1;fill-rule:nonzero;stroke:none"
                     id="path58"/>
             <path
                     d="m 8348.52,3557.67 v -524.6 c 44.82,51.67 88.56,92.52 131.28,122.68 42.65,30.17 89.85,52.76 141.6,67.84 51.74,15.01 107.38,22.59 166.92,22.59 89.64,0 169.24,-18.98 238.67,-56.87 69.43,-37.88 123.92,-92.95 163.61,-165.27 24.9,-42.29 41.65,-89.56 50.3,-141.74 8.59,-52.25 12.92,-112.44 12.92,-180.64 v -677.03 c 0,-70.8 -16.16,-124.35 -48.42,-160.58 -32.26,-36.16 -75.06,-54.34 -128.39,-54.34 -116.2,0 -174.22,71.59 -174.22,214.92 v 596.84 c 0,113.02 -16.89,199.99 -50.52,260.9 -33.71,60.84 -97.57,91.3 -191.68,91.3 -63.01,0 -119.74,-17.98 -170.25,-53.77 -50.52,-35.8 -88.34,-84.8 -113.31,-146.94 -19.05,-52.69 -28.51,-146.29 -28.51,-280.96 v -467.37 c 0,-69.93 -15.66,-123.26 -46.98,-159.93 -31.32,-36.58 -74.77,-54.99 -130.48,-54.99 -115.77,0 -173.57,71.59 -173.57,214.92 v 1533.18 c 0,71.59 15.15,125.36 45.61,161.15 30.46,35.81 73.11,53.77 127.96,53.77 55.71,0 99.16,-18.18 130.48,-54.41 31.32,-36.31 46.98,-89.85 46.98,-160.65 z"
                     style="fill:none;stroke:#fff;stroke-width:27.7134;stroke-linecap:butt;stroke-linejoin:miter;stroke-miterlimit:4;stroke-dasharray:none;stroke-opacity:1"
                     id="path60"/>
             <path
                     d="M 3058.52,1398.91 V 289.059 h 625.25 c 49.85,0 88.13,-12.11 114.76,-36.2 26.64,-24.078 40.01,-54.359 40.01,-90.847 0,-37.18 -13.2,-67.3401 -39.48,-90.3831 -26.29,-23.0586 -64.74,-34.5703 -115.29,-34.5703 H 2939.4 c -66.99,0 -115.17,14.8711 -144.47,44.6406 -29.35,29.7618 -44.01,77.9418 -44.01,144.4728 V 1399.09 c 0,62.3 13.96,109.08 41.93,140.25 27.97,31.14 64.73,46.77 110.3,46.77 46.27,0 83.73,-15.46 112.4,-46.31 28.6,-30.87 42.97,-77.84 42.97,-140.89"
                     style="fill:#fff;fill-opacity:1;fill-rule:nonzero;stroke:none"
                     id="path62"/>
             <path
                     d="M 3058.52,1398.91 V 289.059 h 625.25 c 49.85,0 88.13,-12.11 114.76,-36.2 26.64,-24.078 40.01,-54.359 40.01,-90.847 0,-37.18 -13.2,-67.3401 -39.48,-90.3831 -26.29,-23.0586 -64.74,-34.5703 -115.29,-34.5703 H 2939.4 c -66.99,0 -115.17,14.8711 -144.47,44.6406 -29.35,29.7618 -44.01,77.9418 -44.01,144.4728 V 1399.09 c 0,62.3 13.96,109.08 41.93,140.25 27.97,31.14 64.73,46.77 110.3,46.77 46.27,0 83.73,-15.46 112.4,-46.31 28.6,-30.87 42.97,-77.84 42.97,-140.89 z"
                     style="fill:none;stroke:#fff;stroke-width:22.2354;stroke-linecap:butt;stroke-linejoin:miter;stroke-miterlimit:4;stroke-dasharray:none;stroke-opacity:1"
                     id="path64"/>
             <path
                     d="M 4741.12,170.531 C 4672.5,117.359 4606.14,77.5313 4542.04,50.9492 4477.94,24.4219 4406.08,11.1094 4326.41,11.1094 c -72.79,0 -136.72,14.4219 -191.78,43.1406 -55.13,28.7305 -97.57,67.691 -127.33,116.91 -29.82,49.219 -44.71,102.551 -44.71,160.11 0,77.589 24.61,143.769 73.95,198.55 49.28,54.719 116.97,91.442 203.07,110.192 17.95,4.168 62.59,13.5 133.88,28.09 71.27,14.527 132.36,27.859 183.2,40.019 50.84,12.09 106.08,26.789 165.61,44.18 -3.47,73.988 -18.59,128.359 -45.22,162.988 -26.69,34.633 -81.94,51.941 -165.73,51.941 -72.03,0 -126.29,-9.949 -162.65,-29.82 -36.37,-19.91 -67.58,-49.73 -93.51,-89.519 -26.01,-39.77 -44.36,-66.012 -55.07,-78.692 -10.77,-12.679 -33.76,-19 -69.08,-19 -31.91,0 -59.47,10.203 -82.63,30.703 -23.22,20.438 -34.81,46.61 -34.81,78.508 0,49.93 17.67,98.5 53.05,145.64 35.38,47.13 90.56,85.97 165.49,116.5 74.93,30.52 168.27,45.8 279.96,45.8 124.91,0 223.12,-14.77 294.56,-44.25 71.46,-29.47 121.9,-76.08 151.43,-139.889 29.47,-63.809 44.23,-148.461 44.23,-253.852 0,-66.589 -0.17,-123.16 -0.51,-169.597 -0.35,-46.5 -0.87,-98.153 -1.57,-155.012 0,-53.32 8.8,-108.918 26.46,-166.699 17.67,-57.852 26.52,-95.09 26.52,-111.641 0,-29.0897 -13.78,-55.6014 -41.22,-79.4608 -27.51,-23.8476 -58.66,-35.8398 -93.4,-35.8398 -29.3,0 -58.2,13.6719 -86.69,40.8828 -28.55,27.2187 -58.83,66.7578 -90.79,118.5388 z M 4722.3,581.82 c -41.57,-15.289 -101.91,-31.441 -181.12,-48.468 -79.22,-17.02 -134.06,-29.473 -164.51,-37.461 -30.46,-8 -59.53,-23.621 -87.21,-46.911 -27.68,-23.269 -41.52,-55.699 -41.52,-97.39 0,-43.078 16.22,-79.68 48.76,-109.899 32.54,-30.23 75.1,-45.281 127.68,-45.281 56.05,0 107.76,12.281 155.19,36.942 47.36,24.668 82.16,56.449 104.34,95.359 25.59,43.039 38.39,113.848 38.39,212.461 v 40.648"
                     style="fill:#fff;fill-opacity:1;fill-rule:nonzero;stroke:none"
                     id="path66"/>
             <path
                     d="M 4741.12,170.531 C 4672.5,117.359 4606.14,77.5313 4542.04,50.9492 4477.94,24.4219 4406.08,11.1094 4326.41,11.1094 c -72.79,0 -136.72,14.4219 -191.78,43.1406 -55.13,28.7305 -97.57,67.691 -127.33,116.91 -29.82,49.219 -44.71,102.551 -44.71,160.11 0,77.589 24.61,143.769 73.95,198.55 49.28,54.719 116.97,91.442 203.07,110.192 17.95,4.168 62.59,13.5 133.88,28.09 71.27,14.527 132.36,27.859 183.2,40.019 50.84,12.09 106.08,26.789 165.61,44.18 -3.47,73.988 -18.59,128.359 -45.22,162.988 -26.69,34.633 -81.94,51.941 -165.73,51.941 -72.03,0 -126.29,-9.949 -162.65,-29.82 -36.37,-19.91 -67.58,-49.73 -93.51,-89.519 -26.01,-39.77 -44.36,-66.012 -55.07,-78.692 -10.77,-12.679 -33.76,-19 -69.08,-19 -31.91,0 -59.47,10.203 -82.63,30.703 -23.22,20.438 -34.81,46.61 -34.81,78.508 0,49.93 17.67,98.5 53.05,145.64 35.38,47.13 90.56,85.97 165.49,116.5 74.93,30.52 168.27,45.8 279.96,45.8 124.91,0 223.12,-14.77 294.56,-44.25 71.46,-29.47 121.9,-76.08 151.43,-139.889 29.47,-63.809 44.23,-148.461 44.23,-253.852 0,-66.589 -0.17,-123.16 -0.51,-169.597 -0.35,-46.5 -0.87,-98.153 -1.57,-155.012 0,-53.32 8.8,-108.918 26.46,-166.699 17.67,-57.852 26.52,-95.09 26.52,-111.641 0,-29.0897 -13.78,-55.6014 -41.22,-79.4608 -27.51,-23.8476 -58.66,-35.8398 -93.4,-35.8398 -29.3,0 -58.2,13.6719 -86.69,40.8828 -28.55,27.2187 -58.83,66.7578 -90.79,118.5388 z M 4722.3,581.82 c -41.57,-15.289 -101.91,-31.441 -181.12,-48.468 -79.22,-17.02 -134.06,-29.473 -164.51,-37.461 -30.46,-8 -59.53,-23.621 -87.21,-46.911 -27.68,-23.269 -41.52,-55.699 -41.52,-97.39 0,-43.078 16.22,-79.68 48.76,-109.899 32.54,-30.23 75.1,-45.281 127.68,-45.281 56.05,0 107.76,12.281 155.19,36.942 47.36,24.668 82.16,56.449 104.34,95.359 25.59,43.039 38.39,113.848 38.39,212.461 z"
                     style="fill:none;stroke:#fff;stroke-width:22.2354;stroke-linecap:butt;stroke-linejoin:miter;stroke-miterlimit:4;stroke-dasharray:none;stroke-opacity:1"
                     id="path68"/>
             <path
                     d="M 5521.94,1424.1 V 991.09 c 53.39,55.77 107.76,98.43 163.23,128.09 55.48,29.64 124.09,44.46 205.91,44.46 94.27,0 176.9,-22.41 248.01,-67.11 71.05,-44.69 126.17,-109.55 165.31,-194.499 39.14,-84.941 58.78,-185.64 58.78,-302.152 0,-86.039 -10.94,-164.899 -32.77,-236.649 -21.84,-71.8 -53.57,-134.05 -95.15,-186.738 -41.57,-52.691 -92,-93.4607 -151.3,-122.242 -59.29,-28.7187 -124.61,-43.1406 -196.01,-43.1406 -43.66,0 -84.77,5.2226 -123.22,15.5195 -38.45,10.4297 -71.22,24.0313 -98.26,40.9414 -27.04,16.8985 -50.09,34.3907 -69.14,52.3517 -19.11,17.949 -44.24,44.859 -75.39,80.828 v -27.969 c 0,-53.211 -12.97,-93.449 -38.8,-120.7302 -25.88,-27.2695 -58.71,-40.9414 -98.55,-40.9414 -40.59,0 -72.96,13.7226 -97.05,41 -24.09,27.332 -36.13,67.6916 -36.13,121.0816 V 1411.59 c 0,57.44 11.7,100.93 35.09,130.35 23.4,29.41 56.11,44.17 98.09,44.17 44.01,0 77.94,-14.07 101.68,-42.09 23.74,-28.02 35.67,-68.03 35.67,-119.92 z m 13.49,-842.92 c 0,-113.028 25.77,-199.821 77.42,-260.45 51.59,-60.679 119.28,-90.96 203.13,-90.96 71.34,0 132.78,30.972 184.43,93.039 51.59,62.011 77.41,150.902 77.41,266.711 0,74.82 -10.76,139.32 -32.25,193.41 -21.48,54.082 -51.94,95.82 -91.43,125.3 -39.49,29.411 -85.53,44.18 -138.16,44.18 -54.09,0 -102.2,-14.769 -144.47,-44.18 -42.27,-29.48 -75.51,-72.101 -99.71,-127.91 -24.27,-55.828 -36.37,-122.191 -36.37,-199.14"
                     style="fill:#fff;fill-opacity:1;fill-rule:nonzero;stroke:none"
                     id="path70"/>
             <path
                     d="M 5521.94,1424.1 V 991.09 c 53.39,55.77 107.76,98.43 163.23,128.09 55.48,29.64 124.09,44.46 205.91,44.46 94.27,0 176.9,-22.41 248.01,-67.11 71.05,-44.69 126.17,-109.55 165.31,-194.499 39.14,-84.941 58.78,-185.64 58.78,-302.152 0,-86.039 -10.94,-164.899 -32.77,-236.649 -21.84,-71.8 -53.57,-134.05 -95.15,-186.738 -41.57,-52.691 -92,-93.4607 -151.3,-122.242 -59.29,-28.7187 -124.61,-43.1406 -196.01,-43.1406 -43.66,0 -84.77,5.2226 -123.22,15.5195 -38.45,10.4297 -71.22,24.0313 -98.26,40.9414 -27.04,16.8985 -50.09,34.3907 -69.14,52.3517 -19.11,17.949 -44.24,44.859 -75.39,80.828 v -27.969 c 0,-53.211 -12.97,-93.449 -38.8,-120.7302 -25.88,-27.2695 -58.71,-40.9414 -98.55,-40.9414 -40.59,0 -72.96,13.7226 -97.05,41 -24.09,27.332 -36.13,67.6916 -36.13,121.0816 V 1411.59 c 0,57.44 11.7,100.93 35.09,130.35 23.4,29.41 56.11,44.17 98.09,44.17 44.01,0 77.94,-14.07 101.68,-42.09 23.74,-28.02 35.67,-68.03 35.67,-119.92 z m 13.49,-842.92 c 0,-113.028 25.77,-199.821 77.42,-260.45 51.59,-60.679 119.28,-90.96 203.13,-90.96 71.34,0 132.78,30.972 184.43,93.039 51.59,62.011 77.41,150.902 77.41,266.711 0,74.82 -10.76,139.32 -32.25,193.41 -21.48,54.082 -51.94,95.82 -91.43,125.3 -39.49,29.411 -85.53,44.18 -138.16,44.18 -54.09,0 -102.2,-14.769 -144.47,-44.18 -42.27,-29.48 -75.51,-72.101 -99.71,-127.91 -24.27,-55.828 -36.37,-122.191 -36.37,-199.14 z"
                     style="fill:none;stroke:#fff;stroke-width:22.2354;stroke-linecap:butt;stroke-linejoin:miter;stroke-miterlimit:4;stroke-dasharray:none;stroke-opacity:1"
                     id="path72"/>
             <path
                     d="m 7505.99,382.742 c 0,-78.402 -19.05,-145.562 -57.15,-201.441 -38.1,-55.891 -94.33,-98.2112 -168.8,-126.9885 -74.46,-28.7812 -164.96,-43.2031 -271.63,-43.2031 -101.79,0 -189.05,15.6406 -261.78,46.7929 -72.73,31.2071 -126.35,70.2267 -160.98,117.0197 -34.62,46.797 -51.93,93.808 -51.93,141.008 0,31.14 11.11,57.84 33.4,80.082 22.24,22.168 50.44,33.301 84.54,33.301 29.88,0 52.87,-7.313 68.85,-21.782 15.98,-14.468 31.33,-34.859 45.98,-61.039 28.9,-50.371 63.46,-88 103.76,-112.851 40.25,-24.84 95.14,-37.231 164.69,-37.231 56.45,0 102.78,12.563 138.91,37.75 36.13,25.199 54.2,54.02 54.2,86.461 0,49.668 -18.76,85.859 -56.23,108.692 -37.52,22.738 -99.19,44.457 -185.12,65.187 -97.68,24.199 -177.19,49.621 -238.45,76.262 -61.32,26.629 -110.31,61.73 -147.02,105.277 -36.71,43.543 -55.06,97.152 -55.06,160.793 0,56.75 16.9,110.309 50.83,160.809 33.93,50.479 83.97,90.729 150.09,120.839 66.13,30.11 145.92,45.16 239.38,45.16 73.36,0 139.32,-7.64 197.8,-22.92 58.48,-15.29 107.24,-35.73 146.38,-61.44 39.15,-25.72 68.91,-54.14 89.35,-85.35 20.39,-31.27 30.63,-61.789 30.63,-91.61 0,-32.648 -10.94,-59.351 -32.83,-80.199 -21.89,-20.84 -52.98,-31.211 -93.28,-31.211 -29.25,0 -54.09,8.352 -74.58,25.02 -20.51,16.679 -43.96,41.699 -70.36,75.05 -21.31,27.559 -46.44,49.672 -75.33,66.239 -28.9,16.562 -68.1,24.832 -117.55,24.832 -50.9,0 -93.17,-10.879 -126.87,-32.59 -33.7,-21.781 -50.55,-48.871 -50.55,-81.301 0,-29.648 12.34,-53.969 37.12,-72.961 24.78,-19 58.14,-34.738 100.06,-47.129 41.92,-12.398 99.71,-27.57 173.3,-45.519 88.14,-21.422 160.11,-46.949 215.99,-76.61 55.88,-29.64 98.21,-64.671 127.04,-105.031 28.78,-40.359 43.2,-86.398 43.2,-138.168"
                     style="fill:#fff;fill-opacity:1;fill-rule:nonzero;stroke:none"
                     id="path74"/>
             <path
                     d="m 7505.99,382.742 c 0,-78.402 -19.05,-145.562 -57.15,-201.441 -38.1,-55.891 -94.33,-98.2112 -168.8,-126.9885 -74.46,-28.7812 -164.96,-43.2031 -271.63,-43.2031 -101.79,0 -189.05,15.6406 -261.78,46.7929 -72.73,31.2071 -126.35,70.2267 -160.98,117.0197 -34.62,46.797 -51.93,93.808 -51.93,141.008 0,31.14 11.11,57.84 33.4,80.082 22.24,22.168 50.44,33.301 84.54,33.301 29.88,0 52.87,-7.313 68.85,-21.782 15.98,-14.468 31.33,-34.859 45.98,-61.039 28.9,-50.371 63.46,-88 103.76,-112.851 40.25,-24.84 95.14,-37.231 164.69,-37.231 56.45,0 102.78,12.563 138.91,37.75 36.13,25.199 54.2,54.02 54.2,86.461 0,49.668 -18.76,85.859 -56.23,108.692 -37.52,22.738 -99.19,44.457 -185.12,65.187 -97.68,24.199 -177.19,49.621 -238.45,76.262 -61.32,26.629 -110.31,61.73 -147.02,105.277 -36.71,43.543 -55.06,97.152 -55.06,160.793 0,56.75 16.9,110.309 50.83,160.809 33.93,50.479 83.97,90.729 150.09,120.839 66.13,30.11 145.92,45.16 239.38,45.16 73.36,0 139.32,-7.64 197.8,-22.92 58.48,-15.29 107.24,-35.73 146.38,-61.44 39.15,-25.72 68.91,-54.14 89.35,-85.35 20.39,-31.27 30.63,-61.789 30.63,-91.61 0,-32.648 -10.94,-59.351 -32.83,-80.199 -21.89,-20.84 -52.98,-31.211 -93.28,-31.211 -29.25,0 -54.09,8.352 -74.58,25.02 -20.51,16.679 -43.96,41.699 -70.36,75.05 -21.31,27.559 -46.44,49.672 -75.33,66.239 -28.9,16.562 -68.1,24.832 -117.55,24.832 -50.9,0 -93.17,-10.879 -126.87,-32.59 -33.7,-21.781 -50.55,-48.871 -50.55,-81.301 0,-29.648 12.34,-53.969 37.12,-72.961 24.78,-19 58.14,-34.738 100.06,-47.129 41.92,-12.398 99.71,-27.57 173.3,-45.519 88.14,-21.422 160.11,-46.949 215.99,-76.61 55.88,-29.64 98.21,-64.671 127.04,-105.031 28.78,-40.359 43.2,-86.398 43.2,-138.168 z"
                     style="fill:none;stroke:#fff;stroke-width:22.2354;stroke-linecap:butt;stroke-linejoin:miter;stroke-miterlimit:4;stroke-dasharray:none;stroke-opacity:1"
                     id="path76"/>
             <path
                     d="m 4943.54,8196.87 228.87,158.75 18.57,-277.91 266.81,-79.95 -205.69,-187.8 103.84,-258.45 -275.09,43.73 -137.31,-242.33 -137.31,242.33 -275.08,-43.73 103.85,258.45 -205.71,187.8 266.81,79.95 18.57,277.91 228.87,-158.75"
                     style="fill:#ffffff;fill-opacity:1;fill-rule:nonzero;stroke:none"
                     id="path78"/>
             <path
                     d="m 6378.93,7106.81 200.09,106.91 -11.1,-226.59 208.32,-89.76 -184.06,-132.59 59.7,-218.86 -218.43,61.25 -133.88,-183.14 -88.31,208.96 -226.64,-9.51 108.3,199.33 -148.74,171.28 223.36,39.58 41.17,223.09 170.22,-149.95"
                     style="fill:#ffffff;fill-opacity:1;fill-rule:nonzero;stroke:none"
                     id="path80"/>
             <path
                     d="m 6332.98,8297.65 120.24,22 -42.91,-114.45 92.17,-80.28 -116.24,-37.82 -5.3,-122.11 -102.02,67.29 -98.8,-71.99 -10.99,121.74 -117.87,32.33 88.32,84.51 -48.22,112.32 121.14,-16.36 57.75,107.72 62.73,-104.9"
                     style="fill:#ffffff;fill-opacity:1;fill-rule:nonzero;stroke:none"
                     id="path82"/>
             <path
                     d="m 5723.39,6219.81 147.61,57.64 -26.42,-156.24 137.1,-79.46 -138.62,-76.77 23.36,-156.72 -146.45,60.5 -107.97,-115.97 -44.01,152.23 -157.97,12.1 91.57,129.32 -89.05,131.07 158.21,9.02 46.96,151.34 105.68,-118.06"
                     style="fill:#ffffff;fill-opacity:1;fill-rule:nonzero;stroke:none"
                     id="path84"/>
             <path
                     d="m 5807.94,5960.14 c 2.47,-1.14 249.83,-115.51 485.97,-340.33 312.4,-297.41 458.71,-637.56 434.87,-1011 l 99.81,-6.37 c 25.51,399.62 -136.32,777.21 -467.99,1091.95 -248.21,235.56 -500.57,351.9 -511.19,356.74 l -41.47,-90.99"
                     style="fill:#ffffff;fill-opacity:1;fill-rule:nonzero;stroke:none"
                     id="path86"/>
             <path
                     d="m 6535.02,6751.58 c 3.01,-1.62 305.49,-166.61 604.76,-512.99 274.99,-318.28 603.86,-860 608.91,-1633.29 l 100,0.65 c -5.27,805.61 -348.75,1369.77 -635.97,1701.17 -311.2,359.08 -617.51,525.65 -630.39,532.56 l -47.31,-88.1"
                     style="fill:#ffffff;fill-opacity:1;fill-rule:nonzero;stroke:none"
                     id="path88"/>
             <path
                     d="m 5248.34,7895.62 0.7,-100 c 726.48,5.09 1316.65,-232.89 1683.81,-433.42 398.99,-217.92 628.62,-440.12 630.89,-442.34 l 1.41,-1.37 1.53,-1.28 c 485.01,-404.18 720.68,-1007.07 832.96,-1441.66 122.48,-474.02 129,-856.78 129.05,-860.59 l 100,1.31 c -0.22,15.97 -6.53,396.59 -131.59,881.84 -115.7,448.93 -359.58,1072.14 -864.12,1493.9 -13.66,13.31 -242.87,233.89 -649.04,456.22 -378.12,206.99 -986.19,452.63 -1735.6,447.39"
                     style="fill:#ffffff;fill-opacity:1;fill-rule:nonzero;stroke:none"
                     id="path90"/>
             <path
                     d="M 6411.7,8108.6 C 7465.37,7728.11 8202.41,6823.37 8209.73,6814.28 l 1.09,-1.35 1.18,-1.27 c 379.37,-409.73 567.58,-981.28 658.67,-1388.6 99.31,-444.07 107.95,-795.01 108.03,-798.51 l 99.98,2.14 c -0.32,14.59 -8.77,362.68 -109.94,816.07 -93.58,419.34 -287.8,1008.3 -681.54,1434.75 -10.41,12.91 -193.57,238.34 -510.67,514.57 -295.19,257.13 -765.69,606.48 -1330.86,810.57 l -33.97,-94.05"
                     style="fill:#ffffff;fill-opacity:1;fill-rule:nonzero;stroke:none"
                     id="path92"/>
             <path
                     d="m 1753.68,1272.89 81.2,99.63 43.74,-120.84 128.52,-1.39 -67.21,-109.55 79.07,-101.33 -127.57,-15.75 -29.93,-124.988 -91.85,89.898 -116.38,-54.539 13.02,127.859 -115.2,57 108.09,69.56 -27.27,125.59 121.77,-41.15"
                     style="fill:#263e6c;fill-opacity:1;fill-rule:evenodd;stroke:none"
                     id="path94"/>
             <path
                     d="m 649.434,4042.27 20.929,93.36 69.336,-65.92 86.055,41.83 -8.32,-95.32 86.375,-41.18 -79.715,-52.93 21.64,-93.2 -91.074,29.32 -59.367,-75.05 -33.867,89.5 -95.684,-0.38 48.848,82.29 -59.942,74.57 94.786,13.11"
                     style="fill:#263e6c;fill-opacity:1;fill-rule:evenodd;stroke:none"
                     id="path96"/>
             <path
                     d="m 2111.29,2696.74 -20.25,93.51 90.63,-30.68 60.49,74.13 32.52,-89.99 95.69,-1.07 -50.09,-81.53 58.81,-75.49 -94.97,-11.66 -22.33,-93.04 -68.35,66.97 -86.66,-40.55 9.74,95.2 -85.72,42.47 80.49,51.73"
                     style="fill:#263e6c;fill-opacity:1;fill-rule:evenodd;stroke:none"
                     id="path98"/>
             <path
                     d="M 149.082,3606.05 C 256.797,3219.16 418.578,2838.79 629.941,2475.5 893.883,2021.84 1236.31,1593.7 1647.7,1203 l 61.98,65.25 C 1305.31,1652.28 968.742,2072.77 709.32,2518.03 501.855,2874.11 342.949,3246.82 237.016,3625.77 56.5547,4271.36 93.1172,4717.22 93.5078,4721.65 l -89.64452,7.98 C 2.19922,4711.02 -34.7617,4266.38 149.082,3606.05"
                     style="fill:#263e6c;fill-opacity:1;fill-rule:evenodd;stroke:none"
                     id="path100"/>
             <path
                     d="m 513.781,4722.63 c 4.172,-62.59 42.903,-614.83 116.938,-731.17 l 75.926,48.32 c -46.485,73.05 -87.883,461.28 -103.059,688.84 l -89.805,-5.99"
                     style="fill:#263e6c;fill-opacity:1;fill-rule:evenodd;stroke:none"
                     id="path102"/>
             <path
                     d="m 1403.69,4735.62 c 0,-12.45 1.03,-309.6 91.08,-712.32 83.26,-372.35 261.9,-906.64 640.1,-1337.36 l 67.63,59.37 c -365.1,415.82 -538.35,933.95 -619.39,1295.38 -88.24,393.49 -89.42,691.98 -89.42,694.95 l -90,-0.02"
                     style="fill:#263e6c;fill-opacity:1;fill-rule:evenodd;stroke:none"
                     id="path104"/>
                     </g>
                     </g>
                     </g>
                     </g>
                     </svg>
