<svg width="114" height="43" viewBox="0 0 114 43" fill="none" xmlns="http://www.w3.org/2000/svg">
<path d="M113.125 13.9374C112.893 12.3396 112.442 10.8046 111.741 9.34466C109.887 5.49129 106.949 2.80332 102.971 1.25571C100.897 0.453702 98.73 0.115356 96.5125 0.115356C70.2154 0.115356 43.9183 0.115356 17.6212 0.115356C17.333 0.115356 17.0449 0.121622 16.7504 0.140419C14.0067 0.284529 11.3758 0.892297 8.89513 2.07651C6.84047 3.05395 5.04265 4.376 3.55803 6.11159C1.89176 8.0602 0.845637 10.3033 0.325708 12.8033C0.23801 13.2356 0.175368 13.6742 0.100197 14.1254C37.8044 14.1254 75.471 14.1254 113.144 14.1254C113.138 14.0502 113.138 13.9938 113.125 13.9374ZM50.2639 12.1705C49.8003 12.1705 49.3431 12.1642 48.8795 12.1767C48.7354 12.1767 48.654 12.1266 48.5851 12.0076C48.0526 11.1116 47.5202 10.2219 46.9815 9.33213C46.8938 9.18802 46.7873 9.05018 46.6745 8.9186C46.3989 8.59278 46.0544 8.42988 45.6221 8.44241C45.4342 8.44867 45.2525 8.44241 45.0333 8.44241C45.0333 9.25694 45.0333 10.0214 45.0333 10.792C45.0333 11.193 45.0396 11.5878 45.027 11.9888C45.027 12.0514 44.9456 12.1705 44.8955 12.1705C44.4507 12.183 44.006 12.1767 43.5424 12.1767C43.5424 9.08777 43.5424 6.0176 43.5424 2.9349C43.58 2.92863 43.6176 2.9161 43.6489 2.9161C44.6637 2.9161 45.6848 2.89104 46.6996 2.92863C47.6267 2.96623 48.4285 3.29204 48.9421 4.13164C49.7189 5.40983 49.2178 7.14542 47.8898 7.82211C47.8271 7.85344 47.7645 7.88477 47.7206 7.90983C48.773 9.23188 49.5372 10.7294 50.4957 12.1517C50.3829 12.1579 50.3203 12.1705 50.2639 12.1705ZM59.8105 12.1705C59.4535 12.1705 59.1027 12.1329 58.7581 12.1767C58.3197 12.2331 58.0941 12.0452 57.8686 11.688C56.5782 9.65168 55.2627 7.62787 53.9535 5.60407C53.9159 5.54768 53.8721 5.49129 53.7844 5.44116C53.7844 5.52261 53.7844 5.5978 53.7844 5.67926C53.7844 7.74692 53.7781 9.81459 53.7906 11.8823C53.7906 12.1078 53.728 12.1767 53.5025 12.1642C53.1078 12.1454 52.7069 12.1579 52.281 12.1579C52.281 9.05644 52.281 5.99254 52.281 2.89731C52.8322 2.89731 53.3647 2.89104 53.9034 2.90357C53.9598 2.90357 54.0349 2.97876 54.0725 3.04142C55.1688 4.74567 56.2587 6.4562 57.3487 8.16672C57.6557 8.64918 57.9626 9.12537 58.3134 9.59529C58.3134 7.37725 58.3134 5.15921 58.3134 2.92237C58.8271 2.92237 59.3157 2.92237 59.8168 2.92237C59.8105 6.00507 59.8105 9.06897 59.8105 12.1705ZM69.9335 11.2745C69.9335 11.3622 69.8771 11.5 69.8082 11.5376C68.3612 12.3208 66.8327 12.5589 65.2479 12.089C64.0577 11.7381 63.1995 10.9361 62.7297 9.78952C62.1095 8.27324 62.1158 6.73189 62.8675 5.25946C63.6192 3.78703 64.8657 2.95996 66.5132 2.79079C67.5531 2.68427 68.5742 2.79079 69.5514 3.20432C69.6954 3.26698 69.7706 3.34217 69.7643 3.51134C69.7518 4.00633 69.7581 4.49505 69.7581 5.03389C69.6015 4.93991 69.4762 4.86472 69.3572 4.78953C68.4175 4.22562 67.3965 4.06272 66.3253 4.23816C65.0913 4.44492 64.1266 5.51008 63.9324 6.876C63.8008 7.80331 63.8635 8.71183 64.3458 9.5389C64.8469 10.4036 65.63 10.8171 66.6072 10.886C67.1772 10.9236 67.7347 10.8735 68.2672 10.6479C68.3361 10.6166 68.4238 10.5351 68.4238 10.4787C68.4363 9.83965 68.4301 9.19429 68.4301 8.5176C67.7786 8.5176 67.1647 8.5176 66.5258 8.5176C66.5258 8.04141 66.5258 7.58401 66.5258 7.10782C67.6533 7.10782 68.7871 7.10782 69.9272 7.10782C69.9335 7.17675 69.9397 7.2394 69.9397 7.29579C69.9397 8.63038 69.946 9.95243 69.9335 11.2745Z" fill="white"/>
<path d="M0 28.8998C0.062642 29.4011 0.112756 29.8772 0.181662 30.3534C0.457287 32.2895 1.00227 34.1316 1.98575 35.8296C3.56433 38.5489 5.91967 40.3221 8.83252 41.406C11.2693 42.3146 13.8126 42.6842 16.3871 42.6842C43.699 42.703 71.0172 42.6968 98.3291 42.6968C99.0996 42.6968 99.8764 42.6592 100.647 42.6153C101.806 42.5401 102.946 42.3396 104.055 41.995C105.984 41.3998 107.682 40.4223 109.116 39C110.563 37.5652 111.565 35.8609 112.248 33.9562C112.837 32.3334 113.119 30.6479 113.269 28.8998C75.5149 28.8998 37.7731 28.8998 0 28.8998ZM31.3586 39.9524C30.018 40.4411 28.6587 40.5477 27.3244 40.0151C25.9338 39.4637 25.1695 38.3609 24.9503 36.901C24.7498 35.5665 24.9503 34.3008 25.8022 33.2106C26.6041 32.1767 27.6878 31.6316 28.9844 31.5376C29.8426 31.475 30.6883 31.5251 31.5027 31.8447C31.6467 31.901 31.7094 31.97 31.7031 32.1329C31.6906 32.5777 31.6968 33.0163 31.6968 33.5051C31.559 33.4361 31.4651 33.386 31.3711 33.3359C30.5756 32.9098 29.7299 32.7782 28.8466 32.9098C27.5061 33.1103 26.5351 34.1755 26.4412 35.5602C26.4099 35.9988 26.4224 36.4562 26.5038 36.8885C26.7481 38.1354 27.7504 38.9499 29.0283 39.0063C29.8928 39.0439 30.7134 38.8935 31.4525 38.4236C31.5089 38.386 31.5778 38.3609 31.6593 38.3171C31.6718 38.3923 31.6843 38.4487 31.6843 38.5051C31.6843 38.8121 31.6593 39.1191 31.6906 39.4198C31.7344 39.7081 31.6217 39.8522 31.3586 39.9524ZM39.0949 40.203C37.4474 40.203 35.8124 40.203 34.1587 40.203C34.1587 37.3522 34.1587 34.5201 34.1587 31.663C35.7498 31.663 37.3346 31.663 38.9257 31.663C38.9257 32.1078 38.9257 32.5339 38.9257 32.985C37.8295 32.985 36.7458 32.985 35.6433 32.985C35.6433 33.7244 35.6433 34.4386 35.6433 35.1843C36.6518 35.1843 37.6604 35.1843 38.6877 35.1843C38.6877 35.6103 38.694 36.0113 38.6752 36.4061C38.6752 36.4499 38.5374 36.5251 38.4559 36.5251C37.6103 36.5314 36.7646 36.5314 35.9189 36.5314C35.8312 36.5314 35.7498 36.5314 35.637 36.5314C35.637 37.3083 35.637 38.0665 35.637 38.8559C36.7771 38.8559 37.9235 38.8559 39.0886 38.8559C39.0949 39.3196 39.0949 39.7519 39.0949 40.203ZM48.0276 40.2156C47.5766 40.2156 47.1193 40.2093 46.6683 40.2218C46.5242 40.2218 46.4428 40.178 46.3676 40.0527C45.9103 39.3071 45.4405 38.5677 44.9769 37.8221C44.8955 37.6905 44.8015 37.5652 44.7138 37.4336C44.2879 36.7945 43.6677 36.7005 42.9536 36.8071C42.9536 37.9349 42.9536 39.0564 42.9536 40.203C42.4587 40.203 41.9827 40.203 41.4941 40.203C41.4941 37.3584 41.4941 34.5201 41.4941 31.6755C41.5442 31.6692 41.5943 31.6504 41.6381 31.6567C42.6216 31.663 43.6114 31.6379 44.5948 31.6818C45.4405 31.7193 46.1985 31.995 46.6933 32.7406C47.4764 33.9186 47.0379 35.5289 45.7725 36.1805C45.7036 36.2181 45.6347 36.2494 45.5658 36.287C46.5806 37.5025 47.3135 38.8935 48.2469 40.203C48.1404 40.203 48.084 40.2156 48.0276 40.2156ZM55.388 32.9975C54.58 32.9975 53.7907 32.9975 52.9638 32.9975C52.9638 33.1166 52.9638 33.2106 52.9638 33.2983C52.9638 35.5163 52.9638 37.7281 52.9701 39.9462C52.9701 40.1592 52.92 40.2344 52.7007 40.2218C52.3061 40.203 51.9052 40.2156 51.4792 40.2156C51.4792 37.8033 51.4792 35.4098 51.4792 32.9913C50.6586 32.9913 49.863 32.9913 49.0549 32.9913C49.0549 32.5339 49.0549 32.1078 49.0549 31.663C51.166 31.663 53.2645 31.663 55.3818 31.663C55.388 32.1016 55.388 32.5339 55.388 32.9975ZM59.8294 40.1968C58.7269 40.1968 57.6181 40.1968 56.5031 40.1968C56.5031 39.7832 56.5031 39.376 56.5031 38.9499C56.8163 38.9499 57.117 38.9499 57.4364 38.9499C57.4364 36.9324 57.4364 34.9399 57.4364 32.9098C57.1671 32.9098 56.9102 32.9161 56.6534 32.9036C56.597 32.8973 56.4968 32.8158 56.4968 32.772C56.4843 32.4086 56.4905 32.0389 56.4905 31.6567C57.6118 31.6567 58.7081 31.6567 59.8294 31.6567C59.8294 32.0702 59.8294 32.4775 59.8294 32.9098C59.5412 32.9098 59.2656 32.9098 58.9649 32.9098C58.9586 33.0101 58.9461 33.0853 58.9461 33.1604C58.9461 35.0088 58.9524 36.8572 58.9398 38.6993C58.9398 38.9186 59.0088 38.9687 59.2092 38.9562C59.4097 38.9374 59.6101 38.9499 59.8294 38.9499C59.8294 39.3697 59.8294 39.777 59.8294 40.1968ZM66.6636 32.985C65.5736 32.985 64.4837 32.985 63.3812 32.985C63.3812 33.7682 63.3812 34.5138 63.3812 35.2908C64.3897 35.2908 65.392 35.2908 66.413 35.2908C66.413 35.7482 66.413 36.1742 66.413 36.6316C65.4045 36.6316 64.4022 36.6316 63.3686 36.6316C63.3686 37.8346 63.3686 39 63.3686 40.1905C62.8738 40.1905 62.3977 40.1905 61.9091 40.1905C61.9091 37.3459 61.9091 34.5076 61.9091 31.6567C63.4939 31.6567 65.0662 31.6567 66.6636 31.6567C66.6636 32.0953 66.6636 32.5213 66.6636 32.985ZM71.4682 40.1968C70.3657 40.1968 69.2632 40.1968 68.1294 40.1968C68.1294 39.7832 68.1294 39.3822 68.1294 38.9499C68.4176 38.9499 68.6995 38.9499 68.9876 38.9499C68.9876 36.9261 68.9876 34.9399 68.9876 32.9161C68.6619 32.9161 68.3361 32.9161 67.9916 32.9161C67.9916 32.4838 67.9916 32.0828 67.9916 31.6567C69.1317 31.6567 70.2655 31.6567 71.4244 31.6567C71.4244 32.0577 71.4244 32.465 71.4244 32.9098C71.1738 32.9098 70.9233 32.9161 70.679 32.9098C70.5223 32.9036 70.4722 32.9599 70.4785 33.1103C70.4848 34.99 70.4848 36.8634 70.4785 38.7431C70.4785 38.9123 70.5474 38.9562 70.704 38.9499C70.9546 38.9374 71.2051 38.9499 71.4745 38.9499C71.4682 39.3634 71.4682 39.7707 71.4682 40.1968ZM78.3902 40.203C78.3025 40.2093 78.2273 40.2156 78.1459 40.2156C76.6613 40.2156 75.1704 40.2093 73.6858 40.2218C73.4853 40.2218 73.4164 40.178 73.4164 39.9649C73.4227 37.2707 73.4227 34.5765 73.4227 31.8885C73.4227 31.8196 73.4289 31.7507 73.4352 31.6692C75.0263 31.6692 76.6049 31.6692 78.196 31.6692C78.196 32.1016 78.196 32.5276 78.196 32.985C77.1123 32.985 76.0348 32.985 74.9323 32.985C74.9323 33.7306 74.9323 34.4449 74.9323 35.1905C75.9346 35.1905 76.9369 35.1905 77.9579 35.1905C77.9579 35.6479 77.9579 36.074 77.9579 36.5314C76.9431 36.5314 75.9409 36.5314 74.9261 36.5314C74.9261 37.3208 74.9261 38.079 74.9261 38.8622C76.0787 38.8622 77.225 38.8622 78.3902 38.8622C78.3902 39.3321 78.3902 39.7582 78.3902 40.203ZM87.4795 38.1103C86.7654 39.2883 85.688 39.9274 84.3474 40.1216C83.6897 40.2156 83.0194 40.203 82.3554 40.2218C81.8355 40.2344 81.3093 40.2218 80.7706 40.2218C80.7706 37.3584 80.7706 34.5201 80.7706 31.6755C80.8082 31.6692 80.8332 31.6504 80.8645 31.6567C82.061 31.6818 83.2575 31.6692 84.4539 31.7381C85.2683 31.782 86.0325 32.0577 86.6902 32.5652C87.4921 33.1792 87.8742 34.0251 87.9995 35.0025C88.1435 36.0865 88.0684 37.1454 87.4795 38.1103Z" fill="white"/>
<path d="M75.1766 16.4687C75.1766 19.8146 75.1766 23.1291 75.1766 26.4562C75.6965 26.4562 76.2039 26.4562 76.7238 26.4562C76.7301 26.2995 76.7364 26.1617 76.7426 26.0176C76.9744 26.1554 77.1749 26.2995 77.3878 26.3935C78.8662 27.0451 80.6765 26.3747 81.3844 24.9148C81.8542 23.9499 81.9356 22.9286 81.7477 21.8885C81.5911 21.0051 81.184 20.2595 80.3884 19.7895C79.311 19.1504 77.8577 19.2757 76.893 20.0777C76.8554 20.1091 76.8115 20.1404 76.7238 20.2031C76.7238 18.9249 76.7238 17.6905 76.7238 16.4625C76.1914 16.4687 75.6965 16.4687 75.1766 16.4687ZM76.9431 21.7381C77.5006 20.5915 79.1418 20.391 79.8622 21.3935C79.9938 21.5752 80.094 21.7945 80.1378 22.0076C80.332 22.8785 80.3007 23.7369 79.8183 24.5201C79.4237 25.1592 78.6845 25.4098 77.9266 25.2156C77.25 25.0401 76.774 24.4324 76.7364 23.6993C76.7238 23.5051 76.7364 23.3108 76.7364 23.1103C76.7301 22.6467 76.7301 22.183 76.9431 21.7381Z" fill="white"/>
<path d="M53.8346 26.4624C54.3671 26.4624 54.8745 26.4624 55.4069 26.4624C55.4069 26.3559 55.4069 26.2619 55.4069 26.1742C55.4069 25.2093 55.4069 24.2506 55.4069 23.2857C55.4069 22.7531 55.4195 22.2206 55.3756 21.688C55.3004 20.8484 55.006 20.1153 54.2167 19.683C53.3147 19.188 51.9303 19.3321 51.1347 19.9837C51.0721 20.0339 51.0094 20.084 50.9155 20.1654C50.9155 18.8998 50.9155 17.6968 50.9155 16.4562C50.4645 16.4562 50.0385 16.4687 49.6188 16.4499C49.3933 16.4374 49.3494 16.5188 49.3494 16.7256C49.3557 19.8897 49.3557 23.0539 49.3557 26.218C49.3557 26.2995 49.362 26.381 49.3682 26.4561C49.9007 26.4561 50.4018 26.4561 50.9155 26.4561C50.9155 26.2055 50.9155 25.98 50.9155 25.7544C50.9155 24.708 50.9155 23.6554 50.9155 22.609C50.9155 22.0013 51.1034 21.4687 51.592 21.0739C52.4565 20.3785 53.6154 20.7983 53.7908 21.8822C53.8283 22.0952 53.8409 22.3208 53.8409 22.5338C53.8471 23.7556 53.8409 24.9774 53.8409 26.1992C53.8346 26.287 53.8346 26.3684 53.8346 26.4624Z" fill="white"/>
<path d="M41.7132 23.5113C41.7383 22.678 41.7634 21.8823 41.4501 21.1178C41.2121 20.5414 40.8488 20.0777 40.2975 19.7707C38.8442 18.9687 36.9211 19.4324 36.0128 20.8234C35.2235 22.0264 35.2047 23.3359 35.6495 24.6517C36.0066 25.7043 36.7896 26.3309 37.8796 26.5502C38.5248 26.6817 39.1762 26.6692 39.8089 26.5063C40.2412 26.3935 40.6546 26.193 41.068 26.0176C41.1432 25.9863 41.2434 25.8923 41.2497 25.8233C41.2622 25.3346 41.256 24.8459 41.256 24.3008C41.1056 24.4136 41.0117 24.5013 40.8989 24.564C40.5043 24.7707 40.1284 25.0151 39.7087 25.1529C39.0886 25.3472 38.4559 25.3346 37.8608 25.0151C37.3471 24.7394 36.9525 24.0251 37.0402 23.5051C38.5937 23.5113 40.1409 23.5113 41.7132 23.5113ZM38.863 20.7607C39.5897 20.8108 40.1159 21.3873 40.0971 22.1329C39.0948 22.1329 38.0925 22.1329 37.0903 22.1329C37.1905 21.3183 37.9923 20.7043 38.863 20.7607Z" fill="white"/>
<path d="M73.4853 26.4623C73.4916 26.3809 73.4979 26.312 73.4979 26.243C73.4979 24.8395 73.4979 23.4423 73.4979 22.0388C73.4979 21.8257 73.4791 21.6127 73.454 21.4059C73.3037 20.2969 72.6271 19.614 71.5184 19.4511C70.5474 19.307 69.6203 19.4636 68.7308 19.8897C68.4489 20.0212 68.3174 20.1841 68.3487 20.5162C68.3863 20.8671 68.355 21.218 68.355 21.5751C68.355 21.644 68.3675 21.7067 68.3675 21.7756C68.4051 21.7694 68.4239 21.7694 68.4301 21.7568C68.5178 21.6879 68.5993 21.619 68.687 21.5501C69.3134 21.03 70.0212 20.7418 70.8418 20.7606C71.5246 20.7731 71.9318 21.2242 71.888 21.9385C71.8003 21.9511 71.7126 21.9761 71.6186 21.9887C71.1175 22.0576 70.6101 22.1202 70.1089 22.1892C69.6329 22.2518 69.1693 22.3709 68.7496 22.609C67.3715 23.3922 67.3151 25.4786 68.6556 26.2932C69.5138 26.8195 70.8857 26.738 71.7 26.1115C71.7627 26.0613 71.8253 26.0112 71.9318 25.9298C71.9318 26.1428 71.9318 26.2994 71.9318 26.4686C72.4643 26.4623 72.9654 26.4623 73.4853 26.4623ZM69.9335 25.2217C69.5452 25.1278 69.3196 24.8458 69.3009 24.4761C69.2758 24.0062 69.4199 23.7305 69.8584 23.6177C70.3971 23.4799 70.9609 23.411 71.5121 23.317C71.6374 23.2919 71.7689 23.2856 71.9005 23.2669C72.1323 24.5889 71.1049 25.5037 69.9335 25.2217Z" fill="white"/>
<path d="M32.173 18.4237C32.2795 18.4237 32.3672 18.4237 32.4487 18.4237C33.1816 18.4237 33.9208 18.4237 34.6537 18.4175C34.7226 18.4175 34.8541 18.3485 34.8541 18.3047C34.8666 17.8723 34.8604 17.4337 34.8604 16.9889C32.5113 16.9889 30.1873 16.9889 27.8633 16.9889C27.8633 17.4713 27.8633 17.935 27.8633 18.4237C28.7591 18.4237 29.6423 18.4237 30.5694 18.4237C30.5694 21.1305 30.5694 23.7934 30.5694 26.4814C31.0267 26.4814 31.4589 26.4688 31.8849 26.4876C32.1041 26.4939 32.1605 26.4312 32.1605 26.2119C32.1543 23.7245 32.1542 21.2307 32.1542 18.7433C32.1542 18.643 32.1668 18.5428 32.173 18.4237Z" fill="white"/>
<path d="M85.8009 25.1279C85.6818 25.1843 85.5503 25.2157 85.4187 25.2345C84.6357 25.3472 83.9091 25.1781 83.2513 24.7395C83.1135 24.6517 82.982 24.5515 82.794 24.4199C82.794 25.0026 82.7878 25.5352 82.8003 26.0615C82.8003 26.1179 82.888 26.1868 82.9444 26.2182C83.4455 26.4751 83.9905 26.5878 84.548 26.6129C85.3498 26.6505 86.1266 26.544 86.8282 26.1116C88.0059 25.3848 88.0372 23.6994 86.9409 22.9976C86.6403 22.8034 86.3145 22.653 85.9825 22.5026C85.6067 22.3335 85.212 22.1956 84.8362 22.0264C84.6295 21.9324 84.4478 21.7946 84.4039 21.5377C84.3476 21.1994 84.5292 20.9299 84.9364 20.8234C85.6818 20.6292 86.3772 20.7796 87.0349 21.1618C87.1539 21.2307 87.2667 21.2996 87.4233 21.3936C87.4233 20.8485 87.4295 20.3472 87.417 19.8522C87.417 19.7959 87.3356 19.7207 87.2792 19.6956C86.089 19.257 84.8988 19.2194 83.7713 19.871C82.5247 20.5916 82.4683 22.2645 83.6397 23.0477C83.8527 23.1918 84.0907 23.3046 84.3225 23.4049C84.6921 23.5678 85.0805 23.6994 85.4501 23.8623C85.6255 23.9375 85.8009 24.0377 85.9449 24.163C86.2707 24.47 86.1955 24.9462 85.8009 25.1279Z" fill="white"/>
<path d="M61.9092 16.9824C61.9092 20.1465 61.9092 23.2982 61.9092 26.4749C62.0157 26.4749 62.1034 26.4749 62.1973 26.4749C63.4251 26.4749 64.6529 26.4749 65.887 26.4749C66.2754 26.4749 66.67 26.4811 67.0584 26.4686C67.1273 26.4686 67.2463 26.3934 67.2463 26.3495C67.2588 25.9235 67.2526 25.4911 67.2526 25.0275C65.9747 25.0275 64.7406 25.0275 63.4752 25.0275C63.4752 22.3333 63.4752 19.6578 63.4752 16.9886C62.9365 16.9824 62.4291 16.9824 61.9092 16.9824Z" fill="white"/>
<path d="M47.4388 21.0677C47.6455 21.1805 47.8334 21.3121 48.084 21.4687C48.084 20.9111 48.0903 20.4036 48.0777 19.896C48.0777 19.8397 47.9963 19.7582 47.9337 19.7457C47.5515 19.6329 47.1757 19.4825 46.781 19.4387C44.3881 19.1755 42.797 20.579 42.5778 22.6028C42.4713 23.5991 42.6091 24.5389 43.2355 25.366C44.4758 27.0076 46.8124 26.8259 47.9462 26.1554C48.0088 26.1179 48.0589 26.0113 48.0652 25.9299C48.0777 25.5915 48.0715 25.2595 48.0715 24.9211C48.0715 24.7958 48.0715 24.6705 48.0715 24.4888C47.9462 24.5765 47.8773 24.6329 47.8084 24.6767C47.514 24.8397 47.2321 25.0339 46.9251 25.1529C46.0168 25.485 45.0145 25.1968 44.5259 24.4825C43.9809 23.693 44.0311 22.2833 44.6199 21.5314C45.2588 20.7043 46.4365 20.5101 47.4388 21.0677Z" fill="white"/>
<path d="M25.6895 26.4876C26.0278 26.4688 26.3598 26.4813 26.698 26.4813C26.7795 26.4813 26.8609 26.4688 26.9423 26.4625C26.9423 24.0502 26.9423 21.6693 26.9423 19.2758C26.4287 19.2758 25.9338 19.2758 25.3951 19.2758C25.3951 19.3886 25.3951 19.4826 25.3951 19.5766C25.3951 20.8046 25.3951 22.0327 25.3951 23.2608C25.3951 24.2382 25.4076 25.2156 25.3888 26.1931C25.3763 26.4437 25.4577 26.4938 25.6895 26.4876Z" fill="white"/>
<path d="M26.9987 16.9262C26.4537 16.9262 25.9212 16.9262 25.37 16.9262C25.37 17.4275 25.37 17.9099 25.37 18.4049C25.9212 18.4049 26.4537 18.4049 26.9987 18.4049C26.9987 17.9037 26.9987 17.4212 26.9987 16.9262Z" fill="white"/>
<path d="M47.7019 5.29071C47.6017 4.73306 47.1569 4.38218 46.4741 4.33832C46.067 4.31326 45.6598 4.33206 45.2526 4.31953C45.0772 4.31326 45.0208 4.36965 45.0271 4.54509C45.0334 5.22805 45.0334 5.90474 45.0334 6.5877C45.0334 6.71928 45.0334 6.85085 45.0334 7.01376C45.4844 7.01376 45.8978 7.02003 46.3113 7.01376C47.2509 6.9887 47.871 6.21176 47.7019 5.29071Z" fill="white"/>
<path d="M84.742 33.1856C84.2722 33.0665 83.771 33.0352 83.2824 32.9976C82.9442 32.9726 82.5996 32.9914 82.2551 32.9914C82.2551 34.965 82.2551 36.9011 82.2551 38.8936C82.8815 38.8623 83.4766 38.8811 84.0592 38.7996C85.2306 38.6304 86.0825 38.0415 86.4083 36.8447C86.5774 36.2182 86.5712 35.5728 86.4333 34.94C86.2266 34.0127 85.6503 33.4174 84.742 33.1856Z" fill="white"/>
<path d="M44.7139 33.0851C44.1376 33.0037 43.5551 32.9974 42.96 32.9536C42.96 33.8119 42.96 34.6077 42.96 35.4222C43.411 35.4222 43.837 35.4347 44.2567 35.4159C44.5761 35.4034 44.8705 35.2969 45.1148 35.0838C45.497 34.7518 45.5909 34.3257 45.5032 33.8495C45.4218 33.4235 45.1274 33.1478 44.7139 33.0851Z" fill="white"/>
</svg>
