<svg width="131" height="70" viewBox="0 0 131 70" fill="none" xmlns="http://www.w3.org/2000/svg">
<g clip-path="url(#clip0)">
<path d="M129.894 52.0465C129.639 51.2296 129.234 50.4451 128.687 49.7093C128.39 49.3143 128.076 48.9356 127.751 48.584C127.34 48.1403 126.896 47.7616 126.426 47.4532C126.707 46.7228 126.869 46.0087 126.913 45.2945C127.026 43.4551 126.317 41.7022 124.943 40.3821C125.1 40.2576 125.246 40.1278 125.392 39.9871C126.729 38.6724 127.297 36.7626 126.88 34.934C126.312 32.4074 125.733 29.8538 125.16 27.338C125.019 26.5589 124.803 25.8123 124.521 25.1036C124.981 24.4273 125.36 23.6807 125.641 22.8692C126.058 21.6897 126.263 20.4075 126.253 19.055C126.225 14.8242 124.862 11.3346 122.314 8.95949C119.327 6.17864 115.535 5.09659 112.218 4.40408C108.199 3.5655 104.698 3.06235 101.512 2.86758C101.403 2.86217 101.295 2.85676 101.182 2.85676C100.787 2.85676 100.397 2.90004 100.013 2.9866C99.9696 2.97578 99.9263 2.95955 99.8831 2.94873C95.6469 1.78553 91.3836 1.35272 87.2664 0.93613L86.7741 0.887438C86.3846 0.849566 85.995 0.827925 85.6055 0.827925C84.491 0.827925 83.3981 0.990232 82.3756 1.30944C81.6181 0.833336 80.7417 0.541183 79.8166 0.481671C77.1169 0.319364 74.3793 0.189519 71.6796 0.102955C71.6201 0.102955 71.5605 0.0975452 71.5064 0.0975452C70.4731 0.0975452 69.483 0.389697 68.6336 0.919899C67.7517 0.324775 66.7022 -0.00524902 65.6201 -0.00524902C65.447 -0.00524902 65.2739 -0.00524902 65.1007 -0.00524902C62.7527 -0.00524902 60.3776 0.0218021 58.0404 0.0813145C56.4444 0.119186 55.0215 0.849566 54.0531 1.97489C53.6311 1.73684 53.1982 1.52584 52.76 1.34731C50.953 0.622337 48.9188 0.270672 46.5437 0.270672C45.7051 0.270672 44.8232 0.313954 43.7682 0.405928C40.2516 0.7089 37.4274 1.47715 35.1173 2.75937C33.992 3.38696 32.9586 4.2039 32.0443 5.19939C31.9307 5.11823 31.817 5.03708 31.7034 4.95592C29.9289 3.7765 27.7431 3.17596 25.2058 3.17596C23.3446 3.17596 21.6296 3.48434 20.25 3.7278L20.1201 3.74945C16.122 4.46901 12.654 5.313 9.52152 6.34094C7.31415 7.06591 5.81552 9.11098 5.79387 11.4374L5.60452 33.1432L5.58829 35.1179C5.57206 36.7734 6.31867 38.3424 7.6063 39.3812C7.63876 39.4082 7.67663 39.4353 7.70909 39.4623C7.5522 39.7274 7.40071 39.9925 7.24922 40.263C5.77764 42.8599 4.49001 45.5542 3.40797 48.2539C2.44495 50.6723 1.57931 53.3233 0.83811 56.1312L0.82188 56.1853L0.811059 56.2394C0.654163 56.8995 0.508087 57.4459 0.389062 57.8625C0.0860894 58.9337 -0.0383457 59.9238 0.00493605 60.8922C0.0698587 62.2123 0.481036 63.4837 1.18977 64.5766C1.72539 65.4043 2.46659 66.1618 3.44584 66.8922C3.93276 67.2763 4.49542 67.6279 5.14465 67.9526C5.53418 68.1257 5.8588 68.2772 6.14554 68.4124C6.34031 68.4936 6.53508 68.5747 6.74066 68.6505C6.74066 68.6505 6.74607 68.6505 6.74607 68.6559C7.17348 68.8182 7.61712 68.9751 8.07158 69.1158C8.1906 69.1428 8.35832 69.1753 8.56391 69.2077C10.8524 69.7974 14.5314 70.3601 17.3663 68.8182C17.3663 68.8182 17.3718 68.8182 17.3718 68.8128C18.048 68.5206 18.7351 68.1744 19.433 67.7524C20.3095 67.2925 21.186 66.7623 21.965 66.2213C23.0254 65.4855 24.0209 64.701 24.919 63.8895C25.3248 63.527 25.763 63.1266 26.2175 62.71C26.2878 62.802 26.3635 62.894 26.4393 62.986C27.1697 63.8354 28.0894 64.5441 29.2526 65.1555C30.0858 65.5937 31.0001 65.9562 31.9685 66.2375C32.872 66.4972 33.8297 66.692 34.8143 66.811C35.4148 66.8813 36.01 66.9192 36.5835 66.9192C37.0812 66.9192 37.5843 66.8922 38.0659 66.8381L38.8557 66.7515L39.5861 66.4377C41.4472 65.6424 42.9729 64.5495 44.2227 63.4675C44.5689 63.6785 44.926 63.8732 45.2939 64.0626C46.2299 64.5333 47.1983 64.9228 48.1559 65.215C49.173 65.5234 50.1631 65.6803 51.0937 65.6803C51.3588 65.6803 51.6185 65.6694 51.8673 65.6424C52.2731 65.6045 53.1117 65.518 54.0422 65.0797L54.7456 64.7443L55.0485 64.4738C55.2271 64.3493 55.3948 64.2087 55.5571 64.068L55.6653 63.9706L55.7681 63.8678C56.439 63.2024 57.1369 62.4828 57.8781 61.6875C58.5219 62.2826 59.2523 62.8074 60.0584 63.2619C61.1459 63.8787 62.3632 64.3602 63.667 64.701C64.9601 65.0364 66.2802 65.2096 67.584 65.2096H67.5894C68.6228 65.2096 69.6399 65.096 70.6246 64.8741C71.8419 64.5982 72.9726 64.1113 73.9897 63.435C74.2981 63.2403 74.6227 63.013 74.9636 62.7533L81.1042 65.242C81.1962 65.2799 81.2935 65.3232 81.3801 65.3557C82.0293 65.6208 83.014 65.9616 84.2583 65.9616C85.3404 65.9616 86.39 65.7019 87.3368 65.2096L87.8507 65.0364L88.6406 64.3223C88.7326 64.2466 88.8192 64.1654 88.9057 64.0843C89.6091 64.609 90.3773 65.096 91.1942 65.5342C92.0382 65.9886 92.9417 66.3944 93.8723 66.7353C94.9435 67.1302 95.9985 67.4007 97.0156 67.536L97.8272 67.6442L98.6333 67.5089C100.5 67.1951 102.08 66.508 103.394 65.729C103.8 66.0914 104.227 66.4485 104.677 66.7894C105.537 67.4386 106.419 68.0175 107.295 68.5044C108.485 69.1644 109.638 69.581 110.714 69.7433C111.039 69.792 111.396 69.8353 111.823 69.8353C112.262 69.8353 112.694 69.7866 113.111 69.6892L114.047 69.4728L114.491 69.1861C114.696 69.0833 114.891 68.9697 115.086 68.8452L115.237 68.7479L115.378 68.6397C116.492 67.7957 117.515 66.9408 118.548 66.0698C119.587 65.1879 120.707 64.252 121.832 63.3214C122.476 62.7912 123.131 62.2556 123.758 61.7308C124.229 61.3413 124.7 60.9517 125.17 60.5622C125.944 59.9238 126.842 59.1934 127.735 58.555C129.06 57.6407 129.921 56.2178 130.121 54.5947C130.245 53.7561 130.164 52.9013 129.894 52.0465ZM21.0669 9.07852C20.4718 9.18672 19.8767 9.29492 19.2816 9.41395C19.8767 9.30033 20.4772 9.18672 21.0669 9.07852C21.3429 9.02982 21.635 8.97572 21.938 8.92703C21.635 8.98113 21.3483 9.02982 21.0669 9.07852ZM50.742 6.3734C50.3687 6.22192 49.9846 6.10289 49.5896 6.00551C49.9792 6.10289 50.3633 6.22192 50.742 6.3734C51.0342 6.49243 51.3155 6.63309 51.586 6.80081C51.3155 6.6385 51.0342 6.49243 50.742 6.3734ZM74.1953 19.4391C74.0384 19.1307 73.8382 18.8277 73.5894 18.5194C73.8382 18.8277 74.0384 19.1361 74.1953 19.4391C74.5091 20.0288 74.8283 20.6131 75.1421 21.2028C74.8229 20.6185 74.5091 20.0288 74.1953 19.4391ZM88.4296 12.5302C88.4945 12.4815 88.5649 12.4383 88.6406 12.4004C88.5649 12.4329 88.4945 12.4761 88.4296 12.5302ZM108.891 14.5212C109.465 14.6294 109.897 14.716 110.487 14.8296C109.897 14.7106 109.465 14.6294 108.891 14.5212ZM116.092 23.7132C116.092 23.6807 116.092 23.6537 116.092 23.6104C116.092 23.6537 116.092 23.6807 116.092 23.7132ZM120.842 18.9197C120.815 17.5131 120.577 16.0307 119.955 14.743C120.583 16.0252 120.821 17.5131 120.842 18.9197ZM118.954 35.4858C119.841 35.6968 120.723 35.9078 121.605 36.1242C120.723 35.9078 119.836 35.6914 118.954 35.4858Z" fill="url(#paint0_linear)"/>
<path d="M22.2198 26.5539C21.5489 26.6675 20.7969 26.7919 20.0016 26.8893L19.98 29.0967C20.64 29.0101 21.2947 28.9073 21.9439 28.7937C24.2811 28.3933 27.0349 27.7387 28.75 25.9804C29.6156 25.0877 30.1079 23.9407 30.3784 22.7343C30.2324 22.9236 30.0755 23.1021 29.9077 23.2699C27.8897 25.3474 24.8925 26.094 22.2198 26.5539Z" fill="#5B6169"/>
<path d="M11.0205 36.4713C11.0205 36.4875 11.0205 36.4983 11.0205 36.5146L12.7139 38.6192C14.5804 38.208 16.447 37.813 18.3189 37.4343C18.3243 36.7039 18.3297 35.9736 18.3406 35.2432C16.0142 35.7139 13.6715 36.217 11.3614 36.7418L11.0205 36.4713Z" fill="#5B6169"/>
<path d="M51.2831 30.3618C49.0703 31.4979 46.5491 31.8442 44.1524 32.0498C43.1028 32.1417 42.2426 32.1796 41.4473 32.1796C39.7322 32.1796 38.2931 31.9794 37.0433 31.5737C35.7503 31.1517 34.5709 30.2644 33.6836 29.0904C33.8134 29.5989 33.9812 30.0967 34.1813 30.5782C34.8035 32.0389 36.0046 33.3699 37.5411 33.873C39.5591 34.5331 41.9342 34.4519 44.0063 34.2734C46.192 34.084 48.5455 33.781 50.5364 32.7585C52.0838 31.9632 53.3335 30.5078 53.9773 28.8794C54.1397 28.4736 54.2749 28.057 54.3939 27.635C53.577 28.7874 52.5004 29.7396 51.2831 30.3618Z" fill="#5B6169"/>
<path d="M71.3124 30.8172L69.9057 29.9082C69.9057 29.9082 69.9057 29.9082 69.9057 29.9028L69.8408 29.9353C70.3494 30.9686 70.8579 32.002 71.3665 33.0354C74.1203 33.1273 76.8741 33.2572 79.6225 33.4249C79.2167 32.662 78.811 31.8992 78.4052 31.1364C76.0409 31.0011 73.6604 30.8929 71.3124 30.8172Z" fill="#5B6169"/>
<path d="M64.885 30.7148C62.5965 30.7148 60.281 30.7419 57.9979 30.796L57.9762 30.7798C57.9708 31.5264 57.9654 32.273 57.9546 33.0196C60.4379 32.9601 62.9157 32.933 65.3936 32.9384C65.399 32.1918 65.4044 31.4452 65.4152 30.6986L65.3936 30.7202C65.2259 30.7148 65.0581 30.7148 64.885 30.7148Z" fill="#5B6169"/>
<path d="M89.4958 32.1962C88.3055 32.0718 87.072 31.942 85.8763 31.8392C83.9232 31.666 82.1487 30.8437 80.8773 29.5236C80.8232 29.4641 80.7691 29.41 80.715 29.3505L80.6284 29.4803C80.8286 30.5083 81.3047 31.4713 82.0459 32.2395C83.0901 33.327 84.5292 33.9329 86.017 34.0628C90.0638 34.4198 94.1756 34.9987 98.2657 35.0637C98.2225 34.3225 98.1846 33.5813 98.1413 32.8455C95.236 32.7914 92.3199 32.4884 89.4958 32.1962Z" fill="#5B6169"/>
<path d="M100.998 33.593C100.992 34.3234 100.987 35.0538 100.976 35.7895C103.389 36.1737 105.797 36.5902 108.199 37.0339C108.204 36.1953 108.215 35.3621 108.22 34.529L107.901 34.7887C105.618 34.3667 103.297 33.9609 100.998 33.593Z" fill="#5B6169"/>
<path d="M121.086 37.667C118.619 37.061 116.114 36.4767 113.631 35.9411L113.501 35.8113C113.658 36.6066 113.815 37.4019 113.972 38.1972C116.525 38.749 119.063 39.3387 121.6 39.9663C121.432 39.1981 121.259 38.4352 121.086 37.667Z" fill="#5B6169"/>
<path d="M29.9996 20.1413C29.7128 20.8771 29.3071 21.5588 28.7498 22.1323C27.0348 23.8906 24.281 24.5452 21.9437 24.9456C20.7697 25.1458 19.5849 25.3243 18.3892 25.4163C18.3676 28.1376 18.3405 30.859 18.3189 33.5857C15.8843 34.0726 13.4551 34.5974 11.0313 35.1493C11.0259 35.5875 11.0259 36.0257 11.0205 36.4694L11.3614 36.7399C13.6715 36.2151 16.0141 35.7119 18.3405 35.2412C18.3568 33.2503 18.373 31.2539 18.3946 29.2629C18.9248 29.2251 19.455 29.1656 19.9852 29.0952L20.0069 26.8878C20.8022 26.7905 21.5542 26.666 22.2251 26.5524C24.8977 26.0925 27.895 25.3459 29.9184 23.2684C30.0807 23.1007 30.2376 22.9221 30.3891 22.7328C30.5893 21.8455 30.6758 20.9204 30.7029 20.0493L29.9996 20.1413Z" fill="#361141"/>
<path d="M54.3514 23.9766C54.2432 24.3391 54.1241 24.6908 53.9835 25.0425C53.3397 26.6709 52.0899 28.1263 50.5426 28.9216C48.5516 29.9441 46.1982 30.2525 44.0124 30.4365C43.1901 30.5068 42.319 30.5609 41.448 30.5609C40.1171 30.5609 38.7645 30.431 37.5472 30.0361C36.0107 29.5329 34.8043 28.1966 34.1875 26.7413C33.522 25.1723 33.2786 23.4194 33.1974 21.6881C33.1758 22.1804 33.1704 22.6728 33.165 23.1597C33.1487 25.0857 33.1866 27.1741 33.6897 29.1001C34.577 30.2741 35.7565 31.1614 37.0495 31.5834C38.2993 31.9892 39.7384 32.1894 41.4534 32.1894C42.2487 32.1894 43.1089 32.1461 44.1585 32.0595C46.5552 31.8539 49.0764 31.5077 51.2892 30.3715C52.5065 29.7439 53.5831 28.7972 54.4055 27.6448C54.7193 26.5357 54.9086 25.3779 55.0168 24.2201L54.3514 23.9766Z" fill="#361141"/>
<path d="M72.4102 29.231L70.5924 29.588L69.9053 29.9072C69.9053 29.9072 69.9053 29.9072 69.9053 29.9126L71.3119 30.8216C73.66 30.8973 76.0405 31.0055 78.4047 31.1408C78.1072 30.5835 77.8096 30.0209 77.512 29.4636C75.8078 29.3662 74.109 29.2905 72.4102 29.231Z" fill="#361141"/>
<path d="M65.4097 28.203C65.4097 28.5006 65.4043 28.7927 65.4043 29.0903C65.2312 29.0903 65.0634 29.0903 64.8903 29.0903C62.591 29.0903 60.297 29.1173 57.9977 29.1714C57.9923 29.707 57.9869 30.2427 57.9814 30.7783L58.0031 30.7945C60.2862 30.7404 62.6072 30.7133 64.8903 30.7133C65.0634 30.7133 65.2312 30.7133 65.3989 30.7133L65.4205 30.6917C65.4259 29.8693 65.4367 29.0524 65.4422 28.2301L65.4097 28.203Z" fill="#361141"/>
<path d="M86.0172 30.2214C84.5294 30.0915 83.0903 29.4802 82.0461 28.3981C81.846 28.1871 81.662 27.9653 81.4997 27.7273L80.5259 27.6461C80.5259 27.7056 80.5259 27.7706 80.5259 27.8301C80.7044 28.1601 80.8775 28.4901 81.0561 28.8201L80.7152 29.3449C80.7693 29.4044 80.8234 29.464 80.8775 29.5181C82.1489 30.8436 83.9235 31.6659 85.8766 31.8336C87.0722 31.9364 88.3057 32.0663 89.496 32.1907C92.3201 32.4829 95.2416 32.7858 98.1415 32.84C98.109 32.2989 98.082 31.7579 98.0495 31.2115C94.0352 31.1357 89.9937 30.5731 86.0172 30.2214Z" fill="#361141"/>
<path d="M108.221 30.8427C108.215 31.6271 108.204 32.4062 108.199 33.1907C105.808 32.7471 103.411 32.3359 101.009 31.9517C101.003 32.4982 100.998 33.0446 100.993 33.591C103.292 33.9589 105.613 34.3647 107.896 34.7867L108.215 34.527C108.226 33.2989 108.237 32.0762 108.248 30.8481L108.221 30.8427Z" fill="#361141"/>
<path d="M121.086 37.665C120.951 37.0753 120.821 36.4856 120.686 35.8959C118.457 35.3548 116.222 34.8409 113.977 34.3539C113.836 33.6506 113.701 32.9473 113.56 32.244L112.76 32.033C113.009 33.2935 113.258 34.5541 113.506 35.8093L113.636 35.9391C116.109 36.4802 118.619 37.0591 121.086 37.665Z" fill="#361141"/>
<path d="M50.7425 6.37329C49.4278 5.8485 47.9779 5.68079 46.5388 5.68079C45.7543 5.68079 44.9752 5.72948 44.2286 5.7944C42.0753 5.97835 39.6894 6.40576 37.7417 7.4878C36.1674 8.36426 34.9771 9.95486 34.3171 11.605C33.3486 14.0234 33.1809 16.7609 33.1593 19.3146C33.1376 21.7492 33.208 24.4434 34.1818 26.7374C34.804 28.1981 36.0051 29.5291 37.5416 30.0322C38.7589 30.4326 40.106 30.557 41.4423 30.557C42.3188 30.557 43.1898 30.5029 44.0068 30.4326C46.1925 30.2432 48.546 29.9402 50.5369 28.9177C52.0842 28.1224 53.334 26.667 53.9778 25.0386C54.9192 22.6527 55.1194 19.9421 55.141 17.4264C55.1627 14.9539 55.022 12.2542 54.1077 9.90617C53.5125 8.35344 52.279 6.99006 50.7425 6.37329Z" fill="white"/>
<path d="M73.0919 17.9728C72.6049 17.4859 72.1884 17.1667 71.8475 17.0206C71.8475 16.9665 71.8475 16.9395 71.8475 16.8854C72.6753 16.5662 73.3786 15.8953 73.9575 14.8673C75.7916 11.8701 77.6364 8.87282 79.4867 5.88638C76.8249 5.72407 74.1685 5.59964 71.5013 5.51307C69.8241 8.47247 68.1523 11.4427 66.486 14.4075C65.9666 14.4021 65.7015 14.4021 65.1821 14.4021C65.4202 13.4661 65.5446 12.4598 65.55 11.3832C65.5662 9.3922 65.5825 7.40124 65.6041 5.41028C65.4364 5.41028 65.2633 5.41028 65.0955 5.41028C62.7854 5.41028 60.4752 5.43733 58.1651 5.49143C58.0947 13.3849 58.0298 21.2785 57.9595 29.172C60.2696 29.1179 62.5798 29.0908 64.8846 29.0908C65.0577 29.0908 65.2254 29.0908 65.3985 29.0908C65.4202 26.5156 65.4418 23.9457 65.4634 21.3704C65.4689 20.732 65.3823 20.0071 65.2092 19.2063C65.7015 19.2063 65.9504 19.2118 66.4427 19.2118C68.0874 22.5336 69.7267 25.8609 71.3606 29.1936C74.1144 29.2856 76.8682 29.4154 79.6166 29.5832C77.815 26.1964 76.008 22.815 74.1901 19.439C73.9467 18.9521 73.5788 18.4597 73.0919 17.9728Z" fill="white"/>
<path d="M89.3445 24.8501C88.9117 24.8068 88.5709 24.6554 88.322 24.4011C88.0731 24.1468 87.9487 23.8384 87.9541 23.4705C87.9649 22.329 87.9704 21.7609 87.9812 20.6247C90.9189 20.9277 93.8513 21.2794 96.7782 21.6743C96.7944 20.0296 96.8052 18.3795 96.8215 16.7348C93.8945 16.3399 90.9622 15.9882 88.0245 15.6852C88.0299 14.7655 88.0353 14.3056 88.0461 13.3859C88.0515 13.018 88.1759 12.7366 88.4302 12.5311C88.6358 12.3633 88.9009 12.2822 89.2309 12.2822C89.3067 12.2822 89.3824 12.2876 89.4582 12.293C92.3364 12.6068 95.2092 12.9639 98.082 13.3696C98.2119 11.6384 98.3417 9.90169 98.4662 8.17042C94.4897 7.08297 90.2967 6.68802 86.2283 6.27685C86.0227 6.25521 85.8117 6.24438 85.6061 6.24438C84.3834 6.24438 83.1661 6.61769 82.2301 7.43463C81.1427 8.38683 80.6287 9.79349 80.6395 11.2164C80.6016 15.6095 80.5638 20.0026 80.5259 24.3957C80.4989 25.8781 81.0182 27.328 82.0516 28.4046C83.0958 29.4921 84.5349 30.098 86.0227 30.2279C90.0695 30.585 94.1813 31.1639 98.2714 31.2288C98.174 29.4596 98.0766 27.6959 97.9792 25.9268C95.101 25.5264 92.2282 25.1639 89.3445 24.8501Z" fill="white"/>
<path d="M119.858 28.4042C119.496 26.2618 118.165 24.5359 116.093 23.8163C116.093 23.7352 116.093 23.6919 116.093 23.6107C116.336 23.6378 116.574 23.654 116.801 23.654C119.388 23.654 120.865 21.7875 120.848 19.0824C120.832 16.8913 120.318 14.4783 118.63 12.9093C116.601 11.0158 113.728 10.2367 111.115 9.69026C107.891 9.01939 104.526 8.46214 101.188 8.26196C101.117 16.1555 101.052 24.049 100.982 31.9425C103.395 32.3266 105.802 32.7432 108.205 33.1868C108.232 30.3032 108.253 27.4195 108.28 24.5413C109.189 24.7144 109.638 24.801 110.547 24.9795C111.175 25.104 111.635 25.3041 111.911 25.5801C112.192 25.856 112.392 26.3267 112.522 26.9975C113.009 29.4484 113.49 31.8992 113.977 34.3554C116.531 34.9073 119.068 35.497 121.606 36.1246C121.021 33.5493 120.443 30.9795 119.858 28.4042ZM112.971 19.737C112.782 19.8669 112.495 19.9318 112.105 19.9318C111.765 19.9318 111.348 19.8831 110.856 19.7857C109.844 19.5855 109.335 19.4828 108.318 19.2934C108.334 17.6703 108.345 16.0473 108.361 14.4188C109.379 14.6081 109.882 14.7109 110.899 14.9111C111.959 15.1221 112.657 15.4305 113.003 15.8254C113.35 16.2204 113.517 16.9075 113.507 17.8921C113.501 18.8768 113.323 19.4882 112.971 19.737Z" fill="white"/>
<path d="M28.7067 9.463C27.7112 8.80296 26.4777 8.58655 25.2063 8.58655C23.7726 8.58655 22.2956 8.86247 21.0674 9.07888C17.7834 9.66318 14.4237 10.426 11.2046 11.481C11.1343 19.3745 11.0694 27.268 10.999 35.1615C13.4336 34.6097 15.8736 34.0849 18.3191 33.5926C18.3407 30.8712 18.3677 28.1499 18.3894 25.4231C19.585 25.3366 20.7699 25.158 21.9439 24.9525C24.2811 24.5521 27.0349 23.8975 28.75 22.1391C30.4217 20.4241 30.6922 17.7515 30.7085 15.5441C30.7247 13.5748 30.5894 10.7182 28.7067 9.463ZM22.8095 19.0066C22.4687 19.434 21.7978 19.737 20.8078 19.921C19.861 20.0995 19.3849 20.1915 18.4381 20.3754C18.4543 18.5197 18.4705 16.6694 18.4868 14.8137C19.4336 14.6243 19.9097 14.5378 20.8565 14.3592C21.2189 14.2889 21.5381 14.2565 21.8141 14.2565C22.2902 14.2565 22.6364 14.3592 22.8474 14.5594C23.1828 14.8786 23.3452 15.5982 23.3343 16.7181C23.3289 17.8218 23.1504 18.5846 22.8095 19.0066Z" fill="white"/>
<path d="M53.3123 10.1008C53.0634 9.45701 52.6738 8.84566 52.1977 8.3371C51.7108 7.82313 51.1428 7.42277 50.5422 7.18472C49.5143 6.77354 48.2753 6.57336 46.7442 6.57336C46.095 6.57336 45.3917 6.60583 44.5261 6.68157C41.9454 6.90339 39.9652 7.41195 38.472 8.23971C37.2331 8.92681 36.1564 10.2307 35.5234 11.8105C34.6091 14.099 34.463 16.7933 34.4468 19.1251C34.4252 21.392 34.4793 23.9889 35.3828 26.1151C35.6479 26.7373 36.032 27.3162 36.4919 27.7868C36.968 28.2684 37.5198 28.6254 38.0825 28.8094C39.0563 29.1286 40.2195 29.2801 41.6478 29.2801C42.3674 29.2801 43.1519 29.2422 44.1203 29.1556C46.2411 28.9717 48.4539 28.6795 50.2501 27.7544C51.5269 27.0997 52.6197 25.8608 53.177 24.4379C54.1076 22.0791 54.2482 19.3361 54.2645 17.2099C54.2915 15.0999 54.1995 12.3785 53.3123 10.1008Z" fill="url(#paint1_linear)"/>
<path d="M65.4205 17.9245C65.9129 17.9245 66.1563 17.9299 66.6595 17.9299C67.0653 17.9353 67.4386 18.168 67.6171 18.5304C69.1536 21.6305 70.7117 24.7901 72.2537 27.9334C74.1472 27.9983 76.0625 28.0849 77.9614 28.1931C76.4574 25.369 74.9425 22.5394 73.4439 19.7586C73.4385 19.7477 73.4331 19.7423 73.4277 19.7315C73.2329 19.342 72.9299 18.9416 72.5296 18.5413C72.0048 18.0165 71.718 17.8596 71.6207 17.8163C71.2203 17.6432 70.966 17.2482 70.9714 16.8154V16.7451V16.6747C70.9768 16.2311 71.2528 15.8362 71.6639 15.6738C72.2428 15.452 72.7676 14.9326 73.2167 14.1319C73.2221 14.1211 73.2275 14.1103 73.2383 14.0995C74.7478 11.6324 76.2843 9.13289 77.8154 6.655C75.9867 6.55762 74.1472 6.47647 72.3294 6.41154C70.7604 9.17617 69.1861 11.9733 67.6387 14.7325C67.4494 15.0733 67.0869 15.2843 66.6974 15.2843C66.6919 15.2843 66.6919 15.2843 66.6865 15.2843C66.178 15.2789 65.9237 15.2789 65.3881 15.2789C65.0526 15.2789 64.7389 15.122 64.5387 14.8623C64.3331 14.5972 64.2628 14.2564 64.3439 13.9318C64.5603 13.0824 64.6739 12.1518 64.6793 11.1671C64.6902 9.86327 64.701 8.5594 64.7118 7.25554L64.7226 6.28711C62.9697 6.29252 61.2006 6.30875 59.4477 6.34662C59.3827 13.5206 59.3232 20.6891 59.2583 27.8631C61.0112 27.8306 62.7804 27.809 64.5333 27.8036L64.5441 26.3049L64.5874 21.1544C64.5928 20.5971 64.517 19.9533 64.3547 19.2338C64.2844 18.9146 64.3656 18.5791 64.5711 18.3249C64.7821 18.0706 65.0905 17.9245 65.4205 17.9245Z" fill="url(#paint2_linear)"/>
<path d="M87.1478 15.4737L87.1586 14.3267L87.1694 13.1798C87.1748 12.4873 87.4453 11.903 87.9593 11.4918C88.3597 11.1672 88.8574 11.0049 89.4363 11.0049C89.5445 11.0049 89.6635 11.0103 89.7771 11.0211C89.7771 11.0211 89.7771 11.0211 89.7825 11.0211C92.2767 11.2916 94.7978 11.6 97.2974 11.9408L97.4218 10.242L97.53 8.79208C94.0566 7.93727 90.3831 7.56396 86.8232 7.20148L86.3254 7.15278C86.1523 7.13655 85.9846 7.12573 85.8114 7.12573C84.7727 7.12573 83.8313 7.45576 83.1496 8.05088C82.3651 8.73798 81.9215 9.81461 81.9269 11.0157C81.9269 11.0211 81.9269 11.0265 81.9269 11.0319V11.1347L81.8133 24.2112C81.8133 24.2166 81.8133 24.2166 81.8133 24.222C81.7916 25.4664 82.2245 26.6134 83.036 27.4574C83.8529 28.3068 85.0215 28.8424 86.32 28.956C87.5373 29.0642 88.7817 29.194 89.9827 29.3185C92.3957 29.5673 94.879 29.827 97.3244 29.9244L97.2216 28.0687L97.1459 26.6891C94.5868 26.3374 91.9953 26.0182 89.4363 25.7423C88.7492 25.6666 88.1865 25.4123 87.7591 24.9741C87.3101 24.5142 87.0774 23.9299 87.0828 23.2753L87.1099 20.4295C87.1099 20.1265 87.2452 19.8343 87.4724 19.6342C87.6726 19.4556 87.9268 19.3582 88.1919 19.3582C88.2298 19.3582 88.2677 19.3582 88.3056 19.3637C90.8321 19.6234 93.3912 19.9209 95.9232 20.2563L95.934 18.9146L95.9448 17.4917C93.3479 17.1509 90.7239 16.8425 88.127 16.572C87.5644 16.5017 87.1478 16.031 87.1478 15.4737Z" fill="url(#paint3_linear)"/>
<path d="M119.008 28.4483C119.003 28.4267 118.997 28.4104 118.997 28.3888C118.695 26.5764 117.58 25.2076 115.946 24.6449C115.508 24.4934 115.216 24.0768 115.216 23.6116V23.406C115.216 23.0976 115.351 22.8054 115.584 22.5999C115.784 22.4267 116.038 22.3293 116.298 22.3293C116.341 22.3293 116.384 22.3293 116.428 22.3348C116.628 22.3564 116.823 22.3726 117.007 22.3726C117.867 22.3726 118.559 22.1183 119.062 21.6152C119.663 21.0093 119.977 20.0679 119.971 18.8939C119.961 17.2221 119.625 14.9282 118.099 13.5053C116.287 11.8173 113.663 11.0923 111.099 10.5567C107.874 9.88584 105.034 9.44761 102.464 9.2312L102.274 30.8288C103.957 31.1047 105.656 31.3969 107.333 31.6999L107.36 28.6809L107.398 24.3365C107.403 24.0173 107.544 23.7144 107.793 23.5088C107.988 23.3465 108.231 23.2653 108.48 23.2653C108.545 23.2653 108.615 23.2707 108.68 23.2815C109.6 23.4547 110.044 23.5412 110.958 23.7198C111.807 23.8875 112.435 24.1796 112.873 24.6125C113.317 25.0507 113.614 25.6945 113.787 26.5926C114.226 28.8108 114.664 31.029 115.108 33.2526C116.86 33.6367 118.624 34.0425 120.372 34.4645C119.917 32.4573 119.457 30.4393 119.008 28.4483ZM113.804 20.4249C113.425 20.6901 112.938 20.8199 112.316 20.8199C111.905 20.8199 111.423 20.7658 110.855 20.6522C109.843 20.452 109.346 20.3546 108.334 20.1598C107.82 20.0625 107.447 19.6134 107.452 19.0886L107.495 14.214C107.501 13.8948 107.641 13.5918 107.89 13.3863C108.085 13.2239 108.328 13.1428 108.577 13.1428C108.642 13.1428 108.713 13.1482 108.778 13.159C109.811 13.3538 110.309 13.4512 111.326 13.6514C112.63 13.911 113.517 14.3222 114.031 14.9119C114.561 15.5179 114.815 16.4322 114.805 17.7036C114.794 18.5747 114.68 19.8082 113.804 20.4249Z" fill="url(#paint4_linear)"/>
<path d="M28.317 10.1671C27.6137 9.70184 26.6669 9.47461 25.4171 9.47461C24.1295 9.47461 22.7877 9.71266 21.6029 9.92366L21.4677 9.9453C18.0917 10.5458 15.1431 11.2438 12.4921 12.0715L12.3027 33.6042C14.0124 33.2255 15.7382 32.8522 17.4533 32.5059C17.4695 30.753 17.4857 29.0001 17.4965 27.2472L17.5128 25.2183C17.5182 24.6557 17.9564 24.1904 18.5137 24.1471C19.7418 24.0552 20.9483 23.8658 21.96 23.6927C24.1998 23.3085 26.6939 22.708 28.1709 21.1877C28.7931 20.5493 29.2259 19.6945 29.4964 18.5746C29.7128 17.6819 29.8156 16.654 29.8265 15.3393C29.8481 13.4078 29.6912 11.0814 28.317 10.1671ZM24.6272 16.5349C24.6164 17.8929 24.3675 18.8613 23.859 19.4889C23.345 20.1273 22.4794 20.5493 21.208 20.7874C20.2558 20.9659 19.7959 21.0525 18.8491 21.2418C18.7788 21.2581 18.7084 21.2635 18.6381 21.2635C18.3892 21.2635 18.1458 21.1769 17.9456 21.0146C17.6967 20.809 17.5507 20.4952 17.5561 20.1706L17.5615 19.8352L17.6048 14.6089C17.6102 14.0949 17.9726 13.6567 18.4758 13.5593C19.4388 13.37 19.9095 13.278 20.8563 13.0995C21.2837 13.0183 21.6732 12.9804 22.0141 12.9804C22.7715 12.9804 23.3721 13.1806 23.7941 13.581C24.3729 14.1274 24.638 15.0634 24.6272 16.5349Z" fill="url(#paint5_linear)"/>
<path d="M92.6392 28.5664C92.8339 28.2635 93.0016 27.9984 93.1315 27.8036C93.1315 27.8036 93.1585 27.7549 93.2018 27.6846C93.0612 27.8847 92.8718 28.1985 92.6392 28.5664Z" fill="#361141"/>
<path d="M38.0718 28.1759C38.3964 28.6358 38.6723 29.0524 38.8454 29.3121C39.1484 28.6466 38.3585 28.4085 38.0718 28.1759Z" fill="#361141"/>
<path d="M39.6461 26.0655C37.7039 25.4379 34.5767 25.373 32.8779 25.2432C36.8815 36.6371 33.0619 33.1854 40.3982 35.9013C42.3242 29.5984 46.0194 28.0348 39.6461 26.0655ZM38.8454 29.3116C38.6723 29.052 38.3964 28.6354 38.0718 28.1755C38.3585 28.4081 39.1484 28.6462 38.8454 29.3116Z" fill="#361141"/>
<path d="M21.7166 28.4198C20.3424 29.7832 18.5408 31.6822 16.9826 33.5434C16.9826 33.5434 15.0891 35.675 12.9683 38.9211H14.9755L17.1233 36.1673L17.4804 36.216L21.5922 31.455L25.5903 27.3216L28.474 26.2341L30.6164 25.1575C30.6164 25.1575 27.4839 25.1845 25.8392 25.5903C24.1945 25.9961 23.6859 26.4667 21.7166 28.4198Z" fill="#361141"/>
<path d="M103.746 33.7229C102.902 33.5661 102.35 33.4633 102.35 33.4633L101.912 33.6526L101.761 33.539C102.561 32.457 103.259 31.6563 103.73 31.0395C104.168 30.4822 104.439 30.1414 104.552 29.8709C104.688 29.5463 104.796 28.897 103.979 28.659C103.162 28.4209 97.6382 27.4201 96.6589 27.2686C95.8582 27.1441 95.0575 27.0359 94.6301 26.9818C93.9592 26.8899 93.3371 27.4796 93.1964 27.6852C93.1477 27.7609 93.1261 27.8042 93.1261 27.8042C93.0016 27.9935 92.8285 28.2586 92.6337 28.567C92.6337 28.5724 92.6283 28.5724 92.6283 28.5778C91.7789 29.9088 90.4967 31.9809 90.4967 31.9809C90.4967 31.9809 89.8799 31.9268 88.4354 31.8131C86.9909 31.6995 85.146 31.7374 84.2154 31.824C83.2849 31.9105 83.2145 32.2243 83.2145 32.5922C83.2145 32.9601 83.1226 34.7509 83.1226 34.7509L84.54 35.3947L92.7419 37.8293C92.7419 37.8293 94.8357 35.0539 96.7996 32.4732C97.2757 33.0196 98.163 33.8528 99.6454 35.4055L98.9853 36.3902C98.9853 36.3902 101.047 36.8987 101.561 37.034C102.075 37.1638 103.081 37.5534 103.503 37.1314C103.925 36.7094 104.585 36.3144 105.018 35.1783C105.451 34.0313 104.585 33.8798 103.746 33.7229Z" fill="#361141"/>
<path d="M92.6338 28.5776C92.6338 28.5718 92.6397 28.5718 92.6397 28.5659C92.6338 28.5718 92.6338 28.5718 92.6338 28.5776Z" fill="#361141"/>
<path d="M47.258 14.4074C43.8766 12.9196 43.8712 10.5499 43.8712 10.5499C43.8712 10.5499 43.8657 12.9142 40.4844 14.4074C34.8415 16.8907 36.5619 22.7554 40.2896 22.7554C41.7504 22.7554 43.0109 21.8465 43.5682 20.548C43.5682 24.108 42.4591 24.2108 40.9009 24.9736C41.0362 24.9682 42.9622 24.9682 43.8712 24.9682C44.7801 24.9682 46.7061 24.9682 46.8414 24.9736C45.2832 24.2108 44.1741 24.108 44.1741 20.548C44.7314 21.8465 45.992 22.7554 47.4527 22.7554C51.1804 22.7554 52.9008 16.8907 47.258 14.4074Z" fill="#361141"/>
<path d="M44.3094 14.916C45.0777 14.5751 45.6728 14.1964 46.1272 13.8015C43.8766 12.3515 43.8712 10.5499 43.8712 10.5499C43.8712 10.5499 43.8658 12.9142 40.4844 14.4074C34.8415 16.8907 36.5619 22.7554 40.2896 22.7554C40.8523 22.7554 41.3825 22.6201 41.8586 22.3821C39.9866 20.6508 40.0191 16.8096 44.3094 14.916Z" fill="#586475"/>
<path d="M44.3094 14.916C45.0777 14.5751 45.6728 14.1964 46.1272 13.8015C43.8766 12.3515 43.8712 10.5499 43.8712 10.5499C43.8712 10.5499 43.8658 12.9142 40.4844 14.4074C34.8415 16.8907 36.5619 22.7554 40.2896 22.7554C40.8523 22.7554 41.3825 22.6201 41.8586 22.3821C39.9866 20.6508 40.0191 16.8096 44.3094 14.916Z" fill="url(#paint6_linear)"/>
<path d="M30.2486 48.6005C30.0701 48.2758 29.8753 47.9566 29.6643 47.6591C29.4533 47.3615 29.199 47.0856 28.9177 46.8313C28.5606 46.5067 28.1711 46.1604 27.7491 45.825C27.3217 45.4896 26.8997 45.1812 26.4723 44.9053C26.0449 44.6293 25.6553 44.4075 25.3037 44.2398C24.952 44.0721 24.6653 44.0072 24.4543 44.045C24.4164 44.0505 24.3677 44.0883 24.2974 44.1587C24.227 44.229 24.1405 44.4887 24.0323 44.9377C23.9241 45.3868 23.6698 46.0414 23.264 46.8908C22.7284 48.0053 22.1116 49.0874 21.4895 50.1532C20.5156 51.8087 19.2875 53.3669 18.2055 54.8871C17.3669 56.0666 16.5391 57.3542 15.6681 58.5607C14.9269 59.5832 14.4183 60.1242 14.137 60.1837C13.926 60.227 13.8286 59.9998 13.8448 59.5075C13.861 59.0151 14.0288 58.1549 14.348 56.9322C14.3804 56.8673 14.4021 56.7861 14.4021 56.6996C15.6031 52.2199 17.3452 47.9404 19.4769 43.8773C22.0359 39.0027 25.255 34.4635 28.7662 30.157C29.5074 29.2643 30.2757 28.3716 31.1359 27.598C31.7148 27.0732 32.1584 26.7918 32.4398 26.754C32.7968 26.7053 32.9104 26.9704 32.786 27.533C32.6616 28.1011 32.3532 28.8423 31.8554 29.7729C31.7472 29.9676 31.5903 30.2219 31.3739 30.5519C31.1629 30.8766 30.9303 31.2282 30.6814 31.6015C30.4326 31.9748 30.1945 32.3373 29.9619 32.6836C29.7292 33.0298 29.5615 33.2949 29.4587 33.4897C28.7608 34.6908 28.0683 35.9027 27.6517 37.2282C27.3271 38.2507 27.5814 39.0947 28.3983 39.7439C28.6796 39.9982 29.0962 40.2633 29.6481 40.5446C30.1999 40.8206 30.7842 41.0802 31.4064 41.3237C32.0286 41.5672 32.6399 41.7619 33.2459 41.908C33.8518 42.0541 34.3496 42.1028 34.7391 42.0541C34.9501 42.027 35.0745 41.9675 35.1124 41.8755C35.1827 41.7511 35.199 41.5726 35.1665 41.3562C35.1286 41.1398 35.0962 40.8692 35.0583 40.5446C35.0204 40.2254 35.0204 39.8684 35.0583 39.4734C35.0962 39.0839 35.2044 38.6511 35.3775 38.1858C35.5939 37.6015 35.8861 36.8873 36.2594 36.0541C36.6327 35.2264 37.0222 34.3607 37.4334 33.4735C37.8446 32.5808 38.2503 31.7043 38.6615 30.8441C39.0727 29.9839 39.473 29.221 39.7003 28.6205C39.9383 27.9983 39.6462 27.3816 38.8996 26.9217C38.0447 26.3969 36.914 26.0344 35.9348 25.8721C34.593 25.6503 33.2729 25.4988 31.9366 25.4826C30.676 25.4663 29.3559 25.5204 28.0791 25.7152C27.5489 25.7964 27.0674 25.8883 26.6454 25.9965C26.218 26.1047 25.8555 26.2779 25.585 26.4077C25.2387 26.5754 24.7897 26.8459 24.3623 27.2734C23.9403 27.7008 23.264 28.3608 22.3443 29.2589C20.2722 31.3256 18.3407 33.4897 16.6094 35.7999C14.9214 38.0505 13.3471 40.4635 11.9621 42.9143C10.6366 45.2623 9.43548 47.751 8.43459 50.2614C7.49862 52.6094 6.71955 55.044 6.07032 57.5111C5.8972 58.2361 5.73489 58.8474 5.59964 59.3397C5.45897 59.8321 5.39946 60.2649 5.41569 60.6328C5.43192 61.0007 5.54012 61.3307 5.72948 61.6283C5.92425 61.9258 6.26509 62.2504 6.75201 62.6129C7.03334 62.8456 7.4337 63.0782 7.95849 63.3108C8.48328 63.5435 9.05677 63.7599 9.66812 63.9493C10.2795 64.1386 10.88 64.2847 11.4589 64.3821C11.7943 64.4362 12.1027 64.4632 12.3841 64.4578C13.1361 64.4578 14.5103 64.4199 16.7772 63.0457C16.7826 63.0457 16.7826 63.0403 16.788 63.0403C17.5075 62.667 18.2325 62.2396 18.8817 61.7852C19.7095 61.2117 20.5427 60.5625 21.2947 59.8808C22.0629 59.1828 22.842 58.4849 23.5994 57.7708C23.7401 57.6301 23.9619 57.4137 24.2649 57.127C24.5625 56.8402 24.9033 56.5427 25.2712 56.2289C25.6445 55.9205 25.9962 55.6175 26.3316 55.3254C26.667 55.0386 26.9267 54.806 27.0999 54.6274C27.7383 53.9944 28.3063 53.4156 28.8041 52.8853C29.3018 52.3551 29.7022 51.8466 29.9997 51.3543C30.3027 50.8673 30.4813 50.3966 30.5299 49.9422C30.5949 49.4877 30.4867 49.0387 30.2486 48.6005Z" fill="url(#paint7_linear)"/>
<path d="M124.733 53.6598C124.663 53.4272 124.533 53.1891 124.349 52.9457C124.165 52.7022 123.975 52.4696 123.775 52.2532C123.575 52.0368 123.386 51.9069 123.202 51.8636C123.094 51.8366 123.002 51.8474 122.931 51.8907C122.423 52.4209 121.795 52.9835 121.049 53.5841C120.302 54.1846 119.49 54.7797 118.614 55.3586C117.732 55.9429 116.834 56.5164 115.93 57.0574C115.016 57.6093 114.156 58.1178 113.35 58.5777C113.75 57.7013 114.183 56.8518 114.637 56.0349C115.092 55.218 115.59 54.374 116.12 53.5137C116.672 52.6156 117.251 51.7175 117.846 50.8465C118.522 49.8564 119.193 48.8555 119.869 47.8655C119.934 47.7681 119.966 47.7194 120.031 47.622C120.978 46.4155 121.471 45.5228 121.508 44.9494C121.546 44.3705 120.848 43.8457 119.431 43.375C118.376 43.0233 117.505 42.7366 116.829 42.5202C116.152 42.3038 115.633 42.1577 115.265 42.0819C114.865 42.0008 114.67 42.0333 114.659 42.1469C114.643 42.3687 114.421 42.8718 114.053 43.5968C113.723 43.072 113.296 42.5526 112.765 42.0495C112.235 41.5463 111.64 41.0919 110.98 40.6969C110.32 40.2966 109.622 39.9449 108.892 39.6473C108.156 39.3498 107.415 39.1063 106.744 39.0198C105.673 38.8845 104.461 38.8033 103.438 39.4039C103.141 39.5445 102.811 39.761 102.443 40.0585C102.075 40.3561 101.593 40.7781 101.009 41.2542C100.154 41.9521 99.3211 42.7745 98.5799 43.5914C97.7683 44.4787 96.9893 45.4309 96.2373 46.3939C96.1074 46.5237 95.9451 46.6374 95.891 46.7077C95.3716 47.3244 94.717 47.9791 93.9217 48.6608C93.0993 49.3695 92.2499 50.0674 91.4005 50.7383C90.5187 51.4308 89.6043 52.1125 88.6792 52.7509C87.8135 53.3514 86.9425 53.952 86.0714 54.5471C86.8289 52.9457 87.6134 51.3497 88.4303 49.7915C89.3176 48.1143 90.2644 46.4372 91.2328 44.8033C92.2283 43.1261 93.267 41.4489 94.3112 39.8042C94.836 38.9819 95.4203 37.8566 95.983 36.9044C96.0371 36.8124 96.102 36.715 96.1669 36.6068C97.487 36.9152 98.9424 37.2723 100.56 37.6888C102.464 38.6735 104.845 34.394 102.838 34.4048C102.697 34.3129 100.814 33.9612 98.2823 33.5771C99.5375 31.8512 100.825 30.1524 101.042 29.8494C101.436 29.2976 101.317 29.1353 100.836 28.9189C100.354 28.7025 96.0263 27.9072 95.258 27.7178C94.4897 27.523 94.3978 27.5825 93.6404 28.8053L91.1733 32.6952C86.9641 32.2948 83.3555 32.257 83.8911 33.312C83.9344 35.1569 83.3068 34.2263 89.5448 35.2651L89.3609 35.5572C88.0516 37.5969 86.7423 39.6473 85.4547 41.6924C84.681 42.9259 83.9074 44.1703 83.1553 45.4255V45.42C83.1553 45.42 82.9335 45.7934 82.7388 45.8799C82.544 45.9665 79.471 46.9836 78.3565 47.3407C76.9119 47.7897 75.4566 48.2117 74.0012 48.6121C73.5576 48.0765 73.0923 47.5571 72.6108 47.0593C72.1293 46.5562 71.7127 46.0476 71.3556 45.5391C71.004 45.0251 70.7497 44.5165 70.6036 44.0026C70.4575 43.494 70.4413 42.8935 70.6577 42.4552C70.8687 42.0224 71.242 41.568 71.5234 41.173C71.7993 40.7781 72.0914 40.4102 72.3836 40.0747C73.1248 39.4093 73.774 38.9386 74.3313 38.6573C74.8885 38.3759 75.3538 38.2461 75.7217 38.2569C75.9056 38.2623 76.0734 38.3002 76.2248 38.3651C75.9273 39.128 75.462 39.9449 74.8344 40.8214C74.7587 40.9728 74.8885 41.1676 75.224 41.4111C75.5594 41.6491 75.976 41.8818 76.4737 42.0982C76.9769 42.3146 77.5017 42.5093 78.0589 42.6879C78.6162 42.861 79.0814 42.9584 79.4493 42.9746C79.893 42.9963 80.1148 42.8989 80.1148 42.6825C80.1148 42.558 80.1797 42.3903 80.3096 42.1847C80.4394 41.9737 80.5855 41.7411 80.7532 41.4868C80.9209 41.2325 81.1049 40.9891 81.3105 40.751C81.516 40.513 81.6729 40.3236 81.7811 40.1721C82.3384 39.4904 82.7929 38.9224 83.1445 38.4679C83.4962 38.008 83.6909 37.6293 83.7288 37.3209C83.7667 37.018 83.6369 36.7691 83.3393 36.5797C83.0417 36.3958 82.5386 36.2281 81.8352 36.1036C80.8398 35.9251 80.0012 35.7899 79.3303 35.6816C78.6649 35.5789 78.1401 35.5193 77.7722 35.5031C77.361 35.4869 77.15 35.5789 77.1067 35.7087C77.058 35.8494 76.966 36.0495 76.9119 36.2822C76.8578 36.5148 76.7929 36.7799 76.7172 37.0829C76.0138 36.6609 75.224 36.3092 74.3529 36.0441C73.4819 35.7736 72.6162 35.6384 71.7614 35.6221C71.1284 35.6113 70.5171 35.6762 69.9219 35.8115C69.3268 35.9468 68.7912 36.1794 68.3097 36.5202C67.4927 37.0721 66.7299 37.6834 66.0266 38.3543C65.3232 39.0198 64.3981 39.7718 64.0248 40.4318C63.592 41.1947 63.7164 42.439 64.1059 43.2992C64.1817 43.467 64.2683 43.6347 64.3548 43.8024C63.9977 44.1541 63.2349 44.9061 62.9211 45.2036L62.9157 45.209C62.8129 45.3064 62.7047 45.4092 62.5965 45.5174C62.3747 45.7338 62.1474 45.9503 61.9256 46.1667L61.9202 46.1721C61.4549 46.6211 61.0167 47.0485 60.7137 47.3515C60.7083 47.3569 60.7029 47.3623 60.7029 47.3623C60.5839 47.4813 60.4703 47.6004 60.3513 47.7194C60.3458 47.7248 60.3404 47.7302 60.335 47.7356C59.7453 48.3253 59.1339 48.8988 58.5226 49.4453C58.4252 49.5318 58.3224 49.6238 58.225 49.7104C58.1926 49.7374 58.1763 49.7536 58.1763 49.7536C57.3919 50.4516 56.5966 51.1441 55.7958 51.8149C54.9302 52.5399 54.0592 53.2649 53.1827 53.979C53.5885 52.9998 54.0267 52.0476 54.492 51.1116C54.9735 50.1432 55.4766 49.1747 55.996 48.2225C56.5587 47.1838 57.1484 46.145 57.7489 45.1225C58.436 43.9593 59.1231 42.7961 59.8102 41.6329C59.8752 41.5193 59.913 41.4652 59.9779 41.3516C60.5893 40.4589 61.3738 39.366 61.482 38.3056C61.5415 37.7429 60.8057 37.3696 59.3666 37.256C58.2954 37.1695 57.4081 37.0991 56.721 37.0504C56.0339 37.0017 55.5037 36.9855 55.1358 37.0017C54.7246 37.0234 54.5299 37.1045 54.5244 37.2182C54.5082 37.4508 54.281 38.0026 53.9131 38.8196C53.5777 38.3759 53.1448 37.9648 52.6038 37.5969C52.0682 37.229 51.4623 36.9206 50.7968 36.6879C50.1313 36.4499 49.4226 36.2768 48.6868 36.1577C47.9456 36.0387 47.1936 35.9846 46.5173 36.0658C45.3649 36.2064 44.1422 36.4553 43.1846 37.2723C42.8871 37.4833 42.557 37.7862 42.1837 38.1758C41.8158 38.5653 41.3343 39.1009 40.7392 39.7285C39.8736 40.6374 39.062 41.6599 38.2992 42.6662C37.3199 43.9593 36.3948 45.3389 35.5292 46.7077C34.6148 48.1522 33.733 49.6725 32.9539 51.1928C32.2451 52.5778 31.6121 54.0656 31.0982 55.5318C30.7519 56.5272 30.4706 57.355 30.3245 57.9718C30.1784 58.5939 30.2488 59.0971 30.5463 59.4433C30.8277 59.7734 31.2443 60.0709 31.7636 60.3414C32.2776 60.612 32.8511 60.8392 33.4787 61.0177C34.1063 61.2017 34.7717 61.3315 35.4696 61.4181C36.1676 61.5046 36.833 61.51 37.466 61.4397C39.2622 60.6715 40.7067 59.4271 42.0431 58.0746C43.7689 56.3271 45.3541 54.3577 46.9014 52.4046C46.4307 53.4001 45.9709 54.4118 45.5381 55.429C45.1864 56.2621 45.0728 56.7599 45.1215 56.8951C45.2243 57.1981 45.484 57.6526 45.9817 58.0746C46.4794 58.4966 47.0637 58.8753 47.7292 59.2107C48.3947 59.5461 49.0655 59.8167 49.731 60.0168C50.3964 60.217 50.9483 60.2765 51.3432 60.2387C51.5218 60.2224 51.657 60.2062 51.7328 60.1683C51.7706 60.1359 51.8085 60.1088 51.8464 60.0926C51.8843 60.0763 51.9221 60.0493 51.96 60.0168C52.9771 59.0051 53.9672 57.9555 54.9356 56.9005C56.0555 55.6778 57.1917 54.4714 58.3278 53.2703C59.4586 52.0746 60.5947 50.8844 61.7255 49.6833C61.7633 49.6454 61.8012 49.6022 61.8391 49.5643C61.8499 49.5535 61.8607 49.5426 61.8715 49.5318C62.3206 49.0557 62.7696 48.585 63.2295 48.1198C63.3269 48.017 63.4297 47.9142 63.5487 47.8005C63.7813 47.5679 64.1817 47.1297 64.5496 46.7185C64.9878 46.2803 65.4531 45.7988 65.637 45.6094C65.6587 45.6365 65.6857 45.6635 65.7074 45.6906C66.3728 46.4264 67.0707 47.1243 67.7957 47.7843C68.5207 48.4498 69.0509 49.1369 69.3809 49.8456C68.8994 49.9646 68.4504 50.0783 68.0446 50.1865C67.6334 50.2947 67.2331 50.3704 66.876 50.4407C66.3674 50.5435 65.7507 50.7329 65.069 50.9385C64.3819 51.1441 63.7218 51.4308 63.0942 51.7987C62.4612 52.1666 61.8986 52.6102 61.3954 53.1296C60.8923 53.649 60.5893 54.2982 60.4757 55.0719C60.4757 55.126 60.4757 55.153 60.4757 55.2126C60.4541 55.2504 60.4432 55.2667 60.4216 55.3045C60.4216 55.3803 60.4216 55.4181 60.4216 55.4885C60.4216 56.0728 60.638 56.63 61.06 57.1602C61.4874 57.6904 62.0447 58.1449 62.7318 58.5344C63.4188 58.924 64.1871 59.2269 65.0419 59.4488C65.8967 59.6706 66.7515 59.7842 67.601 59.7842C68.2339 59.7842 68.8453 59.7139 69.4404 59.5786C70.0355 59.4433 70.5712 59.2107 71.0527 58.8753C71.3502 58.6913 71.7127 58.4316 72.1401 58.08C72.5675 57.7337 73.114 57.2847 73.7848 56.7491C73.9688 56.5705 74.2231 56.3054 74.5369 55.9592C74.8506 55.6129 75.2131 55.1963 75.6243 54.7148C76.1437 53.9574 76.3547 53.2324 76.2627 52.5399C76.1707 51.842 75.9002 51.1495 75.4566 50.457C76.2735 50.2027 77.0905 49.943 77.9074 49.6833C77.9399 49.6725 77.9724 49.6617 78.0048 49.6508C78.1779 49.5967 79.1842 49.2775 79.5521 49.1639C79.5846 49.1531 79.6116 49.1477 79.6441 49.1369C79.8551 49.072 80.6342 48.8555 81.278 48.677C80.3853 50.2676 79.5143 51.8799 78.7731 53.5462C78.1238 55.0016 77.9291 55.9159 78.1888 56.2675C78.4484 56.6192 78.8921 57.0899 79.5251 57.6796C80.1527 58.2693 80.8398 58.7995 81.581 59.2756C81.6188 59.3081 81.6567 59.3351 81.6946 59.3514C81.7325 59.3676 81.7703 59.3947 81.8082 59.4271C82.2518 59.7301 82.6901 59.9844 83.1121 60.1845C83.1499 60.2008 83.1824 60.217 83.2149 60.2332C83.2203 60.2332 83.2203 60.2332 83.2257 60.2387C83.296 60.2711 83.3663 60.2982 83.4367 60.3252C83.8587 60.5037 84.4754 60.7256 85.076 60.2603H85.0814C85.0868 60.2549 85.0976 60.2441 85.103 60.2387C85.1463 60.2008 85.1896 60.1629 85.2329 60.1196C85.2329 60.1142 85.2383 60.1142 85.2383 60.1142C86.1688 59.2756 87.0832 58.4154 87.9921 57.5552C89.1066 56.5056 90.2265 55.456 91.3518 54.4172C91.433 54.3469 91.5087 54.2712 91.5899 54.2008C91.525 54.3577 91.46 54.52 91.3951 54.6769C91.0272 55.5913 90.7675 56.3433 90.6214 56.9276C90.4754 57.5119 90.5457 58.0367 90.8433 58.4533C91.1246 58.8536 91.5466 59.254 92.0606 59.6543C92.5799 60.0493 93.148 60.4172 93.7756 60.758C94.4032 61.0935 95.0686 61.391 95.7666 61.6507C96.4645 61.9104 97.1299 62.0835 97.7575 62.1647C99.5104 61.8671 100.971 60.9636 102.318 59.9303C104.017 58.6264 105.602 57.0304 107.144 55.4614C106.592 56.5056 106.143 57.4037 105.792 58.1503C105.44 58.8969 105.332 59.3622 105.381 59.5137C105.483 59.8437 105.738 60.3577 106.235 60.9041C106.733 61.4505 107.312 61.9699 107.972 62.4731C108.632 62.9708 109.292 63.409 109.952 63.7715C110.612 64.1394 111.159 64.3342 111.548 64.3883C111.727 64.4153 111.857 64.4316 111.932 64.4153C111.97 64.3937 112.008 64.3775 112.041 64.3666C112.078 64.3558 112.111 64.345 112.149 64.318C113.155 63.5605 114.123 62.749 115.086 61.932C116.196 60.9961 117.31 60.0601 118.43 59.135C119.544 58.2206 120.659 57.2955 121.768 56.3812C122.715 55.5967 123.683 54.823 124.69 54.1035C124.787 54.0439 124.809 53.8979 124.733 53.6598ZM52.1277 39.8367C52.1223 39.8908 52.1169 39.9449 52.1061 39.999C52.0303 40.4481 51.7544 41.3353 50.7914 42.6662C49.6552 44.1973 48.5245 45.7284 47.3992 47.2703C46.2684 48.8177 45.1323 50.3704 43.9853 51.8961C42.9033 53.3352 41.7888 54.7851 40.658 56.1647C39.6572 57.382 38.5859 58.5723 37.4119 59.6543C37.3362 59.7247 37.347 59.6165 37.439 59.3297C37.5309 59.043 37.6716 58.6426 37.8555 58.1287C38.0395 57.6147 38.2721 57.0412 38.5481 56.4082C38.824 55.7752 39.1107 55.153 39.4083 54.5363C40.658 52.0422 41.9727 49.5751 43.374 47.1892C44.6887 44.9548 46.0953 42.7366 47.621 40.6212C48.3622 39.7934 49.0006 39.2091 49.5362 38.8683C50.0718 38.522 50.5479 38.3381 50.9537 38.3164C51.3595 38.2894 51.6678 38.43 51.8734 38.7222C52.052 38.9819 52.1223 39.3065 52.1277 39.6636C52.1331 39.6582 52.1385 39.7177 52.1277 39.8367ZM67.9905 54.0602C67.655 54.5525 67.3196 54.9853 66.9896 55.3586C66.2105 56.0728 65.5397 56.5759 64.9824 56.8735C64.4251 57.171 63.9599 57.3225 63.592 57.3279C63.1808 57.3334 62.9049 57.1873 62.7588 56.8789C62.6127 56.5759 62.5532 56.1756 62.6452 55.7698C62.6993 55.5318 62.7913 55.337 62.867 55.2126C62.9049 55.1801 62.959 55.1043 63.0347 54.9799C63.5541 54.2008 64.371 53.6544 65.4856 53.3514C66.6866 53.0268 67.8931 52.7293 69.105 52.4425C68.6992 53.0322 68.3259 53.5678 67.9905 54.0602ZM112.311 44.1108C112.311 44.1216 112.311 44.1324 112.311 44.1486C112.306 44.2569 112.289 44.3596 112.252 44.457C112.143 44.8844 111.835 45.6419 110.986 46.6698L110.991 46.6752C109.86 47.925 108.746 49.1802 107.637 50.4461C106.517 51.7176 105.391 52.9835 104.25 54.2279C103.173 55.4019 102.069 56.5867 100.939 57.6742C99.9216 58.6535 98.8666 59.5245 97.7034 60.3631C97.6277 60.4172 97.6385 60.309 97.7305 60.0439C97.8224 59.7788 97.9631 59.4109 98.1471 58.9456C98.331 58.4803 98.5637 57.9609 98.8396 57.3983C99.1155 56.8356 99.4022 56.2838 99.6944 55.7373C100.939 53.5624 102.243 51.4146 103.644 49.3695C104.942 47.4705 106.36 45.6202 107.858 43.8457C108.594 43.2019 109.227 42.7745 109.757 42.5635C110.288 42.3525 110.758 42.2821 111.159 42.3579C111.559 42.4336 111.862 42.6446 112.068 42.9909C112.257 43.3155 112.322 43.6888 112.316 44.0729C112.311 44.0675 112.311 44.0837 112.311 44.1108Z" fill="url(#paint8_linear)"/>
<path d="M37.374 27.1385C37.0818 27.3387 36.8492 27.6903 36.6436 27.9771C36.4326 28.2747 36.227 28.5722 36.0377 28.886C35.6211 29.5731 35.2586 30.2927 34.9232 31.023C34.6202 31.6885 34.3659 32.3756 34.1495 33.0735C33.9818 33.6091 33.787 34.1718 33.7491 34.7345C33.7437 34.8643 33.7437 34.9887 33.7383 35.1186C33.7491 34.821 33.7491 34.8805 33.7329 35.3025C33.7437 35.5784 33.7816 35.849 33.8736 36.1141C33.9223 36.2601 33.9764 36.417 34.0954 36.5144C34.3821 36.7525 34.5769 36.4657 34.7284 36.1628C34.6472 36.2818 34.5661 36.4062 34.4903 36.5252C34.8312 36.1736 34.8961 35.7083 35.0151 35.2538C35.053 35.1132 35.053 35.1078 35.1071 34.9238C35.1558 34.7615 35.2099 34.5938 35.264 34.4315C35.4642 33.8201 35.6968 33.2196 35.9565 32.6299C35.989 32.5595 36.0214 32.4838 36.0539 32.4135C36.0647 32.3864 36.0809 32.354 36.0918 32.3269C36.0593 32.3972 36.0593 32.3972 36.0864 32.3377C36.1567 32.1917 36.227 32.051 36.2974 31.9103C36.4488 31.6128 36.6057 31.3152 36.7735 31.0285C37.1359 30.3955 37.5525 29.7841 37.8555 29.1186C38.034 28.7237 38.007 28.0907 37.888 27.6795C37.8447 27.4793 37.6715 26.9329 37.374 27.1385Z" fill="url(#paint9_linear)"/>
<path d="M27.0623 49.9259C27.2084 50.1639 27.441 50.3371 27.6466 50.5264C27.7277 50.5968 27.8089 50.6725 27.89 50.7428C27.9441 50.7915 27.9983 50.8402 28.0524 50.8889C27.955 50.8402 27.9063 50.7482 27.9117 50.6022C27.8846 50.2451 27.8576 49.888 27.8305 49.5309C27.8305 49.558 27.8305 49.585 27.8251 49.6067C27.8684 49.4011 27.9117 49.1901 27.955 48.9845C27.9712 48.9574 27.9874 48.9304 28.0037 48.8979C27.9496 48.9629 27.9387 48.9845 27.9658 48.952C27.9874 48.9304 27.8955 49.0278 27.8792 49.044C27.7818 49.1468 27.679 49.2442 27.5817 49.347C27.3653 49.5688 27.1543 49.7906 26.9324 50.0016C26.7214 50.2018 26.4996 50.3966 26.2886 50.5968C25.9802 50.8889 25.6556 51.1648 25.5312 51.5868C25.4122 52.0143 25.3689 52.4417 25.4284 52.8853C25.4717 53.1937 25.5474 53.5995 25.8125 53.8051C25.8342 53.8213 25.8558 53.8375 25.8774 53.8537C25.9802 53.9187 26.0776 53.9187 26.175 53.8483C26.6078 53.567 26.9757 53.2153 27.3436 52.8528C27.744 52.4579 28.1389 52.0467 28.4798 51.5922C28.7557 51.2298 28.8747 50.7753 28.9126 50.3262C28.9613 49.7636 28.9288 49.017 28.5555 48.5625C28.3986 48.3731 28.1497 48.2812 27.9387 48.1621C27.7277 48.0485 27.4843 47.8537 27.2408 47.8646C26.9324 47.8754 26.8459 48.4759 26.8351 48.6869C26.7972 49.1035 26.8351 49.5634 27.0623 49.9259Z" fill="url(#paint10_linear)"/>
<path d="M58.6524 38.4142C58.4143 38.4197 58.2088 38.7389 58.0735 38.9066C57.9112 39.1068 57.7597 39.3178 57.6136 39.5288C57.3107 39.9562 57.0185 40.389 56.7318 40.8272C56.142 41.7253 55.6064 42.6613 55.0978 43.6081C54.7245 44.3168 54.3079 45.0039 54.2863 45.8209C54.2755 46.1455 54.2971 46.4701 54.3729 46.7839C54.427 47.0003 54.5568 47.4169 54.8382 47.4385C55.1898 47.471 55.4279 46.7514 55.5523 46.5134C56.0392 45.5341 56.5586 44.5819 57.0942 43.6243C57.3972 43.0779 57.711 42.5369 58.0302 42.0067C58.4143 41.3682 58.858 40.7515 59.0365 40.0211C59.1177 39.6802 59.096 39.2745 59.0095 38.939C58.9716 38.7876 58.8742 38.4088 58.6524 38.4142Z" fill="url(#paint11_linear)"/>
<path d="M81.6028 36.4224C81.0348 36.8768 80.4937 37.3313 80.0285 37.894C79.8066 38.1645 79.5956 38.4404 79.4009 38.7325C78.968 39.3872 78.8003 40.123 78.9139 40.9074C78.9464 41.1401 79.1304 42.049 79.5469 41.7731C79.5848 41.7298 79.6227 41.6865 79.6606 41.6432C79.6281 41.8218 79.6497 41.8488 79.7255 41.7244C79.8066 41.6649 79.8607 41.5513 79.9148 41.4647C80.1042 41.1563 80.2936 40.8479 80.4992 40.5504C80.932 39.9336 81.3702 39.3006 81.895 38.7542C82.2413 38.3917 82.2413 37.7154 82.1763 37.2501C82.1547 37.077 81.9707 36.1302 81.6028 36.4224Z" fill="url(#paint12_linear)"/>
<path d="M73.136 51.8365C73.3416 52.0691 73.5255 52.3126 73.6878 52.5777C73.6987 52.5939 73.7961 52.7616 73.7419 52.6643C73.7528 52.6859 73.861 52.9726 73.8177 52.8157C73.769 52.6589 73.7636 52.5128 73.7582 52.3451C73.7365 52.2152 73.7474 52.08 73.7852 51.9555C73.8285 51.7607 73.8339 51.7283 73.7906 51.869C73.7636 51.9285 73.7311 51.9772 73.7798 51.8906C73.7419 51.9555 73.7041 52.0204 73.6608 52.08C73.5905 52.1827 73.5364 52.2423 73.4714 52.3126C73.3632 52.4262 73.255 52.529 73.1468 52.6426C72.9088 52.8915 72.8222 53.1512 72.7302 53.4812C72.5841 54.0114 72.6328 54.9636 73.0873 55.3532C73.1089 55.3694 73.1252 55.3856 73.1468 55.4018C73.2496 55.4668 73.347 55.4614 73.4444 55.3964C74.3533 54.6282 74.797 53.6056 74.7753 52.41C74.7645 51.7986 74.6617 51.0736 74.2776 50.5759C74.0449 50.2729 73.7203 50.1539 73.3957 49.9808C73.0873 49.8185 72.9845 50.3974 72.9575 50.5759C72.9034 50.9276 72.8763 51.5497 73.136 51.8365Z" fill="url(#paint13_linear)"/>
<path d="M98.0011 29.3502C97.8226 29.1609 97.433 29.6586 97.314 29.7777C97.1355 29.967 96.9624 30.1618 96.7892 30.3565C96.4159 30.7785 96.0697 31.2222 95.7343 31.6766C94.966 32.7316 94.4034 33.8894 94.3006 35.2095C94.2627 35.6856 94.3006 36.2321 94.5116 36.6703C94.6468 36.9462 94.8632 37.0652 95.0634 36.7677C95.2257 36.5242 95.3501 36.2321 95.4475 35.9616C95.4908 35.8425 95.3772 36.1076 95.4637 35.9291C95.4962 35.8642 95.5287 35.7938 95.5611 35.7289C95.6206 35.6099 95.6856 35.4909 95.7505 35.3718C96.0372 34.847 96.3672 34.3547 96.7243 33.8732C97.0706 33.4079 97.4709 32.9264 97.8334 32.4124C98.1039 32.0283 98.3744 31.6496 98.461 31.1843C98.5367 30.7677 98.5475 30.2808 98.4447 29.8696C98.4123 29.7344 98.3744 29.5829 98.2987 29.4693C98.2716 29.3989 98.2229 29.3557 98.1526 29.3394C98.1039 29.2961 98.0552 29.3016 98.0011 29.3502Z" fill="url(#paint14_linear)"/>
<path d="M118.143 46.4357C118.538 46.4411 118.825 46.5764 119.144 46.7982C119.123 45.9434 119.101 45.0832 119.079 44.2283C118.593 44.6125 118.171 45.1156 117.765 45.5809C117.337 46.0732 116.937 46.5818 116.547 47.1012C116.142 47.6314 115.741 48.167 115.368 48.7242C115.184 48.9947 115.006 49.2707 114.832 49.552C114.74 49.6981 114.654 49.8442 114.578 50.0011C114.394 50.369 114.34 50.7477 114.308 51.1534C114.281 51.5159 114.308 51.8946 114.416 52.2409C114.443 52.3545 114.486 52.4627 114.546 52.5601C114.594 52.6575 114.67 52.7116 114.773 52.7278C114.811 52.744 114.843 52.7603 114.881 52.7765C115 52.7549 115.087 52.6845 115.135 52.5709C115.844 51.5971 116.455 50.5529 117.175 49.5845C117.911 48.589 118.76 47.6747 119.485 46.6683C119.61 46.4952 119.631 46.2301 119.653 46.0245C119.685 45.7378 119.691 45.4402 119.653 45.1535C119.615 44.8667 119.556 44.2554 119.193 44.1851C118.831 44.1147 118.441 44.1526 118.079 44.2229C117.711 44.2933 117.722 45.0777 117.732 45.3428C117.743 45.6079 117.765 45.8785 117.862 46.1273C117.916 46.2301 117.992 46.4303 118.143 46.4357Z" fill="url(#paint15_linear)"/>
<g opacity="0.4">
<path d="M82.4735 48.9635C81.9 49.564 81.4996 50.3161 81.0884 51.0302C80.872 51.4089 80.6556 51.7931 80.4338 52.1718C80.2066 52.5667 79.9631 52.9617 79.8224 53.3945C79.4004 54.6659 79.4816 56.3431 80.5095 57.3115C80.8125 57.5982 81.1425 57.8471 81.5159 58.031C81.6944 58.1176 81.8783 58.1879 82.0677 58.2475C82.3977 58.3502 82.5059 58.334 82.8305 58.2204C83.0199 58.1555 83.1119 57.82 83.1606 57.6577C83.2525 57.3602 83.2958 57.0302 83.2796 56.7218C83.258 56.224 83.1876 55.5694 82.7548 55.2448C82.5059 55.0608 82.2192 55.0013 81.9379 54.8769C81.6728 54.7633 81.4239 54.6172 81.1912 54.4387C81.0884 54.3629 81.0019 54.2818 80.9207 54.1844C80.8937 54.1465 80.7909 53.9517 80.8558 54.0978C80.9748 54.3737 81.0398 54.509 81.0343 54.8877C81.0343 54.8661 80.9153 55.6884 81.0073 55.3584C80.9207 55.683 80.9802 55.4558 81.0127 55.38C81.0722 55.2285 81.148 55.0825 81.2183 54.9364C81.5213 54.3196 81.8351 53.7083 82.1272 53.0861C82.4464 52.4098 82.7873 51.7498 83.0199 51.0356C83.1714 50.5649 83.2039 49.9969 83.0632 49.5154C83.0145 49.3639 82.7494 48.6768 82.4735 48.9635Z" fill="url(#paint16_linear)"/>
<path d="M106.82 59.6225C106.939 59.9904 107.079 60.2447 107.334 60.5314C107.501 60.7208 107.696 60.8777 107.896 61.0346C108.243 61.3051 108.6 61.5539 108.957 61.8082C109.303 62.0625 109.655 62.3168 110.001 62.5656C110.174 62.6901 110.347 62.8145 110.52 62.9444C110.623 63.0201 110.72 63.0904 110.818 63.1662C110.861 63.1986 110.904 63.2311 110.948 63.2636C110.731 63.0417 110.623 62.7604 110.618 62.4142C110.623 61.9868 110.629 61.5539 110.639 61.1265C110.634 61.1428 110.629 61.1536 110.629 61.1698C110.758 60.9101 110.894 60.6504 111.023 60.3907C111.013 60.4016 110.996 60.4178 110.986 60.4286C110.515 60.8777 110.493 61.6513 110.553 62.2573C110.585 62.5656 110.634 62.9173 110.785 63.1932C110.867 63.3447 111.078 63.7342 111.305 63.6531C111.505 63.5882 111.592 63.5503 111.721 63.3663C111.927 63.0688 111.992 62.663 112.019 62.3114C112.068 61.6621 111.981 60.7857 111.521 60.2717C111.316 60.0445 111.029 59.8822 110.78 59.7145C110.547 59.5576 110.315 59.4061 110.082 59.2546C109.622 58.957 109.146 58.6811 108.675 58.3998C108.448 58.2645 108.226 58.1239 107.994 58.0049C107.739 57.8696 107.512 57.8425 107.242 57.7722C107.198 57.7884 107.15 57.8047 107.106 57.8263C106.679 58.2862 106.63 59.0328 106.82 59.6225Z" fill="url(#paint17_linear)"/>
<path d="M46.6303 56.7381C46.7818 57.3008 47.0848 57.62 47.5879 57.8851C47.9342 58.0691 48.2967 58.2314 48.6483 58.4045C49.3517 58.7507 50.0604 59.0862 50.7691 59.4162C50.9856 59.519 51.1749 59.4216 51.3048 59.2323C51.6835 58.6642 51.6997 57.9176 51.5536 57.2683C51.4562 56.8301 51.3102 56.354 50.8773 56.1538C50.4716 55.9699 50.0712 55.7859 49.6655 55.6074C48.8593 55.2557 48.0532 54.8446 47.2038 54.6119C47.2579 54.6282 47.3174 54.6444 47.3715 54.6606C47.3174 54.639 47.2741 54.6065 47.2255 54.5903C46.8684 54.4496 46.7061 54.8446 46.6249 55.1313C46.4788 55.6399 46.4951 56.2242 46.6303 56.7381Z" fill="url(#paint18_linear)"/>
<path d="M31.6984 58.3234C31.7957 58.5506 31.9094 58.7508 32.1095 58.8968C32.234 58.9888 32.4125 59.0105 32.5586 59.0537C32.5045 59.0375 32.445 59.0213 32.3909 59.0051C32.9211 59.1674 33.4296 59.3675 33.9436 59.5785C34.1816 59.6759 34.4197 59.7787 34.6523 59.8923C34.9391 60.0276 35.2042 60.2061 35.518 60.2711C35.729 60.3143 35.9237 59.9194 35.9724 59.8004C36.0806 59.5082 36.1185 59.1998 36.1293 58.8914C36.1455 58.3017 36.0806 57.593 35.6153 57.171C35.3448 56.9221 34.912 56.776 34.5766 56.6354C34.1925 56.4676 33.8083 56.3324 33.408 56.2188C33.224 56.1647 33.0401 56.116 32.8561 56.0673C32.683 56.024 32.472 55.9483 32.2989 55.9428C31.9905 55.9374 31.8282 56.1538 31.7092 56.4027C31.4224 56.9546 31.4603 57.7607 31.6984 58.3234Z" fill="url(#paint19_linear)"/>
<path d="M10.2903 60.8058C9.93323 60.5245 9.59779 60.2107 9.2299 59.9348C9.06218 59.8104 8.89447 59.6859 8.73757 59.5507C8.52657 59.3721 8.82954 59.6535 8.63478 59.4533C8.54821 59.3667 8.46706 59.2856 8.38591 59.1936C8.32639 59.1287 8.27229 59.0583 8.21278 58.9934C8.14245 58.896 8.14245 58.9014 8.21278 59.0096C8.35885 59.383 8.39673 59.7617 8.32639 60.1296C8.30475 60.2486 8.30475 60.2486 8.3318 60.1242C8.34803 60.0592 8.36426 59.9943 8.3805 59.9294C8.40755 59.832 8.42919 59.7292 8.45624 59.6318C8.57526 59.172 8.6997 58.7121 8.83495 58.2522C8.862 58.1548 8.89446 58.0575 8.92152 57.9601C8.9648 57.8248 8.95939 57.8302 8.91611 57.9817C8.93775 57.9168 8.95939 57.8519 8.97562 57.7869C9.04054 57.5759 9.11087 57.3649 9.18121 57.1539C9.32728 56.7211 9.47877 56.2883 9.63566 55.8555C9.79797 55.4064 9.9711 54.9682 10.155 54.53C10.247 54.3082 10.3444 54.0918 10.4364 53.8754C10.5987 53.4912 10.6744 53.0963 10.7231 52.6797C10.7664 52.3389 10.6852 50.6725 9.98192 51.0134C9.67895 51.1594 9.56533 51.5165 9.43549 51.8087C9.32728 52.0575 9.21908 52.3064 9.11628 52.5607C8.9107 53.0638 8.70511 53.5724 8.51575 54.0864C8.11539 55.163 7.76914 56.2613 7.46617 57.3704C7.07663 58.7824 6.61677 60.5462 7.73668 61.7526C8.07752 62.1205 8.47247 62.4722 8.89446 62.7481C9.08923 62.8725 9.284 62.9645 9.50582 63.0294C9.74928 63.0998 9.9711 63.116 10.22 63.1322C10.3877 63.1431 10.5283 62.8942 10.5716 62.7752C10.6582 62.5588 10.6907 62.3261 10.6961 62.0935C10.7069 61.6661 10.6582 61.0872 10.2903 60.8058Z" fill="url(#paint20_linear)"/>
<path d="M91.8657 57.9109C91.9847 58.4736 92.266 58.8036 92.7367 59.0903C93.0667 59.2905 93.4076 59.4636 93.7376 59.653C94.4031 60.0263 95.0739 60.3942 95.7448 60.7567C95.9504 60.8703 96.1397 60.7837 96.275 60.5998C96.6699 60.0533 96.7186 59.3175 96.6104 58.6683C96.5401 58.2301 96.4211 57.754 96.0099 57.5376C95.6258 57.3374 95.2471 57.1318 94.8575 56.9425C94.0893 56.5584 93.3318 56.1147 92.5149 55.8442C92.569 55.8604 92.6231 55.8821 92.6718 55.8983C92.6231 55.8767 92.5798 55.8442 92.5311 55.8172C92.1903 55.6603 92.0172 56.0444 91.9252 56.3257C91.7683 56.818 91.7521 57.3969 91.8657 57.9109Z" fill="url(#paint21_linear)"/>
<path d="M65.9238 58.5848C65.5336 58.5033 65.6117 58.3131 65.6897 57.9599C65.8457 57.7698 66.3399 57.5795 66.8341 57.0361C67.3283 56.4927 68.1346 56.5199 69.0969 56.7373C70.0592 56.9546 71.1776 57.2807 71.0216 57.5795C70.8655 57.8784 70.1373 58.3675 69.7471 58.5848C69.357 58.8022 68.7328 58.8022 67.9265 58.8565C67.1202 58.9109 66.3139 58.6663 65.9238 58.5848Z" fill="url(#paint22_linear)"/>
</g>
</g>
<defs>
<linearGradient id="paint0_linear" x1="65.0872" y1="-0.00524902" x2="65.0872" y2="69.8353" gradientUnits="userSpaceOnUse">
<stop stop-color="#361141"/>
<stop offset="1" stop-color="#280B31"/>
</linearGradient>
<linearGradient id="paint1_linear" x1="44.3602" y1="30.3641" x2="44.3602" y2="5.4856" gradientUnits="userSpaceOnUse">
<stop offset="0.108212" stop-color="#B3C2D0"/>
<stop offset="0.5084" stop-color="white"/>
</linearGradient>
<linearGradient id="paint2_linear" x1="68.6118" y1="29.3857" x2="68.6118" y2="5.21224" gradientUnits="userSpaceOnUse">
<stop offset="0.0957621" stop-color="#B3C2D0"/>
<stop offset="0.5084" stop-color="white"/>
</linearGradient>
<linearGradient id="paint3_linear" x1="89.6688" y1="31.0285" x2="89.6688" y2="6.03966" gradientUnits="userSpaceOnUse">
<stop offset="0.104213" stop-color="#B3C2D0"/>
<stop offset="0.5084" stop-color="white"/>
</linearGradient>
<linearGradient id="paint4_linear" x1="111.324" y1="35.9274" x2="111.324" y2="8.06923" gradientUnits="userSpaceOnUse">
<stop offset="0.112744" stop-color="#B3C2D0"/>
<stop offset="0.5084" stop-color="white"/>
</linearGradient>
<linearGradient id="paint5_linear" x1="21.0682" y1="34.962" x2="21.0682" y2="8.39126" gradientUnits="userSpaceOnUse">
<stop offset="0.127158" stop-color="#B3C2D0"/>
<stop offset="0.5084" stop-color="white"/>
</linearGradient>
<linearGradient id="paint6_linear" x1="41.4887" y1="10.5499" x2="41.4887" y2="17.4833" gradientUnits="userSpaceOnUse">
<stop/>
<stop offset="1" stop-opacity="0"/>
</linearGradient>
<linearGradient id="paint7_linear" x1="22.5972" y1="25.4799" x2="22.5972" y2="64.4585" gradientUnits="userSpaceOnUse">
<stop stop-color="#FF1469"/>
<stop offset="1" stop-color="#AB1D1D"/>
</linearGradient>
<linearGradient id="paint8_linear" x1="77.5147" y1="27.6334" x2="77.5147" y2="64.4218" gradientUnits="userSpaceOnUse">
<stop stop-color="#FF1469"/>
<stop offset="1" stop-color="#AB1D1D"/>
</linearGradient>
<linearGradient id="paint9_linear" x1="35.8581" y1="27.093" x2="35.8581" y2="36.6026" gradientUnits="userSpaceOnUse">
<stop stop-color="white"/>
<stop offset="1" stop-color="white" stop-opacity="0"/>
</linearGradient>
<linearGradient id="paint10_linear" x1="27.166" y1="47.8641" x2="27.166" y2="53.9018" gradientUnits="userSpaceOnUse">
<stop stop-color="white"/>
<stop offset="1" stop-color="white" stop-opacity="0"/>
</linearGradient>
<linearGradient id="paint11_linear" x1="56.6855" y1="38.4142" x2="56.6855" y2="47.4396" gradientUnits="userSpaceOnUse">
<stop stop-color="white"/>
<stop offset="1" stop-color="white" stop-opacity="0"/>
</linearGradient>
<linearGradient id="paint12_linear" x1="80.5445" y1="36.3668" x2="80.5445" y2="41.8247" gradientUnits="userSpaceOnUse">
<stop stop-color="white"/>
<stop offset="1" stop-color="white" stop-opacity="0"/>
</linearGradient>
<linearGradient id="paint13_linear" x1="73.7164" y1="49.9524" x2="73.7164" y2="55.4479" gradientUnits="userSpaceOnUse">
<stop stop-color="white"/>
<stop offset="1" stop-color="white" stop-opacity="0"/>
</linearGradient>
<linearGradient id="paint14_linear" x1="96.4037" y1="29.3077" x2="96.4037" y2="36.9415" gradientUnits="userSpaceOnUse">
<stop stop-color="white"/>
<stop offset="1" stop-color="white" stop-opacity="0"/>
</linearGradient>
<linearGradient id="paint15_linear" x1="116.989" y1="44.1476" x2="116.989" y2="52.7765" gradientUnits="userSpaceOnUse">
<stop stop-color="white"/>
<stop offset="1" stop-color="white" stop-opacity="0"/>
</linearGradient>
<linearGradient id="paint16_linear" x1="81.433" y1="48.8943" x2="81.433" y2="58.3159" gradientUnits="userSpaceOnUse">
<stop stop-color="#2B0101" stop-opacity="0"/>
<stop offset="1" stop-color="#330202"/>
</linearGradient>
<linearGradient id="paint17_linear" x1="109.373" y1="57.7722" x2="109.373" y2="63.6641" gradientUnits="userSpaceOnUse">
<stop stop-color="#2B0101" stop-opacity="0"/>
<stop offset="1" stop-color="#330202"/>
</linearGradient>
<linearGradient id="paint18_linear" x1="49.0805" y1="54.5609" x2="49.0805" y2="59.4578" gradientUnits="userSpaceOnUse">
<stop stop-color="#2B0101" stop-opacity="0"/>
<stop offset="1" stop-color="#330202"/>
</linearGradient>
<linearGradient id="paint19_linear" x1="33.8192" y1="55.9427" x2="33.8192" y2="60.2744" gradientUnits="userSpaceOnUse">
<stop stop-color="#2B0101" stop-opacity="0"/>
<stop offset="1" stop-color="#330202"/>
</linearGradient>
<linearGradient id="paint20_linear" x1="8.88291" y1="50.9677" x2="8.88291" y2="63.1326" gradientUnits="userSpaceOnUse">
<stop stop-color="#2B0101" stop-opacity="0"/>
<stop offset="1" stop-color="#330202"/>
</linearGradient>
<linearGradient id="paint21_linear" x1="94.2262" y1="55.7808" x2="94.2262" y2="60.8077" gradientUnits="userSpaceOnUse">
<stop stop-color="#2B0101" stop-opacity="0"/>
<stop offset="1" stop-color="#330202"/>
</linearGradient>
<linearGradient id="paint22_linear" x1="68.3311" y1="56.592" x2="68.3311" y2="58.8643" gradientUnits="userSpaceOnUse">
<stop stop-color="#2B0101" stop-opacity="0"/>
<stop offset="1" stop-color="#330202"/>
</linearGradient>
<clipPath id="clip0">
<rect width="130.186" height="69.8352" fill="white"/>
</clipPath>
</defs>
</svg>
