<svg width="25" height="25" viewBox="0 0 25 25" fill="none" xmlns="http://www.w3.org/2000/svg">
<path d="M12.5 25C19.4036 25 25 19.4036 25 12.5C25 5.59644 19.4036 0 12.5 0C5.59644 0 0 5.59644 0 12.5C0 19.4036 5.59644 25 12.5 25Z" fill="#6DA544"/>
<path d="M12.4999 4.8916L22.826 12.5003L12.4999 20.109L2.17383 12.5003L12.4999 4.8916Z" fill="#FFDA44"/>
<path d="M12.5001 16.8479C14.9014 16.8479 16.8479 14.9014 16.8479 12.5001C16.8479 10.0989 14.9014 8.15234 12.5001 8.15234C10.0989 8.15234 8.15234 10.0989 8.15234 12.5001C8.15234 14.9014 10.0989 16.8479 12.5001 16.8479Z" fill="#F0F0F0"/>
<path d="M10.3268 12.2285C9.57075 12.2285 8.84111 12.3435 8.1543 12.5569C8.18472 14.9319 10.1185 16.8481 12.5007 16.8481C13.9738 16.8481 15.2747 16.1148 16.0612 14.9942C14.7157 13.3098 12.6453 12.2285 10.3268 12.2285Z" fill="#0052B4"/>
<path d="M16.7684 13.3332C16.8208 13.0634 16.8491 12.7852 16.8491 12.5001C16.8491 10.0989 14.9025 8.15234 12.5013 8.15234C10.7096 8.15234 9.17148 9.23638 8.50586 10.7841C9.09424 10.6622 9.70342 10.598 10.3274 10.598C12.8526 10.5979 15.1371 11.6477 16.7684 13.3332Z" fill="#0052B4"/>
</svg>
