<svg width="25" height="25" viewBox="0 0 25 25" fill="none" xmlns="http://www.w3.org/2000/svg">
<path d="M12.5 25C19.4036 25 25 19.4036 25 12.5C25 5.59644 19.4036 0 12.5 0C5.59644 0 0 5.59644 0 12.5C0 19.4036 5.59644 25 12.5 25Z" fill="#F0F0F0"/>
<path d="M25.0008 12.4999C25.0008 7.54414 22.1167 3.26211 17.9355 1.24023V23.7595C22.1167 21.7377 25.0008 17.4557 25.0008 12.4999Z" fill="#D80027"/>
<path d="M0 12.4999C0 17.4557 2.88403 21.7377 7.06523 23.7596V1.24023C2.88403 3.26211 0 7.54414 0 12.4999Z" fill="#D80027"/>
<path d="M14.6741 14.1301L16.8479 13.0431L15.761 12.4997V11.4127L13.5871 12.4997L14.6741 10.3257H13.5871L12.5001 8.69531L11.4132 10.3257H10.3262L11.4132 12.4997L9.23926 11.4127V12.4997L8.15234 13.0431L10.3262 14.1301L9.78276 15.217H11.9567V16.8475H13.0436V15.217H15.2175L14.6741 14.1301Z" fill="#D80027"/>
</svg>
