<svg width="25" height="25" viewBox="0 0 25 25" fill="none" xmlns="http://www.w3.org/2000/svg">
<path d="M12.5 25C19.4036 25 25 19.4036 25 12.5C25 5.59644 19.4036 0 12.5 0C5.59644 0 0 5.59644 0 12.5C0 19.4036 5.59644 25 12.5 25Z" fill="#D80027"/>
<path d="M6.83984 7.60742L7.91895 10.9277H11.4102L8.58789 12.9834L9.66699 16.3037L6.83984 14.2529L4.0127 16.3037L5.09668 12.9834L2.26953 10.9277H5.76074L6.83984 7.60742Z" fill="#FFDA44"/>
<path d="M14.8174 19.3604L13.9922 18.3447L12.7715 18.8184L13.4795 17.7197L12.6543 16.6992L13.919 17.0361L14.6318 15.9375L14.7002 17.2461L15.9697 17.583L14.7441 18.0518L14.8174 19.3604Z" fill="#FFDA44"/>
<path d="M16.46 16.3818L16.8506 15.1318L15.7812 14.375L17.0898 14.3555L17.4756 13.1055L17.9004 14.3457L19.209 14.3311L18.1592 15.1123L18.5791 16.3525L17.5098 15.5957L16.46 16.3818Z" fill="#FFDA44"/>
<path d="M18.6709 9.1748L18.0947 10.3516L19.0322 11.2646L17.7383 11.0791L17.1621 12.251L16.9375 10.9619L15.6387 10.7764L16.8008 10.166L16.5762 8.87207L17.5137 9.78516L18.6709 9.1748Z" fill="#FFDA44"/>
<path d="M14.8525 5.61035L14.7549 6.91406L15.9707 7.40723L14.6963 7.71973L14.6035 9.02832L13.915 7.91504L12.6406 8.22754L13.4854 7.22656L12.792 6.11816L14.0078 6.61133L14.8525 5.61035Z" fill="#FFDA44"/>
</svg>
