<svg width="25" height="25" viewBox="0 0 25 25" fill="none" xmlns="http://www.w3.org/2000/svg">
<path d="M12.5 25C19.4036 25 25 19.4036 25 12.5C25 5.59644 19.4036 0 12.5 0C5.59644 0 0 5.59644 0 12.5C0 19.4036 5.59644 25 12.5 25Z" fill="#F0F0F0"/>
<path d="M12.4999 0C7.54414 0 3.26211 2.88403 1.24023 7.06523H23.7595C21.7377 2.88403 17.4556 0 12.4999 0Z" fill="#FF9811"/>
<path d="M12.4999 24.9998C17.4556 24.9998 21.7377 22.1158 23.7596 17.9346H1.24023C3.26211 22.1158 7.54414 24.9998 12.4999 24.9998Z" fill="#6DA544"/>
<path d="M12.5001 16.8479C14.9014 16.8479 16.8479 14.9014 16.8479 12.5001C16.8479 10.0989 14.9014 8.15234 12.5001 8.15234C10.0989 8.15234 8.15234 10.0989 8.15234 12.5001C8.15234 14.9014 10.0989 16.8479 12.5001 16.8479Z" fill="#0052B4"/>
<path d="M12.5006 15.2175C14.0014 15.2175 15.218 14.0009 15.218 12.5001C15.218 10.9993 14.0014 9.78271 12.5006 9.78271C10.9998 9.78271 9.7832 10.9993 9.7832 12.5001C9.7832 14.0009 10.9998 15.2175 12.5006 15.2175Z" fill="#F0F0F0"/>
<path d="M12.4997 9.14648L13.338 11.0477L15.4036 10.8231L14.1763 12.4997L15.4036 14.1763L13.338 13.9516L12.4997 15.8529L11.6613 13.9516L9.5957 14.1763L10.823 12.4997L9.5957 10.8231L11.6613 11.0477L12.4997 9.14648Z" fill="#0052B4"/>
</svg>
