<svg width="229" height="122" viewBox="0 0 229 122" fill="none" xmlns="http://www.w3.org/2000/svg">
<g clip-path="url(#clip0)">
<path d="M228.487 90.9256C228.04 89.4984 227.326 88.1279 226.365 86.8425C225.842 86.1526 225.29 85.491 224.719 84.8766C223.995 84.1016 223.215 83.44 222.387 82.9013C222.882 81.6253 223.168 80.3777 223.244 79.1301C223.444 75.9166 222.197 72.8543 219.78 70.5482C220.056 70.3308 220.313 70.1039 220.569 69.8582C222.92 67.5615 223.919 64.2251 223.187 61.0305C222.187 56.6166 221.169 52.1555 220.16 47.7606C219.913 46.3996 219.532 45.0953 219.037 43.8571C219.846 42.6757 220.512 41.3714 221.007 39.9536C221.74 37.8932 222.102 35.6532 222.083 33.2903C222.035 25.8993 219.637 19.803 215.155 15.6538C209.901 10.7957 203.23 8.90544 197.396 7.69565C190.325 6.23067 184.168 5.35168 178.563 5.01142C178.373 5.00197 178.182 4.99252 177.982 4.99252C177.288 4.99252 176.602 5.06813 175.927 5.21936C175.851 5.20045 175.774 5.1721 175.698 5.1532C168.247 3.12112 160.748 2.365 153.505 1.63724L152.639 1.55217C151.954 1.48601 151.269 1.44821 150.584 1.44821C148.623 1.44821 146.701 1.73175 144.902 2.28939C143.57 1.45766 142.028 0.947278 140.401 0.843311C135.652 0.559766 130.837 0.33293 126.088 0.181706C125.983 0.181706 125.878 0.172254 125.783 0.172254C123.966 0.172254 122.224 0.682636 120.73 1.60888C119.179 0.569218 117.332 -0.00732422 115.429 -0.00732422C115.125 -0.00732422 114.82 -0.00732422 114.516 -0.00732422C110.385 -0.00732422 106.207 0.0399333 102.096 0.1439C99.2889 0.21006 96.786 1.48601 95.0825 3.45193C94.3402 3.03606 93.5788 2.66745 92.808 2.35555C89.6294 1.08905 86.0511 0.474702 81.8733 0.474702C80.3982 0.474702 78.847 0.550314 76.9913 0.71099C70.8054 1.24027 65.8377 2.58239 61.7741 4.82239C59.7946 5.91877 57.9769 7.34595 56.3686 9.08502C56.1687 8.94325 55.9689 8.80148 55.769 8.65971C52.6476 6.59928 48.8028 5.55016 44.3395 5.55016C41.0658 5.55016 38.049 6.0889 35.6222 6.51421L35.3938 6.55202C28.361 7.80907 22.2608 9.2835 16.7506 11.0793C12.8678 12.3458 10.2317 15.9185 10.1936 19.9826L9.86056 57.902L9.83201 61.3518C9.80346 64.244 11.1168 66.9849 13.3817 68.7996C13.4388 68.8469 13.5054 68.8941 13.5625 68.9414C13.2866 69.4045 13.0201 69.8676 12.7536 70.3402C10.1651 74.8769 7.90012 79.5838 5.99678 84.3001C4.30281 88.5249 2.78014 93.1562 1.47636 98.0615L1.44781 98.156L1.42877 98.2505C1.15279 99.4036 0.89584 100.358 0.686473 101.086C0.153539 102.957 -0.0653449 104.687 0.0107886 106.379C0.124989 108.685 0.848257 110.906 2.09494 112.815C3.03709 114.261 4.34088 115.585 6.0634 116.861C6.9199 117.532 7.90964 118.146 9.05164 118.713C9.73684 119.015 10.3078 119.28 10.8122 119.516C11.1548 119.658 11.4974 119.8 11.8591 119.932C11.8591 119.932 11.8686 119.932 11.8686 119.942C12.6204 120.225 13.4008 120.499 14.2002 120.745C14.4095 120.792 14.7046 120.849 15.0662 120.906C19.0917 121.936 25.5631 122.919 30.5498 120.225C30.5498 120.225 30.5593 120.225 30.5593 120.216C31.7489 119.705 32.9576 119.101 34.1852 118.363C35.7269 117.56 37.2686 116.634 38.639 115.689C40.5043 114.403 42.2554 113.033 43.8351 111.615C44.5489 110.982 45.3197 110.282 46.1191 109.555C46.2428 109.715 46.3761 109.876 46.5093 110.037C47.7941 111.52 49.4119 112.759 51.458 113.827C52.9236 114.592 54.5319 115.225 56.2354 115.717C57.8247 116.171 59.5091 116.511 61.2411 116.719C62.2975 116.842 63.3443 116.908 64.3531 116.908C65.2286 116.908 66.1137 116.861 66.9607 116.766L68.3501 116.615L69.6349 116.067C72.9086 114.677 75.5923 112.768 77.7907 110.878C78.3997 111.246 79.0278 111.587 79.675 111.917C81.3214 112.74 83.0248 113.42 84.7093 113.931C86.4984 114.469 88.24 114.743 89.8768 114.743C90.3432 114.743 90.8 114.724 91.2377 114.677C91.9515 114.611 93.4266 114.46 95.0634 113.694L96.3006 113.108L96.8335 112.636C97.1476 112.418 97.4426 112.173 97.7281 111.927L97.9185 111.757L98.0993 111.577C99.2793 110.415 100.507 109.158 101.811 107.768C102.943 108.808 104.228 109.725 105.646 110.519C107.559 111.596 109.7 112.437 111.994 113.033C114.268 113.619 116.59 113.921 118.884 113.921H118.893C120.711 113.921 122.5 113.723 124.232 113.335C126.373 112.853 128.362 112.002 130.151 110.821C130.694 110.481 131.265 110.084 131.864 109.63L142.666 113.978C142.828 114.044 142.999 114.12 143.151 114.176C144.293 114.639 146.025 115.235 148.214 115.235C150.117 115.235 151.964 114.781 153.629 113.921L154.533 113.619L155.923 112.371C156.084 112.239 156.237 112.097 156.389 111.955C157.626 112.872 158.978 113.723 160.415 114.488C161.899 115.282 163.488 115.991 165.125 116.586C167.01 117.276 168.865 117.749 170.654 117.985L172.082 118.174L173.5 117.938C176.783 117.39 179.562 116.189 181.875 114.828C182.588 115.462 183.34 116.085 184.13 116.681C185.643 117.815 187.194 118.826 188.736 119.677C190.83 120.83 192.857 121.558 194.751 121.841C195.322 121.927 195.95 122.002 196.702 122.002C197.472 122.002 198.234 121.917 198.967 121.747L200.613 121.369L201.393 120.868C201.755 120.688 202.098 120.49 202.44 120.273L202.707 120.102L202.954 119.913C204.915 118.439 206.713 116.946 208.531 115.424C210.358 113.883 212.328 112.248 214.308 110.623C215.44 109.696 216.592 108.761 217.695 107.844C218.523 107.163 219.351 106.483 220.179 105.802C221.54 104.687 223.12 103.411 224.69 102.296C227.022 100.698 228.535 98.2127 228.887 95.3773C229.106 93.9123 228.963 92.4189 228.487 90.9256ZM37.0592 15.8618C36.0124 16.0508 34.9656 16.2398 33.9187 16.4477C34.9656 16.2493 36.0219 16.0508 37.0592 15.8618C37.5446 15.7767 38.0585 15.6822 38.5914 15.5971C38.0585 15.6916 37.5541 15.7767 37.0592 15.8618ZM89.2583 11.136C88.6016 10.8714 87.9259 10.6634 87.2312 10.4933C87.9164 10.6634 88.5921 10.8714 89.2583 11.136C89.7722 11.3439 90.267 11.5897 90.7429 11.8827C90.267 11.5991 89.7722 11.3439 89.2583 11.136ZM130.513 33.9614C130.237 33.4226 129.885 32.8934 129.447 32.3546C129.885 32.8934 130.237 33.4321 130.513 33.9614C131.065 34.9916 131.627 36.0124 132.179 37.0426C131.617 36.0218 131.065 34.9916 130.513 33.9614ZM155.551 21.8918C155.666 21.8067 155.789 21.7311 155.923 21.665C155.789 21.7217 155.666 21.7973 155.551 21.8918ZM191.544 25.37C192.552 25.559 193.314 25.7102 194.351 25.9087C193.314 25.7008 192.552 25.559 191.544 25.37ZM204.21 41.4281C204.21 41.3714 204.21 41.3241 204.21 41.2485C204.21 41.3241 204.21 41.3714 204.21 41.4281ZM212.566 33.054C212.518 30.5966 212.1 28.0069 211.005 25.7575C212.109 27.9975 212.528 30.5966 212.566 33.054ZM209.245 61.9945C210.805 62.3632 212.357 62.7318 213.908 63.1098C212.357 62.7318 210.796 62.3537 209.245 61.9945Z" fill="black"/>
<path d="M39.0844 46.3888C37.9044 46.5873 36.5816 46.8047 35.1826 46.9748L35.1445 50.831C36.3056 50.6798 37.4571 50.5002 38.5991 50.3017C42.7103 49.6023 47.5543 48.4587 50.5711 45.387C52.0938 43.8275 52.9598 41.8237 53.4356 39.7161C53.1787 40.0469 52.9027 40.3588 52.6077 40.6518C49.0579 44.2811 43.7857 45.5854 39.0844 46.3888Z" fill="#5B6169"/>
<path d="M19.3848 63.7141C19.3848 63.7425 19.3848 63.7614 19.3848 63.7897L22.3635 67.4664C25.6468 66.7481 28.93 66.0581 32.2228 65.3965C32.2323 64.1205 32.2418 62.8446 32.2609 61.5686C28.1687 62.3909 24.0479 63.2699 19.9843 64.1867L19.3848 63.7141Z" fill="#5B6169"/>
<path d="M90.2078 53.0412C86.3155 55.026 81.8807 55.6309 77.6648 55.99C75.8185 56.1507 74.3054 56.2169 72.9064 56.2169C69.8897 56.2169 67.3582 55.8672 65.1599 55.1583C62.8854 54.4211 60.8107 52.871 59.25 50.82C59.4784 51.7085 59.7734 52.578 60.1255 53.4192C61.22 55.9711 63.3327 58.2962 66.0354 59.1752C69.5851 60.3283 73.7629 60.1865 77.4078 59.8746C81.2526 59.5438 85.3923 59.0145 88.8945 57.2282C91.6162 55.8388 93.8146 53.2963 94.9471 50.4514C95.2326 49.7426 95.4705 49.0148 95.6799 48.2776C94.2429 50.2908 92.349 51.9542 90.2078 53.0412Z" fill="#5B6169"/>
<path d="M125.438 53.8366L122.964 52.2487C122.964 52.2487 122.964 52.2487 122.964 52.2393L122.85 52.296C123.744 54.1012 124.639 55.9064 125.533 57.7117C130.377 57.8723 135.221 58.0992 140.056 58.3922C139.342 57.0595 138.628 55.7269 137.914 54.3942C133.756 54.1579 129.568 53.9689 125.438 53.8366Z" fill="#5B6169"/>
<path d="M114.132 53.6577C110.107 53.6577 106.034 53.705 102.018 53.7995L101.979 53.7712C101.97 55.0755 101.96 56.3798 101.941 57.6841C106.31 57.5801 110.668 57.5329 115.027 57.5423C115.036 56.238 115.046 54.9337 115.065 53.6294L115.027 53.6672C114.732 53.6577 114.437 53.6577 114.132 53.6577Z" fill="#5B6169"/>
<path d="M157.424 56.2459C155.33 56.0285 153.161 55.8017 151.057 55.6221C147.622 55.3197 144.5 53.883 142.264 51.5769C142.169 51.4729 142.074 51.3784 141.978 51.2744L141.826 51.5013C142.178 53.297 143.016 54.9794 144.32 56.3215C146.156 58.2213 148.688 59.2798 151.305 59.5067C158.423 60.1305 165.656 61.1418 172.851 61.2552C172.774 59.9603 172.708 58.6655 172.632 57.3801C167.521 57.2856 162.392 56.7563 157.424 56.2459Z" fill="#5B6169"/>
<path d="M177.657 58.686C177.648 59.962 177.638 61.2379 177.619 62.5233C181.864 63.1944 186.099 63.9221 190.324 64.6971C190.333 63.2322 190.352 61.7766 190.362 60.3211L189.8 60.7748C185.784 60.0376 181.702 59.3287 177.657 58.686Z" fill="#5B6169"/>
<path d="M212.993 65.8029C208.653 64.7443 204.247 63.7236 199.879 62.7879L199.65 62.561C199.926 63.9504 200.202 65.3398 200.478 66.7291C204.97 67.6932 209.434 68.7234 213.897 69.8198C213.602 68.4777 213.297 67.145 212.993 65.8029Z" fill="#5B6169"/>
<path d="M52.7693 35.1863C52.2649 36.4717 51.5512 37.6626 50.5709 38.6645C47.5542 41.7362 42.7102 42.8798 38.599 43.5793C36.5338 43.929 34.4497 44.2409 32.3465 44.4015C32.3084 49.1556 32.2608 53.9098 32.2228 58.6733C27.9403 59.524 23.6673 60.4408 19.4038 61.4048C19.3943 62.1704 19.3943 62.936 19.3848 63.711L19.9843 64.1836C24.0479 63.2668 28.1687 62.3878 32.2608 61.5655C32.2894 58.0873 32.3179 54.5997 32.356 51.1216C33.2886 51.0554 34.2213 50.9514 35.1539 50.8286L35.192 46.9724C36.5909 46.8022 37.9137 46.5848 39.0938 46.3864C43.7951 45.583 49.0673 44.2787 52.6265 40.6493C52.912 40.3563 53.188 40.0444 53.4545 39.7136C53.8066 38.1635 53.9589 36.5473 54.0065 35.0256L52.7693 35.1863Z" fill="black"/>
<path d="M95.6044 41.8867C95.414 42.5199 95.2047 43.1343 94.9572 43.7486C93.8247 46.5935 91.6264 49.136 88.9046 50.5253C85.4025 52.3117 81.2627 52.8504 77.418 53.1718C75.9714 53.2946 74.4393 53.3892 72.9071 53.3892C70.566 53.3892 68.1868 53.1623 66.0456 52.4724C63.3428 51.5934 61.2206 49.2588 60.1357 46.7164C58.9651 43.9754 58.5369 40.9132 58.3941 37.8887C58.3561 38.7488 58.3466 39.6088 58.337 40.4595C58.3085 43.8242 58.3751 47.4725 59.2602 50.8373C60.8209 52.8882 62.8955 54.4383 65.17 55.1755C67.3684 55.8844 69.8998 56.2341 72.9166 56.2341C74.3155 56.2341 75.8287 56.1585 77.6749 56.0072C81.8908 55.6481 86.3256 55.0432 90.2179 53.0584C92.3592 51.962 94.253 50.308 95.6995 48.2948C96.2515 46.3572 96.5846 44.3346 96.7749 42.312L95.6044 41.8867Z" fill="black"/>
<path d="M127.371 51.0657L124.173 51.6895L122.965 52.2471C122.965 52.2471 122.965 52.2471 122.965 52.2566L125.439 53.8444C129.569 53.9767 133.757 54.1658 137.916 54.4021C137.392 53.4286 136.869 52.4456 136.345 51.4721C133.348 51.302 130.359 51.1696 127.371 51.0657Z" fill="black"/>
<path d="M115.057 49.2698C115.057 49.7896 115.047 50.3 115.047 50.8198C114.743 50.8198 114.448 50.8198 114.143 50.8198C110.098 50.8198 106.063 50.8671 102.019 50.9616C102.009 51.8973 102 52.833 101.99 53.7687L102.028 53.797C106.044 53.7025 110.127 53.6553 114.143 53.6553C114.448 53.6553 114.743 53.6553 115.038 53.6553L115.076 53.6175C115.085 52.1808 115.104 50.7537 115.114 49.317L115.057 49.2698Z" fill="black"/>
<path d="M151.306 52.7961C148.689 52.5692 146.157 51.5012 144.321 49.6109C143.969 49.2423 143.645 48.8548 143.359 48.4389L141.646 48.2971C141.646 48.4011 141.646 48.5145 141.646 48.6185C141.961 49.195 142.265 49.7716 142.579 50.3481L141.98 51.2649C142.075 51.3689 142.17 51.4728 142.265 51.5673C144.501 53.883 147.623 55.3196 151.058 55.6126C153.162 55.7922 155.331 56.019 157.425 56.2364C162.393 56.7468 167.532 57.2761 172.633 57.3706C172.576 56.4254 172.528 55.4803 172.471 54.5257C165.41 54.3934 158.301 53.4104 151.306 52.7961Z" fill="black"/>
<path d="M190.361 53.8813C190.351 55.2518 190.332 56.6128 190.323 57.9833C186.116 57.2083 181.9 56.49 177.675 55.8189C177.666 56.7735 177.656 57.7281 177.646 58.6827C181.691 59.3254 185.774 60.0343 189.79 60.7715L190.351 60.3178C190.37 58.1723 190.389 56.0363 190.408 53.8908L190.361 53.8813Z" fill="black"/>
<path d="M212.992 65.7997C212.754 64.7695 212.526 63.7393 212.288 62.7091C208.367 61.7639 204.436 60.866 200.487 60.0154C200.24 58.7867 200.002 57.558 199.754 56.3293L198.346 55.9607C198.783 58.1629 199.221 60.3651 199.659 62.5578L199.887 62.7847C204.237 63.7298 208.652 64.7411 212.992 65.7997Z" fill="black"/>
<path d="M89.2568 11.1341C86.9443 10.2173 84.3938 9.92432 81.8624 9.92432C80.4825 9.92432 79.112 10.0094 77.7987 10.1228C74.0111 10.4441 69.8142 11.1908 66.3882 13.0811C63.6189 14.6123 61.5252 17.391 60.3642 20.2737C58.6607 24.4985 58.3657 29.281 58.3276 33.7421C58.2895 37.9953 58.4132 42.7021 60.1262 46.7096C61.2207 49.2615 63.3334 51.5865 66.0361 52.4655C68.1774 53.1649 70.547 53.3823 72.8976 53.3823C74.4394 53.3823 75.9715 53.2878 77.4086 53.165C81.2533 52.8341 85.3931 52.3049 88.8952 50.5185C91.617 49.1292 93.8153 46.5867 94.9478 43.7418C96.6037 39.5737 96.9558 34.8385 96.9939 30.4435C97.032 26.1242 96.7845 21.4079 95.1762 17.3059C94.1294 14.5934 91.9596 12.2116 89.2568 11.1341Z" fill="white"/>
<path d="M128.571 31.3981C127.715 30.5474 126.982 29.9898 126.382 29.7346C126.382 29.6401 126.382 29.5928 126.382 29.4983C127.839 28.9407 129.076 27.7687 130.094 25.9729C133.32 20.7368 136.565 15.5006 139.82 10.2834C135.138 9.99985 130.465 9.78246 125.773 9.63124C122.823 14.8012 119.883 19.9901 116.951 25.1695C116.038 25.1601 115.572 25.1601 114.658 25.1601C115.077 23.5249 115.296 21.767 115.305 19.8861C115.334 16.408 115.362 12.9298 115.4 9.45166C115.105 9.45166 114.801 9.45166 114.506 9.45166C110.442 9.45166 106.378 9.49892 102.315 9.59343C102.191 23.3832 102.077 37.1729 101.953 50.9627C106.017 50.8681 110.08 50.8209 114.134 50.8209C114.439 50.8209 114.734 50.8209 115.039 50.8209C115.077 46.322 115.115 41.8325 115.153 37.3336C115.162 36.2183 115.01 34.9518 114.705 33.553C115.572 33.553 116.009 33.5624 116.875 33.5624C119.768 39.3657 122.652 45.1783 125.526 51.0005C130.37 51.1611 135.214 51.388 140.048 51.681C136.879 45.7643 133.701 39.8571 130.503 33.9594C130.075 33.1088 129.428 32.2487 128.571 31.3981Z" fill="white"/>
<path d="M157.158 43.4124C156.397 43.3368 155.798 43.0721 155.36 42.6279C154.922 42.1837 154.703 41.645 154.713 41.0023C154.732 39.008 154.741 38.0156 154.76 36.0308C159.928 36.5601 165.086 37.1744 170.234 37.8644C170.263 34.9911 170.282 32.1084 170.31 29.2351C165.162 28.5452 160.004 27.9308 154.836 27.4016C154.846 25.7948 154.855 24.9914 154.874 23.3847C154.884 22.742 155.103 22.2505 155.55 21.8913C155.912 21.5983 156.378 21.4566 156.959 21.4566C157.092 21.4566 157.225 21.466 157.358 21.4755C162.421 22.0236 167.474 22.6474 172.528 23.3563C172.756 20.3318 172.985 17.2979 173.204 14.2734C166.209 12.3737 158.833 11.6837 151.677 10.9654C151.315 10.9276 150.944 10.9087 150.582 10.9087C148.432 10.9087 146.29 11.5608 144.644 12.988C142.731 14.6515 141.827 17.1089 141.846 19.5946C141.78 27.2692 141.713 34.9438 141.646 42.6185C141.599 45.2082 142.512 47.7412 144.33 49.622C146.167 51.5218 148.698 52.5803 151.315 52.8072C158.434 53.431 165.666 54.4423 172.861 54.5557C172.69 51.4651 172.518 48.3839 172.347 45.2932C167.284 44.5938 162.231 43.9606 157.158 43.4124Z" fill="white"/>
<path d="M210.833 49.6212C210.195 45.8785 207.854 42.8634 204.209 41.6064C204.209 41.4646 204.209 41.389 204.209 41.2472C204.637 41.2945 205.056 41.3228 205.456 41.3228C210.005 41.3228 212.603 38.0621 212.574 33.3363C212.546 29.5085 211.642 25.2931 208.672 22.5522C205.104 19.2442 200.05 17.8831 195.454 16.9285C189.782 15.7566 183.862 14.7831 177.991 14.4333C177.867 28.2231 177.753 42.0128 177.629 55.8025C181.873 56.4736 186.108 57.2013 190.334 57.9764C190.381 52.9387 190.419 47.9011 190.467 42.8729C192.066 43.1753 192.856 43.3266 194.454 43.6385C195.558 43.8558 196.367 44.2055 196.853 44.6876C197.347 45.1696 197.7 45.9919 197.928 47.1639C198.784 51.4454 199.631 55.7269 200.488 60.0179C204.98 60.9819 209.443 62.0121 213.906 63.1085C212.879 58.6096 211.86 54.1202 210.833 49.6212ZM198.718 34.48C198.385 34.7068 197.88 34.8202 197.195 34.8202C196.596 34.8202 195.863 34.7351 194.997 34.565C193.217 34.2153 192.323 34.0357 190.534 33.7049C190.562 30.8695 190.581 28.034 190.61 25.1891C192.399 25.5199 193.284 25.6995 195.073 26.0492C196.938 26.4178 198.166 26.9566 198.775 27.6465C199.384 28.3365 199.679 29.5368 199.66 31.257C199.651 32.9772 199.336 34.0452 198.718 34.48Z" fill="white"/>
<path d="M50.4958 16.5316C48.7447 15.3785 46.5749 15.0005 44.3385 15.0005C41.8165 15.0005 39.2185 15.4825 37.0582 15.8606C31.2816 16.8813 25.3717 18.214 19.7093 20.057C19.5856 33.8468 19.4714 47.6365 19.3477 61.4262C23.6302 60.4622 27.9222 59.5454 32.2237 58.6853C32.2618 53.9312 32.3094 49.1771 32.3474 44.4135C34.4506 44.2623 36.5348 43.9504 38.5999 43.5912C42.7111 42.8918 47.5551 41.7482 50.5719 38.6765C53.5126 35.6803 53.9884 31.0113 54.0169 27.1551C54.0455 23.7148 53.8076 18.7244 50.4958 16.5316ZM40.1226 33.2041C39.523 33.9507 38.343 34.48 36.6014 34.8014C34.936 35.1133 34.0985 35.2739 32.4331 35.5953C32.4616 32.3534 32.4902 29.121 32.5188 25.8792C34.1842 25.5483 35.0216 25.3971 36.6871 25.0852C37.3247 24.9624 37.8862 24.9056 38.3715 24.9056C39.209 24.9056 39.818 25.0852 40.1892 25.4349C40.7792 25.9926 41.0647 27.2496 41.0457 29.2061C41.0362 31.1342 40.7221 32.4668 40.1226 33.2041Z" fill="white"/>
<path d="M93.7767 17.646C93.3389 16.5213 92.6537 15.4533 91.8162 14.5648C90.9597 13.6669 89.9605 12.9675 88.9041 12.5517C87.096 11.8333 84.9166 11.4836 82.2234 11.4836C81.0814 11.4836 79.8442 11.5404 78.3216 11.6727C73.7821 12.0602 70.299 12.9486 67.6724 14.3947C65.4931 15.595 63.5993 17.8729 62.4858 20.6327C60.8775 24.6307 60.6206 29.3375 60.592 33.4111C60.5539 37.3713 60.6491 41.908 62.2384 45.6225C62.7047 46.7094 63.3804 47.7207 64.1893 48.543C65.0268 49.3842 65.9975 50.008 66.9872 50.3293C68.7002 50.887 70.7463 51.1516 73.2587 51.1516C74.5244 51.1516 75.9043 51.0854 77.6078 50.9342C81.3384 50.6129 85.2307 50.1025 88.3902 48.4863C90.6362 47.3426 92.5585 45.1783 93.5387 42.6925C95.1756 38.5717 95.423 33.7797 95.4516 30.0653C95.4992 26.3792 95.3374 21.6251 93.7767 17.646Z" fill="url(#paint0_linear)"/>
<path d="M115.076 31.3136C115.942 31.3136 116.37 31.323 117.255 31.323C117.969 31.3325 118.626 31.7389 118.94 32.3721C121.642 37.7879 124.383 43.3075 127.095 48.7989C130.426 48.9123 133.795 49.0635 137.136 49.2525C134.49 44.3188 131.825 39.3757 129.189 34.5176C129.18 34.4987 129.17 34.4893 129.161 34.4704C128.818 33.7899 128.285 33.0905 127.581 32.3911C126.658 31.4743 126.153 31.2002 125.982 31.1245C125.278 30.8221 124.83 30.1321 124.84 29.376V29.2532V29.1303C124.849 28.3553 125.335 27.6653 126.058 27.3818C127.076 26.9942 127.999 26.0869 128.789 24.6881C128.799 24.6692 128.808 24.6503 128.827 24.6314C131.483 20.3215 134.185 15.9549 136.879 11.6261C133.662 11.456 130.426 11.3142 127.229 11.2008C124.469 16.0305 121.699 20.9169 118.978 25.7372C118.645 26.3326 118.007 26.7012 117.322 26.7012C117.312 26.7012 117.312 26.7012 117.303 26.7012C116.408 26.6918 115.961 26.6918 115.019 26.6918C114.429 26.6918 113.877 26.4177 113.525 25.964C113.163 25.5009 113.039 24.9055 113.182 24.3384C113.563 22.8545 113.763 21.2288 113.772 19.5087C113.791 17.2308 113.81 14.953 113.829 12.6752L113.848 10.9834C110.765 10.9928 107.653 11.0212 104.569 11.0874C104.455 23.6201 104.351 36.1433 104.236 48.676C107.32 48.6193 110.432 48.5815 113.515 48.572L113.534 45.954L113.61 36.9561C113.62 35.9826 113.487 34.8579 113.201 33.6008C113.077 33.0432 113.22 32.4572 113.582 32.013C113.953 31.5688 114.495 31.3136 115.076 31.3136Z" fill="url(#paint1_linear)"/>
<path d="M153.295 27.0319L153.314 25.0282L153.333 23.0245C153.343 21.8147 153.818 20.7939 154.723 20.0756C155.427 19.5085 156.302 19.225 157.321 19.225C157.511 19.225 157.72 19.2344 157.92 19.2533C157.92 19.2533 157.92 19.2533 157.93 19.2533C162.317 19.7259 166.752 20.2646 171.148 20.8601L171.367 17.8923L171.558 15.3593C165.448 13.866 158.986 13.2138 152.724 12.5806L151.848 12.4955C151.544 12.4671 151.249 12.4482 150.944 12.4482C149.117 12.4482 147.461 13.0248 146.262 14.0644C144.882 15.2648 144.102 17.1456 144.111 19.2439C144.111 19.2533 144.111 19.2628 144.111 19.2722V19.4518L143.912 42.2961C143.912 42.3055 143.912 42.3055 143.912 42.315C143.873 44.4888 144.635 46.4926 146.062 47.967C147.499 49.4509 149.555 50.3866 151.839 50.5851C153.98 50.7741 156.169 51.0009 158.282 51.2183C162.526 51.6531 166.894 52.1067 171.196 52.2769L171.015 49.035L170.882 46.6249C166.38 46.0105 161.822 45.4529 157.321 44.9709C156.112 44.8385 155.122 44.3943 154.37 43.6288C153.58 42.8254 153.171 41.8046 153.181 40.661L153.228 35.6895C153.228 35.1602 153.466 34.6498 153.866 34.3001C154.218 33.9882 154.665 33.8181 155.132 33.8181C155.198 33.8181 155.265 33.8181 155.332 33.8275C159.776 34.2812 164.277 34.801 168.731 35.387L168.75 33.0431L168.769 30.5573C164.201 29.9619 159.586 29.4231 155.018 28.9506C154.028 28.8277 153.295 28.0054 153.295 27.0319Z" fill="url(#paint2_linear)"/>
<path d="M209.338 49.6982C209.328 49.6604 209.319 49.632 209.319 49.5942C208.786 46.428 206.825 44.0367 203.951 43.0538C203.18 42.7891 202.666 42.0614 202.666 41.2485V40.8894C202.666 40.3507 202.904 39.8403 203.313 39.4811C203.666 39.1787 204.113 39.0085 204.57 39.0085C204.646 39.0085 204.722 39.0085 204.798 39.018C205.15 39.0558 205.493 39.0842 205.816 39.0842C207.33 39.0842 208.548 38.6399 209.433 37.7609C210.489 36.7024 211.041 35.0578 211.032 33.0068C211.013 30.0863 210.422 26.0789 207.739 23.5931C204.551 20.6443 199.935 19.3778 195.424 18.4421C189.752 17.2701 184.756 16.5045 180.235 16.1265L179.902 53.8568C182.862 54.3389 185.85 54.8493 188.8 55.3785L188.848 50.1046L188.915 42.515C188.924 41.9574 189.172 41.4281 189.609 41.069C189.952 40.7854 190.38 40.6436 190.818 40.6436C190.932 40.6436 191.056 40.6531 191.17 40.672C192.788 40.9744 193.568 41.1257 195.177 41.4376C196.671 41.7306 197.775 42.241 198.546 42.9971C199.326 43.7626 199.849 44.8874 200.154 46.4563C200.925 50.3314 201.696 54.2065 202.476 58.0911C205.559 58.7622 208.662 59.471 211.736 60.2082C210.936 56.7017 210.127 53.1763 209.338 49.6982ZM200.182 35.6816C199.516 36.1447 198.66 36.3716 197.565 36.3716C196.842 36.3716 195.995 36.2771 194.996 36.0786C193.216 35.7289 192.341 35.5587 190.561 35.2185C189.657 35.0484 189 34.2639 189.01 33.3471L189.086 24.8313C189.095 24.2737 189.343 23.7444 189.781 23.3852C190.123 23.1017 190.552 22.9599 190.989 22.9599C191.104 22.9599 191.227 22.9693 191.341 22.9883C193.159 23.3285 194.035 23.4986 195.824 23.8483C198.117 24.302 199.678 25.0203 200.582 26.0505C201.515 27.1091 201.962 28.7064 201.943 30.9275C201.924 32.4492 201.724 34.6041 200.182 35.6816Z" fill="url(#paint3_linear)"/>
<path d="M49.81 17.7618C48.5728 16.949 46.9074 16.552 44.7091 16.552C42.4441 16.552 40.084 16.9679 37.9998 17.3365L37.7619 17.3743C31.8235 18.4234 26.6369 19.6426 21.9737 21.0887L21.6406 58.7057C24.6479 58.0441 27.6837 57.3919 30.7005 56.787C30.7291 53.7247 30.7576 50.6624 30.7766 47.6002L30.8052 44.0559C30.8147 43.0729 31.5856 42.2601 32.5658 42.1845C34.7261 42.0238 36.8483 41.693 38.6279 41.3905C42.5678 40.7195 46.955 39.6704 49.5531 37.0145C50.6475 35.8992 51.4088 34.4059 51.8847 32.4494C52.2653 30.8899 52.4461 29.0941 52.4652 26.7974C52.5032 23.4232 52.2273 19.3591 49.81 17.7618ZM43.3196 28.8862C43.3006 31.2585 42.8628 32.9503 41.9683 34.0467C41.0642 35.162 39.5415 35.8992 37.3051 36.3151C35.6302 36.627 34.8212 36.7782 33.1558 37.109C33.0321 37.1374 32.9084 37.1468 32.7847 37.1468C32.3469 37.1468 31.9186 36.9956 31.5665 36.712C31.1288 36.3529 30.8718 35.8047 30.8813 35.2376L30.8908 34.6516L30.967 25.5215C30.9765 24.6236 31.6141 23.858 32.4992 23.6879C34.1931 23.3571 35.0211 23.1964 36.6865 22.8845C37.4383 22.7427 38.1235 22.6766 38.7231 22.6766C40.0554 22.6766 41.1118 23.0263 41.8541 23.7257C42.8724 24.6803 43.3387 26.3154 43.3196 28.8862Z" fill="url(#paint4_linear)"/>
<path d="M69.7394 45.5357C66.3229 44.4394 60.8222 44.326 57.834 44.0991C64.8763 64.004 58.1576 57.9739 71.0622 62.7185C74.4501 51.7076 80.9501 48.9761 69.7394 45.5357ZM68.3309 51.2066C68.0264 50.753 67.541 50.0252 66.97 49.2218C67.4744 49.6282 68.8638 50.0441 68.3309 51.2066Z" fill="black"/>
<path d="M38.201 49.6487C35.7837 52.0305 32.6147 55.348 29.8739 58.5994C29.8739 58.5994 26.543 62.3233 22.8125 67.9942H26.3432L30.1213 63.1834L30.7494 63.2684L37.9821 54.9511L45.0149 47.7301L50.0873 45.8303L53.8559 43.9495C53.8559 43.9495 48.3458 43.9967 45.4527 44.7056C42.5596 45.4145 41.6651 46.2367 38.201 49.6487Z" fill="black"/>
<path d="M182.492 58.913C181.008 58.639 180.037 58.4594 180.037 58.4594L179.266 58.7902L179 58.5917C180.408 56.7014 181.636 55.3026 182.464 54.2251C183.235 53.2516 183.711 52.6562 183.91 52.1836C184.148 51.6165 184.339 50.4823 182.902 50.0665C181.465 49.6506 171.748 47.9021 170.026 47.6374C168.617 47.4201 167.209 47.231 166.457 47.1365C165.277 46.9758 164.182 48.006 163.935 48.3652C163.849 48.4975 163.811 48.5731 163.811 48.5731C163.592 48.9039 163.288 49.3671 162.945 49.9058C162.945 49.9152 162.936 49.9152 162.936 49.9247C161.442 52.2498 159.186 55.8697 159.186 55.8697C159.186 55.8697 158.101 55.7752 155.56 55.5767C153.019 55.3782 149.774 55.4444 148.137 55.5956C146.5 55.7468 146.377 56.295 146.377 56.9377C146.377 57.5804 146.215 60.7088 146.215 60.7088L148.708 61.8336L163.135 66.0867C163.135 66.0867 166.818 61.2381 170.273 56.7298C171.11 57.6844 172.671 59.1399 175.279 61.8525L174.118 63.5726C174.118 63.5726 177.744 64.4611 178.648 64.6974C179.552 64.9242 181.322 65.6047 182.064 64.8675C182.806 64.1303 183.968 63.4403 184.729 61.4555C185.49 59.4518 183.968 59.1871 182.492 58.913Z" fill="black"/>
<path d="M162.945 49.9246C162.945 49.9142 162.956 49.9142 162.956 49.9038C162.945 49.9142 162.945 49.9142 162.945 49.9246Z" fill="#230B16"/>
<path d="M83.1279 25.1694C77.18 22.5702 77.1705 18.4304 77.1705 18.4304C77.1705 18.4304 77.161 22.5607 71.213 25.1694C61.2871 29.5076 64.3135 39.7531 70.8705 39.7531C73.44 39.7531 75.6573 38.1652 76.6376 35.8968C76.6376 42.1159 74.6866 42.2955 71.9458 43.6282C72.1838 43.6187 75.5717 43.6187 77.1705 43.6187C78.7693 43.6187 82.1572 43.6187 82.3952 43.6282C79.6543 42.2955 77.7034 42.1159 77.7034 35.8968C78.6836 38.1652 80.901 39.7531 83.4705 39.7531C90.0275 39.7531 93.0538 29.5076 83.1279 25.1694Z" fill="black"/>
<path d="M77.9414 26.0578C79.2927 25.4623 80.3396 24.8007 81.139 24.1108C77.18 21.5778 77.1705 18.4304 77.1705 18.4304C77.1705 18.4304 77.161 22.5607 71.2131 25.1693C61.2871 29.5076 64.3135 39.753 70.8705 39.753C71.8602 39.753 72.7928 39.5167 73.6303 39.1009C70.3375 36.0764 70.3946 29.3658 77.9414 26.0578Z" fill="#586475"/>
<path d="M77.9414 26.0578C79.2927 25.4623 80.3396 24.8007 81.139 24.1108C77.18 21.5778 77.1705 18.4304 77.1705 18.4304C77.1705 18.4304 77.161 22.5607 71.2131 25.1693C61.2871 29.5076 64.3135 39.753 70.8705 39.753C71.8602 39.753 72.7928 39.5167 73.6303 39.1009C70.3375 36.0764 70.3946 29.3658 77.9414 26.0578Z" fill="url(#paint5_linear)"/>
<path d="M53.2076 84.9037C52.8936 84.3366 52.551 83.779 52.1798 83.2591C51.8087 82.7393 51.3614 82.2573 50.8665 81.8131C50.2384 81.246 49.5532 80.6411 48.8109 80.0551C48.0591 79.4691 47.3168 78.9304 46.565 78.4483C45.8132 77.9663 45.128 77.5788 44.5094 77.2858C43.8908 76.9928 43.3864 76.8794 43.0153 76.9455C42.9487 76.955 42.863 77.0211 42.7393 77.144C42.6156 77.2669 42.4633 77.7206 42.273 78.505C42.0826 79.2895 41.6354 80.4331 40.9216 81.917C39.9795 83.864 38.8946 85.7543 37.8001 87.6163C36.0871 90.5084 33.9268 93.2305 32.0235 95.8863C30.5484 97.9468 29.0924 100.196 27.5602 102.304C26.2564 104.09 25.3618 105.035 24.867 105.139C24.4958 105.215 24.3245 104.818 24.3531 103.958C24.3816 103.098 24.6766 101.595 25.2381 99.459C25.2952 99.3456 25.3333 99.2038 25.3333 99.0526C27.446 91.2268 30.5104 83.7506 34.2599 76.6525C38.7613 68.1367 44.4238 60.2069 50.6001 52.6835C51.9039 51.124 53.2552 49.5645 54.7684 48.213C55.7867 47.2962 56.567 46.8047 57.0619 46.7385C57.69 46.6535 57.8899 47.1166 57.671 48.0995C57.4521 49.092 56.9096 50.3868 56.0341 52.0125C55.8438 52.3527 55.5678 52.7969 55.1871 53.3735C54.816 53.9406 54.4067 54.5549 53.969 55.2071C53.5312 55.8592 53.1125 56.4925 52.7033 57.0974C52.294 57.7023 51.999 58.1654 51.8182 58.5057C50.5906 60.6039 49.3724 62.721 48.6396 65.0366C48.0686 66.823 48.5159 68.2974 49.9529 69.4316C50.4478 69.8758 51.1806 70.3389 52.1513 70.8304C53.122 71.3124 54.1498 71.7661 55.2442 72.1914C56.3386 72.6167 57.414 72.957 58.4799 73.2122C59.5458 73.4674 60.4213 73.5524 61.1065 73.4674C61.4776 73.4201 61.6965 73.3162 61.7632 73.1555C61.8869 72.9381 61.9154 72.6262 61.8583 72.2481C61.7917 71.8701 61.7346 71.3975 61.668 70.8304C61.6014 70.2728 61.6014 69.649 61.668 68.959C61.7346 68.2785 61.9249 67.5224 62.2295 66.7096C62.6101 65.6888 63.124 64.4412 63.7807 62.9857C64.4373 61.5396 65.1225 60.0273 65.8458 58.4773C66.5691 56.9178 67.2828 55.3867 68.0061 53.8839C68.7294 52.3811 69.4336 51.0484 69.8333 49.9993C70.252 48.9124 69.7381 47.8349 68.4248 47.0315C66.9212 46.1147 64.9322 45.4815 63.2097 45.1979C60.8496 44.8104 58.5275 44.5458 56.1769 44.5174C53.9595 44.4891 51.6374 44.5836 49.3915 44.9238C48.4588 45.0656 47.6118 45.2263 46.8695 45.4153C46.1177 45.6044 45.4801 45.9068 45.0043 46.1336C44.3952 46.4266 43.6053 46.8992 42.8535 47.6459C42.1112 48.3925 40.9216 49.5456 39.3038 51.1146C35.6589 54.725 32.2614 58.5057 29.2161 62.5414C26.2469 66.4733 23.4775 70.6886 21.0413 74.9702C18.7097 79.0721 16.597 83.4198 14.8364 87.8053C13.19 91.9073 11.8196 96.1604 10.6776 100.47C10.373 101.737 10.0875 102.805 9.84963 103.665C9.60219 104.525 9.49751 105.281 9.52606 105.924C9.55461 106.567 9.74495 107.143 10.078 107.663C10.4206 108.183 11.0202 108.75 11.8767 109.383C12.3716 109.79 13.0758 110.196 13.9989 110.602C14.922 111.009 15.9308 111.387 17.0062 111.718C18.0816 112.048 19.1379 112.304 20.1562 112.474C20.7462 112.568 21.2887 112.616 21.7836 112.606C23.1064 112.606 25.5236 112.54 29.5111 110.139C29.5206 110.139 29.5206 110.13 29.5301 110.13C30.7959 109.478 32.0711 108.731 33.2131 107.937C34.6691 106.935 36.1347 105.801 37.4575 104.61C38.8089 103.391 40.1793 102.172 41.5116 100.924C41.7591 100.678 42.1493 100.3 42.6822 99.7993C43.2056 99.2983 43.8052 98.7785 44.4523 98.2303C45.109 97.6916 45.7275 97.1623 46.3176 96.6519C46.9076 96.151 47.3644 95.7446 47.6689 95.4327C48.7919 94.3269 49.7912 93.3155 50.6667 92.3893C51.5422 91.463 52.2465 90.5746 52.7699 89.7145C53.3028 88.8639 53.6169 88.0416 53.7025 87.2477C53.8167 86.4537 53.6264 85.6693 53.2076 84.9037Z" fill="url(#paint6_linear)"/>
<path d="M219.406 93.7423C219.283 93.3358 219.054 92.92 218.731 92.4947C218.407 92.0693 218.074 91.6629 217.722 91.2849C217.37 90.9068 217.037 90.68 216.713 90.6044C216.523 90.5571 216.361 90.576 216.237 90.6516C215.343 91.5779 214.239 92.5608 212.926 93.6099C211.612 94.6591 210.185 95.6987 208.643 96.71C207.092 97.7308 205.512 98.7326 203.923 99.6778C202.314 100.642 200.801 101.53 199.383 102.334C200.088 100.803 200.849 99.3186 201.648 97.8915C202.448 96.4643 203.323 94.9899 204.256 93.4871C205.227 91.9181 206.245 90.3492 207.292 88.8275C208.481 87.0979 209.661 85.3493 210.851 83.6197C210.965 83.4496 211.022 83.3645 211.136 83.1944C212.802 81.0867 213.668 79.5272 213.734 78.5253C213.801 77.514 212.573 76.5972 210.08 75.775C208.224 75.1606 206.692 74.6597 205.503 74.2816C204.313 73.9036 203.399 73.6484 202.752 73.516C202.048 73.3743 201.705 73.431 201.686 73.6295C201.658 74.017 201.268 74.896 200.62 76.1625C200.04 75.2457 199.288 74.3383 198.356 73.4593C197.423 72.5803 196.376 71.7864 195.215 71.0965C194.054 70.3971 192.826 69.7827 191.542 69.2629C190.247 68.743 188.944 68.3177 187.763 68.1665C185.879 67.9302 183.747 67.7884 181.949 68.8376C181.425 69.0833 180.845 69.4614 180.198 69.9812C179.551 70.501 178.704 71.2382 177.676 72.07C176.172 73.2892 174.707 74.7258 173.403 76.153C171.975 77.7031 170.605 79.3665 169.282 81.0489C169.054 81.2757 168.768 81.4742 168.673 81.5971C167.759 82.6745 166.608 83.8182 165.209 85.0091C163.762 86.2472 162.268 87.4665 160.774 88.6384C159.223 89.8482 157.615 91.0391 155.987 92.1544C154.465 93.2035 152.932 94.2526 151.4 95.2923C152.733 92.4947 154.112 89.7065 155.549 86.9844C157.11 84.0545 158.776 81.1245 160.479 78.2701C162.23 75.3402 164.057 72.4102 165.894 69.537C166.817 68.1003 167.845 66.1344 168.835 64.471C168.93 64.3103 169.044 64.1402 169.158 63.9511C171.48 64.4899 174.04 65.1137 176.886 65.8414C180.236 67.5616 184.423 60.0855 180.892 60.1044C180.645 59.9437 177.333 59.3293 172.879 58.6583C175.087 55.6433 177.352 52.6755 177.733 52.1462C178.428 51.1821 178.218 50.8986 177.371 50.5205C176.524 50.1425 168.911 48.7531 167.56 48.4223C166.208 48.0821 166.046 48.186 164.714 50.3221L160.374 57.1177C152.97 56.4183 146.623 56.3521 147.565 58.1952C147.641 61.4181 146.537 59.7925 157.51 61.6072L157.186 62.1175C154.883 65.6808 152.58 69.2629 150.315 72.8355C148.954 74.9905 147.594 77.1643 146.271 79.3571V79.3476C146.271 79.3476 145.881 79.9998 145.538 80.151C145.195 80.3022 139.79 82.0791 137.829 82.7029C135.288 83.4874 132.728 84.2246 130.168 84.924C129.388 83.9883 128.57 83.081 127.723 82.2114C126.876 81.3324 126.143 80.444 125.515 79.5556C124.896 78.6577 124.449 77.7692 124.192 76.8713C123.935 75.9829 123.907 74.9338 124.287 74.1682C124.658 73.4121 125.315 72.6182 125.81 71.9282C126.295 71.2382 126.809 70.5955 127.323 70.0095C128.627 68.847 129.769 68.0247 130.749 67.5332C131.729 67.0418 132.548 66.8149 133.195 66.8338C133.518 66.8433 133.813 66.9094 134.08 67.0229C133.556 68.3555 132.738 69.7827 131.634 71.3138C131.501 71.5785 131.729 71.9187 132.319 72.3441C132.909 72.7599 133.642 73.1663 134.518 73.5444C135.403 73.9225 136.326 74.2627 137.306 74.5746C138.286 74.8771 139.105 75.0472 139.752 75.0755C140.532 75.1133 140.922 74.9432 140.922 74.5652C140.922 74.3478 141.037 74.0548 141.265 73.6956C141.493 73.327 141.75 72.9206 142.045 72.4764C142.34 72.0322 142.664 71.6068 143.026 71.191C143.387 70.7751 143.663 70.4443 143.853 70.1797C144.834 68.9888 145.633 67.9964 146.252 67.2024C146.87 66.3991 147.213 65.7375 147.279 65.1987C147.346 64.6694 147.118 64.2347 146.594 63.9039C146.071 63.5825 145.186 63.2895 143.949 63.0721C142.198 62.7602 140.722 62.5239 139.542 62.3349C138.372 62.1553 137.449 62.0514 136.802 62.023C136.078 61.9947 135.707 62.1553 135.631 62.3822C135.545 62.6279 135.384 62.9776 135.288 63.384C135.193 63.7904 135.079 64.2536 134.946 64.7829C133.709 64.0456 132.319 63.4313 130.787 62.9682C129.255 62.4956 127.732 62.2593 126.229 62.231C125.115 62.2121 124.04 62.3255 122.993 62.5618C121.946 62.798 121.004 63.2045 120.157 63.7999C118.72 64.764 117.378 65.832 116.141 67.004C114.904 68.1665 113.276 69.4803 112.62 70.6333C111.858 71.966 112.077 74.1398 112.762 75.6426C112.896 75.9356 113.048 76.2286 113.2 76.5216C112.572 77.136 111.23 78.4497 110.678 78.9696L110.669 78.979C110.488 79.1491 110.298 79.3287 110.107 79.5177C109.717 79.8958 109.317 80.2739 108.927 80.6519L108.918 80.6614C108.099 81.4459 107.328 82.1925 106.796 82.7218C106.786 82.7313 106.776 82.7407 106.776 82.7407C106.567 82.9486 106.367 83.1566 106.158 83.3645C106.148 83.374 106.139 83.3834 106.129 83.3929C105.092 84.4231 104.017 85.4249 102.941 86.3795C102.77 86.5308 102.589 86.6914 102.418 86.8427C102.361 86.8899 102.332 86.9183 102.332 86.9183C100.952 88.1375 99.5533 89.3473 98.1448 90.5193C96.6222 91.7858 95.09 93.0523 93.5483 94.2999C94.262 92.5892 95.0329 90.9257 95.8513 89.2906C96.6983 87.5988 97.5834 85.907 98.497 84.2435C99.4867 82.4288 100.524 80.6141 101.58 78.8278C102.789 76.7957 103.998 74.7636 105.206 72.7316C105.32 72.5331 105.387 72.4386 105.501 72.2401C106.577 70.6806 107.957 68.7714 108.147 66.9189C108.252 65.9359 106.957 65.2838 104.426 65.0853C102.542 64.9341 100.981 64.8112 99.7722 64.7261C98.5636 64.6411 97.6309 64.6127 96.9838 64.6411C96.2605 64.6789 95.9179 64.8207 95.9084 65.0191C95.8799 65.4256 95.4802 66.3896 94.833 67.8168C94.243 67.0418 93.4817 66.3235 92.53 65.6808C91.5878 65.038 90.522 64.4993 89.3514 64.0929C88.1809 63.677 86.9342 63.3746 85.6399 63.1666C84.3361 62.9587 83.0133 62.8642 81.8237 63.006C79.7967 63.2517 77.6459 63.6865 75.9615 65.1137C75.438 65.4823 74.8575 66.0116 74.2009 66.6921C73.5537 67.3726 72.7067 68.3083 71.6599 69.4046C70.1372 70.9925 68.7097 72.7788 67.3679 74.5368C65.6454 76.7957 64.018 79.2058 62.4953 81.5971C60.887 84.1206 59.3358 86.7765 57.9654 89.4324C56.7187 91.852 55.6053 94.4511 54.7012 97.0125C54.0921 98.7516 53.5972 100.198 53.3403 101.275C53.0833 102.362 53.2071 103.241 53.7305 103.846C54.2253 104.422 54.9581 104.942 55.8717 105.415C56.7758 105.887 57.7846 106.284 58.8885 106.596C59.9925 106.918 61.163 107.144 62.3907 107.296C63.6183 107.447 64.7889 107.456 65.9023 107.334C69.0619 105.991 71.6028 103.818 73.9534 101.455C76.9893 98.4019 79.7776 94.9615 82.4994 91.5495C81.6715 93.2886 80.8625 95.056 80.1012 96.8329C79.4826 98.2884 79.2828 99.158 79.3684 99.3943C79.5492 99.9235 80.006 100.717 80.8816 101.455C81.7571 102.192 82.7849 102.854 83.9555 103.439C85.126 104.025 86.3061 104.498 87.4766 104.848C88.6472 105.197 89.6179 105.301 90.3126 105.235C90.6267 105.207 90.8646 105.179 90.9978 105.112C91.0644 105.056 91.131 105.008 91.1977 104.98C91.2643 104.952 91.3309 104.904 91.3975 104.848C93.1866 103.08 94.9282 101.247 96.6317 99.4037C98.6016 97.2677 100.6 95.16 102.599 93.0617C104.588 90.973 106.586 88.8936 108.575 86.7954C108.642 86.7292 108.708 86.6536 108.775 86.5875C108.794 86.5686 108.813 86.5497 108.832 86.5308C109.622 85.699 110.412 84.8768 111.221 84.0639C111.392 83.8843 111.573 83.7048 111.782 83.5063C112.191 83.0999 112.896 82.3343 113.543 81.616C114.314 80.8504 115.132 80.0092 115.456 79.6784C115.494 79.7257 115.541 79.7729 115.579 79.8202C116.75 81.1056 117.978 82.3248 119.253 83.4779C120.528 84.6405 121.461 85.8408 122.041 87.0789C121.194 87.2869 120.404 87.4854 119.691 87.6744C118.967 87.8634 118.263 87.9957 117.635 88.1186C116.74 88.2982 115.656 88.629 114.456 88.9882C113.248 89.3473 112.087 89.8482 110.983 90.4909C109.869 91.1336 108.88 91.9087 107.995 92.816C107.11 93.7234 106.577 94.8575 106.377 96.2091C106.377 96.3036 106.377 96.3509 106.377 96.4548C106.339 96.521 106.32 96.5494 106.282 96.6155C106.282 96.7478 106.282 96.814 106.282 96.9369C106.282 97.9576 106.662 98.9311 107.405 99.8574C108.156 100.784 109.137 101.578 110.345 102.258C111.554 102.939 112.905 103.468 114.409 103.855C115.912 104.243 117.416 104.441 118.91 104.441C120.024 104.441 121.099 104.318 122.146 104.082C123.193 103.846 124.135 103.439 124.982 102.854C125.505 102.532 126.143 102.078 126.895 101.464C127.647 100.859 128.608 100.075 129.788 99.1391C130.111 98.8272 130.559 98.364 131.111 97.7592C131.663 97.1543 132.3 96.4265 133.023 95.5853C133.937 94.2621 134.308 92.9956 134.146 91.7858C133.985 90.5666 133.509 89.3568 132.728 88.147C134.165 87.7027 135.603 87.2491 137.04 86.7954C137.097 86.7765 137.154 86.7576 137.211 86.7387C137.515 86.6442 139.285 86.0865 139.933 85.8881C139.99 85.8692 140.037 85.8597 140.094 85.8408C140.466 85.7274 141.836 85.3493 142.968 85.0374C141.398 87.8162 139.866 90.6327 138.562 93.5438C137.42 96.0862 137.078 97.6835 137.534 98.2979C137.991 98.9122 138.772 99.7345 139.885 100.765C140.989 101.795 142.198 102.721 143.501 103.553C143.568 103.61 143.635 103.657 143.701 103.685C143.768 103.714 143.834 103.761 143.901 103.818C144.681 104.347 145.452 104.791 146.195 105.141C146.261 105.169 146.318 105.197 146.375 105.226C146.385 105.226 146.385 105.226 146.394 105.235C146.518 105.292 146.642 105.339 146.766 105.387C147.508 105.698 148.593 106.086 149.649 105.273H149.659C149.668 105.264 149.687 105.245 149.697 105.235C149.773 105.169 149.849 105.103 149.925 105.027C149.925 105.018 149.935 105.018 149.935 105.018C151.572 103.553 153.18 102.05 154.779 100.547C156.739 98.7138 158.709 96.8802 160.688 95.0655C160.831 94.9426 160.964 94.8103 161.107 94.6874C160.993 94.9615 160.879 95.245 160.765 95.5191C160.117 97.1164 159.661 98.4302 159.404 99.451C159.147 100.472 159.27 101.389 159.794 102.116C160.289 102.816 161.031 103.515 161.935 104.215C162.849 104.904 163.848 105.547 164.952 106.143C166.056 106.729 167.226 107.248 168.454 107.702C169.682 108.156 170.852 108.458 171.956 108.6C175.04 108.08 177.609 106.502 179.979 104.697C182.967 102.419 185.755 99.6305 188.468 96.8896C187.497 98.7137 186.707 100.283 186.089 101.587C185.47 102.891 185.28 103.704 185.365 103.969C185.546 104.545 185.993 105.443 186.869 106.398C187.744 107.352 188.763 108.26 189.924 109.139C191.085 110.008 192.246 110.774 193.407 111.407C194.568 112.05 195.529 112.39 196.214 112.485C196.528 112.532 196.757 112.56 196.89 112.532C196.957 112.494 197.023 112.466 197.08 112.447C197.147 112.428 197.204 112.409 197.271 112.362C199.041 111.039 200.744 109.621 202.438 108.194C204.389 106.558 206.35 104.923 208.319 103.307C210.28 101.71 212.24 100.094 214.191 98.4964C215.857 97.1259 217.56 95.7743 219.33 94.5173C219.502 94.4133 219.54 94.1581 219.406 93.7423ZM91.6925 69.5937C91.683 69.6882 91.6735 69.7827 91.6545 69.8772C91.5212 70.6617 91.0359 72.2117 89.3419 74.5368C87.3434 77.2116 85.3544 79.8864 83.3749 82.58C81.386 85.2832 79.3875 87.9957 77.3699 90.6611C75.4666 93.1752 73.5061 95.7082 71.5172 98.1183C69.7566 100.245 67.8723 102.324 65.8072 104.215C65.6739 104.337 65.693 104.148 65.8547 103.647C66.0165 103.146 66.264 102.447 66.5875 101.549C66.9111 100.651 67.3203 99.6494 67.8057 98.5436C68.291 97.4378 68.7954 96.3509 69.3188 95.2734C71.5172 90.9163 73.8297 86.6064 76.2945 82.4383C78.6071 78.5348 81.0814 74.6597 83.7651 70.9641C85.0689 69.5181 86.1919 68.4973 87.134 67.9019C88.0762 67.297 88.9137 66.9756 89.6274 66.9378C90.3412 66.8905 90.8836 67.1363 91.2452 67.6467C91.5593 68.1003 91.683 68.6674 91.6925 69.2912C91.702 69.2818 91.7116 69.3857 91.6925 69.5937ZM119.595 94.4417C119.005 95.3018 118.415 96.0579 117.835 96.71C116.464 97.9576 115.284 98.8366 114.304 99.3564C113.324 99.8763 112.506 100.141 111.858 100.15C111.135 100.16 110.65 99.9046 110.393 99.3659C110.136 98.8366 110.031 98.1372 110.193 97.4283C110.288 97.0125 110.45 96.6722 110.583 96.4548C110.65 96.3981 110.745 96.2658 110.878 96.0484C111.792 94.6874 113.229 93.7328 115.189 93.2035C117.302 92.6364 119.424 92.1166 121.556 91.6157C120.842 92.6459 120.185 93.5816 119.595 94.4417ZM197.556 77.0604C197.556 77.0793 197.556 77.0982 197.556 77.1265C197.547 77.3155 197.518 77.4951 197.451 77.6653C197.261 78.4119 196.719 79.7351 195.225 81.5309L195.234 81.5404C193.245 83.7237 191.285 85.9164 189.334 88.1281C187.364 90.3492 185.384 92.5608 183.376 94.7347C181.482 96.7856 179.541 98.8555 177.552 100.755C175.763 102.466 173.907 103.988 171.861 105.453C171.728 105.547 171.747 105.358 171.909 104.895C172.07 104.432 172.318 103.789 172.641 102.976C172.965 102.164 173.374 101.256 173.86 100.273C174.345 99.2903 174.849 98.3262 175.363 97.3716C177.552 93.5721 179.846 89.8199 182.31 86.2472C184.594 82.9297 187.088 79.6973 189.724 76.5972C191.018 75.4725 192.132 74.7258 193.064 74.3572C193.997 73.9886 194.825 73.8658 195.529 73.9981C196.233 74.1304 196.766 74.499 197.128 75.1039C197.461 75.671 197.575 76.3231 197.566 76.9942C197.556 76.9847 197.556 77.0131 197.556 77.0604Z" fill="url(#paint7_linear)"/>
<path d="M65.7407 47.4103C65.2268 47.76 64.8175 48.3743 64.4559 48.8753C64.0848 49.3951 63.7231 49.9149 63.39 50.4631C62.6573 51.6634 62.0196 52.9205 61.4296 54.1964C60.8967 55.359 60.4494 56.5593 60.0687 57.7786C59.7737 58.7143 59.4311 59.6972 59.3645 60.6802C59.355 60.907 59.355 61.1244 59.3455 61.3512C59.3645 60.8314 59.3645 60.9354 59.3359 61.6726C59.355 62.1546 59.4216 62.6272 59.5834 63.0903C59.669 63.3455 59.7642 63.6196 59.9736 63.7897C60.4779 64.2056 60.8205 63.7046 61.087 63.1754C60.9443 63.3833 60.8015 63.6007 60.6683 63.8086C61.2678 63.1943 61.382 62.3814 61.5914 61.5875C61.658 61.3418 61.658 61.3323 61.7532 61.011C61.8388 60.7274 61.934 60.4344 62.0292 60.1509C62.3813 59.0829 62.7905 58.0337 63.2473 57.0035C63.3044 56.8807 63.3615 56.7483 63.4186 56.6255C63.4376 56.5782 63.4662 56.5215 63.4852 56.4743C63.4281 56.5971 63.4281 56.5971 63.4757 56.4932C63.5994 56.238 63.7231 55.9922 63.8468 55.7465C64.1133 55.2267 64.3893 54.7068 64.6843 54.2059C65.3219 53.1001 66.0547 52.0321 66.5876 50.8695C66.9017 50.1796 66.8541 49.0737 66.6447 48.3554C66.5686 48.0057 66.2641 47.0511 65.7407 47.4103Z" fill="url(#paint8_linear)"/>
<path d="M47.6024 87.2192C47.8593 87.6351 48.2685 87.9376 48.6302 88.2684C48.7729 88.3912 48.9157 88.5236 49.0584 88.6464C49.1536 88.7315 49.2487 88.8166 49.3439 88.9016C49.1726 88.8166 49.087 88.6559 49.0965 88.4007C49.0489 87.7769 49.0013 87.1531 48.9537 86.5293C48.9537 86.5765 48.9537 86.6238 48.9442 86.6616C49.0203 86.3024 49.0965 85.9338 49.1726 85.5747C49.2012 85.5274 49.2297 85.4801 49.2583 85.4234C49.1631 85.5369 49.1441 85.5747 49.1916 85.518C49.2297 85.4801 49.0679 85.6503 49.0394 85.6786C48.8681 85.8582 48.6873 86.0283 48.516 86.2079C48.1353 86.5954 47.7641 86.983 47.374 87.3516C47.0028 87.7013 46.6126 88.0415 46.2415 88.3912C45.699 88.9016 45.128 89.3837 44.9091 90.1209C44.6998 90.8676 44.6236 91.6142 44.7283 92.3893C44.8045 92.928 44.9377 93.6369 45.404 93.996C45.4421 94.0244 45.4801 94.0527 45.5182 94.0811C45.699 94.1945 45.8703 94.1945 46.0416 94.0716C46.803 93.5802 47.4501 92.9658 48.0972 92.3326C48.8015 91.6426 49.4962 90.9243 50.0957 90.1303C50.5811 89.4971 50.7904 88.7031 50.8571 87.9187C50.9427 86.9357 50.8856 85.6314 50.229 84.8374C49.953 84.5066 49.5152 84.346 49.1441 84.138C48.7729 83.9395 48.3447 83.5993 47.9164 83.6182C47.374 83.6371 47.2217 84.6862 47.2027 85.0548C47.136 85.7826 47.2027 86.586 47.6024 87.2192Z" fill="url(#paint9_linear)"/>
<path d="M103.171 67.1087C102.752 67.1182 102.391 67.6758 102.153 67.9688C101.867 68.3185 101.601 68.6872 101.344 69.0558C100.811 69.8024 100.297 70.5586 99.7925 71.3241C98.7552 72.8931 97.813 74.5282 96.9184 76.1822C96.2618 77.4204 95.529 78.6208 95.4909 80.0479C95.4719 80.615 95.51 81.1821 95.6432 81.7303C95.7384 82.1084 95.9668 82.8362 96.4616 82.874C97.0802 82.9307 97.499 81.6736 97.7179 81.2577C98.5744 79.547 99.488 77.8835 100.43 76.2106C100.963 75.256 101.515 74.3108 102.077 73.3846C102.752 72.2693 103.533 71.1918 103.847 69.9159C103.989 69.3204 103.951 68.6115 103.799 68.0255C103.732 67.7609 103.561 67.0993 103.171 67.1087Z" fill="url(#paint10_linear)"/>
<path d="M143.541 63.6288C142.541 64.4227 141.59 65.2167 140.771 66.1996C140.381 66.6722 140.01 67.1542 139.667 67.6646C138.906 68.8082 138.611 70.0936 138.811 71.4641C138.868 71.8705 139.191 73.4583 139.924 72.9763C139.991 72.9007 140.057 72.8251 140.124 72.7495C140.067 73.0614 140.105 73.1086 140.238 72.8913C140.381 72.7873 140.476 72.5888 140.571 72.4376C140.904 71.8989 141.238 71.3601 141.599 70.8403C142.361 69.7628 143.131 68.657 144.054 67.7024C144.664 67.0691 144.664 65.8877 144.549 65.0749C144.511 64.7724 144.188 63.1184 143.541 63.6288Z" fill="url(#paint11_linear)"/>
<path d="M128.646 90.5568C129.007 90.9633 129.331 91.3886 129.616 91.8517C129.635 91.8801 129.807 92.1731 129.712 92.0029C129.731 92.0407 129.921 92.5417 129.845 92.2676C129.759 91.9935 129.75 91.7383 129.74 91.4453C129.702 91.2185 129.721 90.9822 129.788 90.7648C129.864 90.4245 129.873 90.3678 129.797 90.6136C129.75 90.7175 129.693 90.8026 129.778 90.6514C129.712 90.7648 129.645 90.8782 129.569 90.9822C129.445 91.1617 129.35 91.2657 129.236 91.3886C129.045 91.5871 128.855 91.7666 128.665 91.9651C128.246 92.3999 128.094 92.8536 127.932 93.4301C127.675 94.3564 127.761 96.0198 128.56 96.7004C128.598 96.7287 128.627 96.7571 128.665 96.7854C128.846 96.8988 129.017 96.8894 129.188 96.776C130.787 95.4338 131.567 93.6475 131.529 91.5587C131.51 90.4907 131.329 89.2242 130.654 88.3546C130.245 87.8254 129.674 87.6174 129.103 87.315C128.56 87.0314 128.379 88.0427 128.332 88.3546C128.237 88.969 128.189 90.0559 128.646 90.5568Z" fill="url(#paint12_linear)"/>
<path d="M172.386 51.274C172.072 50.9432 171.386 51.8127 171.177 52.0206C170.863 52.3514 170.558 52.6917 170.254 53.0319C169.597 53.7692 168.988 54.5442 168.398 55.3381C167.047 57.1812 166.057 59.2038 165.876 61.51C165.81 62.3417 165.876 63.2963 166.247 64.0619C166.485 64.5439 166.866 64.7518 167.218 64.232C167.504 63.8067 167.723 63.2963 167.894 62.8237C167.97 62.6158 167.77 63.0789 167.922 62.767C167.979 62.6536 168.037 62.5307 168.094 62.4173C168.198 62.2094 168.313 62.0015 168.427 61.7935C168.931 60.8767 169.512 60.0166 170.14 59.1754C170.749 58.3626 171.453 57.5214 172.091 56.6235C172.566 55.9525 173.042 55.2909 173.195 54.478C173.328 53.7503 173.347 52.8996 173.166 52.1813C173.109 51.945 173.042 51.6804 172.909 51.4819C172.861 51.359 172.776 51.2834 172.652 51.2551C172.566 51.1794 172.481 51.1889 172.386 51.274Z" fill="url(#paint13_linear)"/>
<path d="M207.815 81.122C208.51 81.1315 209.014 81.3678 209.576 81.7553C209.538 80.262 209.5 78.7592 209.462 77.2658C208.605 77.9369 207.863 78.8159 207.149 79.6287C206.397 80.4888 205.693 81.3772 205.008 82.2846C204.294 83.2108 203.59 84.1465 202.933 85.12C202.61 85.5926 202.296 86.0746 201.991 86.5661C201.829 86.8213 201.677 87.0765 201.544 87.3506C201.22 87.9933 201.125 88.6549 201.068 89.3638C201.02 89.997 201.068 90.6586 201.258 91.2635C201.306 91.462 201.382 91.651 201.487 91.8212C201.572 91.9913 201.706 92.0858 201.886 92.1142C201.953 92.1425 202.01 92.1709 202.077 92.1992C202.286 92.1614 202.438 92.0386 202.524 91.8401C203.771 90.1388 204.846 88.3147 206.112 86.6228C207.406 84.8838 208.9 83.2864 210.176 81.5285C210.394 81.226 210.432 80.7629 210.471 80.4037C210.528 79.9028 210.537 79.383 210.471 78.882C210.404 78.3811 210.299 77.3131 209.662 77.1902C209.024 77.0673 208.339 77.1335 207.701 77.2564C207.054 77.3792 207.073 78.7497 207.092 79.2128C207.111 79.676 207.149 80.1485 207.32 80.5833C207.416 80.7629 207.549 81.1126 207.815 81.122Z" fill="url(#paint14_linear)"/>
<g opacity="0.4">
<path d="M145.073 85.5379C144.064 86.587 143.36 87.9008 142.636 89.1484C142.256 89.81 141.875 90.4811 141.485 91.1427C141.085 91.8326 140.657 92.5226 140.409 93.2787C139.667 95.4998 139.81 98.4298 141.618 100.122C142.151 100.623 142.732 101.057 143.388 101.379C143.702 101.53 144.026 101.653 144.359 101.757C144.939 101.936 145.13 101.908 145.701 101.709C146.034 101.596 146.196 101.01 146.281 100.726C146.443 100.207 146.519 99.6301 146.491 99.0914C146.453 98.2218 146.329 97.0782 145.568 96.5111C145.13 96.1898 144.625 96.0858 144.131 95.8684C143.664 95.6699 143.226 95.4147 142.817 95.1028C142.636 94.9705 142.484 94.8287 142.341 94.6586C142.294 94.5925 142.113 94.2522 142.227 94.5074C142.437 94.9894 142.551 95.2257 142.541 95.8873C142.541 95.8495 142.332 97.2861 142.494 96.7096C142.341 97.2767 142.446 96.8797 142.503 96.7474C142.608 96.4828 142.741 96.2276 142.865 95.9724C143.398 94.8949 143.95 93.8269 144.464 92.74C145.025 91.5585 145.625 90.4054 146.034 89.1578C146.3 88.3356 146.357 87.3432 146.11 86.502C146.024 86.2373 145.558 85.037 145.073 85.5379Z" fill="url(#paint15_linear)"/>
<path d="M187.896 104.159C188.106 104.801 188.353 105.246 188.8 105.747C189.095 106.077 189.438 106.351 189.79 106.625C190.399 107.098 191.027 107.533 191.655 107.977C192.264 108.421 192.883 108.865 193.492 109.3C193.797 109.518 194.101 109.735 194.406 109.962C194.587 110.094 194.758 110.217 194.929 110.349C195.005 110.406 195.081 110.463 195.158 110.519C194.777 110.132 194.587 109.64 194.577 109.036C194.587 108.289 194.596 107.533 194.615 106.786C194.606 106.815 194.596 106.833 194.596 106.862C194.824 106.408 195.062 105.954 195.291 105.501C195.272 105.52 195.243 105.548 195.224 105.567C194.396 106.351 194.358 107.703 194.463 108.762C194.52 109.3 194.606 109.915 194.872 110.397C195.015 110.661 195.386 111.342 195.786 111.2C196.138 111.087 196.29 111.02 196.518 110.699C196.88 110.179 196.994 109.47 197.042 108.856C197.127 107.722 196.975 106.191 196.166 105.293C195.805 104.896 195.3 104.612 194.863 104.319C194.453 104.045 194.044 103.781 193.635 103.516C192.826 102.996 191.988 102.514 191.161 102.023C190.761 101.786 190.371 101.541 189.961 101.333C189.514 101.096 189.114 101.049 188.639 100.926C188.562 100.955 188.477 100.983 188.401 101.021C187.649 101.824 187.563 103.128 187.896 104.159Z" fill="url(#paint16_linear)"/>
<path d="M82.0246 99.12C82.2911 100.103 82.824 100.661 83.709 101.124C84.3181 101.445 84.9557 101.729 85.5743 102.031C86.8115 102.636 88.0582 103.222 89.3048 103.798C89.6855 103.978 90.0186 103.808 90.247 103.477C90.9132 102.485 90.9417 101.18 90.6848 100.046C90.5135 99.2806 90.2565 98.4489 89.4952 98.0992C88.7814 97.7779 88.0772 97.4565 87.3634 97.1446C85.9455 96.5303 84.5275 95.8119 83.0334 95.4055C83.1285 95.4339 83.2332 95.4622 83.3284 95.4906C83.2332 95.4528 83.1571 95.3961 83.0714 95.3677C82.4433 95.122 82.1578 95.8119 82.0151 96.3129C81.7581 97.2013 81.7867 98.2221 82.0246 99.12Z" fill="url(#paint17_linear)"/>
<path d="M55.7588 101.889C55.9301 102.286 56.1299 102.636 56.482 102.891C56.7009 103.052 57.015 103.09 57.2719 103.165C57.1767 103.137 57.0721 103.109 56.9769 103.08C57.9095 103.364 58.8041 103.713 59.7082 104.082C60.1269 104.252 60.5456 104.432 60.9549 104.63C61.4592 104.867 61.9256 105.178 62.4775 105.292C62.8487 105.368 63.1913 104.678 63.2769 104.47C63.4673 103.959 63.5339 103.42 63.5529 102.882C63.5815 101.852 63.4673 100.613 62.6488 99.8761C62.173 99.4414 61.4117 99.1862 60.8216 98.9404C60.1459 98.6474 59.4703 98.4112 58.766 98.2127C58.4425 98.1182 58.1189 98.0331 57.7953 97.948C57.4908 97.8724 57.1196 97.7401 56.8151 97.7306C56.2727 97.7212 55.9872 98.0993 55.7778 98.534C55.2734 99.4981 55.34 100.906 55.7588 101.889Z" fill="url(#paint18_linear)"/>
<path d="M18.1004 106.226C17.4723 105.735 16.8823 105.186 16.2351 104.704C15.9401 104.487 15.6451 104.27 15.3691 104.033C14.998 103.721 15.5309 104.213 15.1883 103.863C15.036 103.712 14.8933 103.57 14.7505 103.41C14.6458 103.296 14.5507 103.173 14.446 103.06C14.3223 102.89 14.3223 102.899 14.446 103.088C14.7029 103.74 14.7696 104.402 14.6458 105.045C14.6078 105.253 14.6078 105.253 14.6554 105.035C14.6839 104.922 14.7125 104.808 14.741 104.695C14.7886 104.525 14.8267 104.345 14.8742 104.175C15.0836 103.372 15.3025 102.568 15.5404 101.765C15.588 101.595 15.6451 101.425 15.6927 101.255C15.7688 101.018 15.7593 101.028 15.6832 101.292C15.7212 101.179 15.7593 101.066 15.7878 100.952C15.902 100.584 16.0258 100.215 16.1495 99.8463C16.4064 99.0902 16.6729 98.3341 16.9489 97.578C17.2344 96.7935 17.5389 96.0279 17.8625 95.2624C18.0243 94.8749 18.1956 94.4968 18.3573 94.1187C18.6428 93.4477 18.7761 92.7577 18.8617 92.03C18.9379 91.4345 18.7951 88.5235 17.5579 89.1189C17.025 89.3741 16.8252 89.9979 16.5968 90.5083C16.4064 90.943 16.2161 91.3778 16.0353 91.822C15.6736 92.701 15.312 93.5895 14.9789 94.4873C14.2747 96.3682 13.6656 98.2869 13.1327 100.224C12.4475 102.691 11.6386 105.772 13.6085 107.88C14.2081 108.523 14.9028 109.137 15.6451 109.619C15.9877 109.837 16.3303 109.997 16.7205 110.111C17.1487 110.234 17.5389 110.262 17.9767 110.29C18.2717 110.309 18.5191 109.874 18.5953 109.666C18.7475 109.288 18.8046 108.882 18.8141 108.476C18.8332 107.729 18.7475 106.718 18.1004 106.226Z" fill="url(#paint19_linear)"/>
<path d="M161.592 101.169C161.802 102.152 162.297 102.728 163.125 103.229C163.705 103.579 164.305 103.881 164.885 104.212C166.056 104.864 167.236 105.507 168.416 106.14C168.778 106.339 169.111 106.188 169.349 105.866C170.043 104.912 170.129 103.626 169.939 102.492C169.815 101.726 169.606 100.895 168.882 100.517C168.207 100.167 167.54 99.8078 166.855 99.477C165.504 98.8059 164.172 98.0309 162.734 97.5584C162.83 97.5867 162.925 97.6245 163.01 97.6529C162.925 97.6151 162.849 97.5584 162.763 97.5111C162.163 97.237 161.859 97.9081 161.697 98.3995C161.421 99.2596 161.393 100.271 161.592 101.169Z" fill="url(#paint20_linear)"/>
<path d="M115.961 102.346C115.275 102.204 115.412 101.871 115.55 101.254C115.824 100.922 116.693 100.59 117.563 99.6406C118.432 98.6913 119.85 98.7388 121.543 99.1185C123.236 99.4982 125.203 100.068 124.928 100.59C124.654 101.112 123.373 101.966 122.687 102.346C122 102.726 120.902 102.726 119.484 102.821C118.066 102.916 116.648 102.488 115.961 102.346Z" fill="url(#paint21_linear)"/>
</g>
</g>
<defs>
<linearGradient id="paint0_linear" x1="78.0298" y1="53.0453" x2="78.0298" y2="9.58334" gradientUnits="userSpaceOnUse">
<stop offset="0.108212" stop-color="#B3C2D0"/>
<stop offset="0.5084" stop-color="white"/>
</linearGradient>
<linearGradient id="paint1_linear" x1="120.689" y1="51.3359" x2="120.689" y2="9.10563" gradientUnits="userSpaceOnUse">
<stop offset="0.0957621" stop-color="#B3C2D0"/>
<stop offset="0.5084" stop-color="white"/>
</linearGradient>
<linearGradient id="paint2_linear" x1="157.729" y1="54.2057" x2="157.729" y2="10.5509" gradientUnits="userSpaceOnUse">
<stop offset="0.104213" stop-color="#B3C2D0"/>
<stop offset="0.5084" stop-color="white"/>
</linearGradient>
<linearGradient id="paint3_linear" x1="195.821" y1="62.7639" x2="195.821" y2="14.0965" gradientUnits="userSpaceOnUse">
<stop offset="0.112744" stop-color="#B3C2D0"/>
<stop offset="0.5084" stop-color="white"/>
</linearGradient>
<linearGradient id="paint4_linear" x1="37.0592" y1="61.0777" x2="37.0592" y2="14.6594" gradientUnits="userSpaceOnUse">
<stop offset="0.127158" stop-color="#B3C2D0"/>
<stop offset="0.5084" stop-color="white"/>
</linearGradient>
<linearGradient id="paint5_linear" x1="72.9796" y1="18.4304" x2="72.9796" y2="30.5428" gradientUnits="userSpaceOnUse">
<stop/>
<stop offset="1" stop-opacity="0"/>
</linearGradient>
<linearGradient id="paint6_linear" x1="39.7487" y1="44.5127" x2="39.7487" y2="112.607" gradientUnits="userSpaceOnUse">
<stop stop-color="#FF1469"/>
<stop offset="1" stop-color="#AB1D1D"/>
</linearGradient>
<linearGradient id="paint7_linear" x1="136.349" y1="48.2749" x2="136.349" y2="112.543" gradientUnits="userSpaceOnUse">
<stop stop-color="#FF1469"/>
<stop offset="1" stop-color="#AB1D1D"/>
</linearGradient>
<linearGradient id="paint8_linear" x1="63.0742" y1="47.3308" x2="63.0742" y2="63.9438" gradientUnits="userSpaceOnUse">
<stop stop-color="white"/>
<stop offset="1" stop-color="white" stop-opacity="0"/>
</linearGradient>
<linearGradient id="paint9_linear" x1="47.7848" y1="83.6174" x2="47.7848" y2="94.165" gradientUnits="userSpaceOnUse">
<stop stop-color="white"/>
<stop offset="1" stop-color="white" stop-opacity="0"/>
</linearGradient>
<linearGradient id="paint10_linear" x1="99.7111" y1="67.1086" x2="99.7111" y2="82.8758" gradientUnits="userSpaceOnUse">
<stop stop-color="white"/>
<stop offset="1" stop-color="white" stop-opacity="0"/>
</linearGradient>
<linearGradient id="paint11_linear" x1="141.679" y1="63.5317" x2="141.679" y2="73.0665" gradientUnits="userSpaceOnUse">
<stop stop-color="white"/>
<stop offset="1" stop-color="white" stop-opacity="0"/>
</linearGradient>
<linearGradient id="paint12_linear" x1="129.667" y1="87.2654" x2="129.667" y2="96.8659" gradientUnits="userSpaceOnUse">
<stop stop-color="white"/>
<stop offset="1" stop-color="white" stop-opacity="0"/>
</linearGradient>
<linearGradient id="paint13_linear" x1="169.576" y1="51.1997" x2="169.576" y2="64.5357" gradientUnits="userSpaceOnUse">
<stop stop-color="white"/>
<stop offset="1" stop-color="white" stop-opacity="0"/>
</linearGradient>
<linearGradient id="paint14_linear" x1="205.784" y1="77.1248" x2="205.784" y2="92.1992" gradientUnits="userSpaceOnUse">
<stop stop-color="white"/>
<stop offset="1" stop-color="white" stop-opacity="0"/>
</linearGradient>
<linearGradient id="paint15_linear" x1="143.242" y1="85.417" x2="143.242" y2="101.876" gradientUnits="userSpaceOnUse">
<stop stop-color="#2B0101" stop-opacity="0"/>
<stop offset="1" stop-color="#330202"/>
</linearGradient>
<linearGradient id="paint16_linear" x1="192.387" y1="100.926" x2="192.387" y2="111.219" gradientUnits="userSpaceOnUse">
<stop stop-color="#2B0101" stop-opacity="0"/>
<stop offset="1" stop-color="#330202"/>
</linearGradient>
<linearGradient id="paint17_linear" x1="86.3344" y1="95.3164" x2="86.3344" y2="103.871" gradientUnits="userSpaceOnUse">
<stop stop-color="#2B0101" stop-opacity="0"/>
<stop offset="1" stop-color="#330202"/>
</linearGradient>
<linearGradient id="paint18_linear" x1="59.4893" y1="97.7305" x2="59.4893" y2="105.298" gradientUnits="userSpaceOnUse">
<stop stop-color="#2B0101" stop-opacity="0"/>
<stop offset="1" stop-color="#330202"/>
</linearGradient>
<linearGradient id="paint19_linear" x1="15.6248" y1="89.0391" x2="15.6248" y2="110.291" gradientUnits="userSpaceOnUse">
<stop stop-color="#2B0101" stop-opacity="0"/>
<stop offset="1" stop-color="#330202"/>
</linearGradient>
<linearGradient id="paint20_linear" x1="165.745" y1="97.4475" x2="165.745" y2="106.229" gradientUnits="userSpaceOnUse">
<stop stop-color="#2B0101" stop-opacity="0"/>
<stop offset="1" stop-color="#330202"/>
</linearGradient>
<linearGradient id="paint21_linear" x1="120.196" y1="98.8647" x2="120.196" y2="102.834" gradientUnits="userSpaceOnUse">
<stop stop-color="#2B0101" stop-opacity="0"/>
<stop offset="1" stop-color="#330202"/>
</linearGradient>
<clipPath id="clip0">
<rect width="229" height="122" fill="white"/>
</clipPath>
</defs>
</svg>
