<svg width="25" height="25" viewBox="0 0 25 25" fill="none" xmlns="http://www.w3.org/2000/svg">
<path d="M12.5 25C19.4036 25 25 19.4036 25 12.5C25 5.59644 19.4036 0 12.5 0C5.59644 0 0 5.59644 0 12.5C0 19.4036 5.59644 25 12.5 25Z" fill="#F0F0F0"/>
<path d="M24.9988 12.4999C24.9988 7.54414 22.1148 3.26211 17.9336 1.24023V23.7595C22.1148 21.7377 24.9988 17.4557 24.9988 12.4999Z" fill="#D80027"/>
<path d="M0 12.4999C0 17.4557 2.88403 21.7377 7.06523 23.7596V1.24023C2.88403 3.26211 0 7.54414 0 12.4999Z" fill="#6DA544"/>
<path d="M9.24023 12.5C9.24023 14.301 10.7002 15.7609 12.5011 15.7609C14.3021 15.7609 15.762 14.301 15.762 12.5V11.4131H9.24023V12.5Z" fill="#6DA544"/>
<path d="M16.848 10.3262H13.5871C13.5871 9.72593 13.1005 9.23926 12.5002 9.23926C11.8999 9.23926 11.4132 9.72593 11.4132 10.3262H8.15234C8.15234 10.9266 8.67524 11.4132 9.27549 11.4132H9.2393C9.2393 12.0135 9.72593 12.5001 10.3263 12.5001C10.3263 13.1005 10.8129 13.5871 11.4132 13.5871H13.5871C14.1875 13.5871 14.6741 13.1005 14.6741 12.5001C15.2745 12.5001 15.7611 12.0135 15.7611 11.4132H15.7248C16.3252 11.4132 16.848 10.9266 16.848 10.3262Z" fill="#FF9811"/>
</svg>
