<svg width="25" height="25" viewBox="0 0 25 25" fill="none" xmlns="http://www.w3.org/2000/svg">
<g clip-path="url(#clip0)">
<path d="M12.5 25C19.4036 25 25 19.4036 25 12.5C25 5.59644 19.4036 0 12.5 0C5.59644 0 0 5.59644 0 12.5C0 19.4036 5.59644 25 12.5 25Z" fill="#F0F0F0"/>
<path d="M3.66116 21.3389C-1.22039 16.4573 -1.22039 8.54273 3.66116 3.66113C3.66082 3.66167 10.8696 12.5 10.8696 12.5L3.66116 21.3389Z" fill="black"/>
<path d="M10.8699 12.4999L1.65815 6.2749C1.37256 6.77134 1.1207 7.2895 0.904297 7.82583L5.56782 12.4999L0.904443 17.1742C1.12065 17.7102 1.37227 18.228 1.65767 18.7241L10.8699 12.4999Z" fill="#FFDA44"/>
<path d="M24.895 10.8699H10.8701L3.66187 3.66162C2.88511 4.43838 2.21025 5.31685 1.65869 6.27539L7.87154 12.5003L1.6582 18.7244C2.20977 19.6832 2.88491 20.562 3.66187 21.3389L10.8701 14.1307H24.895C24.9645 13.597 25.0008 13.0529 25.0008 12.5003C25.0008 11.9477 24.9645 11.4036 24.895 10.8699Z" fill="#6DA544"/>
<path d="M4.88867 22.4157C6.99653 24.0359 9.63506 24.9998 12.4991 24.9998C18.2745 24.9998 23.1341 21.0828 24.5685 15.7607H11.5437L4.88867 22.4157Z" fill="#0052B4"/>
<path d="M24.5685 9.23911C23.1341 3.91704 18.2745 0 12.4991 0C9.63506 0 6.99653 0.963916 4.88867 2.58413L11.5437 9.23911H24.5685Z" fill="#D80027"/>
</g>
<defs>
<clipPath id="clip0">
<rect width="25" height="25" fill="white"/>
</clipPath>
</defs>
</svg>
